<?xml version="1.0" encoding="UTF-8" standalone="no"?>
<!-- Created with Inkscape (http://www.inkscape.org/) -->
<svg xmlns:inkscape="http://www.inkscape.org/namespaces/inkscape" xmlns:sodipodi="http://sodipodi.sourceforge.net/DTD/sodipodi-0.dtd" xmlns="http://www.w3.org/2000/svg" xmlns:svg="http://www.w3.org/2000/svg" width="32mm" height="19mm" viewBox="0 0 120.94488 71.811025" version="1.1" id="svg5" inkscape:version="1.2.2 (b0a8486541, 2022-12-01)" sodipodi:docname="AISLER_Cloud-only.svg" inkscape:export-filename="/home/patrick/Documents/HQ - Documents/Design/tshirt/2022-EpicEmployees/design_1_make_hardware_less_hard.png" inkscape:export-xdpi="160" inkscape:export-ydpi="160">
  
  <defs id="defs2"/>
  <g inkscape:label="Layer 1" inkscape:groupmode="layer" id="layer1">
    <path style="fill:#000000;stroke-width:0.130788" d="m 36.328947,70.898404 c -18.21564,-0.0811 -17.387,-0.0485 -20.3376,-0.80003 -7.8593708,-2.00187 -13.9703705,-8.12364 -15.65073046,-15.67826 -0.428,-1.92413 -0.43204,-5.57872 -0.008,-7.48875 1.64443996,-7.41252 6.82206966,-13.21942 13.89336046,-15.58197 0.75533,-0.25236 1.62473,-0.49877 1.93204,-0.54759 0.30732,-0.0488 0.58436,-0.13025 0.61565,-0.18084 0.0313,-0.0507 0.15157,-0.5579 0.26725,-1.12721 0.70622,-3.47567 2.56203,-7.33159 4.90446,-10.19033 0.91404,-1.11548 3.17904,-3.32223 4.24775,-4.13849 3.84346,-2.9355 8.64285,-4.89831 13.5159,-5.5275894 1.92929,-0.24914 5.35866,-0.26324 7.46773,-0.0306 l 1.49617,0.16495 0.85802,-0.7782795 c 4.48984,-4.07261 10.44102,-6.89015 16.68344,-7.89864 2.05771,-0.33244001 8.1175,-0.33133001 10.26689,0.001 8.1724,1.2669 15.1588,5.08624 20.146211,11.0134989 4.005042,4.75984 6.403842,11.08921 6.403842,16.89696 v 1.21227 l 0.35968,0.0819 c 3.15085,0.71721 5.3013,1.55386 7.58788,2.95208 5.84118,3.57186 9.6028,9.63763 9.92749,16.00849 0.13557,2.65947 -0.36294,4.85672 -1.76359,7.7742 -0.99907,2.08092 -3.69877,6.14705 -4.08137,6.14705 -0.0668,0 -3.80144,-3.50533 -8.29918,-7.78959 l -8.177702,-7.78959 v -2.85724 -2.85724 l 0.57757,-0.33848 c 0.72263,-0.42351 1.417712,-1.22692 1.874312,-2.1665 0.30902,-0.63588 0.35243,-0.88369 0.35601,-2.03208 0.004,-1.18638 -0.0317,-1.3808 -0.38028,-2.09261 -1.874102,-3.82654 -7.261353,-3.88103 -9.126523,-0.0924 -0.39836,0.80919 -0.42906,0.96531 -0.42906,2.18218 0,1.14279 0.0442,1.40476 0.34464,2.04567 0.4132,0.88121 1.10207,1.67248 1.88871,2.16946 0.48999,0.30953 0.57817,0.43002 0.57836,0.79027 1.4e-4,0.23379 -0.0444,0.42507 -0.0991,0.42507 -0.0546,0 -1.34939,-1.25116 -2.87736,-2.78037 l -2.77812,-2.78036 v -2.767 -2.76701 l 0.63799,-0.4683 c 2.5843,-1.89706 2.77577,-5.51543 0.40787,-7.7077 -1.04665,-0.969 -1.93027,-1.30926 -3.40004,-1.30926 -1.58272,0 -2.41724,0.34691 -3.54326,1.47293 -1.10442,1.10442 -1.46396,1.95798 -1.46499,3.47785 -0.001,1.60278 0.77803,3.21774 1.93134,4.00318 0.29555,0.20129 0.45968,0.41777 0.46025,0.60712 5.2e-4,0.16186 -0.0335,0.29426 -0.0755,0.29426 -0.0419,0 -1.65414,-1.50158 -3.58242,-3.33686 l -3.50596,-3.33688 0.24731,-0.79461 c 0.4451,-1.43006 0.24462,-2.93316 -0.56026,-4.20088 -0.52464,-0.82635 -1.16264,-1.36517 -2.19436,-1.85328 -0.76677,-0.36277 -0.97943,-0.40429 -2.03342,-0.39696 -0.89722,0.007 -1.3558,0.0782 -1.92869,0.30286 -0.97986,0.38417 -2.02957,1.35308 -2.59432,2.39463 -0.4317,0.79618 -0.44695,0.87341 -0.44695,2.26298 0,1.35949 0.0226,1.48198 0.4115,2.22553 0.5075,0.97037 1.51314,1.93108 2.50272,2.39088 0.63733,0.29613 0.93926,0.35017 2.04299,0.36559 l 1.29513,0.0181 1.25025,1.29281 c 0.68761,0.71104 2.49286,2.55817 4.01165,4.10476 2.76163,2.81219 29.441413,30.14108 31.609193,32.37827 0.63165,0.65187 1.14845,1.21569 1.14845,1.25293 0,0.13489 -4.67234,2.32572 -5.82007,2.72904 -0.64741,0.22748 -1.79508,0.56903 -2.55038,0.75895 l -1.37328,0.34534 -24.130473,0.007 c -13.27176,0.004 -31.6933,-0.0263 -40.93677,-0.0676 z m 55.06193,-0.0551 c 0,-0.0308 -1.20653,-1.45683 -2.68117,-3.16877 l -2.68117,-3.11261 0.003,-5.69213 0.003,-5.69214 0.48708,-0.2243 c 0.75741,-0.34875 1.72158,-1.38066 2.17341,-2.32606 0.36637,-0.76658 0.4063,-0.97225 0.4063,-2.09263 0,-1.07436 -0.0475,-1.34368 -0.35052,-1.99034 -0.48977,-1.04497 -1.40788,-1.97982 -2.44567,-2.4903 -0.80681,-0.39687 -0.9496,-0.42385 -2.23712,-0.42283 -1.28914,10e-4 -1.42517,0.0271 -2.17071,0.41582 -1.70972,0.89146 -2.6732,2.34381 -2.77422,4.18186 -0.10076,1.8316 0.63894,3.41798 2.03284,4.36023 l 0.67718,0.45776 0.005,3.66208 0.005,3.66208 -3.06655,-3.13892 -3.06652,-3.13894 -0.007,-6.01648 -0.007,-6.01649 0.58181,-0.30865 c 1.83055,-0.97112 2.96239,-3.272 2.57151,-5.22754 -0.33461,-1.67403 -1.37588,-3.02043 -2.89137,-3.73866 -0.76438,-0.36224 -0.97628,-0.40305 -2.09297,-0.40305 -1.11672,0 -1.3286,0.0409 -2.093,0.40305 -2.05827,0.97546 -3.26676,3.18982 -2.89443,5.30356 0.0798,0.45305 0.2982,1.13668 0.48536,1.5192 0.35157,0.71857 1.46202,1.92551 1.89928,2.06428 0.20988,0.0667 0.24765,0.20481 0.24256,0.88753 l -0.007,0.8086 -2.0866,-2.13946 -2.08661,-2.13947 v -3.30222 -3.30223 l -4.06115,-3.89374 c -3.99959,-3.83473 -4.05956,-3.89994 -3.95633,-4.30205 0.0575,-0.22458 0.10075,-0.85339 0.0959,-1.39736 -0.0288,-3.21255 -3.29817,-5.54036 -6.44064,-4.58587 -1.39098,0.42249 -2.4724,1.31909 -3.09588,2.56679 -1.59116,3.18407 0.57151,6.95083 4.14465,7.21883 0.52467,0.0394 1.16714,0.0123 1.42774,-0.0599 l 0.47382,-0.13147 3.41714,3.41898 3.41714,3.41894 v 3.08283 3.0828 l 3.98683,4.26236 3.9868,4.26237 0.035,3.32756 0.0349,3.32755 7.58574,7.40206 7.58572,7.40208 2.71386,0.007 c 1.49263,0.003 2.71386,-0.0196 2.71386,-0.0504 z m -8.29319,-19.37547 c -1.09626,-0.40168 -1.81851,-1.23306 -2.02326,-2.32904 -0.42264,-2.26232 1.66054,-4.18679 3.84474,-3.55182 1.38129,0.40155 2.28074,1.56401 2.28074,2.94769 0,2.13384 -2.12905,3.65612 -4.10222,2.93317 z m -10.48553,-11.29024 c -1.16732,-0.53016 -1.98835,-1.89083 -1.85498,-3.07413 0.30166,-2.67631 3.49436,-3.77624 5.3663,-1.84877 0.50121,0.51607 0.88067,1.41987 0.88067,2.09752 0,0.67765 -0.37946,1.58145 -0.88067,2.09751 -0.63209,0.65084 -1.37553,0.97027 -2.25824,0.97027 -0.42121,0 -0.94056,-0.10045 -1.25308,-0.2424 z m -19.4769,-14.24546 c -1.14172,-0.53681 -1.82166,-1.59619 -1.82016,-2.83587 0.003,-2.78708 3.36606,-4.11035 5.32348,-2.09486 1.34408,1.38395 1.04465,3.67852 -0.61383,4.70388 -0.82075,0.50742 -2.08214,0.60645 -2.88949,0.22685 z m 42.23205,14.35248 c -0.59933,-0.17392 -1.55999,-1.08215 -1.81272,-1.71377 -0.12136,-0.3032 -0.22058,-0.8516 -0.22058,-1.21863 0,-0.92903 0.33783,-1.67895 1.03131,-2.2894 0.96568,-0.85001 2.197611,-1.02243 3.378071,-0.47275 1.1195,0.52129 1.75491,1.5214 1.75491,2.76215 0,2.11006 -2.02105,3.54472 -4.130991,2.9324 z m -10.64441,-10.41318 c -1.28557,-0.67742 -1.89482,-1.98191 -1.58084,-3.38488 0.1408,-0.62922 0.28118,-0.86674 0.84111,-1.42327 0.42365,-0.42104 0.8711,-0.72679 1.21044,-0.82705 2.78484,-0.8228 5.11692,2.10744 3.61308,4.53984 -0.56546,0.91462 -1.3092,1.34687 -2.43658,1.4161 -0.83345,0.0512 -1.00462,0.0179 -1.64721,-0.32074 z m -14.04567,-3.89377 c -1.10036,-0.39223 -1.95013,-1.64779 -1.95013,-2.8814 0,-2.38329 2.66928,-3.85986 4.70378,-2.60202 2.07694,1.28407 1.91753,4.34286 -0.27965,5.366 -0.75516,0.35165 -1.69212,0.39612 -2.474,0.1174 z" id="path1829" sodipodi:nodetypes="ccccscccccsccssccscccccsccccssccssccsssccccssscscsscsssccsscssccssssccccccsccccsscscccscccccccsscscsscccccccsccsccccccccccccccccccsssccssssscscsssscscssscscsscccssscc"/>
  </g>
</svg>
