%TF.GenerationSoftware,KiCad,Pcbnew,7.0.10*%
%TF.CreationDate,2024-02-18T19:35:46+01:00*%
%TF.ProjectId,CSI2SPY22,43534932-5350-4593-9232-2e6b69636164,rev?*%
%TF.SameCoordinates,Original*%
%TF.FileFunction,Paste,Bot*%
%TF.FilePolarity,Positive*%
%FSLAX46Y46*%
G04 Gerber Fmt 4.6, Leading zero omitted, Abs format (unit mm)*
G04 Created by KiCad (PCBNEW 7.0.10) date 2024-02-18 19:35:46*
%MOMM*%
%LPD*%
G01*
G04 APERTURE LIST*
G04 Aperture macros list*
%AMRoundRect*
0 Rectangle with rounded corners*
0 $1 Rounding radius*
0 $2 $3 $4 $5 $6 $7 $8 $9 X,Y pos of 4 corners*
0 Add a 4 corners polygon primitive as box body*
4,1,4,$2,$3,$4,$5,$6,$7,$8,$9,$2,$3,0*
0 Add four circle primitives for the rounded corners*
1,1,$1+$1,$2,$3*
1,1,$1+$1,$4,$5*
1,1,$1+$1,$6,$7*
1,1,$1+$1,$8,$9*
0 Add four rect primitives between the rounded corners*
20,1,$1+$1,$2,$3,$4,$5,0*
20,1,$1+$1,$4,$5,$6,$7,0*
20,1,$1+$1,$6,$7,$8,$9,0*
20,1,$1+$1,$8,$9,$2,$3,0*%
G04 Aperture macros list end*
%ADD10C,0.100000*%
%ADD11RoundRect,0.200000X-0.275000X0.200000X-0.275000X-0.200000X0.275000X-0.200000X0.275000X0.200000X0*%
%ADD12RoundRect,0.140000X-0.140000X-0.170000X0.140000X-0.170000X0.140000X0.170000X-0.140000X0.170000X0*%
%ADD13RoundRect,0.225000X-0.225000X-0.250000X0.225000X-0.250000X0.225000X0.250000X-0.225000X0.250000X0*%
%ADD14R,0.850000X0.300000*%
%ADD15R,0.300000X0.850000*%
%ADD16R,1.100000X0.300000*%
%ADD17R,3.100000X2.300000*%
%ADD18RoundRect,0.140000X0.140000X0.170000X-0.140000X0.170000X-0.140000X-0.170000X0.140000X-0.170000X0*%
%ADD19R,0.340000X0.700000*%
%ADD20RoundRect,0.150000X-0.150000X0.512500X-0.150000X-0.512500X0.150000X-0.512500X0.150000X0.512500X0*%
%ADD21RoundRect,0.140000X0.170000X-0.140000X0.170000X0.140000X-0.170000X0.140000X-0.170000X-0.140000X0*%
G04 APERTURE END LIST*
%TO.C,IC1*%
D10*
X15850000Y-15000000D02*
X15500000Y-15350000D01*
X15200000Y-15350000D01*
X15200000Y-13700000D01*
X15850000Y-13700000D01*
X15850000Y-15000000D01*
G36*
X15850000Y-15000000D02*
G01*
X15500000Y-15350000D01*
X15200000Y-15350000D01*
X15200000Y-13700000D01*
X15850000Y-13700000D01*
X15850000Y-15000000D01*
G37*
X15850000Y-12000000D02*
X15850000Y-13300000D01*
X15200000Y-13300000D01*
X15200000Y-11650000D01*
X15500000Y-11650000D01*
X15850000Y-12000000D01*
G36*
X15850000Y-12000000D02*
G01*
X15850000Y-13300000D01*
X15200000Y-13300000D01*
X15200000Y-11650000D01*
X15500000Y-11650000D01*
X15850000Y-12000000D01*
G37*
X14800000Y-15350000D02*
X14500000Y-15350000D01*
X14150000Y-15000000D01*
X14150000Y-13700000D01*
X14800000Y-13700000D01*
X14800000Y-15350000D01*
G36*
X14800000Y-15350000D02*
G01*
X14500000Y-15350000D01*
X14150000Y-15000000D01*
X14150000Y-13700000D01*
X14800000Y-13700000D01*
X14800000Y-15350000D01*
G37*
X14800000Y-13300000D02*
X14150000Y-13300000D01*
X14150000Y-12000000D01*
X14500000Y-11650000D01*
X14800000Y-11650000D01*
X14800000Y-13300000D01*
G36*
X14800000Y-13300000D02*
G01*
X14150000Y-13300000D01*
X14150000Y-12000000D01*
X14500000Y-11650000D01*
X14800000Y-11650000D01*
X14800000Y-13300000D01*
G37*
%TD*%
D11*
%TO.C,R2*%
X18115000Y-5370000D03*
X18115000Y-7020000D03*
%TD*%
D12*
%TO.C,C2*%
X16430000Y-9640000D03*
X17390000Y-9640000D03*
%TD*%
D13*
%TO.C,C7*%
X20860000Y-2695000D03*
X22410000Y-2695000D03*
%TD*%
D14*
%TO.C,IC1*%
X16800000Y-11250000D03*
X16800000Y-11750000D03*
X16800000Y-12250000D03*
X16800000Y-12750000D03*
X16800000Y-13250000D03*
X16800000Y-13750000D03*
X16800000Y-14250000D03*
X16800000Y-14750000D03*
X16800000Y-15250000D03*
X16800000Y-15750000D03*
D15*
X15750000Y-16200000D03*
X15250000Y-16200000D03*
X14750000Y-16200000D03*
X14250000Y-16200000D03*
D14*
X13200000Y-15750000D03*
X13200000Y-15250000D03*
X13200000Y-14750000D03*
X13200000Y-14250000D03*
X13200000Y-13750000D03*
X13200000Y-13250000D03*
X13200000Y-12750000D03*
X13200000Y-12250000D03*
X13200000Y-11750000D03*
X13200000Y-11250000D03*
D15*
X14250000Y-10800000D03*
X14750000Y-10800000D03*
X15250000Y-10800000D03*
X15750000Y-10800000D03*
%TD*%
D16*
%TO.C,J4*%
X25650000Y-9750000D03*
X25650000Y-10250000D03*
X25650000Y-10750000D03*
X25650000Y-11250000D03*
X25650000Y-11750000D03*
X25650000Y-12250000D03*
X25650000Y-12750000D03*
X25650000Y-13250000D03*
X25650000Y-13750000D03*
X25650000Y-14250000D03*
X25650000Y-14750000D03*
X25650000Y-15250000D03*
X25650000Y-15750000D03*
X25650000Y-16250000D03*
X25650000Y-16750000D03*
X25650000Y-17250000D03*
X25650000Y-17750000D03*
X25650000Y-18250000D03*
X25650000Y-18750000D03*
X25650000Y-19250000D03*
X25650000Y-19750000D03*
X25650000Y-20250000D03*
D17*
X27350000Y-8080000D03*
X27350000Y-21920000D03*
%TD*%
D11*
%TO.C,R1*%
X18105000Y-2370000D03*
X18105000Y-4020000D03*
%TD*%
%TO.C,R8*%
X9025000Y-5370000D03*
X9025000Y-7020000D03*
%TD*%
D18*
%TO.C,C3*%
X13545000Y-9650000D03*
X12585000Y-9650000D03*
%TD*%
D11*
%TO.C,R6*%
X12105000Y-5370000D03*
X12105000Y-7020000D03*
%TD*%
D12*
%TO.C,C4*%
X15455000Y-18005000D03*
X16415000Y-18005000D03*
%TD*%
D16*
%TO.C,J5*%
X4350000Y-9750000D03*
X4350000Y-10250000D03*
X4350000Y-10750000D03*
X4350000Y-11250000D03*
X4350000Y-11750000D03*
X4350000Y-12250000D03*
X4350000Y-12750000D03*
X4350000Y-13250000D03*
X4350000Y-13750000D03*
X4350000Y-14250000D03*
X4350000Y-14750000D03*
X4350000Y-15250000D03*
X4350000Y-15750000D03*
X4350000Y-16250000D03*
X4350000Y-16750000D03*
X4350000Y-17250000D03*
X4350000Y-17750000D03*
X4350000Y-18250000D03*
X4350000Y-18750000D03*
X4350000Y-19250000D03*
X4350000Y-19750000D03*
X4350000Y-20250000D03*
D17*
X2650000Y-21920000D03*
X2650000Y-8080000D03*
%TD*%
D19*
%TO.C,Q1*%
X6475000Y-5475000D03*
X6975000Y-5475000D03*
X7475000Y-5475000D03*
X7475000Y-6975000D03*
X6975000Y-6975000D03*
X6475000Y-6975000D03*
%TD*%
D11*
%TO.C,R7*%
X9015000Y-2370000D03*
X9015000Y-4020000D03*
%TD*%
D20*
%TO.C,U1*%
X20875000Y-5422500D03*
X21825000Y-5422500D03*
X22775000Y-5422500D03*
X22775000Y-7697500D03*
X20875000Y-7697500D03*
%TD*%
D12*
%TO.C,C6*%
X20855000Y-4025000D03*
X21815000Y-4025000D03*
%TD*%
D11*
%TO.C,R3*%
X15175000Y-2370000D03*
X15175000Y-4020000D03*
%TD*%
D21*
%TO.C,C5*%
X24015000Y-7695000D03*
X24015000Y-6735000D03*
%TD*%
D11*
%TO.C,R5*%
X12095000Y-2370000D03*
X12095000Y-4020000D03*
%TD*%
%TO.C,R4*%
X15185000Y-5370000D03*
X15185000Y-7020000D03*
%TD*%
D12*
%TO.C,C1*%
X16530000Y-17005000D03*
X17490000Y-17005000D03*
%TD*%
M02*
