%TF.GenerationSoftware,KiCad,Pcbnew,7.0.10*%
%TF.CreationDate,2024-02-18T19:35:46+01:00*%
%TF.ProjectId,CSI2SPY22,43534932-5350-4593-9232-2e6b69636164,rev?*%
%TF.SameCoordinates,Original*%
%TF.FileFunction,Legend,Bot*%
%TF.FilePolarity,Positive*%
%FSLAX46Y46*%
G04 Gerber Fmt 4.6, Leading zero omitted, Abs format (unit mm)*
G04 Created by KiCad (PCBNEW 7.0.10) date 2024-02-18 19:35:46*
%MOMM*%
%LPD*%
G01*
G04 APERTURE LIST*
%ADD10C,0.000000*%
%ADD11C,0.150000*%
%ADD12C,0.162500*%
%ADD13C,0.175000*%
%ADD14C,0.200000*%
%ADD15C,0.120000*%
%ADD16C,0.250000*%
G04 APERTURE END LIST*
D10*
G36*
X10925738Y-26594460D02*
G01*
X10937072Y-26595740D01*
X10948363Y-26597832D01*
X10959572Y-26600750D01*
X10970656Y-26604508D01*
X10981576Y-26609121D01*
X10992291Y-26614602D01*
X11002759Y-26620965D01*
X11012940Y-26628225D01*
X11022793Y-26636396D01*
X11032278Y-26645491D01*
X11037172Y-26650844D01*
X11041895Y-26656630D01*
X11046428Y-26662802D01*
X11050749Y-26669312D01*
X11054839Y-26676112D01*
X11058679Y-26683156D01*
X11062247Y-26690395D01*
X11065525Y-26697781D01*
X11068492Y-26705268D01*
X11071128Y-26712807D01*
X11073414Y-26720352D01*
X11075328Y-26727854D01*
X11076852Y-26735266D01*
X11077966Y-26742540D01*
X11078648Y-26749628D01*
X11078880Y-26756484D01*
X11078648Y-26763340D01*
X11077966Y-26770429D01*
X11076852Y-26777703D01*
X11075328Y-26785115D01*
X11073414Y-26792617D01*
X11071128Y-26800161D01*
X11068492Y-26807701D01*
X11065525Y-26815188D01*
X11062247Y-26822574D01*
X11058679Y-26829813D01*
X11054839Y-26836856D01*
X11050749Y-26843657D01*
X11046427Y-26850167D01*
X11041895Y-26856339D01*
X11037172Y-26862125D01*
X11032278Y-26867478D01*
X11025937Y-26873730D01*
X11019456Y-26879572D01*
X11012832Y-26885005D01*
X11006064Y-26890030D01*
X10999149Y-26894647D01*
X10992085Y-26898858D01*
X10984870Y-26902663D01*
X10977502Y-26906064D01*
X10969979Y-26909062D01*
X10962297Y-26911657D01*
X10954456Y-26913850D01*
X10946453Y-26915642D01*
X10938286Y-26917034D01*
X10929953Y-26918027D01*
X10921452Y-26918623D01*
X10912779Y-26918821D01*
X10908543Y-26918760D01*
X10904209Y-26918578D01*
X10899801Y-26918281D01*
X10895341Y-26917873D01*
X10890855Y-26917359D01*
X10886365Y-26916743D01*
X10877468Y-26915224D01*
X10873110Y-26914331D01*
X10868842Y-26913354D01*
X10864689Y-26912298D01*
X10860674Y-26911167D01*
X10856821Y-26909967D01*
X10853154Y-26908702D01*
X10849696Y-26907376D01*
X10846470Y-26905994D01*
X10840734Y-26903237D01*
X10835111Y-26900232D01*
X10829607Y-26896989D01*
X10824228Y-26893518D01*
X10818980Y-26889828D01*
X10813869Y-26885930D01*
X10808901Y-26881833D01*
X10804081Y-26877547D01*
X10799416Y-26873081D01*
X10794911Y-26868446D01*
X10790573Y-26863650D01*
X10786406Y-26858705D01*
X10782418Y-26853619D01*
X10778614Y-26848403D01*
X10774999Y-26843066D01*
X10771580Y-26837619D01*
X10768363Y-26832069D01*
X10765354Y-26826429D01*
X10762558Y-26820706D01*
X10759981Y-26814912D01*
X10757629Y-26809055D01*
X10755509Y-26803146D01*
X10753625Y-26797195D01*
X10751985Y-26791210D01*
X10750593Y-26785202D01*
X10749456Y-26779181D01*
X10748579Y-26773157D01*
X10747969Y-26767138D01*
X10747631Y-26761136D01*
X10747572Y-26755159D01*
X10747796Y-26749218D01*
X10748311Y-26743321D01*
X10750249Y-26730291D01*
X10753043Y-26717764D01*
X10756651Y-26705753D01*
X10761033Y-26694274D01*
X10766148Y-26683339D01*
X10771956Y-26672963D01*
X10778415Y-26663161D01*
X10785485Y-26653946D01*
X10793125Y-26645332D01*
X10801294Y-26637333D01*
X10809952Y-26629964D01*
X10819057Y-26623238D01*
X10828568Y-26617169D01*
X10838445Y-26611773D01*
X10848648Y-26607061D01*
X10859134Y-26603050D01*
X10869864Y-26599752D01*
X10880797Y-26597182D01*
X10891892Y-26595354D01*
X10903107Y-26594281D01*
X10914403Y-26593979D01*
X10925738Y-26594460D01*
G37*
G36*
X10816152Y-25840496D02*
G01*
X10826846Y-25841600D01*
X10837536Y-25843445D01*
X10848190Y-25846050D01*
X10858774Y-25849432D01*
X10869258Y-25853609D01*
X10879609Y-25858598D01*
X10889795Y-25864417D01*
X10899752Y-25871056D01*
X10909018Y-25878209D01*
X10917594Y-25885837D01*
X10925482Y-25893906D01*
X10932685Y-25902377D01*
X10939204Y-25911214D01*
X10945041Y-25920379D01*
X10950199Y-25929836D01*
X10954678Y-25939549D01*
X10958481Y-25949479D01*
X10961610Y-25959590D01*
X10964067Y-25969845D01*
X10965853Y-25980208D01*
X10966972Y-25990641D01*
X10967423Y-26001107D01*
X10967210Y-26011570D01*
X10966335Y-26021992D01*
X10964798Y-26032337D01*
X10962604Y-26042568D01*
X10959752Y-26052648D01*
X10956245Y-26062539D01*
X10952085Y-26072205D01*
X10947274Y-26081609D01*
X10941815Y-26090715D01*
X10935707Y-26099484D01*
X10928955Y-26107881D01*
X10921559Y-26115869D01*
X10913522Y-26123409D01*
X10904845Y-26130466D01*
X10895531Y-26137003D01*
X10885581Y-26142983D01*
X10874997Y-26148368D01*
X10867396Y-26151666D01*
X10859595Y-26154582D01*
X10851622Y-26157115D01*
X10843501Y-26159263D01*
X10835259Y-26161025D01*
X10826923Y-26162400D01*
X10818517Y-26163386D01*
X10810069Y-26163983D01*
X10801604Y-26164189D01*
X10793149Y-26164002D01*
X10784730Y-26163423D01*
X10776372Y-26162448D01*
X10768102Y-26161078D01*
X10759946Y-26159311D01*
X10751930Y-26157145D01*
X10744081Y-26154580D01*
X10744081Y-26154581D01*
X10738662Y-26152503D01*
X10733326Y-26150166D01*
X10728080Y-26147578D01*
X10722929Y-26144748D01*
X10717879Y-26141685D01*
X10712935Y-26138397D01*
X10708104Y-26134892D01*
X10703392Y-26131181D01*
X10698804Y-26127270D01*
X10694345Y-26123168D01*
X10690022Y-26118885D01*
X10685841Y-26114428D01*
X10681807Y-26109807D01*
X10677927Y-26105030D01*
X10674205Y-26100104D01*
X10670648Y-26095040D01*
X10667262Y-26089846D01*
X10664052Y-26084529D01*
X10661025Y-26079099D01*
X10658185Y-26073565D01*
X10655539Y-26067934D01*
X10653093Y-26062216D01*
X10650852Y-26056419D01*
X10648822Y-26050552D01*
X10647010Y-26044622D01*
X10645420Y-26038640D01*
X10644059Y-26032613D01*
X10642932Y-26026549D01*
X10642046Y-26020459D01*
X10641406Y-26014349D01*
X10641017Y-26008229D01*
X10640887Y-26002107D01*
X10641295Y-25990427D01*
X10642499Y-25979046D01*
X10644467Y-25967982D01*
X10647166Y-25957252D01*
X10650565Y-25946874D01*
X10654631Y-25936865D01*
X10659333Y-25927244D01*
X10664639Y-25918028D01*
X10670516Y-25909235D01*
X10676933Y-25900882D01*
X10683857Y-25892987D01*
X10691256Y-25885569D01*
X10699099Y-25878644D01*
X10707353Y-25872231D01*
X10715987Y-25866346D01*
X10724969Y-25861008D01*
X10734265Y-25856235D01*
X10743845Y-25852044D01*
X10753677Y-25848453D01*
X10763728Y-25845479D01*
X10773966Y-25843141D01*
X10784359Y-25841456D01*
X10794876Y-25840442D01*
X10805484Y-25840116D01*
X10816152Y-25840496D01*
G37*
G36*
X11465455Y-27186265D02*
G01*
X11476139Y-27187499D01*
X11486900Y-27189484D01*
X11497716Y-27192241D01*
X11504493Y-27194350D01*
X11511117Y-27196690D01*
X11517583Y-27199255D01*
X11523888Y-27202040D01*
X11530027Y-27205041D01*
X11535996Y-27208251D01*
X11541792Y-27211666D01*
X11547410Y-27215281D01*
X11552846Y-27219089D01*
X11558097Y-27223086D01*
X11563157Y-27227267D01*
X11568024Y-27231626D01*
X11572693Y-27236158D01*
X11577160Y-27240859D01*
X11581420Y-27245722D01*
X11585471Y-27250742D01*
X11589307Y-27255915D01*
X11592925Y-27261235D01*
X11596321Y-27266697D01*
X11599491Y-27272295D01*
X11602431Y-27278024D01*
X11605136Y-27283880D01*
X11607602Y-27289857D01*
X11609826Y-27295949D01*
X11611804Y-27302151D01*
X11613531Y-27308459D01*
X11615004Y-27314867D01*
X11616217Y-27321370D01*
X11617169Y-27327962D01*
X11617853Y-27334638D01*
X11618267Y-27341393D01*
X11618405Y-27348222D01*
X11618079Y-27358711D01*
X11617115Y-27368994D01*
X11615534Y-27379055D01*
X11613361Y-27388880D01*
X11610615Y-27398452D01*
X11607320Y-27407754D01*
X11603498Y-27416773D01*
X11599170Y-27425491D01*
X11594360Y-27433892D01*
X11589089Y-27441962D01*
X11583379Y-27449683D01*
X11577252Y-27457041D01*
X11570731Y-27464019D01*
X11563838Y-27470602D01*
X11556594Y-27476774D01*
X11549023Y-27482519D01*
X11541145Y-27487820D01*
X11532984Y-27492663D01*
X11524561Y-27497032D01*
X11515899Y-27500910D01*
X11507019Y-27504282D01*
X11497944Y-27507132D01*
X11488696Y-27509444D01*
X11479297Y-27511202D01*
X11469770Y-27512391D01*
X11460135Y-27512994D01*
X11450416Y-27512996D01*
X11440635Y-27512382D01*
X11430814Y-27511134D01*
X11420974Y-27509238D01*
X11411139Y-27506677D01*
X11401330Y-27503436D01*
X11390686Y-27499186D01*
X11380518Y-27494416D01*
X11370836Y-27489139D01*
X11361651Y-27483367D01*
X11352975Y-27477114D01*
X11344818Y-27470392D01*
X11337191Y-27463213D01*
X11330107Y-27455591D01*
X11323575Y-27447539D01*
X11317607Y-27439068D01*
X11312214Y-27430193D01*
X11307407Y-27420926D01*
X11303198Y-27411279D01*
X11299597Y-27401266D01*
X11296616Y-27390899D01*
X11294266Y-27380191D01*
X11292553Y-27369024D01*
X11291595Y-27357983D01*
X11291367Y-27347089D01*
X11291846Y-27336366D01*
X11293009Y-27325833D01*
X11294832Y-27315512D01*
X11297292Y-27305425D01*
X11300366Y-27295594D01*
X11304031Y-27286040D01*
X11308263Y-27276784D01*
X11313039Y-27267848D01*
X11318335Y-27259254D01*
X11324129Y-27251023D01*
X11330397Y-27243176D01*
X11337115Y-27235735D01*
X11344261Y-27228723D01*
X11351812Y-27222159D01*
X11359743Y-27216066D01*
X11368031Y-27210465D01*
X11376654Y-27205378D01*
X11385588Y-27200826D01*
X11394809Y-27196831D01*
X11404295Y-27193415D01*
X11414022Y-27190598D01*
X11423966Y-27188402D01*
X11434105Y-27186850D01*
X11444415Y-27185962D01*
X11454873Y-27185759D01*
X11465455Y-27186265D01*
G37*
G36*
X10858039Y-24825531D02*
G01*
X10933651Y-24828013D01*
X10999678Y-24832142D01*
X11027563Y-24834823D01*
X11051211Y-24837915D01*
X11131551Y-24852062D01*
X11210357Y-24869340D01*
X11287565Y-24889715D01*
X11363114Y-24913152D01*
X11436940Y-24939617D01*
X11508979Y-24969075D01*
X11579170Y-25001493D01*
X11647449Y-25036834D01*
X11713752Y-25075066D01*
X11778018Y-25116153D01*
X11840182Y-25160061D01*
X11900182Y-25206756D01*
X11957955Y-25256203D01*
X12013438Y-25308368D01*
X12066568Y-25363216D01*
X12117282Y-25420712D01*
X12156013Y-25468885D01*
X12192690Y-25518842D01*
X12227253Y-25570422D01*
X12259639Y-25623462D01*
X12289788Y-25677800D01*
X12317637Y-25733274D01*
X12343125Y-25789723D01*
X12366192Y-25846983D01*
X12386774Y-25904893D01*
X12404812Y-25963291D01*
X12420243Y-26022014D01*
X12433006Y-26080901D01*
X12443040Y-26139790D01*
X12450283Y-26198517D01*
X12454674Y-26256922D01*
X12456151Y-26314843D01*
X12456151Y-26378992D01*
X12475184Y-26383326D01*
X12535345Y-26397900D01*
X12591248Y-26413341D01*
X12643597Y-26429922D01*
X12668659Y-26438727D01*
X12693097Y-26447919D01*
X12717000Y-26457534D01*
X12740454Y-26467605D01*
X12763549Y-26478167D01*
X12786372Y-26489255D01*
X12809011Y-26500901D01*
X12831556Y-26513141D01*
X12876710Y-26539540D01*
X12933358Y-26576498D01*
X12987322Y-26616379D01*
X13038496Y-26659014D01*
X13086776Y-26704233D01*
X13132056Y-26751866D01*
X13174230Y-26801744D01*
X13213194Y-26853697D01*
X13248842Y-26907555D01*
X13281070Y-26963149D01*
X13309771Y-27020310D01*
X13334841Y-27078866D01*
X13356175Y-27138649D01*
X13373666Y-27199490D01*
X13387211Y-27261217D01*
X13392471Y-27292361D01*
X13396704Y-27323662D01*
X13399898Y-27355101D01*
X13402039Y-27386656D01*
X13402988Y-27412771D01*
X13403129Y-27438405D01*
X13402442Y-27463649D01*
X13400907Y-27488595D01*
X13398502Y-27513334D01*
X13395207Y-27537958D01*
X13391000Y-27562559D01*
X13385862Y-27587228D01*
X13379771Y-27612058D01*
X13372707Y-27637138D01*
X13364648Y-27662562D01*
X13355575Y-27688422D01*
X13345466Y-27714807D01*
X13334300Y-27741811D01*
X13322057Y-27769525D01*
X13308716Y-27798041D01*
X13297801Y-27819840D01*
X13285088Y-27843633D01*
X13255514Y-27895321D01*
X13222487Y-27949352D01*
X13188497Y-28001975D01*
X13156036Y-28049435D01*
X13127596Y-28087982D01*
X13115663Y-28102739D01*
X13105668Y-28113861D01*
X13097925Y-28120879D01*
X13094995Y-28122701D01*
X13092744Y-28123322D01*
X13089844Y-28121183D01*
X13082621Y-28114909D01*
X13056103Y-28090797D01*
X12961088Y-28002238D01*
X12822110Y-27871172D01*
X12653579Y-27711123D01*
X12220842Y-27298924D01*
X12220842Y-26996533D01*
X12251405Y-26978622D01*
X12258555Y-26974187D01*
X12265655Y-26969301D01*
X12272687Y-26963980D01*
X12279637Y-26958246D01*
X12286487Y-26952116D01*
X12293221Y-26945609D01*
X12299822Y-26938744D01*
X12306275Y-26931540D01*
X12312564Y-26924017D01*
X12318670Y-26916192D01*
X12324579Y-26908085D01*
X12330275Y-26899715D01*
X12335739Y-26891100D01*
X12340957Y-26882260D01*
X12345912Y-26873213D01*
X12350588Y-26863978D01*
X12353492Y-26857893D01*
X12356084Y-26852189D01*
X12358382Y-26846767D01*
X12360403Y-26841526D01*
X12362165Y-26836367D01*
X12363685Y-26831190D01*
X12364980Y-26825895D01*
X12366068Y-26820382D01*
X12366967Y-26814552D01*
X12367694Y-26808303D01*
X12368267Y-26801537D01*
X12368703Y-26794154D01*
X12369019Y-26786053D01*
X12369233Y-26777135D01*
X12369427Y-26756447D01*
X12369379Y-26735209D01*
X12368965Y-26717957D01*
X12368568Y-26710532D01*
X12368016Y-26703753D01*
X12367287Y-26697502D01*
X12366361Y-26691663D01*
X12365217Y-26686117D01*
X12363832Y-26680749D01*
X12362187Y-26675442D01*
X12360259Y-26670077D01*
X12358028Y-26664539D01*
X12355473Y-26658711D01*
X12349303Y-26645713D01*
X12339473Y-26627315D01*
X12328621Y-26610087D01*
X12316816Y-26594029D01*
X12304127Y-26579144D01*
X12290621Y-26565431D01*
X12276366Y-26552890D01*
X12261432Y-26541524D01*
X12245885Y-26531332D01*
X12229794Y-26522315D01*
X12213227Y-26514473D01*
X12196253Y-26507808D01*
X12178939Y-26502321D01*
X12161354Y-26498011D01*
X12143566Y-26494879D01*
X12125643Y-26492927D01*
X12107654Y-26492155D01*
X12089665Y-26492563D01*
X12071746Y-26494152D01*
X12053965Y-26496924D01*
X12036390Y-26500878D01*
X12019089Y-26506015D01*
X12002130Y-26512337D01*
X11985581Y-26519843D01*
X11969511Y-26528534D01*
X11953988Y-26538412D01*
X11939079Y-26549476D01*
X11924854Y-26561728D01*
X11911379Y-26575168D01*
X11898725Y-26589797D01*
X11886957Y-26605615D01*
X11876146Y-26622624D01*
X11866358Y-26640823D01*
X11859330Y-26655438D01*
X11856435Y-26661862D01*
X11853917Y-26667875D01*
X11851751Y-26673610D01*
X11849911Y-26679199D01*
X11848369Y-26684775D01*
X11847101Y-26690470D01*
X11846080Y-26696419D01*
X11845279Y-26702753D01*
X11844674Y-26709606D01*
X11844237Y-26717110D01*
X11843943Y-26725398D01*
X11843765Y-26734604D01*
X11843654Y-26756297D01*
X11843785Y-26776920D01*
X11844268Y-26793954D01*
X11844681Y-26801369D01*
X11845232Y-26808180D01*
X11845936Y-26814485D01*
X11846810Y-26820381D01*
X11847871Y-26825966D01*
X11849134Y-26831337D01*
X11850616Y-26836592D01*
X11852334Y-26841829D01*
X11854304Y-26847145D01*
X11856543Y-26852639D01*
X11861891Y-26864547D01*
X11866159Y-26873232D01*
X11870756Y-26881789D01*
X11875667Y-26890204D01*
X11880878Y-26898459D01*
X11886376Y-26906539D01*
X11892147Y-26914428D01*
X11898177Y-26922111D01*
X11904453Y-26929572D01*
X11910960Y-26936794D01*
X11917685Y-26943762D01*
X11924614Y-26950460D01*
X11931733Y-26956873D01*
X11939028Y-26962984D01*
X11946486Y-26968777D01*
X11954093Y-26974237D01*
X11961835Y-26979348D01*
X11966452Y-26982307D01*
X11970594Y-26985065D01*
X11974287Y-26987656D01*
X11977554Y-26990111D01*
X11980421Y-26992465D01*
X11982911Y-26994751D01*
X11985048Y-26997001D01*
X11985992Y-26998124D01*
X11986857Y-26999250D01*
X11987646Y-27000385D01*
X11988363Y-27001531D01*
X11989009Y-27002693D01*
X11989589Y-27003876D01*
X11990105Y-27005083D01*
X11990560Y-27006319D01*
X11990957Y-27007587D01*
X11991300Y-27008893D01*
X11991834Y-27011632D01*
X11992186Y-27014568D01*
X11992380Y-27017735D01*
X11992440Y-27021166D01*
X11992414Y-27023457D01*
X11992336Y-27025685D01*
X11992207Y-27027836D01*
X11992031Y-27029900D01*
X11991810Y-27031865D01*
X11991547Y-27033720D01*
X11991245Y-27035453D01*
X11990906Y-27037052D01*
X11990533Y-27038507D01*
X11990129Y-27039804D01*
X11989696Y-27040934D01*
X11989238Y-27041885D01*
X11988756Y-27042644D01*
X11988253Y-27043200D01*
X11987995Y-27043399D01*
X11987732Y-27043543D01*
X11987466Y-27043630D01*
X11987196Y-27043659D01*
X11985898Y-27042896D01*
X11983140Y-27040657D01*
X11973557Y-27032050D01*
X11959069Y-27018444D01*
X11940303Y-27000441D01*
X11917882Y-26978645D01*
X11892431Y-26953659D01*
X11864574Y-26926087D01*
X11834936Y-26896532D01*
X11687927Y-26749404D01*
X11687927Y-26456563D01*
X11721688Y-26431782D01*
X11734137Y-26422109D01*
X11745843Y-26411933D01*
X11756803Y-26401284D01*
X11767017Y-26390193D01*
X11776483Y-26378690D01*
X11785198Y-26366806D01*
X11793162Y-26354571D01*
X11800373Y-26342016D01*
X11806829Y-26329172D01*
X11812528Y-26316068D01*
X11817470Y-26302735D01*
X11821651Y-26289204D01*
X11825072Y-26275505D01*
X11827729Y-26261669D01*
X11829622Y-26247726D01*
X11830749Y-26233707D01*
X11831108Y-26219643D01*
X11830698Y-26205563D01*
X11829517Y-26191498D01*
X11827563Y-26177479D01*
X11824836Y-26163536D01*
X11821332Y-26149700D01*
X11817051Y-26136001D01*
X11811991Y-26122469D01*
X11806150Y-26109136D01*
X11799527Y-26096032D01*
X11792120Y-26083187D01*
X11783928Y-26070632D01*
X11774948Y-26058396D01*
X11765180Y-26046512D01*
X11754621Y-26035008D01*
X11743271Y-26023917D01*
X11732977Y-26014688D01*
X11722828Y-26006218D01*
X11712765Y-25998482D01*
X11702730Y-25991459D01*
X11692664Y-25985127D01*
X11682511Y-25979462D01*
X11672211Y-25974443D01*
X11661707Y-25970047D01*
X11650941Y-25966252D01*
X11639854Y-25963036D01*
X11628389Y-25960376D01*
X11616487Y-25958249D01*
X11604090Y-25956635D01*
X11591141Y-25955509D01*
X11577581Y-25954850D01*
X11563352Y-25954635D01*
X11548099Y-25954856D01*
X11533693Y-25955540D01*
X11520054Y-25956722D01*
X11507102Y-25958434D01*
X11494754Y-25960711D01*
X11482932Y-25963586D01*
X11471555Y-25967091D01*
X11460541Y-25971262D01*
X11449810Y-25976131D01*
X11439282Y-25981731D01*
X11428876Y-25988097D01*
X11418511Y-25995261D01*
X11408107Y-26003258D01*
X11397583Y-26012121D01*
X11386859Y-26021883D01*
X11375854Y-26032577D01*
X11365353Y-26043392D01*
X11355746Y-26053966D01*
X11347003Y-26064371D01*
X11339094Y-26074678D01*
X11331989Y-26084959D01*
X11325658Y-26095284D01*
X11320071Y-26105724D01*
X11315198Y-26116351D01*
X11311009Y-26127236D01*
X11307475Y-26138449D01*
X11304565Y-26150062D01*
X11302249Y-26162146D01*
X11300498Y-26174773D01*
X11299282Y-26188012D01*
X11298570Y-26201935D01*
X11298332Y-26216614D01*
X11298801Y-26232513D01*
X11300205Y-26248362D01*
X11302514Y-26264096D01*
X11305696Y-26279649D01*
X11309720Y-26294956D01*
X11314554Y-26309952D01*
X11320166Y-26324572D01*
X11326526Y-26338750D01*
X11333602Y-26352422D01*
X11341362Y-26365521D01*
X11349775Y-26377983D01*
X11358809Y-26389742D01*
X11368434Y-26400733D01*
X11378617Y-26410892D01*
X11389327Y-26420152D01*
X11400532Y-26428449D01*
X11403383Y-26430455D01*
X11406068Y-26432476D01*
X11408585Y-26434510D01*
X11410931Y-26436553D01*
X11413105Y-26438602D01*
X11415103Y-26440653D01*
X11416923Y-26442703D01*
X11418563Y-26444749D01*
X11420020Y-26446788D01*
X11421292Y-26448816D01*
X11422375Y-26450830D01*
X11423268Y-26452826D01*
X11423969Y-26454803D01*
X11424474Y-26456755D01*
X11424781Y-26458680D01*
X11424859Y-26459632D01*
X11424887Y-26460575D01*
X11424871Y-26462162D01*
X11424815Y-26463704D01*
X11424719Y-26465193D01*
X11424587Y-26466622D01*
X11424421Y-26467982D01*
X11424221Y-26469266D01*
X11423992Y-26470466D01*
X11423733Y-26471573D01*
X11423449Y-26472580D01*
X11423140Y-26473478D01*
X11422809Y-26474260D01*
X11422458Y-26474918D01*
X11422089Y-26475443D01*
X11421703Y-26475829D01*
X11421505Y-26475966D01*
X11421304Y-26476066D01*
X11421099Y-26476126D01*
X11420892Y-26476146D01*
X11419519Y-26475230D01*
X11416295Y-26472542D01*
X11404686Y-26462214D01*
X11386841Y-26445884D01*
X11363540Y-26424278D01*
X11303678Y-26368132D01*
X11231322Y-26299571D01*
X11045799Y-26122994D01*
X11058885Y-26080946D01*
X11062902Y-26066716D01*
X11066121Y-26052419D01*
X11068545Y-26038080D01*
X11070179Y-26023721D01*
X11071025Y-26009368D01*
X11071086Y-25995043D01*
X11070365Y-25980772D01*
X11068866Y-25966577D01*
X11066592Y-25952482D01*
X11063546Y-25938513D01*
X11059731Y-25924692D01*
X11055151Y-25911043D01*
X11049809Y-25897590D01*
X11043707Y-25884358D01*
X11036849Y-25871370D01*
X11029238Y-25858650D01*
X11023959Y-25850626D01*
X11018517Y-25842941D01*
X11012892Y-25835575D01*
X11007060Y-25828511D01*
X11001001Y-25821730D01*
X10994693Y-25815214D01*
X10988114Y-25808945D01*
X10981242Y-25802903D01*
X10974055Y-25797071D01*
X10966533Y-25791431D01*
X10958652Y-25785964D01*
X10950392Y-25780651D01*
X10941730Y-25775475D01*
X10932646Y-25770417D01*
X10923116Y-25765458D01*
X10913120Y-25760581D01*
X10899135Y-25754150D01*
X10892903Y-25751480D01*
X10887033Y-25749145D01*
X10881418Y-25747124D01*
X10875950Y-25745396D01*
X10870519Y-25743939D01*
X10865019Y-25742733D01*
X10859341Y-25741757D01*
X10853376Y-25740989D01*
X10847017Y-25740408D01*
X10840155Y-25739994D01*
X10832682Y-25739724D01*
X10824491Y-25739579D01*
X10805519Y-25739575D01*
X10788745Y-25739882D01*
X10773805Y-25740563D01*
X10760355Y-25741674D01*
X10754082Y-25742407D01*
X10748053Y-25743269D01*
X10742225Y-25744265D01*
X10736555Y-25745404D01*
X10731001Y-25746691D01*
X10725519Y-25748134D01*
X10720066Y-25749739D01*
X10714601Y-25751514D01*
X10703459Y-25755601D01*
X10693701Y-25759769D01*
X10683899Y-25764622D01*
X10674097Y-25770121D01*
X10664337Y-25776226D01*
X10654662Y-25782898D01*
X10645116Y-25790096D01*
X10635741Y-25797781D01*
X10626580Y-25805914D01*
X10617677Y-25814454D01*
X10609075Y-25823363D01*
X10600815Y-25832599D01*
X10592943Y-25842125D01*
X10585499Y-25851899D01*
X10578528Y-25861882D01*
X10572073Y-25872034D01*
X10566176Y-25882317D01*
X10558601Y-25896543D01*
X10555510Y-25902712D01*
X10552843Y-25908461D01*
X10550568Y-25913949D01*
X10548654Y-25919333D01*
X10547069Y-25924769D01*
X10545784Y-25930416D01*
X10544766Y-25936432D01*
X10543985Y-25942972D01*
X10543409Y-25950195D01*
X10543008Y-25958259D01*
X10542750Y-25967320D01*
X10542604Y-25977537D01*
X10542525Y-26002066D01*
X10542617Y-26026167D01*
X10543033Y-26045284D01*
X10543430Y-26053333D01*
X10543988Y-26060568D01*
X10544735Y-26067133D01*
X10545695Y-26073173D01*
X10546897Y-26078830D01*
X10548367Y-26084249D01*
X10550131Y-26089574D01*
X10552216Y-26094950D01*
X10554649Y-26100520D01*
X10557456Y-26106427D01*
X10564300Y-26119834D01*
X10569638Y-26129449D01*
X10575553Y-26139015D01*
X10582007Y-26148492D01*
X10588959Y-26157843D01*
X10596369Y-26167030D01*
X10604198Y-26176015D01*
X10612405Y-26184759D01*
X10620951Y-26193224D01*
X10629797Y-26201373D01*
X10638901Y-26209167D01*
X10648224Y-26216569D01*
X10657727Y-26223539D01*
X10667370Y-26230041D01*
X10677112Y-26236035D01*
X10686914Y-26241485D01*
X10696736Y-26246351D01*
X10702866Y-26249142D01*
X10708668Y-26251648D01*
X10714231Y-26253886D01*
X10719642Y-26255870D01*
X10724990Y-26257618D01*
X10730363Y-26259144D01*
X10735848Y-26260464D01*
X10741535Y-26261594D01*
X10747511Y-26262551D01*
X10753864Y-26263349D01*
X10760683Y-26264005D01*
X10768055Y-26264534D01*
X10776069Y-26264952D01*
X10784813Y-26265274D01*
X10804844Y-26265697D01*
X10873378Y-26266655D01*
X10939537Y-26335066D01*
X11029185Y-26427091D01*
X11151820Y-26552276D01*
X12824473Y-28265626D01*
X12848070Y-28290261D01*
X12867393Y-28310973D01*
X12874830Y-28319178D01*
X12880450Y-28325587D01*
X12884005Y-28329927D01*
X12884930Y-28331236D01*
X12885245Y-28331927D01*
X12882454Y-28334490D01*
X12874503Y-28339306D01*
X12845664Y-28354501D01*
X12803813Y-28375129D01*
X12754031Y-28398806D01*
X12701403Y-28423149D01*
X12651010Y-28445774D01*
X12607937Y-28464298D01*
X12577267Y-28476338D01*
X12563271Y-28481108D01*
X12547347Y-28486279D01*
X12511929Y-28497164D01*
X12475440Y-28507677D01*
X12458178Y-28512382D01*
X12442309Y-28516500D01*
X12369640Y-28534774D01*
X11092736Y-28535144D01*
X8926498Y-28531567D01*
X8926484Y-28531637D01*
X8373635Y-28528804D01*
X8203543Y-28526842D01*
X8085469Y-28523773D01*
X8005260Y-28519042D01*
X7948762Y-28512090D01*
X7901822Y-28502363D01*
X7850286Y-28489302D01*
X7773425Y-28466919D01*
X7698941Y-28439635D01*
X7627040Y-28407659D01*
X7557932Y-28371197D01*
X7491824Y-28330459D01*
X7428924Y-28285653D01*
X7369440Y-28236986D01*
X7313579Y-28184668D01*
X7261550Y-28128907D01*
X7213561Y-28069911D01*
X7169820Y-28007888D01*
X7130534Y-27943046D01*
X7095911Y-27875594D01*
X7066159Y-27805741D01*
X7041487Y-27733693D01*
X7022102Y-27659660D01*
X7018118Y-27639541D01*
X7014661Y-27617545D01*
X7011730Y-27593942D01*
X7009325Y-27569000D01*
X7006098Y-27516181D01*
X7004982Y-27461241D01*
X7005980Y-27406336D01*
X7009093Y-27353621D01*
X7011444Y-27328758D01*
X7014325Y-27305251D01*
X7017737Y-27283369D01*
X7021678Y-27263381D01*
X7040164Y-27190854D01*
X7062905Y-27120461D01*
X7089773Y-27052345D01*
X7120642Y-26986648D01*
X7155385Y-26923512D01*
X7193875Y-26863080D01*
X7235983Y-26805494D01*
X7281584Y-26750898D01*
X7330551Y-26699433D01*
X7382756Y-26651242D01*
X7438071Y-26606468D01*
X7496371Y-26565253D01*
X7557528Y-26527739D01*
X7621414Y-26494070D01*
X7687904Y-26464388D01*
X7756869Y-26438835D01*
X7772070Y-26433862D01*
X7787418Y-26429037D01*
X7802494Y-26424479D01*
X7816878Y-26420308D01*
X7830150Y-26416641D01*
X7841891Y-26413598D01*
X7851683Y-26411298D01*
X7859106Y-26409858D01*
X7865107Y-26408816D01*
X7870824Y-26407650D01*
X7876124Y-26406402D01*
X7880872Y-26405109D01*
X7884936Y-26403812D01*
X7886670Y-26403175D01*
X7888182Y-26402550D01*
X7889456Y-26401945D01*
X7890476Y-26401363D01*
X7891224Y-26400809D01*
X7891684Y-26400289D01*
X7892048Y-26399508D01*
X7892516Y-26398191D01*
X7893731Y-26394074D01*
X7895272Y-26388180D01*
X7897080Y-26380756D01*
X7899098Y-26372045D01*
X7901267Y-26362293D01*
X7903529Y-26351743D01*
X7905826Y-26340641D01*
X7913537Y-26305938D01*
X7922623Y-26270870D01*
X7933032Y-26235544D01*
X7944712Y-26200066D01*
X7957612Y-26164544D01*
X7971682Y-26129085D01*
X7986868Y-26093794D01*
X8003121Y-26058779D01*
X8020389Y-26024147D01*
X8034781Y-25997192D01*
X9614806Y-25997192D01*
X9615002Y-26013229D01*
X9616180Y-26029131D01*
X9618318Y-26044857D01*
X9621393Y-26060368D01*
X9625382Y-26075625D01*
X9630262Y-26090588D01*
X9636011Y-26105218D01*
X9642607Y-26119475D01*
X9650025Y-26133319D01*
X9658244Y-26146711D01*
X9667241Y-26159611D01*
X9676993Y-26171980D01*
X9687478Y-26183779D01*
X9698672Y-26194967D01*
X9710554Y-26205506D01*
X9723100Y-26215355D01*
X9736288Y-26224475D01*
X9750094Y-26232827D01*
X9764497Y-26240371D01*
X9779474Y-26247067D01*
X9795001Y-26252876D01*
X9811056Y-26257759D01*
X9827617Y-26261675D01*
X9844661Y-26264586D01*
X9862165Y-26266451D01*
X9872817Y-26267070D01*
X9883743Y-26267373D01*
X9894634Y-26267372D01*
X9905180Y-26267081D01*
X9915071Y-26266513D01*
X9923998Y-26265682D01*
X9931649Y-26264600D01*
X9934900Y-26263969D01*
X9937716Y-26263281D01*
X9962789Y-26256324D01*
X10143612Y-26437245D01*
X10324436Y-26618164D01*
X10324436Y-26944429D01*
X10535406Y-27169979D01*
X10746374Y-27395529D01*
X10748226Y-27571613D01*
X10750073Y-27747695D01*
X11151485Y-28139388D01*
X11552896Y-28531081D01*
X11696504Y-28531451D01*
X11752265Y-28531331D01*
X11797928Y-28530789D01*
X11828781Y-28529911D01*
X11837181Y-28529374D01*
X11839368Y-28529085D01*
X11840113Y-28528784D01*
X11840177Y-28528721D01*
X11839441Y-28527565D01*
X11837282Y-28524764D01*
X11828982Y-28514573D01*
X11798501Y-28478241D01*
X11753388Y-28425229D01*
X11698299Y-28361040D01*
X11556421Y-28196331D01*
X11556579Y-27895123D01*
X11556738Y-27593914D01*
X11582513Y-27582045D01*
X11590147Y-27578171D01*
X11597981Y-27573509D01*
X11605961Y-27568120D01*
X11614029Y-27562062D01*
X11622132Y-27555395D01*
X11630211Y-27548180D01*
X11638213Y-27540475D01*
X11646081Y-27532341D01*
X11653760Y-27523836D01*
X11661193Y-27515022D01*
X11668326Y-27505956D01*
X11675102Y-27496700D01*
X11681465Y-27487312D01*
X11687360Y-27477853D01*
X11692731Y-27468381D01*
X11697522Y-27458957D01*
X11704012Y-27444984D01*
X11706706Y-27438755D01*
X11709061Y-27432879D01*
X11711100Y-27427241D01*
X11712845Y-27421726D01*
X11714319Y-27416221D01*
X11715543Y-27410611D01*
X11716540Y-27404781D01*
X11717332Y-27398618D01*
X11717941Y-27392006D01*
X11718390Y-27384832D01*
X11718700Y-27376981D01*
X11718894Y-27368338D01*
X11719023Y-27348222D01*
X11718883Y-27328778D01*
X11718379Y-27312594D01*
X11717950Y-27305495D01*
X11717382Y-27298937D01*
X11716658Y-27292827D01*
X11715762Y-27287074D01*
X11714678Y-27281586D01*
X11713390Y-27276272D01*
X11711882Y-27271040D01*
X11710137Y-27265798D01*
X11708140Y-27260455D01*
X11705875Y-27254919D01*
X11700474Y-27242900D01*
X11695353Y-27232604D01*
X11689725Y-27222470D01*
X11683613Y-27212520D01*
X11677042Y-27202780D01*
X11670035Y-27193275D01*
X11662617Y-27184027D01*
X11654811Y-27175062D01*
X11646641Y-27166405D01*
X11638131Y-27158079D01*
X11629306Y-27150108D01*
X11620188Y-27142518D01*
X11610802Y-27135332D01*
X11601173Y-27128575D01*
X11591323Y-27122272D01*
X11581276Y-27116446D01*
X11571058Y-27111122D01*
X11556508Y-27104129D01*
X11550118Y-27101254D01*
X11544130Y-27098758D01*
X11538406Y-27096616D01*
X11532804Y-27094799D01*
X11527184Y-27093282D01*
X11521406Y-27092039D01*
X11515331Y-27091042D01*
X11508817Y-27090266D01*
X11501724Y-27089683D01*
X11493913Y-27089267D01*
X11485243Y-27088992D01*
X11475573Y-27088832D01*
X11452677Y-27088747D01*
X11429773Y-27088864D01*
X11411498Y-27089315D01*
X11403753Y-27089731D01*
X11396756Y-27090309D01*
X11390369Y-27091075D01*
X11384456Y-27092055D01*
X11378880Y-27093276D01*
X11373505Y-27094763D01*
X11368193Y-27096543D01*
X11362808Y-27098642D01*
X11357214Y-27101087D01*
X11351275Y-27103902D01*
X11337810Y-27110751D01*
X11321311Y-27119942D01*
X11305746Y-27129814D01*
X11291125Y-27140355D01*
X11277456Y-27151551D01*
X11264749Y-27163388D01*
X11258758Y-27169543D01*
X11253012Y-27175853D01*
X11247510Y-27182317D01*
X11242255Y-27188933D01*
X11237246Y-27195698D01*
X11232486Y-27202612D01*
X11227975Y-27209673D01*
X11223715Y-27216879D01*
X11219707Y-27224228D01*
X11215951Y-27231719D01*
X11212449Y-27239350D01*
X11209202Y-27247119D01*
X11206211Y-27255025D01*
X11203478Y-27263065D01*
X11201003Y-27271239D01*
X11198787Y-27279544D01*
X11195139Y-27296542D01*
X11192543Y-27314046D01*
X11191007Y-27332041D01*
X11190527Y-27350057D01*
X11191074Y-27367738D01*
X11192634Y-27385052D01*
X11195194Y-27401970D01*
X11198738Y-27418460D01*
X11203252Y-27434491D01*
X11208722Y-27450033D01*
X11215133Y-27465054D01*
X11222472Y-27479523D01*
X11230722Y-27493410D01*
X11239871Y-27506684D01*
X11249903Y-27519313D01*
X11260804Y-27531268D01*
X11272560Y-27542516D01*
X11285156Y-27553027D01*
X11298578Y-27562770D01*
X11334412Y-27586993D01*
X11334677Y-27780778D01*
X11334941Y-27974563D01*
X11172669Y-27808462D01*
X11010399Y-27642360D01*
X11010029Y-27323988D01*
X11009658Y-27005615D01*
X11040446Y-26989282D01*
X11049418Y-26984261D01*
X11058165Y-26978844D01*
X11066679Y-26973047D01*
X11074953Y-26966887D01*
X11082978Y-26960379D01*
X11090746Y-26953539D01*
X11098250Y-26946385D01*
X11105482Y-26938932D01*
X11112433Y-26931197D01*
X11119096Y-26923196D01*
X11125462Y-26914944D01*
X11131523Y-26906459D01*
X11137272Y-26897756D01*
X11142701Y-26888852D01*
X11147801Y-26879763D01*
X11152565Y-26870505D01*
X11156985Y-26861094D01*
X11161052Y-26851547D01*
X11164758Y-26841880D01*
X11168097Y-26832109D01*
X11171059Y-26822251D01*
X11173637Y-26812320D01*
X11175822Y-26802335D01*
X11177608Y-26792310D01*
X11178984Y-26782263D01*
X11179945Y-26772209D01*
X11180482Y-26762165D01*
X11180586Y-26752147D01*
X11180250Y-26742171D01*
X11179466Y-26732254D01*
X11178226Y-26722411D01*
X11176522Y-26712659D01*
X11172766Y-26696256D01*
X11168153Y-26680283D01*
X11162699Y-26664763D01*
X11156422Y-26649720D01*
X11149342Y-26635176D01*
X11141475Y-26621154D01*
X11132839Y-26607679D01*
X11123454Y-26594773D01*
X11113336Y-26582460D01*
X11102504Y-26570763D01*
X11090975Y-26559705D01*
X11078768Y-26549310D01*
X11065902Y-26539601D01*
X11052392Y-26530601D01*
X11038259Y-26522333D01*
X11023520Y-26514821D01*
X11009571Y-26508401D01*
X11003343Y-26505735D01*
X10997460Y-26503402D01*
X10991811Y-26501381D01*
X10986282Y-26499649D01*
X10980761Y-26498186D01*
X10975134Y-26496969D01*
X10969289Y-26495977D01*
X10963112Y-26495187D01*
X10956491Y-26494579D01*
X10949313Y-26494130D01*
X10941464Y-26493819D01*
X10932832Y-26493623D01*
X10912767Y-26493493D01*
X10892700Y-26493624D01*
X10876219Y-26494131D01*
X10869041Y-26494580D01*
X10862420Y-26495189D01*
X10856243Y-26495978D01*
X10850398Y-26496971D01*
X10844771Y-26498188D01*
X10839250Y-26499651D01*
X10833721Y-26501383D01*
X10828072Y-26503404D01*
X10822190Y-26505737D01*
X10815961Y-26508403D01*
X10802012Y-26514821D01*
X10791934Y-26519850D01*
X10782127Y-26525250D01*
X10772597Y-26531009D01*
X10763352Y-26537113D01*
X10754398Y-26543548D01*
X10745744Y-26550303D01*
X10737395Y-26557365D01*
X10729360Y-26564719D01*
X10721645Y-26572354D01*
X10714257Y-26580257D01*
X10707203Y-26588413D01*
X10700491Y-26596811D01*
X10694127Y-26605437D01*
X10688119Y-26614279D01*
X10682474Y-26623323D01*
X10677198Y-26632557D01*
X10672299Y-26641967D01*
X10667784Y-26651540D01*
X10663660Y-26661264D01*
X10659933Y-26671126D01*
X10656613Y-26681112D01*
X10653704Y-26691210D01*
X10651215Y-26701406D01*
X10649152Y-26711688D01*
X10647522Y-26722043D01*
X10646333Y-26732457D01*
X10645592Y-26742918D01*
X10645305Y-26753412D01*
X10645481Y-26763927D01*
X10646125Y-26774450D01*
X10647245Y-26784968D01*
X10648848Y-26795468D01*
X10650758Y-26804975D01*
X10653250Y-26815296D01*
X10656219Y-26826102D01*
X10659560Y-26837063D01*
X10663167Y-26847849D01*
X10666934Y-26858130D01*
X10670758Y-26867576D01*
X10674532Y-26875859D01*
X10678472Y-26883271D01*
X10683243Y-26891168D01*
X10688732Y-26899430D01*
X10694830Y-26907936D01*
X10701425Y-26916564D01*
X10708406Y-26925195D01*
X10715663Y-26933708D01*
X10723083Y-26941982D01*
X10730557Y-26949896D01*
X10737973Y-26957330D01*
X10745219Y-26964163D01*
X10752186Y-26970275D01*
X10758763Y-26975544D01*
X10764837Y-26979851D01*
X10770298Y-26983074D01*
X10772764Y-26984242D01*
X10775035Y-26985094D01*
X10776050Y-26985436D01*
X10777013Y-26985806D01*
X10777924Y-26986207D01*
X10778786Y-26986643D01*
X10779600Y-26987120D01*
X10780367Y-26987643D01*
X10781088Y-26988214D01*
X10781764Y-26988841D01*
X10782397Y-26989525D01*
X10782988Y-26990274D01*
X10783538Y-26991090D01*
X10784048Y-26991979D01*
X10784520Y-26992945D01*
X10784955Y-26993993D01*
X10785354Y-26995127D01*
X10785719Y-26996352D01*
X10786050Y-26997673D01*
X10786349Y-26999093D01*
X10786617Y-27000619D01*
X10786856Y-27002253D01*
X10787067Y-27004002D01*
X10787250Y-27005868D01*
X10787407Y-27007858D01*
X10787540Y-27009976D01*
X10787650Y-27012225D01*
X10787738Y-27014612D01*
X10787852Y-27019813D01*
X10787893Y-27025617D01*
X10787871Y-27032059D01*
X10787500Y-27074847D01*
X10677084Y-26961634D01*
X10566668Y-26848421D01*
X10566668Y-26498935D01*
X10351765Y-26292891D01*
X10228998Y-26174706D01*
X10191075Y-26137298D01*
X10165672Y-26110950D01*
X10156933Y-26101129D01*
X10150446Y-26093117D01*
X10145917Y-26086598D01*
X10143054Y-26081253D01*
X10141565Y-26076762D01*
X10141156Y-26072809D01*
X10141535Y-26069075D01*
X10142409Y-26065241D01*
X10142971Y-26062769D01*
X10143512Y-26059833D01*
X10144522Y-26052722D01*
X10145420Y-26044212D01*
X10146184Y-26034607D01*
X10146794Y-26024210D01*
X10147227Y-26013324D01*
X10147465Y-26002252D01*
X10147484Y-25991298D01*
X10146844Y-25975501D01*
X10145232Y-25960003D01*
X10142681Y-25944825D01*
X10139223Y-25929991D01*
X10134890Y-25915524D01*
X10129716Y-25901448D01*
X10123733Y-25887786D01*
X10116973Y-25874560D01*
X10109470Y-25861795D01*
X10101255Y-25849513D01*
X10092362Y-25837738D01*
X10082823Y-25826492D01*
X10072671Y-25815800D01*
X10061939Y-25805684D01*
X10050658Y-25796167D01*
X10038862Y-25787274D01*
X10026584Y-25779026D01*
X10013855Y-25771447D01*
X10000709Y-25764561D01*
X9987178Y-25758391D01*
X9973295Y-25752960D01*
X9959092Y-25748291D01*
X9944603Y-25744407D01*
X9929859Y-25741332D01*
X9914893Y-25739088D01*
X9899738Y-25737700D01*
X9884427Y-25737190D01*
X9868992Y-25737582D01*
X9853466Y-25738898D01*
X9837882Y-25741163D01*
X9822271Y-25744399D01*
X9806667Y-25748629D01*
X9793060Y-25753113D01*
X9779848Y-25758176D01*
X9767043Y-25763808D01*
X9754657Y-25769999D01*
X9742700Y-25776740D01*
X9731185Y-25784021D01*
X9720123Y-25791833D01*
X9709525Y-25800166D01*
X9699403Y-25809012D01*
X9689769Y-25818359D01*
X9680634Y-25828199D01*
X9672009Y-25838522D01*
X9663906Y-25849319D01*
X9656336Y-25860579D01*
X9649312Y-25872294D01*
X9642843Y-25884455D01*
X9635528Y-25900334D01*
X9629354Y-25916355D01*
X9624298Y-25932478D01*
X9620338Y-25948662D01*
X9617451Y-25964869D01*
X9615615Y-25981059D01*
X9614806Y-25997192D01*
X8034781Y-25997192D01*
X8038619Y-25990004D01*
X8057762Y-25956458D01*
X8077765Y-25923614D01*
X8098577Y-25891580D01*
X8120146Y-25860462D01*
X8142422Y-25830367D01*
X8165353Y-25801403D01*
X8175227Y-25789690D01*
X8186579Y-25776817D01*
X8212927Y-25748356D01*
X8242818Y-25717560D01*
X8274673Y-25685967D01*
X8306910Y-25655117D01*
X8337952Y-25626547D01*
X8366219Y-25601798D01*
X8378818Y-25591336D01*
X8390130Y-25582407D01*
X8428846Y-25553890D01*
X8468679Y-25526606D01*
X8509560Y-25500585D01*
X8551423Y-25475854D01*
X8594197Y-25452441D01*
X8637814Y-25430375D01*
X8682207Y-25409683D01*
X8727307Y-25390393D01*
X8773046Y-25372533D01*
X8819354Y-25356131D01*
X8866164Y-25341215D01*
X8913408Y-25327813D01*
X8961016Y-25315953D01*
X9008921Y-25305664D01*
X9057054Y-25296972D01*
X9105346Y-25289906D01*
X9147060Y-25285546D01*
X9194467Y-25282360D01*
X9245817Y-25280354D01*
X9299363Y-25279536D01*
X9353354Y-25279913D01*
X9406042Y-25281492D01*
X9455678Y-25284281D01*
X9500514Y-25288287D01*
X9579686Y-25297015D01*
X9625090Y-25255831D01*
X9670528Y-25216209D01*
X9717689Y-25178186D01*
X9766480Y-25141805D01*
X9816812Y-25107110D01*
X9868593Y-25074144D01*
X9921734Y-25042948D01*
X9976142Y-25013567D01*
X10031728Y-24986043D01*
X10088401Y-24960419D01*
X10146070Y-24936738D01*
X10204644Y-24915043D01*
X10264033Y-24895377D01*
X10324146Y-24877783D01*
X10384892Y-24862304D01*
X10446181Y-24848982D01*
X10507922Y-24837862D01*
X10530718Y-24834770D01*
X10557864Y-24832092D01*
X10622753Y-24827975D01*
X10697683Y-24825511D01*
X10777747Y-24824697D01*
X10858039Y-24825531D01*
G37*
G36*
X9890000Y-25840000D02*
G01*
X9901766Y-25840984D01*
X9913511Y-25842841D01*
X9925189Y-25845587D01*
X9936756Y-25849242D01*
X9948163Y-25853822D01*
X9959365Y-25859347D01*
X9970317Y-25865835D01*
X9980971Y-25873303D01*
X9991281Y-25881770D01*
X10001202Y-25891254D01*
X10007616Y-25898258D01*
X10013522Y-25905522D01*
X10018925Y-25913027D01*
X10023826Y-25920750D01*
X10028229Y-25928672D01*
X10032136Y-25936770D01*
X10035550Y-25945024D01*
X10038474Y-25953412D01*
X10040910Y-25961914D01*
X10042861Y-25970508D01*
X10044330Y-25979173D01*
X10045320Y-25987888D01*
X10045834Y-25996632D01*
X10045874Y-26005384D01*
X10045443Y-26014123D01*
X10044543Y-26022827D01*
X10043178Y-26031475D01*
X10041350Y-26040047D01*
X10039063Y-26048521D01*
X10036318Y-26056876D01*
X10033119Y-26065090D01*
X10029468Y-26073144D01*
X10025368Y-26081015D01*
X10020822Y-26088683D01*
X10015832Y-26096127D01*
X10010402Y-26103324D01*
X10004533Y-26110255D01*
X9998230Y-26116898D01*
X9991494Y-26123232D01*
X9984329Y-26129235D01*
X9976737Y-26134888D01*
X9968720Y-26140168D01*
X9960315Y-26144948D01*
X9951433Y-26149217D01*
X9942143Y-26152968D01*
X9932514Y-26156196D01*
X9922617Y-26158896D01*
X9912520Y-26161062D01*
X9902292Y-26162689D01*
X9892003Y-26163772D01*
X9881723Y-26164304D01*
X9871520Y-26164281D01*
X9861464Y-26163697D01*
X9851625Y-26162547D01*
X9842071Y-26160824D01*
X9832873Y-26158525D01*
X9824098Y-26155642D01*
X9815818Y-26152172D01*
X9810226Y-26149428D01*
X9804779Y-26146526D01*
X9799480Y-26143469D01*
X9794330Y-26140259D01*
X9789332Y-26136900D01*
X9784488Y-26133396D01*
X9779800Y-26129750D01*
X9775269Y-26125965D01*
X9770899Y-26122045D01*
X9766692Y-26117993D01*
X9762649Y-26113811D01*
X9758772Y-26109504D01*
X9755064Y-26105075D01*
X9751527Y-26100527D01*
X9748163Y-26095863D01*
X9744974Y-26091087D01*
X9741962Y-26086202D01*
X9739130Y-26081212D01*
X9736479Y-26076119D01*
X9734012Y-26070927D01*
X9731730Y-26065639D01*
X9729637Y-26060259D01*
X9727733Y-26054790D01*
X9726021Y-26049235D01*
X9724504Y-26043598D01*
X9723183Y-26037881D01*
X9722061Y-26032089D01*
X9721139Y-26026225D01*
X9720420Y-26020291D01*
X9719906Y-26014291D01*
X9719599Y-26008229D01*
X9719501Y-26002107D01*
X9720029Y-25988511D01*
X9721553Y-25975386D01*
X9724026Y-25962752D01*
X9727403Y-25950626D01*
X9731636Y-25939026D01*
X9736681Y-25927972D01*
X9742490Y-25917480D01*
X9749018Y-25907569D01*
X9756218Y-25898257D01*
X9764045Y-25889563D01*
X9772451Y-25881504D01*
X9781392Y-25874099D01*
X9790820Y-25867366D01*
X9800689Y-25861323D01*
X9810954Y-25855988D01*
X9821569Y-25851380D01*
X9832486Y-25847516D01*
X9843660Y-25844414D01*
X9855044Y-25842094D01*
X9866593Y-25840573D01*
X9878261Y-25839869D01*
X9890000Y-25840000D01*
G37*
G36*
X12117485Y-26594174D02*
G01*
X12129234Y-26595633D01*
X12141018Y-26597973D01*
X12152812Y-26601199D01*
X12164591Y-26605314D01*
X12176332Y-26610320D01*
X12181810Y-26612980D01*
X12187137Y-26615786D01*
X12192311Y-26618736D01*
X12197330Y-26621828D01*
X12202194Y-26625059D01*
X12206900Y-26628426D01*
X12211447Y-26631928D01*
X12215833Y-26635563D01*
X12220058Y-26639328D01*
X12224120Y-26643220D01*
X12228017Y-26647237D01*
X12231748Y-26651378D01*
X12235311Y-26655640D01*
X12238704Y-26660020D01*
X12241928Y-26664516D01*
X12244979Y-26669126D01*
X12247856Y-26673847D01*
X12250559Y-26678678D01*
X12253085Y-26683615D01*
X12255433Y-26688658D01*
X12257602Y-26693802D01*
X12259589Y-26699047D01*
X12261395Y-26704389D01*
X12263016Y-26709826D01*
X12264453Y-26715357D01*
X12265702Y-26720979D01*
X12266764Y-26726688D01*
X12267635Y-26732485D01*
X12268316Y-26738364D01*
X12268804Y-26744326D01*
X12269098Y-26750367D01*
X12269196Y-26756484D01*
X12268886Y-26766845D01*
X12267967Y-26776983D01*
X12266460Y-26786886D01*
X12264382Y-26796539D01*
X12261753Y-26805929D01*
X12258590Y-26815044D01*
X12254913Y-26823869D01*
X12250741Y-26832392D01*
X12246091Y-26840599D01*
X12240984Y-26848477D01*
X12235437Y-26856013D01*
X12229469Y-26863193D01*
X12223099Y-26870005D01*
X12216347Y-26876434D01*
X12209229Y-26882468D01*
X12201766Y-26888093D01*
X12193975Y-26893296D01*
X12185877Y-26898063D01*
X12177488Y-26902382D01*
X12168829Y-26906239D01*
X12159917Y-26909621D01*
X12150772Y-26912515D01*
X12141412Y-26914906D01*
X12131856Y-26916783D01*
X12122123Y-26918131D01*
X12112231Y-26918937D01*
X12102199Y-26919189D01*
X12092047Y-26918872D01*
X12081791Y-26917974D01*
X12071452Y-26916481D01*
X12061048Y-26914380D01*
X12050598Y-26911657D01*
X12050597Y-26911657D01*
X12047570Y-26910682D01*
X12044440Y-26909489D01*
X12037918Y-26906489D01*
X12031114Y-26902735D01*
X12024110Y-26898305D01*
X12016990Y-26893278D01*
X12009836Y-26887732D01*
X12002731Y-26881745D01*
X11995758Y-26875396D01*
X11989000Y-26868764D01*
X11982540Y-26861925D01*
X11976460Y-26854960D01*
X11970844Y-26847946D01*
X11965775Y-26840962D01*
X11961335Y-26834085D01*
X11957607Y-26827395D01*
X11954674Y-26820970D01*
X11953485Y-26817815D01*
X11952329Y-26814389D01*
X11951212Y-26810725D01*
X11950141Y-26806857D01*
X11948159Y-26798637D01*
X11946429Y-26789994D01*
X11945001Y-26781193D01*
X11943922Y-26772498D01*
X11943528Y-26768272D01*
X11943240Y-26764173D01*
X11943062Y-26760233D01*
X11943001Y-26756484D01*
X11943211Y-26747377D01*
X11943841Y-26738489D01*
X11944893Y-26729817D01*
X11946368Y-26721358D01*
X11948268Y-26713108D01*
X11950593Y-26705066D01*
X11953346Y-26697227D01*
X11956527Y-26689589D01*
X11960138Y-26682148D01*
X11964181Y-26674902D01*
X11968657Y-26667847D01*
X11973567Y-26660981D01*
X11978912Y-26654299D01*
X11984694Y-26647801D01*
X11990915Y-26641481D01*
X11997575Y-26635337D01*
X12007318Y-26627324D01*
X12017366Y-26620155D01*
X12027694Y-26613833D01*
X12038280Y-26608362D01*
X12049097Y-26603745D01*
X12060121Y-26599986D01*
X12071327Y-26597087D01*
X12082691Y-26595054D01*
X12094189Y-26593888D01*
X12105795Y-26593593D01*
X12117485Y-26594174D01*
G37*
D11*
X13175000Y-16350000D02*
X12500000Y-17025000D01*
D10*
G36*
X11578878Y-26055709D02*
G01*
X11591425Y-26057403D01*
X11603634Y-26060013D01*
X11615473Y-26063498D01*
X11626910Y-26067818D01*
X11637911Y-26072930D01*
X11648444Y-26078795D01*
X11658476Y-26085370D01*
X11667974Y-26092614D01*
X11676906Y-26100487D01*
X11685238Y-26108946D01*
X11692939Y-26117952D01*
X11699974Y-26127462D01*
X11706312Y-26137435D01*
X11711919Y-26147831D01*
X11716764Y-26158608D01*
X11720812Y-26169725D01*
X11724031Y-26181141D01*
X11726389Y-26192814D01*
X11727853Y-26204703D01*
X11728389Y-26216768D01*
X11727965Y-26228966D01*
X11726549Y-26241257D01*
X11724108Y-26253600D01*
X11720608Y-26265954D01*
X11716017Y-26278276D01*
X11710302Y-26290526D01*
X11703431Y-26302664D01*
X11697708Y-26311441D01*
X11691747Y-26319629D01*
X11685533Y-26327237D01*
X11682327Y-26330827D01*
X11679051Y-26334275D01*
X11675704Y-26337583D01*
X11672284Y-26340752D01*
X11668788Y-26343783D01*
X11665216Y-26346677D01*
X11661564Y-26349435D01*
X11657831Y-26352059D01*
X11654015Y-26354549D01*
X11650114Y-26356907D01*
X11646126Y-26359134D01*
X11642049Y-26361231D01*
X11637880Y-26363200D01*
X11633619Y-26365040D01*
X11629262Y-26366755D01*
X11624808Y-26368344D01*
X11620256Y-26369809D01*
X11615602Y-26371151D01*
X11605983Y-26373471D01*
X11595937Y-26375312D01*
X11585446Y-26376685D01*
X11574496Y-26377599D01*
X11559483Y-26378383D01*
X11552988Y-26378574D01*
X11547052Y-26378610D01*
X11541585Y-26378472D01*
X11536501Y-26378144D01*
X11531710Y-26377609D01*
X11527126Y-26376849D01*
X11522660Y-26375847D01*
X11518224Y-26374586D01*
X11513732Y-26373049D01*
X11509094Y-26371219D01*
X11504222Y-26369079D01*
X11499030Y-26366612D01*
X11487331Y-26360626D01*
X11487330Y-26360626D01*
X11481058Y-26357169D01*
X11474998Y-26353523D01*
X11469152Y-26349693D01*
X11463523Y-26345683D01*
X11458113Y-26341500D01*
X11452925Y-26337147D01*
X11447962Y-26332631D01*
X11443224Y-26327957D01*
X11438715Y-26323129D01*
X11434438Y-26318152D01*
X11430394Y-26313033D01*
X11426586Y-26307775D01*
X11423017Y-26302384D01*
X11419688Y-26296866D01*
X11416603Y-26291225D01*
X11413763Y-26285466D01*
X11411171Y-26279594D01*
X11408830Y-26273616D01*
X11406741Y-26267535D01*
X11404908Y-26261357D01*
X11403332Y-26255087D01*
X11402015Y-26248730D01*
X11400962Y-26242291D01*
X11400173Y-26235776D01*
X11399651Y-26229189D01*
X11399398Y-26222536D01*
X11399418Y-26215822D01*
X11399712Y-26209051D01*
X11400282Y-26202230D01*
X11401132Y-26195362D01*
X11402263Y-26188454D01*
X11403678Y-26181510D01*
X11405080Y-26175501D01*
X11406514Y-26169922D01*
X11408013Y-26164719D01*
X11409609Y-26159837D01*
X11411334Y-26155219D01*
X11413222Y-26150813D01*
X11415305Y-26146561D01*
X11417615Y-26142410D01*
X11420185Y-26138304D01*
X11423047Y-26134188D01*
X11426235Y-26130006D01*
X11429780Y-26125705D01*
X11433715Y-26121228D01*
X11438073Y-26116521D01*
X11442886Y-26111528D01*
X11448186Y-26106195D01*
X11452403Y-26102090D01*
X11456639Y-26098136D01*
X11460883Y-26094338D01*
X11465127Y-26090704D01*
X11469359Y-26087241D01*
X11473570Y-26083956D01*
X11477749Y-26080856D01*
X11481886Y-26077947D01*
X11485970Y-26075238D01*
X11489992Y-26072735D01*
X11493942Y-26070444D01*
X11497808Y-26068374D01*
X11501581Y-26066530D01*
X11505251Y-26064920D01*
X11508807Y-26063552D01*
X11512239Y-26062431D01*
X11525979Y-26058924D01*
X11539545Y-26056539D01*
X11552906Y-26055236D01*
X11566028Y-26054973D01*
X11578878Y-26055709D01*
G37*
D11*
X25150000Y-9739866D02*
X24616667Y-9739866D01*
X23916666Y-10006533D02*
X24316666Y-10006533D01*
X24116666Y-10006533D02*
X24116666Y-9306533D01*
X24116666Y-9306533D02*
X24183333Y-9406533D01*
X24183333Y-9406533D02*
X24250000Y-9473200D01*
X24250000Y-9473200D02*
X24316666Y-9506533D01*
D12*
X11364285Y-1331050D02*
X11271428Y-1362002D01*
X11271428Y-1362002D02*
X11116666Y-1362002D01*
X11116666Y-1362002D02*
X11054761Y-1331050D01*
X11054761Y-1331050D02*
X11023809Y-1300097D01*
X11023809Y-1300097D02*
X10992856Y-1238192D01*
X10992856Y-1238192D02*
X10992856Y-1176288D01*
X10992856Y-1176288D02*
X11023809Y-1114383D01*
X11023809Y-1114383D02*
X11054761Y-1083430D01*
X11054761Y-1083430D02*
X11116666Y-1052478D01*
X11116666Y-1052478D02*
X11240475Y-1021526D01*
X11240475Y-1021526D02*
X11302380Y-990573D01*
X11302380Y-990573D02*
X11333333Y-959621D01*
X11333333Y-959621D02*
X11364285Y-897716D01*
X11364285Y-897716D02*
X11364285Y-835811D01*
X11364285Y-835811D02*
X11333333Y-773907D01*
X11333333Y-773907D02*
X11302380Y-742954D01*
X11302380Y-742954D02*
X11240475Y-712002D01*
X11240475Y-712002D02*
X11085714Y-712002D01*
X11085714Y-712002D02*
X10992856Y-742954D01*
X10714285Y-1362002D02*
X10714285Y-712002D01*
X10714285Y-712002D02*
X10559523Y-712002D01*
X10559523Y-712002D02*
X10466666Y-742954D01*
X10466666Y-742954D02*
X10404761Y-804859D01*
X10404761Y-804859D02*
X10373808Y-866764D01*
X10373808Y-866764D02*
X10342856Y-990573D01*
X10342856Y-990573D02*
X10342856Y-1083430D01*
X10342856Y-1083430D02*
X10373808Y-1207240D01*
X10373808Y-1207240D02*
X10404761Y-1269145D01*
X10404761Y-1269145D02*
X10466666Y-1331050D01*
X10466666Y-1331050D02*
X10559523Y-1362002D01*
X10559523Y-1362002D02*
X10714285Y-1362002D01*
X10095237Y-1176288D02*
X9785713Y-1176288D01*
X10157142Y-1362002D02*
X9940475Y-712002D01*
X9940475Y-712002D02*
X9723808Y-1362002D01*
D11*
X20557142Y-10534323D02*
X20557142Y-9914323D01*
X20557142Y-9914323D02*
X20414285Y-9914323D01*
X20414285Y-9914323D02*
X20328571Y-9943847D01*
X20328571Y-9943847D02*
X20271428Y-10002895D01*
X20271428Y-10002895D02*
X20242857Y-10061942D01*
X20242857Y-10061942D02*
X20214285Y-10180038D01*
X20214285Y-10180038D02*
X20214285Y-10268609D01*
X20214285Y-10268609D02*
X20242857Y-10386704D01*
X20242857Y-10386704D02*
X20271428Y-10445752D01*
X20271428Y-10445752D02*
X20328571Y-10504800D01*
X20328571Y-10504800D02*
X20414285Y-10534323D01*
X20414285Y-10534323D02*
X20557142Y-10534323D01*
X19842857Y-9914323D02*
X19785714Y-9914323D01*
X19785714Y-9914323D02*
X19728571Y-9943847D01*
X19728571Y-9943847D02*
X19700000Y-9973371D01*
X19700000Y-9973371D02*
X19671428Y-10032419D01*
X19671428Y-10032419D02*
X19642857Y-10150514D01*
X19642857Y-10150514D02*
X19642857Y-10298133D01*
X19642857Y-10298133D02*
X19671428Y-10416228D01*
X19671428Y-10416228D02*
X19700000Y-10475276D01*
X19700000Y-10475276D02*
X19728571Y-10504800D01*
X19728571Y-10504800D02*
X19785714Y-10534323D01*
X19785714Y-10534323D02*
X19842857Y-10534323D01*
X19842857Y-10534323D02*
X19900000Y-10504800D01*
X19900000Y-10504800D02*
X19928571Y-10475276D01*
X19928571Y-10475276D02*
X19957142Y-10416228D01*
X19957142Y-10416228D02*
X19985714Y-10298133D01*
X19985714Y-10298133D02*
X19985714Y-10150514D01*
X19985714Y-10150514D02*
X19957142Y-10032419D01*
X19957142Y-10032419D02*
X19928571Y-9973371D01*
X19928571Y-9973371D02*
X19900000Y-9943847D01*
X19900000Y-9943847D02*
X19842857Y-9914323D01*
X19385713Y-10534323D02*
X19385713Y-9914323D01*
X19385713Y-9914323D02*
X19042856Y-10534323D01*
X19042856Y-10534323D02*
X19042856Y-9914323D01*
X21314284Y-11296333D02*
X20857142Y-11296333D01*
X20257142Y-10942047D02*
X20314285Y-10912523D01*
X20314285Y-10912523D02*
X20399999Y-10912523D01*
X20399999Y-10912523D02*
X20485713Y-10942047D01*
X20485713Y-10942047D02*
X20542856Y-11001095D01*
X20542856Y-11001095D02*
X20571427Y-11060142D01*
X20571427Y-11060142D02*
X20599999Y-11178238D01*
X20599999Y-11178238D02*
X20599999Y-11266809D01*
X20599999Y-11266809D02*
X20571427Y-11384904D01*
X20571427Y-11384904D02*
X20542856Y-11443952D01*
X20542856Y-11443952D02*
X20485713Y-11503000D01*
X20485713Y-11503000D02*
X20399999Y-11532523D01*
X20399999Y-11532523D02*
X20342856Y-11532523D01*
X20342856Y-11532523D02*
X20257142Y-11503000D01*
X20257142Y-11503000D02*
X20228570Y-11473476D01*
X20228570Y-11473476D02*
X20228570Y-11266809D01*
X20228570Y-11266809D02*
X20342856Y-11266809D01*
X19971427Y-11532523D02*
X19971427Y-10912523D01*
X19971427Y-10912523D02*
X19628570Y-11532523D01*
X19628570Y-11532523D02*
X19628570Y-10912523D01*
X19342856Y-11532523D02*
X19342856Y-10912523D01*
X19342856Y-10912523D02*
X19199999Y-10912523D01*
X19199999Y-10912523D02*
X19114285Y-10942047D01*
X19114285Y-10942047D02*
X19057142Y-11001095D01*
X19057142Y-11001095D02*
X19028571Y-11060142D01*
X19028571Y-11060142D02*
X18999999Y-11178238D01*
X18999999Y-11178238D02*
X18999999Y-11266809D01*
X18999999Y-11266809D02*
X19028571Y-11384904D01*
X19028571Y-11384904D02*
X19057142Y-11443952D01*
X19057142Y-11443952D02*
X19114285Y-11503000D01*
X19114285Y-11503000D02*
X19199999Y-11532523D01*
X19199999Y-11532523D02*
X19342856Y-11532523D01*
X18742856Y-11296333D02*
X18285714Y-11296333D01*
X20542856Y-12530723D02*
X20542856Y-11910723D01*
X20542856Y-11910723D02*
X20399999Y-11910723D01*
X20399999Y-11910723D02*
X20314285Y-11940247D01*
X20314285Y-11940247D02*
X20257142Y-11999295D01*
X20257142Y-11999295D02*
X20228571Y-12058342D01*
X20228571Y-12058342D02*
X20199999Y-12176438D01*
X20199999Y-12176438D02*
X20199999Y-12265009D01*
X20199999Y-12265009D02*
X20228571Y-12383104D01*
X20228571Y-12383104D02*
X20257142Y-12442152D01*
X20257142Y-12442152D02*
X20314285Y-12501200D01*
X20314285Y-12501200D02*
X20399999Y-12530723D01*
X20399999Y-12530723D02*
X20542856Y-12530723D01*
X19628571Y-12530723D02*
X19971428Y-12530723D01*
X19799999Y-12530723D02*
X19799999Y-11910723D01*
X19799999Y-11910723D02*
X19857142Y-11999295D01*
X19857142Y-11999295D02*
X19914285Y-12058342D01*
X19914285Y-12058342D02*
X19971428Y-12087866D01*
X19371427Y-12530723D02*
X19371427Y-11910723D01*
X19371427Y-11910723D02*
X19142856Y-11910723D01*
X19142856Y-11910723D02*
X19085713Y-11940247D01*
X19085713Y-11940247D02*
X19057142Y-11969771D01*
X19057142Y-11969771D02*
X19028570Y-12028819D01*
X19028570Y-12028819D02*
X19028570Y-12117390D01*
X19028570Y-12117390D02*
X19057142Y-12176438D01*
X19057142Y-12176438D02*
X19085713Y-12205961D01*
X19085713Y-12205961D02*
X19142856Y-12235485D01*
X19142856Y-12235485D02*
X19371427Y-12235485D01*
X20228570Y-13469876D02*
X20257142Y-13499400D01*
X20257142Y-13499400D02*
X20342856Y-13528923D01*
X20342856Y-13528923D02*
X20399999Y-13528923D01*
X20399999Y-13528923D02*
X20485713Y-13499400D01*
X20485713Y-13499400D02*
X20542856Y-13440352D01*
X20542856Y-13440352D02*
X20571427Y-13381304D01*
X20571427Y-13381304D02*
X20599999Y-13263209D01*
X20599999Y-13263209D02*
X20599999Y-13174638D01*
X20599999Y-13174638D02*
X20571427Y-13056542D01*
X20571427Y-13056542D02*
X20542856Y-12997495D01*
X20542856Y-12997495D02*
X20485713Y-12938447D01*
X20485713Y-12938447D02*
X20399999Y-12908923D01*
X20399999Y-12908923D02*
X20342856Y-12908923D01*
X20342856Y-12908923D02*
X20257142Y-12938447D01*
X20257142Y-12938447D02*
X20228570Y-12967971D01*
X19971427Y-13528923D02*
X19971427Y-12908923D01*
X19628570Y-13528923D02*
X19885713Y-13174638D01*
X19628570Y-12908923D02*
X19971427Y-13263209D01*
X19371427Y-13528923D02*
X19371427Y-12908923D01*
X19371427Y-12908923D02*
X19028570Y-13528923D01*
X19028570Y-13528923D02*
X19028570Y-12908923D01*
X21314284Y-14290933D02*
X20857142Y-14290933D01*
X20257142Y-13936647D02*
X20314285Y-13907123D01*
X20314285Y-13907123D02*
X20399999Y-13907123D01*
X20399999Y-13907123D02*
X20485713Y-13936647D01*
X20485713Y-13936647D02*
X20542856Y-13995695D01*
X20542856Y-13995695D02*
X20571427Y-14054742D01*
X20571427Y-14054742D02*
X20599999Y-14172838D01*
X20599999Y-14172838D02*
X20599999Y-14261409D01*
X20599999Y-14261409D02*
X20571427Y-14379504D01*
X20571427Y-14379504D02*
X20542856Y-14438552D01*
X20542856Y-14438552D02*
X20485713Y-14497600D01*
X20485713Y-14497600D02*
X20399999Y-14527123D01*
X20399999Y-14527123D02*
X20342856Y-14527123D01*
X20342856Y-14527123D02*
X20257142Y-14497600D01*
X20257142Y-14497600D02*
X20228570Y-14468076D01*
X20228570Y-14468076D02*
X20228570Y-14261409D01*
X20228570Y-14261409D02*
X20342856Y-14261409D01*
X19971427Y-14527123D02*
X19971427Y-13907123D01*
X19971427Y-13907123D02*
X19628570Y-14527123D01*
X19628570Y-14527123D02*
X19628570Y-13907123D01*
X19342856Y-14527123D02*
X19342856Y-13907123D01*
X19342856Y-13907123D02*
X19199999Y-13907123D01*
X19199999Y-13907123D02*
X19114285Y-13936647D01*
X19114285Y-13936647D02*
X19057142Y-13995695D01*
X19057142Y-13995695D02*
X19028571Y-14054742D01*
X19028571Y-14054742D02*
X18999999Y-14172838D01*
X18999999Y-14172838D02*
X18999999Y-14261409D01*
X18999999Y-14261409D02*
X19028571Y-14379504D01*
X19028571Y-14379504D02*
X19057142Y-14438552D01*
X19057142Y-14438552D02*
X19114285Y-14497600D01*
X19114285Y-14497600D02*
X19199999Y-14527123D01*
X19199999Y-14527123D02*
X19342856Y-14527123D01*
X18742856Y-14290933D02*
X18285714Y-14290933D01*
X20542856Y-15525323D02*
X20542856Y-14905323D01*
X20542856Y-14905323D02*
X20399999Y-14905323D01*
X20399999Y-14905323D02*
X20314285Y-14934847D01*
X20314285Y-14934847D02*
X20257142Y-14993895D01*
X20257142Y-14993895D02*
X20228571Y-15052942D01*
X20228571Y-15052942D02*
X20199999Y-15171038D01*
X20199999Y-15171038D02*
X20199999Y-15259609D01*
X20199999Y-15259609D02*
X20228571Y-15377704D01*
X20228571Y-15377704D02*
X20257142Y-15436752D01*
X20257142Y-15436752D02*
X20314285Y-15495800D01*
X20314285Y-15495800D02*
X20399999Y-15525323D01*
X20399999Y-15525323D02*
X20542856Y-15525323D01*
X19971428Y-14964371D02*
X19942856Y-14934847D01*
X19942856Y-14934847D02*
X19885714Y-14905323D01*
X19885714Y-14905323D02*
X19742856Y-14905323D01*
X19742856Y-14905323D02*
X19685714Y-14934847D01*
X19685714Y-14934847D02*
X19657142Y-14964371D01*
X19657142Y-14964371D02*
X19628571Y-15023419D01*
X19628571Y-15023419D02*
X19628571Y-15082466D01*
X19628571Y-15082466D02*
X19657142Y-15171038D01*
X19657142Y-15171038D02*
X19999999Y-15525323D01*
X19999999Y-15525323D02*
X19628571Y-15525323D01*
X19371427Y-15525323D02*
X19371427Y-14905323D01*
X19371427Y-14905323D02*
X19142856Y-14905323D01*
X19142856Y-14905323D02*
X19085713Y-14934847D01*
X19085713Y-14934847D02*
X19057142Y-14964371D01*
X19057142Y-14964371D02*
X19028570Y-15023419D01*
X19028570Y-15023419D02*
X19028570Y-15111990D01*
X19028570Y-15111990D02*
X19057142Y-15171038D01*
X19057142Y-15171038D02*
X19085713Y-15200561D01*
X19085713Y-15200561D02*
X19142856Y-15230085D01*
X19142856Y-15230085D02*
X19371427Y-15230085D01*
X20557142Y-16523523D02*
X20557142Y-15903523D01*
X20557142Y-15903523D02*
X20414285Y-15903523D01*
X20414285Y-15903523D02*
X20328571Y-15933047D01*
X20328571Y-15933047D02*
X20271428Y-15992095D01*
X20271428Y-15992095D02*
X20242857Y-16051142D01*
X20242857Y-16051142D02*
X20214285Y-16169238D01*
X20214285Y-16169238D02*
X20214285Y-16257809D01*
X20214285Y-16257809D02*
X20242857Y-16375904D01*
X20242857Y-16375904D02*
X20271428Y-16434952D01*
X20271428Y-16434952D02*
X20328571Y-16494000D01*
X20328571Y-16494000D02*
X20414285Y-16523523D01*
X20414285Y-16523523D02*
X20557142Y-16523523D01*
X20014285Y-15903523D02*
X19642857Y-15903523D01*
X19642857Y-15903523D02*
X19842857Y-16139714D01*
X19842857Y-16139714D02*
X19757142Y-16139714D01*
X19757142Y-16139714D02*
X19700000Y-16169238D01*
X19700000Y-16169238D02*
X19671428Y-16198761D01*
X19671428Y-16198761D02*
X19642857Y-16257809D01*
X19642857Y-16257809D02*
X19642857Y-16405428D01*
X19642857Y-16405428D02*
X19671428Y-16464476D01*
X19671428Y-16464476D02*
X19700000Y-16494000D01*
X19700000Y-16494000D02*
X19757142Y-16523523D01*
X19757142Y-16523523D02*
X19928571Y-16523523D01*
X19928571Y-16523523D02*
X19985714Y-16494000D01*
X19985714Y-16494000D02*
X20014285Y-16464476D01*
X19385713Y-16523523D02*
X19385713Y-15903523D01*
X19385713Y-15903523D02*
X19042856Y-16523523D01*
X19042856Y-16523523D02*
X19042856Y-15903523D01*
X21314284Y-17285533D02*
X20857142Y-17285533D01*
X20257142Y-16931247D02*
X20314285Y-16901723D01*
X20314285Y-16901723D02*
X20399999Y-16901723D01*
X20399999Y-16901723D02*
X20485713Y-16931247D01*
X20485713Y-16931247D02*
X20542856Y-16990295D01*
X20542856Y-16990295D02*
X20571427Y-17049342D01*
X20571427Y-17049342D02*
X20599999Y-17167438D01*
X20599999Y-17167438D02*
X20599999Y-17256009D01*
X20599999Y-17256009D02*
X20571427Y-17374104D01*
X20571427Y-17374104D02*
X20542856Y-17433152D01*
X20542856Y-17433152D02*
X20485713Y-17492200D01*
X20485713Y-17492200D02*
X20399999Y-17521723D01*
X20399999Y-17521723D02*
X20342856Y-17521723D01*
X20342856Y-17521723D02*
X20257142Y-17492200D01*
X20257142Y-17492200D02*
X20228570Y-17462676D01*
X20228570Y-17462676D02*
X20228570Y-17256009D01*
X20228570Y-17256009D02*
X20342856Y-17256009D01*
X19971427Y-17521723D02*
X19971427Y-16901723D01*
X19971427Y-16901723D02*
X19628570Y-17521723D01*
X19628570Y-17521723D02*
X19628570Y-16901723D01*
X19342856Y-17521723D02*
X19342856Y-16901723D01*
X19342856Y-16901723D02*
X19199999Y-16901723D01*
X19199999Y-16901723D02*
X19114285Y-16931247D01*
X19114285Y-16931247D02*
X19057142Y-16990295D01*
X19057142Y-16990295D02*
X19028571Y-17049342D01*
X19028571Y-17049342D02*
X18999999Y-17167438D01*
X18999999Y-17167438D02*
X18999999Y-17256009D01*
X18999999Y-17256009D02*
X19028571Y-17374104D01*
X19028571Y-17374104D02*
X19057142Y-17433152D01*
X19057142Y-17433152D02*
X19114285Y-17492200D01*
X19114285Y-17492200D02*
X19199999Y-17521723D01*
X19199999Y-17521723D02*
X19342856Y-17521723D01*
X18742856Y-17285533D02*
X18285714Y-17285533D01*
X20399999Y-18519923D02*
X20399999Y-17899923D01*
X20000000Y-17899923D02*
X19885714Y-17899923D01*
X19885714Y-17899923D02*
X19828571Y-17929447D01*
X19828571Y-17929447D02*
X19771428Y-17988495D01*
X19771428Y-17988495D02*
X19742857Y-18106590D01*
X19742857Y-18106590D02*
X19742857Y-18313257D01*
X19742857Y-18313257D02*
X19771428Y-18431352D01*
X19771428Y-18431352D02*
X19828571Y-18490400D01*
X19828571Y-18490400D02*
X19885714Y-18519923D01*
X19885714Y-18519923D02*
X20000000Y-18519923D01*
X20000000Y-18519923D02*
X20057143Y-18490400D01*
X20057143Y-18490400D02*
X20114285Y-18431352D01*
X20114285Y-18431352D02*
X20142857Y-18313257D01*
X20142857Y-18313257D02*
X20142857Y-18106590D01*
X20142857Y-18106590D02*
X20114285Y-17988495D01*
X20114285Y-17988495D02*
X20057143Y-17929447D01*
X20057143Y-17929447D02*
X20000000Y-17899923D01*
X19171429Y-18519923D02*
X19514286Y-18519923D01*
X19342857Y-18519923D02*
X19342857Y-17899923D01*
X19342857Y-17899923D02*
X19400000Y-17988495D01*
X19400000Y-17988495D02*
X19457143Y-18047542D01*
X19457143Y-18047542D02*
X19514286Y-18077066D01*
X20514285Y-19488600D02*
X20428571Y-19518123D01*
X20428571Y-19518123D02*
X20285713Y-19518123D01*
X20285713Y-19518123D02*
X20228571Y-19488600D01*
X20228571Y-19488600D02*
X20199999Y-19459076D01*
X20199999Y-19459076D02*
X20171428Y-19400028D01*
X20171428Y-19400028D02*
X20171428Y-19340980D01*
X20171428Y-19340980D02*
X20199999Y-19281933D01*
X20199999Y-19281933D02*
X20228571Y-19252409D01*
X20228571Y-19252409D02*
X20285713Y-19222885D01*
X20285713Y-19222885D02*
X20399999Y-19193361D01*
X20399999Y-19193361D02*
X20457142Y-19163838D01*
X20457142Y-19163838D02*
X20485713Y-19134314D01*
X20485713Y-19134314D02*
X20514285Y-19075266D01*
X20514285Y-19075266D02*
X20514285Y-19016219D01*
X20514285Y-19016219D02*
X20485713Y-18957171D01*
X20485713Y-18957171D02*
X20457142Y-18927647D01*
X20457142Y-18927647D02*
X20399999Y-18898123D01*
X20399999Y-18898123D02*
X20257142Y-18898123D01*
X20257142Y-18898123D02*
X20171428Y-18927647D01*
X19571427Y-19459076D02*
X19599999Y-19488600D01*
X19599999Y-19488600D02*
X19685713Y-19518123D01*
X19685713Y-19518123D02*
X19742856Y-19518123D01*
X19742856Y-19518123D02*
X19828570Y-19488600D01*
X19828570Y-19488600D02*
X19885713Y-19429552D01*
X19885713Y-19429552D02*
X19914284Y-19370504D01*
X19914284Y-19370504D02*
X19942856Y-19252409D01*
X19942856Y-19252409D02*
X19942856Y-19163838D01*
X19942856Y-19163838D02*
X19914284Y-19045742D01*
X19914284Y-19045742D02*
X19885713Y-18986695D01*
X19885713Y-18986695D02*
X19828570Y-18927647D01*
X19828570Y-18927647D02*
X19742856Y-18898123D01*
X19742856Y-18898123D02*
X19685713Y-18898123D01*
X19685713Y-18898123D02*
X19599999Y-18927647D01*
X19599999Y-18927647D02*
X19571427Y-18957171D01*
X19028570Y-19518123D02*
X19314284Y-19518123D01*
X19314284Y-19518123D02*
X19314284Y-18898123D01*
X21171429Y-19896323D02*
X20971429Y-20516323D01*
X20971429Y-20516323D02*
X20771429Y-19896323D01*
X20571428Y-20516323D02*
X20571428Y-19896323D01*
X20571428Y-19896323D02*
X20428571Y-19896323D01*
X20428571Y-19896323D02*
X20342857Y-19925847D01*
X20342857Y-19925847D02*
X20285714Y-19984895D01*
X20285714Y-19984895D02*
X20257143Y-20043942D01*
X20257143Y-20043942D02*
X20228571Y-20162038D01*
X20228571Y-20162038D02*
X20228571Y-20250609D01*
X20228571Y-20250609D02*
X20257143Y-20368704D01*
X20257143Y-20368704D02*
X20285714Y-20427752D01*
X20285714Y-20427752D02*
X20342857Y-20486800D01*
X20342857Y-20486800D02*
X20428571Y-20516323D01*
X20428571Y-20516323D02*
X20571428Y-20516323D01*
X19971428Y-20516323D02*
X19971428Y-19896323D01*
X19971428Y-19896323D02*
X19828571Y-19896323D01*
X19828571Y-19896323D02*
X19742857Y-19925847D01*
X19742857Y-19925847D02*
X19685714Y-19984895D01*
X19685714Y-19984895D02*
X19657143Y-20043942D01*
X19657143Y-20043942D02*
X19628571Y-20162038D01*
X19628571Y-20162038D02*
X19628571Y-20250609D01*
X19628571Y-20250609D02*
X19657143Y-20368704D01*
X19657143Y-20368704D02*
X19685714Y-20427752D01*
X19685714Y-20427752D02*
X19742857Y-20486800D01*
X19742857Y-20486800D02*
X19828571Y-20516323D01*
X19828571Y-20516323D02*
X19971428Y-20516323D01*
X19428571Y-19896323D02*
X19057143Y-19896323D01*
X19057143Y-19896323D02*
X19257143Y-20132514D01*
X19257143Y-20132514D02*
X19171428Y-20132514D01*
X19171428Y-20132514D02*
X19114286Y-20162038D01*
X19114286Y-20162038D02*
X19085714Y-20191561D01*
X19085714Y-20191561D02*
X19057143Y-20250609D01*
X19057143Y-20250609D02*
X19057143Y-20398228D01*
X19057143Y-20398228D02*
X19085714Y-20457276D01*
X19085714Y-20457276D02*
X19114286Y-20486800D01*
X19114286Y-20486800D02*
X19171428Y-20516323D01*
X19171428Y-20516323D02*
X19342857Y-20516323D01*
X19342857Y-20516323D02*
X19400000Y-20486800D01*
X19400000Y-20486800D02*
X19428571Y-20457276D01*
X18857142Y-19896323D02*
X18485714Y-19896323D01*
X18485714Y-19896323D02*
X18685714Y-20132514D01*
X18685714Y-20132514D02*
X18599999Y-20132514D01*
X18599999Y-20132514D02*
X18542857Y-20162038D01*
X18542857Y-20162038D02*
X18514285Y-20191561D01*
X18514285Y-20191561D02*
X18485714Y-20250609D01*
X18485714Y-20250609D02*
X18485714Y-20398228D01*
X18485714Y-20398228D02*
X18514285Y-20457276D01*
X18514285Y-20457276D02*
X18542857Y-20486800D01*
X18542857Y-20486800D02*
X18599999Y-20516323D01*
X18599999Y-20516323D02*
X18771428Y-20516323D01*
X18771428Y-20516323D02*
X18828571Y-20486800D01*
X18828571Y-20486800D02*
X18857142Y-20457276D01*
X5733333Y-10016033D02*
X6133333Y-10016033D01*
X5933333Y-10016033D02*
X5933333Y-9316033D01*
X5933333Y-9316033D02*
X6000000Y-9416033D01*
X6000000Y-9416033D02*
X6066667Y-9482700D01*
X6066667Y-9482700D02*
X6133333Y-9516033D01*
X5433333Y-9749366D02*
X4900000Y-9749366D01*
X12325000Y-17866033D02*
X12325000Y-17166033D01*
X12325000Y-17166033D02*
X12158333Y-17166033D01*
X12158333Y-17166033D02*
X12058333Y-17199366D01*
X12058333Y-17199366D02*
X11991667Y-17266033D01*
X11991667Y-17266033D02*
X11958333Y-17332700D01*
X11958333Y-17332700D02*
X11925000Y-17466033D01*
X11925000Y-17466033D02*
X11925000Y-17566033D01*
X11925000Y-17566033D02*
X11958333Y-17699366D01*
X11958333Y-17699366D02*
X11991667Y-17766033D01*
X11991667Y-17766033D02*
X12058333Y-17832700D01*
X12058333Y-17832700D02*
X12158333Y-17866033D01*
X12158333Y-17866033D02*
X12325000Y-17866033D01*
X11625000Y-17866033D02*
X11625000Y-17166033D01*
X11625000Y-17166033D02*
X11358333Y-17166033D01*
X11358333Y-17166033D02*
X11291667Y-17199366D01*
X11291667Y-17199366D02*
X11258333Y-17232700D01*
X11258333Y-17232700D02*
X11225000Y-17299366D01*
X11225000Y-17299366D02*
X11225000Y-17399366D01*
X11225000Y-17399366D02*
X11258333Y-17466033D01*
X11258333Y-17466033D02*
X11291667Y-17499366D01*
X11291667Y-17499366D02*
X11358333Y-17532700D01*
X11358333Y-17532700D02*
X11625000Y-17532700D01*
X10925000Y-17866033D02*
X10925000Y-17166033D01*
X10925000Y-17499366D02*
X10525000Y-17499366D01*
X10525000Y-17866033D02*
X10525000Y-17166033D01*
X10058334Y-17532700D02*
X10058334Y-17866033D01*
X10291667Y-17166033D02*
X10058334Y-17532700D01*
X10058334Y-17532700D02*
X9825000Y-17166033D01*
X9291667Y-17399366D02*
X9291667Y-17866033D01*
X9458334Y-17132700D02*
X9625000Y-17632700D01*
X9625000Y-17632700D02*
X9191667Y-17632700D01*
X8625000Y-17399366D02*
X8625000Y-17866033D01*
X8791667Y-17132700D02*
X8958333Y-17632700D01*
X8958333Y-17632700D02*
X8525000Y-17632700D01*
X8125000Y-17166033D02*
X8058333Y-17166033D01*
X8058333Y-17166033D02*
X7991666Y-17199366D01*
X7991666Y-17199366D02*
X7958333Y-17232700D01*
X7958333Y-17232700D02*
X7925000Y-17299366D01*
X7925000Y-17299366D02*
X7891666Y-17432700D01*
X7891666Y-17432700D02*
X7891666Y-17599366D01*
X7891666Y-17599366D02*
X7925000Y-17732700D01*
X7925000Y-17732700D02*
X7958333Y-17799366D01*
X7958333Y-17799366D02*
X7991666Y-17832700D01*
X7991666Y-17832700D02*
X8058333Y-17866033D01*
X8058333Y-17866033D02*
X8125000Y-17866033D01*
X8125000Y-17866033D02*
X8191666Y-17832700D01*
X8191666Y-17832700D02*
X8225000Y-17799366D01*
X8225000Y-17799366D02*
X8258333Y-17732700D01*
X8258333Y-17732700D02*
X8291666Y-17599366D01*
X8291666Y-17599366D02*
X8291666Y-17432700D01*
X8291666Y-17432700D02*
X8258333Y-17299366D01*
X8258333Y-17299366D02*
X8225000Y-17232700D01*
X8225000Y-17232700D02*
X8191666Y-17199366D01*
X8191666Y-17199366D02*
X8125000Y-17166033D01*
X25183333Y-20249366D02*
X24650000Y-20249366D01*
X24349999Y-19882700D02*
X24316666Y-19849366D01*
X24316666Y-19849366D02*
X24249999Y-19816033D01*
X24249999Y-19816033D02*
X24083333Y-19816033D01*
X24083333Y-19816033D02*
X24016666Y-19849366D01*
X24016666Y-19849366D02*
X23983333Y-19882700D01*
X23983333Y-19882700D02*
X23949999Y-19949366D01*
X23949999Y-19949366D02*
X23949999Y-20016033D01*
X23949999Y-20016033D02*
X23983333Y-20116033D01*
X23983333Y-20116033D02*
X24383333Y-20516033D01*
X24383333Y-20516033D02*
X23949999Y-20516033D01*
X23683332Y-19882700D02*
X23649999Y-19849366D01*
X23649999Y-19849366D02*
X23583332Y-19816033D01*
X23583332Y-19816033D02*
X23416666Y-19816033D01*
X23416666Y-19816033D02*
X23349999Y-19849366D01*
X23349999Y-19849366D02*
X23316666Y-19882700D01*
X23316666Y-19882700D02*
X23283332Y-19949366D01*
X23283332Y-19949366D02*
X23283332Y-20016033D01*
X23283332Y-20016033D02*
X23316666Y-20116033D01*
X23316666Y-20116033D02*
X23716666Y-20516033D01*
X23716666Y-20516033D02*
X23283332Y-20516033D01*
D13*
X16808332Y-21246816D02*
X16874999Y-21213483D01*
X16874999Y-21213483D02*
X16974999Y-21213483D01*
X16974999Y-21213483D02*
X17074999Y-21246816D01*
X17074999Y-21246816D02*
X17141666Y-21313483D01*
X17141666Y-21313483D02*
X17174999Y-21380150D01*
X17174999Y-21380150D02*
X17208332Y-21513483D01*
X17208332Y-21513483D02*
X17208332Y-21613483D01*
X17208332Y-21613483D02*
X17174999Y-21746816D01*
X17174999Y-21746816D02*
X17141666Y-21813483D01*
X17141666Y-21813483D02*
X17074999Y-21880150D01*
X17074999Y-21880150D02*
X16974999Y-21913483D01*
X16974999Y-21913483D02*
X16908332Y-21913483D01*
X16908332Y-21913483D02*
X16808332Y-21880150D01*
X16808332Y-21880150D02*
X16774999Y-21846816D01*
X16774999Y-21846816D02*
X16774999Y-21613483D01*
X16774999Y-21613483D02*
X16908332Y-21613483D01*
X16474999Y-21913483D02*
X16474999Y-21213483D01*
X16474999Y-21213483D02*
X16074999Y-21913483D01*
X16074999Y-21913483D02*
X16074999Y-21213483D01*
X15741666Y-21913483D02*
X15741666Y-21213483D01*
X15741666Y-21213483D02*
X15574999Y-21213483D01*
X15574999Y-21213483D02*
X15474999Y-21246816D01*
X15474999Y-21246816D02*
X15408333Y-21313483D01*
X15408333Y-21313483D02*
X15374999Y-21380150D01*
X15374999Y-21380150D02*
X15341666Y-21513483D01*
X15341666Y-21513483D02*
X15341666Y-21613483D01*
X15341666Y-21613483D02*
X15374999Y-21746816D01*
X15374999Y-21746816D02*
X15408333Y-21813483D01*
X15408333Y-21813483D02*
X15474999Y-21880150D01*
X15474999Y-21880150D02*
X15574999Y-21913483D01*
X15574999Y-21913483D02*
X15741666Y-21913483D01*
D11*
X23914284Y-9748133D02*
X23457142Y-9748133D01*
X22857142Y-9393847D02*
X22914285Y-9364323D01*
X22914285Y-9364323D02*
X22999999Y-9364323D01*
X22999999Y-9364323D02*
X23085713Y-9393847D01*
X23085713Y-9393847D02*
X23142856Y-9452895D01*
X23142856Y-9452895D02*
X23171427Y-9511942D01*
X23171427Y-9511942D02*
X23199999Y-9630038D01*
X23199999Y-9630038D02*
X23199999Y-9718609D01*
X23199999Y-9718609D02*
X23171427Y-9836704D01*
X23171427Y-9836704D02*
X23142856Y-9895752D01*
X23142856Y-9895752D02*
X23085713Y-9954800D01*
X23085713Y-9954800D02*
X22999999Y-9984323D01*
X22999999Y-9984323D02*
X22942856Y-9984323D01*
X22942856Y-9984323D02*
X22857142Y-9954800D01*
X22857142Y-9954800D02*
X22828570Y-9925276D01*
X22828570Y-9925276D02*
X22828570Y-9718609D01*
X22828570Y-9718609D02*
X22942856Y-9718609D01*
X22571427Y-9984323D02*
X22571427Y-9364323D01*
X22571427Y-9364323D02*
X22228570Y-9984323D01*
X22228570Y-9984323D02*
X22228570Y-9364323D01*
X21942856Y-9984323D02*
X21942856Y-9364323D01*
X21942856Y-9364323D02*
X21799999Y-9364323D01*
X21799999Y-9364323D02*
X21714285Y-9393847D01*
X21714285Y-9393847D02*
X21657142Y-9452895D01*
X21657142Y-9452895D02*
X21628571Y-9511942D01*
X21628571Y-9511942D02*
X21599999Y-9630038D01*
X21599999Y-9630038D02*
X21599999Y-9718609D01*
X21599999Y-9718609D02*
X21628571Y-9836704D01*
X21628571Y-9836704D02*
X21657142Y-9895752D01*
X21657142Y-9895752D02*
X21714285Y-9954800D01*
X21714285Y-9954800D02*
X21799999Y-9984323D01*
X21799999Y-9984323D02*
X21942856Y-9984323D01*
X21342856Y-9748133D02*
X20885714Y-9748133D01*
X23142856Y-10982523D02*
X23142856Y-10362523D01*
X23142856Y-10362523D02*
X22999999Y-10362523D01*
X22999999Y-10362523D02*
X22914285Y-10392047D01*
X22914285Y-10392047D02*
X22857142Y-10451095D01*
X22857142Y-10451095D02*
X22828571Y-10510142D01*
X22828571Y-10510142D02*
X22799999Y-10628238D01*
X22799999Y-10628238D02*
X22799999Y-10716809D01*
X22799999Y-10716809D02*
X22828571Y-10834904D01*
X22828571Y-10834904D02*
X22857142Y-10893952D01*
X22857142Y-10893952D02*
X22914285Y-10953000D01*
X22914285Y-10953000D02*
X22999999Y-10982523D01*
X22999999Y-10982523D02*
X23142856Y-10982523D01*
X22428571Y-10362523D02*
X22371428Y-10362523D01*
X22371428Y-10362523D02*
X22314285Y-10392047D01*
X22314285Y-10392047D02*
X22285714Y-10421571D01*
X22285714Y-10421571D02*
X22257142Y-10480619D01*
X22257142Y-10480619D02*
X22228571Y-10598714D01*
X22228571Y-10598714D02*
X22228571Y-10746333D01*
X22228571Y-10746333D02*
X22257142Y-10864428D01*
X22257142Y-10864428D02*
X22285714Y-10923476D01*
X22285714Y-10923476D02*
X22314285Y-10953000D01*
X22314285Y-10953000D02*
X22371428Y-10982523D01*
X22371428Y-10982523D02*
X22428571Y-10982523D01*
X22428571Y-10982523D02*
X22485714Y-10953000D01*
X22485714Y-10953000D02*
X22514285Y-10923476D01*
X22514285Y-10923476D02*
X22542856Y-10864428D01*
X22542856Y-10864428D02*
X22571428Y-10746333D01*
X22571428Y-10746333D02*
X22571428Y-10598714D01*
X22571428Y-10598714D02*
X22542856Y-10480619D01*
X22542856Y-10480619D02*
X22514285Y-10421571D01*
X22514285Y-10421571D02*
X22485714Y-10392047D01*
X22485714Y-10392047D02*
X22428571Y-10362523D01*
X21971427Y-10982523D02*
X21971427Y-10362523D01*
X21971427Y-10362523D02*
X21742856Y-10362523D01*
X21742856Y-10362523D02*
X21685713Y-10392047D01*
X21685713Y-10392047D02*
X21657142Y-10421571D01*
X21657142Y-10421571D02*
X21628570Y-10480619D01*
X21628570Y-10480619D02*
X21628570Y-10569190D01*
X21628570Y-10569190D02*
X21657142Y-10628238D01*
X21657142Y-10628238D02*
X21685713Y-10657761D01*
X21685713Y-10657761D02*
X21742856Y-10687285D01*
X21742856Y-10687285D02*
X21971427Y-10687285D01*
X23157142Y-11980723D02*
X23157142Y-11360723D01*
X23157142Y-11360723D02*
X23014285Y-11360723D01*
X23014285Y-11360723D02*
X22928571Y-11390247D01*
X22928571Y-11390247D02*
X22871428Y-11449295D01*
X22871428Y-11449295D02*
X22842857Y-11508342D01*
X22842857Y-11508342D02*
X22814285Y-11626438D01*
X22814285Y-11626438D02*
X22814285Y-11715009D01*
X22814285Y-11715009D02*
X22842857Y-11833104D01*
X22842857Y-11833104D02*
X22871428Y-11892152D01*
X22871428Y-11892152D02*
X22928571Y-11951200D01*
X22928571Y-11951200D02*
X23014285Y-11980723D01*
X23014285Y-11980723D02*
X23157142Y-11980723D01*
X22242857Y-11980723D02*
X22585714Y-11980723D01*
X22414285Y-11980723D02*
X22414285Y-11360723D01*
X22414285Y-11360723D02*
X22471428Y-11449295D01*
X22471428Y-11449295D02*
X22528571Y-11508342D01*
X22528571Y-11508342D02*
X22585714Y-11537866D01*
X21985713Y-11980723D02*
X21985713Y-11360723D01*
X21985713Y-11360723D02*
X21642856Y-11980723D01*
X21642856Y-11980723D02*
X21642856Y-11360723D01*
X23914284Y-12742733D02*
X23457142Y-12742733D01*
X22857142Y-12388447D02*
X22914285Y-12358923D01*
X22914285Y-12358923D02*
X22999999Y-12358923D01*
X22999999Y-12358923D02*
X23085713Y-12388447D01*
X23085713Y-12388447D02*
X23142856Y-12447495D01*
X23142856Y-12447495D02*
X23171427Y-12506542D01*
X23171427Y-12506542D02*
X23199999Y-12624638D01*
X23199999Y-12624638D02*
X23199999Y-12713209D01*
X23199999Y-12713209D02*
X23171427Y-12831304D01*
X23171427Y-12831304D02*
X23142856Y-12890352D01*
X23142856Y-12890352D02*
X23085713Y-12949400D01*
X23085713Y-12949400D02*
X22999999Y-12978923D01*
X22999999Y-12978923D02*
X22942856Y-12978923D01*
X22942856Y-12978923D02*
X22857142Y-12949400D01*
X22857142Y-12949400D02*
X22828570Y-12919876D01*
X22828570Y-12919876D02*
X22828570Y-12713209D01*
X22828570Y-12713209D02*
X22942856Y-12713209D01*
X22571427Y-12978923D02*
X22571427Y-12358923D01*
X22571427Y-12358923D02*
X22228570Y-12978923D01*
X22228570Y-12978923D02*
X22228570Y-12358923D01*
X21942856Y-12978923D02*
X21942856Y-12358923D01*
X21942856Y-12358923D02*
X21799999Y-12358923D01*
X21799999Y-12358923D02*
X21714285Y-12388447D01*
X21714285Y-12388447D02*
X21657142Y-12447495D01*
X21657142Y-12447495D02*
X21628571Y-12506542D01*
X21628571Y-12506542D02*
X21599999Y-12624638D01*
X21599999Y-12624638D02*
X21599999Y-12713209D01*
X21599999Y-12713209D02*
X21628571Y-12831304D01*
X21628571Y-12831304D02*
X21657142Y-12890352D01*
X21657142Y-12890352D02*
X21714285Y-12949400D01*
X21714285Y-12949400D02*
X21799999Y-12978923D01*
X21799999Y-12978923D02*
X21942856Y-12978923D01*
X21342856Y-12742733D02*
X20885714Y-12742733D01*
X22814285Y-13918076D02*
X22842857Y-13947600D01*
X22842857Y-13947600D02*
X22928571Y-13977123D01*
X22928571Y-13977123D02*
X22985714Y-13977123D01*
X22985714Y-13977123D02*
X23071428Y-13947600D01*
X23071428Y-13947600D02*
X23128571Y-13888552D01*
X23128571Y-13888552D02*
X23157142Y-13829504D01*
X23157142Y-13829504D02*
X23185714Y-13711409D01*
X23185714Y-13711409D02*
X23185714Y-13622838D01*
X23185714Y-13622838D02*
X23157142Y-13504742D01*
X23157142Y-13504742D02*
X23128571Y-13445695D01*
X23128571Y-13445695D02*
X23071428Y-13386647D01*
X23071428Y-13386647D02*
X22985714Y-13357123D01*
X22985714Y-13357123D02*
X22928571Y-13357123D01*
X22928571Y-13357123D02*
X22842857Y-13386647D01*
X22842857Y-13386647D02*
X22814285Y-13416171D01*
X22557142Y-13977123D02*
X22557142Y-13357123D01*
X22214285Y-13977123D02*
X22471428Y-13622838D01*
X22214285Y-13357123D02*
X22557142Y-13711409D01*
X21957142Y-13977123D02*
X21957142Y-13357123D01*
X21957142Y-13357123D02*
X21728571Y-13357123D01*
X21728571Y-13357123D02*
X21671428Y-13386647D01*
X21671428Y-13386647D02*
X21642857Y-13416171D01*
X21642857Y-13416171D02*
X21614285Y-13475219D01*
X21614285Y-13475219D02*
X21614285Y-13563790D01*
X21614285Y-13563790D02*
X21642857Y-13622838D01*
X21642857Y-13622838D02*
X21671428Y-13652361D01*
X21671428Y-13652361D02*
X21728571Y-13681885D01*
X21728571Y-13681885D02*
X21957142Y-13681885D01*
X23157142Y-14975323D02*
X23157142Y-14355323D01*
X23157142Y-14355323D02*
X23014285Y-14355323D01*
X23014285Y-14355323D02*
X22928571Y-14384847D01*
X22928571Y-14384847D02*
X22871428Y-14443895D01*
X22871428Y-14443895D02*
X22842857Y-14502942D01*
X22842857Y-14502942D02*
X22814285Y-14621038D01*
X22814285Y-14621038D02*
X22814285Y-14709609D01*
X22814285Y-14709609D02*
X22842857Y-14827704D01*
X22842857Y-14827704D02*
X22871428Y-14886752D01*
X22871428Y-14886752D02*
X22928571Y-14945800D01*
X22928571Y-14945800D02*
X23014285Y-14975323D01*
X23014285Y-14975323D02*
X23157142Y-14975323D01*
X22585714Y-14414371D02*
X22557142Y-14384847D01*
X22557142Y-14384847D02*
X22500000Y-14355323D01*
X22500000Y-14355323D02*
X22357142Y-14355323D01*
X22357142Y-14355323D02*
X22300000Y-14384847D01*
X22300000Y-14384847D02*
X22271428Y-14414371D01*
X22271428Y-14414371D02*
X22242857Y-14473419D01*
X22242857Y-14473419D02*
X22242857Y-14532466D01*
X22242857Y-14532466D02*
X22271428Y-14621038D01*
X22271428Y-14621038D02*
X22614285Y-14975323D01*
X22614285Y-14975323D02*
X22242857Y-14975323D01*
X21985713Y-14975323D02*
X21985713Y-14355323D01*
X21985713Y-14355323D02*
X21642856Y-14975323D01*
X21642856Y-14975323D02*
X21642856Y-14355323D01*
X23914284Y-15737333D02*
X23457142Y-15737333D01*
X22857142Y-15383047D02*
X22914285Y-15353523D01*
X22914285Y-15353523D02*
X22999999Y-15353523D01*
X22999999Y-15353523D02*
X23085713Y-15383047D01*
X23085713Y-15383047D02*
X23142856Y-15442095D01*
X23142856Y-15442095D02*
X23171427Y-15501142D01*
X23171427Y-15501142D02*
X23199999Y-15619238D01*
X23199999Y-15619238D02*
X23199999Y-15707809D01*
X23199999Y-15707809D02*
X23171427Y-15825904D01*
X23171427Y-15825904D02*
X23142856Y-15884952D01*
X23142856Y-15884952D02*
X23085713Y-15944000D01*
X23085713Y-15944000D02*
X22999999Y-15973523D01*
X22999999Y-15973523D02*
X22942856Y-15973523D01*
X22942856Y-15973523D02*
X22857142Y-15944000D01*
X22857142Y-15944000D02*
X22828570Y-15914476D01*
X22828570Y-15914476D02*
X22828570Y-15707809D01*
X22828570Y-15707809D02*
X22942856Y-15707809D01*
X22571427Y-15973523D02*
X22571427Y-15353523D01*
X22571427Y-15353523D02*
X22228570Y-15973523D01*
X22228570Y-15973523D02*
X22228570Y-15353523D01*
X21942856Y-15973523D02*
X21942856Y-15353523D01*
X21942856Y-15353523D02*
X21799999Y-15353523D01*
X21799999Y-15353523D02*
X21714285Y-15383047D01*
X21714285Y-15383047D02*
X21657142Y-15442095D01*
X21657142Y-15442095D02*
X21628571Y-15501142D01*
X21628571Y-15501142D02*
X21599999Y-15619238D01*
X21599999Y-15619238D02*
X21599999Y-15707809D01*
X21599999Y-15707809D02*
X21628571Y-15825904D01*
X21628571Y-15825904D02*
X21657142Y-15884952D01*
X21657142Y-15884952D02*
X21714285Y-15944000D01*
X21714285Y-15944000D02*
X21799999Y-15973523D01*
X21799999Y-15973523D02*
X21942856Y-15973523D01*
X21342856Y-15737333D02*
X20885714Y-15737333D01*
X23142856Y-16971723D02*
X23142856Y-16351723D01*
X23142856Y-16351723D02*
X22999999Y-16351723D01*
X22999999Y-16351723D02*
X22914285Y-16381247D01*
X22914285Y-16381247D02*
X22857142Y-16440295D01*
X22857142Y-16440295D02*
X22828571Y-16499342D01*
X22828571Y-16499342D02*
X22799999Y-16617438D01*
X22799999Y-16617438D02*
X22799999Y-16706009D01*
X22799999Y-16706009D02*
X22828571Y-16824104D01*
X22828571Y-16824104D02*
X22857142Y-16883152D01*
X22857142Y-16883152D02*
X22914285Y-16942200D01*
X22914285Y-16942200D02*
X22999999Y-16971723D01*
X22999999Y-16971723D02*
X23142856Y-16971723D01*
X22599999Y-16351723D02*
X22228571Y-16351723D01*
X22228571Y-16351723D02*
X22428571Y-16587914D01*
X22428571Y-16587914D02*
X22342856Y-16587914D01*
X22342856Y-16587914D02*
X22285714Y-16617438D01*
X22285714Y-16617438D02*
X22257142Y-16646961D01*
X22257142Y-16646961D02*
X22228571Y-16706009D01*
X22228571Y-16706009D02*
X22228571Y-16853628D01*
X22228571Y-16853628D02*
X22257142Y-16912676D01*
X22257142Y-16912676D02*
X22285714Y-16942200D01*
X22285714Y-16942200D02*
X22342856Y-16971723D01*
X22342856Y-16971723D02*
X22514285Y-16971723D01*
X22514285Y-16971723D02*
X22571428Y-16942200D01*
X22571428Y-16942200D02*
X22599999Y-16912676D01*
X21971427Y-16971723D02*
X21971427Y-16351723D01*
X21971427Y-16351723D02*
X21742856Y-16351723D01*
X21742856Y-16351723D02*
X21685713Y-16381247D01*
X21685713Y-16381247D02*
X21657142Y-16410771D01*
X21657142Y-16410771D02*
X21628570Y-16469819D01*
X21628570Y-16469819D02*
X21628570Y-16558390D01*
X21628570Y-16558390D02*
X21657142Y-16617438D01*
X21657142Y-16617438D02*
X21685713Y-16646961D01*
X21685713Y-16646961D02*
X21742856Y-16676485D01*
X21742856Y-16676485D02*
X21971427Y-16676485D01*
X23942856Y-17969923D02*
X23942856Y-17349923D01*
X23942856Y-17349923D02*
X23714285Y-17349923D01*
X23714285Y-17349923D02*
X23657142Y-17379447D01*
X23657142Y-17379447D02*
X23628571Y-17408971D01*
X23628571Y-17408971D02*
X23599999Y-17468019D01*
X23599999Y-17468019D02*
X23599999Y-17556590D01*
X23599999Y-17556590D02*
X23628571Y-17615638D01*
X23628571Y-17615638D02*
X23657142Y-17645161D01*
X23657142Y-17645161D02*
X23714285Y-17674685D01*
X23714285Y-17674685D02*
X23942856Y-17674685D01*
X23399999Y-17349923D02*
X23257142Y-17969923D01*
X23257142Y-17969923D02*
X23142856Y-17527066D01*
X23142856Y-17527066D02*
X23028571Y-17969923D01*
X23028571Y-17969923D02*
X22885714Y-17349923D01*
X22657142Y-17645161D02*
X22457142Y-17645161D01*
X22371428Y-17969923D02*
X22657142Y-17969923D01*
X22657142Y-17969923D02*
X22657142Y-17349923D01*
X22657142Y-17349923D02*
X22371428Y-17349923D01*
X22114285Y-17969923D02*
X22114285Y-17349923D01*
X22114285Y-17349923D02*
X21771428Y-17969923D01*
X21771428Y-17969923D02*
X21771428Y-17349923D01*
X23914284Y-18731933D02*
X23457142Y-18731933D01*
X22857142Y-18377647D02*
X22914285Y-18348123D01*
X22914285Y-18348123D02*
X22999999Y-18348123D01*
X22999999Y-18348123D02*
X23085713Y-18377647D01*
X23085713Y-18377647D02*
X23142856Y-18436695D01*
X23142856Y-18436695D02*
X23171427Y-18495742D01*
X23171427Y-18495742D02*
X23199999Y-18613838D01*
X23199999Y-18613838D02*
X23199999Y-18702409D01*
X23199999Y-18702409D02*
X23171427Y-18820504D01*
X23171427Y-18820504D02*
X23142856Y-18879552D01*
X23142856Y-18879552D02*
X23085713Y-18938600D01*
X23085713Y-18938600D02*
X22999999Y-18968123D01*
X22999999Y-18968123D02*
X22942856Y-18968123D01*
X22942856Y-18968123D02*
X22857142Y-18938600D01*
X22857142Y-18938600D02*
X22828570Y-18909076D01*
X22828570Y-18909076D02*
X22828570Y-18702409D01*
X22828570Y-18702409D02*
X22942856Y-18702409D01*
X22571427Y-18968123D02*
X22571427Y-18348123D01*
X22571427Y-18348123D02*
X22228570Y-18968123D01*
X22228570Y-18968123D02*
X22228570Y-18348123D01*
X21942856Y-18968123D02*
X21942856Y-18348123D01*
X21942856Y-18348123D02*
X21799999Y-18348123D01*
X21799999Y-18348123D02*
X21714285Y-18377647D01*
X21714285Y-18377647D02*
X21657142Y-18436695D01*
X21657142Y-18436695D02*
X21628571Y-18495742D01*
X21628571Y-18495742D02*
X21599999Y-18613838D01*
X21599999Y-18613838D02*
X21599999Y-18702409D01*
X21599999Y-18702409D02*
X21628571Y-18820504D01*
X21628571Y-18820504D02*
X21657142Y-18879552D01*
X21657142Y-18879552D02*
X21714285Y-18938600D01*
X21714285Y-18938600D02*
X21799999Y-18968123D01*
X21799999Y-18968123D02*
X21942856Y-18968123D01*
X21342856Y-18731933D02*
X20885714Y-18731933D01*
X23128571Y-19936800D02*
X23042857Y-19966323D01*
X23042857Y-19966323D02*
X22899999Y-19966323D01*
X22899999Y-19966323D02*
X22842857Y-19936800D01*
X22842857Y-19936800D02*
X22814285Y-19907276D01*
X22814285Y-19907276D02*
X22785714Y-19848228D01*
X22785714Y-19848228D02*
X22785714Y-19789180D01*
X22785714Y-19789180D02*
X22814285Y-19730133D01*
X22814285Y-19730133D02*
X22842857Y-19700609D01*
X22842857Y-19700609D02*
X22899999Y-19671085D01*
X22899999Y-19671085D02*
X23014285Y-19641561D01*
X23014285Y-19641561D02*
X23071428Y-19612038D01*
X23071428Y-19612038D02*
X23099999Y-19582514D01*
X23099999Y-19582514D02*
X23128571Y-19523466D01*
X23128571Y-19523466D02*
X23128571Y-19464419D01*
X23128571Y-19464419D02*
X23099999Y-19405371D01*
X23099999Y-19405371D02*
X23071428Y-19375847D01*
X23071428Y-19375847D02*
X23014285Y-19346323D01*
X23014285Y-19346323D02*
X22871428Y-19346323D01*
X22871428Y-19346323D02*
X22785714Y-19375847D01*
X22528570Y-19966323D02*
X22528570Y-19346323D01*
X22528570Y-19346323D02*
X22385713Y-19346323D01*
X22385713Y-19346323D02*
X22299999Y-19375847D01*
X22299999Y-19375847D02*
X22242856Y-19434895D01*
X22242856Y-19434895D02*
X22214285Y-19493942D01*
X22214285Y-19493942D02*
X22185713Y-19612038D01*
X22185713Y-19612038D02*
X22185713Y-19700609D01*
X22185713Y-19700609D02*
X22214285Y-19818704D01*
X22214285Y-19818704D02*
X22242856Y-19877752D01*
X22242856Y-19877752D02*
X22299999Y-19936800D01*
X22299999Y-19936800D02*
X22385713Y-19966323D01*
X22385713Y-19966323D02*
X22528570Y-19966323D01*
X21957142Y-19789180D02*
X21671428Y-19789180D01*
X22014285Y-19966323D02*
X21814285Y-19346323D01*
X21814285Y-19346323D02*
X21614285Y-19966323D01*
D13*
X19524999Y-21913483D02*
X19524999Y-21213483D01*
X19058333Y-21213483D02*
X18924999Y-21213483D01*
X18924999Y-21213483D02*
X18858333Y-21246816D01*
X18858333Y-21246816D02*
X18791666Y-21313483D01*
X18791666Y-21313483D02*
X18758333Y-21446816D01*
X18758333Y-21446816D02*
X18758333Y-21680150D01*
X18758333Y-21680150D02*
X18791666Y-21813483D01*
X18791666Y-21813483D02*
X18858333Y-21880150D01*
X18858333Y-21880150D02*
X18924999Y-21913483D01*
X18924999Y-21913483D02*
X19058333Y-21913483D01*
X19058333Y-21913483D02*
X19124999Y-21880150D01*
X19124999Y-21880150D02*
X19191666Y-21813483D01*
X19191666Y-21813483D02*
X19224999Y-21680150D01*
X19224999Y-21680150D02*
X19224999Y-21446816D01*
X19224999Y-21446816D02*
X19191666Y-21313483D01*
X19191666Y-21313483D02*
X19124999Y-21246816D01*
X19124999Y-21246816D02*
X19058333Y-21213483D01*
X18091666Y-21913483D02*
X18491666Y-21913483D01*
X18291666Y-21913483D02*
X18291666Y-21213483D01*
X18291666Y-21213483D02*
X18358333Y-21313483D01*
X18358333Y-21313483D02*
X18425000Y-21380150D01*
X18425000Y-21380150D02*
X18491666Y-21413483D01*
X20803332Y-703566D02*
X20869999Y-670233D01*
X20869999Y-670233D02*
X20969999Y-670233D01*
X20969999Y-670233D02*
X21069999Y-703566D01*
X21069999Y-703566D02*
X21136666Y-770233D01*
X21136666Y-770233D02*
X21169999Y-836900D01*
X21169999Y-836900D02*
X21203332Y-970233D01*
X21203332Y-970233D02*
X21203332Y-1070233D01*
X21203332Y-1070233D02*
X21169999Y-1203566D01*
X21169999Y-1203566D02*
X21136666Y-1270233D01*
X21136666Y-1270233D02*
X21069999Y-1336900D01*
X21069999Y-1336900D02*
X20969999Y-1370233D01*
X20969999Y-1370233D02*
X20903332Y-1370233D01*
X20903332Y-1370233D02*
X20803332Y-1336900D01*
X20803332Y-1336900D02*
X20769999Y-1303566D01*
X20769999Y-1303566D02*
X20769999Y-1070233D01*
X20769999Y-1070233D02*
X20903332Y-1070233D01*
X20469999Y-1370233D02*
X20469999Y-670233D01*
X20469999Y-670233D02*
X20069999Y-1370233D01*
X20069999Y-1370233D02*
X20069999Y-670233D01*
X19736666Y-1370233D02*
X19736666Y-670233D01*
X19736666Y-670233D02*
X19569999Y-670233D01*
X19569999Y-670233D02*
X19469999Y-703566D01*
X19469999Y-703566D02*
X19403333Y-770233D01*
X19403333Y-770233D02*
X19369999Y-836900D01*
X19369999Y-836900D02*
X19336666Y-970233D01*
X19336666Y-970233D02*
X19336666Y-1070233D01*
X19336666Y-1070233D02*
X19369999Y-1203566D01*
X19369999Y-1203566D02*
X19403333Y-1270233D01*
X19403333Y-1270233D02*
X19469999Y-1336900D01*
X19469999Y-1336900D02*
X19569999Y-1370233D01*
X19569999Y-1370233D02*
X19736666Y-1370233D01*
X12124999Y-21880150D02*
X12024999Y-21913483D01*
X12024999Y-21913483D02*
X11858333Y-21913483D01*
X11858333Y-21913483D02*
X11791666Y-21880150D01*
X11791666Y-21880150D02*
X11758333Y-21846816D01*
X11758333Y-21846816D02*
X11724999Y-21780150D01*
X11724999Y-21780150D02*
X11724999Y-21713483D01*
X11724999Y-21713483D02*
X11758333Y-21646816D01*
X11758333Y-21646816D02*
X11791666Y-21613483D01*
X11791666Y-21613483D02*
X11858333Y-21580150D01*
X11858333Y-21580150D02*
X11991666Y-21546816D01*
X11991666Y-21546816D02*
X12058333Y-21513483D01*
X12058333Y-21513483D02*
X12091666Y-21480150D01*
X12091666Y-21480150D02*
X12124999Y-21413483D01*
X12124999Y-21413483D02*
X12124999Y-21346816D01*
X12124999Y-21346816D02*
X12091666Y-21280150D01*
X12091666Y-21280150D02*
X12058333Y-21246816D01*
X12058333Y-21246816D02*
X11991666Y-21213483D01*
X11991666Y-21213483D02*
X11824999Y-21213483D01*
X11824999Y-21213483D02*
X11724999Y-21246816D01*
X11424999Y-21913483D02*
X11424999Y-21213483D01*
X11424999Y-21213483D02*
X11258332Y-21213483D01*
X11258332Y-21213483D02*
X11158332Y-21246816D01*
X11158332Y-21246816D02*
X11091666Y-21313483D01*
X11091666Y-21313483D02*
X11058332Y-21380150D01*
X11058332Y-21380150D02*
X11024999Y-21513483D01*
X11024999Y-21513483D02*
X11024999Y-21613483D01*
X11024999Y-21613483D02*
X11058332Y-21746816D01*
X11058332Y-21746816D02*
X11091666Y-21813483D01*
X11091666Y-21813483D02*
X11158332Y-21880150D01*
X11158332Y-21880150D02*
X11258332Y-21913483D01*
X11258332Y-21913483D02*
X11424999Y-21913483D01*
X10758332Y-21713483D02*
X10424999Y-21713483D01*
X10824999Y-21913483D02*
X10591666Y-21213483D01*
X10591666Y-21213483D02*
X10358332Y-21913483D01*
D14*
X9016666Y-15477219D02*
X9016666Y-14477219D01*
X9016666Y-14953409D02*
X8445238Y-14953409D01*
X8445238Y-15477219D02*
X8445238Y-14477219D01*
X7778571Y-14477219D02*
X7588095Y-14477219D01*
X7588095Y-14477219D02*
X7492857Y-14524838D01*
X7492857Y-14524838D02*
X7397619Y-14620076D01*
X7397619Y-14620076D02*
X7350000Y-14810552D01*
X7350000Y-14810552D02*
X7350000Y-15143885D01*
X7350000Y-15143885D02*
X7397619Y-15334361D01*
X7397619Y-15334361D02*
X7492857Y-15429600D01*
X7492857Y-15429600D02*
X7588095Y-15477219D01*
X7588095Y-15477219D02*
X7778571Y-15477219D01*
X7778571Y-15477219D02*
X7873809Y-15429600D01*
X7873809Y-15429600D02*
X7969047Y-15334361D01*
X7969047Y-15334361D02*
X8016666Y-15143885D01*
X8016666Y-15143885D02*
X8016666Y-14810552D01*
X8016666Y-14810552D02*
X7969047Y-14620076D01*
X7969047Y-14620076D02*
X7873809Y-14524838D01*
X7873809Y-14524838D02*
X7778571Y-14477219D01*
X6969047Y-15429600D02*
X6826190Y-15477219D01*
X6826190Y-15477219D02*
X6588095Y-15477219D01*
X6588095Y-15477219D02*
X6492857Y-15429600D01*
X6492857Y-15429600D02*
X6445238Y-15381980D01*
X6445238Y-15381980D02*
X6397619Y-15286742D01*
X6397619Y-15286742D02*
X6397619Y-15191504D01*
X6397619Y-15191504D02*
X6445238Y-15096266D01*
X6445238Y-15096266D02*
X6492857Y-15048647D01*
X6492857Y-15048647D02*
X6588095Y-15001028D01*
X6588095Y-15001028D02*
X6778571Y-14953409D01*
X6778571Y-14953409D02*
X6873809Y-14905790D01*
X6873809Y-14905790D02*
X6921428Y-14858171D01*
X6921428Y-14858171D02*
X6969047Y-14762933D01*
X6969047Y-14762933D02*
X6969047Y-14667695D01*
X6969047Y-14667695D02*
X6921428Y-14572457D01*
X6921428Y-14572457D02*
X6873809Y-14524838D01*
X6873809Y-14524838D02*
X6778571Y-14477219D01*
X6778571Y-14477219D02*
X6540476Y-14477219D01*
X6540476Y-14477219D02*
X6397619Y-14524838D01*
X6111904Y-14477219D02*
X5540476Y-14477219D01*
X5826190Y-15477219D02*
X5826190Y-14477219D01*
D13*
X14608333Y-21880150D02*
X14508333Y-21913483D01*
X14508333Y-21913483D02*
X14341667Y-21913483D01*
X14341667Y-21913483D02*
X14275000Y-21880150D01*
X14275000Y-21880150D02*
X14241667Y-21846816D01*
X14241667Y-21846816D02*
X14208333Y-21780150D01*
X14208333Y-21780150D02*
X14208333Y-21713483D01*
X14208333Y-21713483D02*
X14241667Y-21646816D01*
X14241667Y-21646816D02*
X14275000Y-21613483D01*
X14275000Y-21613483D02*
X14341667Y-21580150D01*
X14341667Y-21580150D02*
X14475000Y-21546816D01*
X14475000Y-21546816D02*
X14541667Y-21513483D01*
X14541667Y-21513483D02*
X14575000Y-21480150D01*
X14575000Y-21480150D02*
X14608333Y-21413483D01*
X14608333Y-21413483D02*
X14608333Y-21346816D01*
X14608333Y-21346816D02*
X14575000Y-21280150D01*
X14575000Y-21280150D02*
X14541667Y-21246816D01*
X14541667Y-21246816D02*
X14475000Y-21213483D01*
X14475000Y-21213483D02*
X14308333Y-21213483D01*
X14308333Y-21213483D02*
X14208333Y-21246816D01*
X13508333Y-21846816D02*
X13541666Y-21880150D01*
X13541666Y-21880150D02*
X13641666Y-21913483D01*
X13641666Y-21913483D02*
X13708333Y-21913483D01*
X13708333Y-21913483D02*
X13808333Y-21880150D01*
X13808333Y-21880150D02*
X13875000Y-21813483D01*
X13875000Y-21813483D02*
X13908333Y-21746816D01*
X13908333Y-21746816D02*
X13941666Y-21613483D01*
X13941666Y-21613483D02*
X13941666Y-21513483D01*
X13941666Y-21513483D02*
X13908333Y-21380150D01*
X13908333Y-21380150D02*
X13875000Y-21313483D01*
X13875000Y-21313483D02*
X13808333Y-21246816D01*
X13808333Y-21246816D02*
X13708333Y-21213483D01*
X13708333Y-21213483D02*
X13641666Y-21213483D01*
X13641666Y-21213483D02*
X13541666Y-21246816D01*
X13541666Y-21246816D02*
X13508333Y-21280150D01*
X12875000Y-21913483D02*
X13208333Y-21913483D01*
X13208333Y-21913483D02*
X13208333Y-21213483D01*
D12*
X14398809Y-1356050D02*
X14305952Y-1387002D01*
X14305952Y-1387002D02*
X14151190Y-1387002D01*
X14151190Y-1387002D02*
X14089285Y-1356050D01*
X14089285Y-1356050D02*
X14058333Y-1325097D01*
X14058333Y-1325097D02*
X14027380Y-1263192D01*
X14027380Y-1263192D02*
X14027380Y-1201288D01*
X14027380Y-1201288D02*
X14058333Y-1139383D01*
X14058333Y-1139383D02*
X14089285Y-1108430D01*
X14089285Y-1108430D02*
X14151190Y-1077478D01*
X14151190Y-1077478D02*
X14274999Y-1046526D01*
X14274999Y-1046526D02*
X14336904Y-1015573D01*
X14336904Y-1015573D02*
X14367857Y-984621D01*
X14367857Y-984621D02*
X14398809Y-922716D01*
X14398809Y-922716D02*
X14398809Y-860811D01*
X14398809Y-860811D02*
X14367857Y-798907D01*
X14367857Y-798907D02*
X14336904Y-767954D01*
X14336904Y-767954D02*
X14274999Y-737002D01*
X14274999Y-737002D02*
X14120238Y-737002D01*
X14120238Y-737002D02*
X14027380Y-767954D01*
X13377380Y-1325097D02*
X13408332Y-1356050D01*
X13408332Y-1356050D02*
X13501190Y-1387002D01*
X13501190Y-1387002D02*
X13563094Y-1387002D01*
X13563094Y-1387002D02*
X13655951Y-1356050D01*
X13655951Y-1356050D02*
X13717856Y-1294145D01*
X13717856Y-1294145D02*
X13748809Y-1232240D01*
X13748809Y-1232240D02*
X13779761Y-1108430D01*
X13779761Y-1108430D02*
X13779761Y-1015573D01*
X13779761Y-1015573D02*
X13748809Y-891764D01*
X13748809Y-891764D02*
X13717856Y-829859D01*
X13717856Y-829859D02*
X13655951Y-767954D01*
X13655951Y-767954D02*
X13563094Y-737002D01*
X13563094Y-737002D02*
X13501190Y-737002D01*
X13501190Y-737002D02*
X13408332Y-767954D01*
X13408332Y-767954D02*
X13377380Y-798907D01*
X12789285Y-1387002D02*
X13098809Y-1387002D01*
X13098809Y-1387002D02*
X13098809Y-737002D01*
D13*
X22791666Y-21913483D02*
X22791666Y-21213483D01*
X22791666Y-21213483D02*
X22524999Y-21213483D01*
X22524999Y-21213483D02*
X22458333Y-21246816D01*
X22458333Y-21246816D02*
X22424999Y-21280150D01*
X22424999Y-21280150D02*
X22391666Y-21346816D01*
X22391666Y-21346816D02*
X22391666Y-21446816D01*
X22391666Y-21446816D02*
X22424999Y-21513483D01*
X22424999Y-21513483D02*
X22458333Y-21546816D01*
X22458333Y-21546816D02*
X22524999Y-21580150D01*
X22524999Y-21580150D02*
X22791666Y-21580150D01*
X22158333Y-21213483D02*
X21991666Y-21913483D01*
X21991666Y-21913483D02*
X21858333Y-21413483D01*
X21858333Y-21413483D02*
X21724999Y-21913483D01*
X21724999Y-21913483D02*
X21558333Y-21213483D01*
X21291666Y-21546816D02*
X21058333Y-21546816D01*
X20958333Y-21913483D02*
X21291666Y-21913483D01*
X21291666Y-21913483D02*
X21291666Y-21213483D01*
X21291666Y-21213483D02*
X20958333Y-21213483D01*
X20658333Y-21913483D02*
X20658333Y-21213483D01*
X20658333Y-21213483D02*
X20258333Y-21913483D01*
X20258333Y-21913483D02*
X20258333Y-21213483D01*
X7633333Y-1380233D02*
X8033333Y-1380233D01*
X7833333Y-1380233D02*
X7833333Y-680233D01*
X7833333Y-680233D02*
X7900000Y-780233D01*
X7900000Y-780233D02*
X7966667Y-846900D01*
X7966667Y-846900D02*
X8033333Y-880233D01*
X7433333Y-680233D02*
X7200000Y-1380233D01*
X7200000Y-1380233D02*
X6966666Y-680233D01*
X6633333Y-980233D02*
X6700000Y-946900D01*
X6700000Y-946900D02*
X6733333Y-913566D01*
X6733333Y-913566D02*
X6766666Y-846900D01*
X6766666Y-846900D02*
X6766666Y-813566D01*
X6766666Y-813566D02*
X6733333Y-746900D01*
X6733333Y-746900D02*
X6700000Y-713566D01*
X6700000Y-713566D02*
X6633333Y-680233D01*
X6633333Y-680233D02*
X6500000Y-680233D01*
X6500000Y-680233D02*
X6433333Y-713566D01*
X6433333Y-713566D02*
X6400000Y-746900D01*
X6400000Y-746900D02*
X6366666Y-813566D01*
X6366666Y-813566D02*
X6366666Y-846900D01*
X6366666Y-846900D02*
X6400000Y-913566D01*
X6400000Y-913566D02*
X6433333Y-946900D01*
X6433333Y-946900D02*
X6500000Y-980233D01*
X6500000Y-980233D02*
X6633333Y-980233D01*
X6633333Y-980233D02*
X6700000Y-1013566D01*
X6700000Y-1013566D02*
X6733333Y-1046900D01*
X6733333Y-1046900D02*
X6766666Y-1113566D01*
X6766666Y-1113566D02*
X6766666Y-1246900D01*
X6766666Y-1246900D02*
X6733333Y-1313566D01*
X6733333Y-1313566D02*
X6700000Y-1346900D01*
X6700000Y-1346900D02*
X6633333Y-1380233D01*
X6633333Y-1380233D02*
X6500000Y-1380233D01*
X6500000Y-1380233D02*
X6433333Y-1346900D01*
X6433333Y-1346900D02*
X6400000Y-1313566D01*
X6400000Y-1313566D02*
X6366666Y-1246900D01*
X6366666Y-1246900D02*
X6366666Y-1113566D01*
X6366666Y-1113566D02*
X6400000Y-1046900D01*
X6400000Y-1046900D02*
X6433333Y-1013566D01*
X6433333Y-1013566D02*
X6500000Y-980233D01*
D11*
X6716666Y-19882700D02*
X6683333Y-19849366D01*
X6683333Y-19849366D02*
X6616666Y-19816033D01*
X6616666Y-19816033D02*
X6450000Y-19816033D01*
X6450000Y-19816033D02*
X6383333Y-19849366D01*
X6383333Y-19849366D02*
X6350000Y-19882700D01*
X6350000Y-19882700D02*
X6316666Y-19949366D01*
X6316666Y-19949366D02*
X6316666Y-20016033D01*
X6316666Y-20016033D02*
X6350000Y-20116033D01*
X6350000Y-20116033D02*
X6750000Y-20516033D01*
X6750000Y-20516033D02*
X6316666Y-20516033D01*
X6049999Y-19882700D02*
X6016666Y-19849366D01*
X6016666Y-19849366D02*
X5949999Y-19816033D01*
X5949999Y-19816033D02*
X5783333Y-19816033D01*
X5783333Y-19816033D02*
X5716666Y-19849366D01*
X5716666Y-19849366D02*
X5683333Y-19882700D01*
X5683333Y-19882700D02*
X5649999Y-19949366D01*
X5649999Y-19949366D02*
X5649999Y-20016033D01*
X5649999Y-20016033D02*
X5683333Y-20116033D01*
X5683333Y-20116033D02*
X6083333Y-20516033D01*
X6083333Y-20516033D02*
X5649999Y-20516033D01*
X5349999Y-20249366D02*
X4816666Y-20249366D01*
D13*
X9708333Y-21213483D02*
X9475000Y-21913483D01*
X9475000Y-21913483D02*
X9241666Y-21213483D01*
X9008333Y-21913483D02*
X9008333Y-21213483D01*
X9008333Y-21213483D02*
X8841666Y-21213483D01*
X8841666Y-21213483D02*
X8741666Y-21246816D01*
X8741666Y-21246816D02*
X8675000Y-21313483D01*
X8675000Y-21313483D02*
X8641666Y-21380150D01*
X8641666Y-21380150D02*
X8608333Y-21513483D01*
X8608333Y-21513483D02*
X8608333Y-21613483D01*
X8608333Y-21613483D02*
X8641666Y-21746816D01*
X8641666Y-21746816D02*
X8675000Y-21813483D01*
X8675000Y-21813483D02*
X8741666Y-21880150D01*
X8741666Y-21880150D02*
X8841666Y-21913483D01*
X8841666Y-21913483D02*
X9008333Y-21913483D01*
X8308333Y-21913483D02*
X8308333Y-21213483D01*
X8308333Y-21213483D02*
X8141666Y-21213483D01*
X8141666Y-21213483D02*
X8041666Y-21246816D01*
X8041666Y-21246816D02*
X7975000Y-21313483D01*
X7975000Y-21313483D02*
X7941666Y-21380150D01*
X7941666Y-21380150D02*
X7908333Y-21513483D01*
X7908333Y-21513483D02*
X7908333Y-21613483D01*
X7908333Y-21613483D02*
X7941666Y-21746816D01*
X7941666Y-21746816D02*
X7975000Y-21813483D01*
X7975000Y-21813483D02*
X8041666Y-21880150D01*
X8041666Y-21880150D02*
X8141666Y-21913483D01*
X8141666Y-21913483D02*
X8308333Y-21913483D01*
X23006664Y-25628233D02*
X23006664Y-24928233D01*
X22939997Y-25361566D02*
X22739997Y-25628233D01*
X22739997Y-25161566D02*
X23006664Y-25428233D01*
X22439997Y-25628233D02*
X22439997Y-25161566D01*
X22439997Y-24928233D02*
X22473330Y-24961566D01*
X22473330Y-24961566D02*
X22439997Y-24994900D01*
X22439997Y-24994900D02*
X22406664Y-24961566D01*
X22406664Y-24961566D02*
X22439997Y-24928233D01*
X22439997Y-24928233D02*
X22439997Y-24994900D01*
X22106664Y-25161566D02*
X22106664Y-25628233D01*
X22106664Y-25228233D02*
X22073331Y-25194900D01*
X22073331Y-25194900D02*
X22006664Y-25161566D01*
X22006664Y-25161566D02*
X21906664Y-25161566D01*
X21906664Y-25161566D02*
X21839997Y-25194900D01*
X21839997Y-25194900D02*
X21806664Y-25261566D01*
X21806664Y-25261566D02*
X21806664Y-25628233D01*
X21173331Y-25628233D02*
X21173331Y-24928233D01*
X21173331Y-25594900D02*
X21239998Y-25628233D01*
X21239998Y-25628233D02*
X21373331Y-25628233D01*
X21373331Y-25628233D02*
X21439998Y-25594900D01*
X21439998Y-25594900D02*
X21473331Y-25561566D01*
X21473331Y-25561566D02*
X21506664Y-25494900D01*
X21506664Y-25494900D02*
X21506664Y-25294900D01*
X21506664Y-25294900D02*
X21473331Y-25228233D01*
X21473331Y-25228233D02*
X21439998Y-25194900D01*
X21439998Y-25194900D02*
X21373331Y-25161566D01*
X21373331Y-25161566D02*
X21239998Y-25161566D01*
X21239998Y-25161566D02*
X21173331Y-25194900D01*
X20739998Y-25628233D02*
X20806665Y-25594900D01*
X20806665Y-25594900D02*
X20839998Y-25528233D01*
X20839998Y-25528233D02*
X20839998Y-24928233D01*
X20539998Y-25161566D02*
X20373331Y-25628233D01*
X20206664Y-25161566D02*
X20373331Y-25628233D01*
X20373331Y-25628233D02*
X20439998Y-25794900D01*
X20439998Y-25794900D02*
X20473331Y-25828233D01*
X20473331Y-25828233D02*
X20539998Y-25861566D01*
X19439998Y-25594900D02*
X19373332Y-25628233D01*
X19373332Y-25628233D02*
X19239998Y-25628233D01*
X19239998Y-25628233D02*
X19173332Y-25594900D01*
X19173332Y-25594900D02*
X19139998Y-25528233D01*
X19139998Y-25528233D02*
X19139998Y-25494900D01*
X19139998Y-25494900D02*
X19173332Y-25428233D01*
X19173332Y-25428233D02*
X19239998Y-25394900D01*
X19239998Y-25394900D02*
X19339998Y-25394900D01*
X19339998Y-25394900D02*
X19406665Y-25361566D01*
X19406665Y-25361566D02*
X19439998Y-25294900D01*
X19439998Y-25294900D02*
X19439998Y-25261566D01*
X19439998Y-25261566D02*
X19406665Y-25194900D01*
X19406665Y-25194900D02*
X19339998Y-25161566D01*
X19339998Y-25161566D02*
X19239998Y-25161566D01*
X19239998Y-25161566D02*
X19173332Y-25194900D01*
X18539998Y-25161566D02*
X18539998Y-25628233D01*
X18839998Y-25161566D02*
X18839998Y-25528233D01*
X18839998Y-25528233D02*
X18806665Y-25594900D01*
X18806665Y-25594900D02*
X18739998Y-25628233D01*
X18739998Y-25628233D02*
X18639998Y-25628233D01*
X18639998Y-25628233D02*
X18573331Y-25594900D01*
X18573331Y-25594900D02*
X18539998Y-25561566D01*
X18206665Y-25161566D02*
X18206665Y-25861566D01*
X18206665Y-25194900D02*
X18139998Y-25161566D01*
X18139998Y-25161566D02*
X18006665Y-25161566D01*
X18006665Y-25161566D02*
X17939998Y-25194900D01*
X17939998Y-25194900D02*
X17906665Y-25228233D01*
X17906665Y-25228233D02*
X17873332Y-25294900D01*
X17873332Y-25294900D02*
X17873332Y-25494900D01*
X17873332Y-25494900D02*
X17906665Y-25561566D01*
X17906665Y-25561566D02*
X17939998Y-25594900D01*
X17939998Y-25594900D02*
X18006665Y-25628233D01*
X18006665Y-25628233D02*
X18139998Y-25628233D01*
X18139998Y-25628233D02*
X18206665Y-25594900D01*
X17573332Y-25161566D02*
X17573332Y-25861566D01*
X17573332Y-25194900D02*
X17506665Y-25161566D01*
X17506665Y-25161566D02*
X17373332Y-25161566D01*
X17373332Y-25161566D02*
X17306665Y-25194900D01*
X17306665Y-25194900D02*
X17273332Y-25228233D01*
X17273332Y-25228233D02*
X17239999Y-25294900D01*
X17239999Y-25294900D02*
X17239999Y-25494900D01*
X17239999Y-25494900D02*
X17273332Y-25561566D01*
X17273332Y-25561566D02*
X17306665Y-25594900D01*
X17306665Y-25594900D02*
X17373332Y-25628233D01*
X17373332Y-25628233D02*
X17506665Y-25628233D01*
X17506665Y-25628233D02*
X17573332Y-25594900D01*
X16839999Y-25628233D02*
X16906666Y-25594900D01*
X16906666Y-25594900D02*
X16939999Y-25561566D01*
X16939999Y-25561566D02*
X16973332Y-25494900D01*
X16973332Y-25494900D02*
X16973332Y-25294900D01*
X16973332Y-25294900D02*
X16939999Y-25228233D01*
X16939999Y-25228233D02*
X16906666Y-25194900D01*
X16906666Y-25194900D02*
X16839999Y-25161566D01*
X16839999Y-25161566D02*
X16739999Y-25161566D01*
X16739999Y-25161566D02*
X16673332Y-25194900D01*
X16673332Y-25194900D02*
X16639999Y-25228233D01*
X16639999Y-25228233D02*
X16606666Y-25294900D01*
X16606666Y-25294900D02*
X16606666Y-25494900D01*
X16606666Y-25494900D02*
X16639999Y-25561566D01*
X16639999Y-25561566D02*
X16673332Y-25594900D01*
X16673332Y-25594900D02*
X16739999Y-25628233D01*
X16739999Y-25628233D02*
X16839999Y-25628233D01*
X16306666Y-25628233D02*
X16306666Y-25161566D01*
X16306666Y-25294900D02*
X16273333Y-25228233D01*
X16273333Y-25228233D02*
X16239999Y-25194900D01*
X16239999Y-25194900D02*
X16173333Y-25161566D01*
X16173333Y-25161566D02*
X16106666Y-25161566D01*
X15973333Y-25161566D02*
X15706666Y-25161566D01*
X15873333Y-24928233D02*
X15873333Y-25528233D01*
X15873333Y-25528233D02*
X15840000Y-25594900D01*
X15840000Y-25594900D02*
X15773333Y-25628233D01*
X15773333Y-25628233D02*
X15706666Y-25628233D01*
X15206666Y-25594900D02*
X15273333Y-25628233D01*
X15273333Y-25628233D02*
X15406666Y-25628233D01*
X15406666Y-25628233D02*
X15473333Y-25594900D01*
X15473333Y-25594900D02*
X15506666Y-25528233D01*
X15506666Y-25528233D02*
X15506666Y-25261566D01*
X15506666Y-25261566D02*
X15473333Y-25194900D01*
X15473333Y-25194900D02*
X15406666Y-25161566D01*
X15406666Y-25161566D02*
X15273333Y-25161566D01*
X15273333Y-25161566D02*
X15206666Y-25194900D01*
X15206666Y-25194900D02*
X15173333Y-25261566D01*
X15173333Y-25261566D02*
X15173333Y-25328233D01*
X15173333Y-25328233D02*
X15506666Y-25394900D01*
X14573333Y-25628233D02*
X14573333Y-24928233D01*
X14573333Y-25594900D02*
X14640000Y-25628233D01*
X14640000Y-25628233D02*
X14773333Y-25628233D01*
X14773333Y-25628233D02*
X14840000Y-25594900D01*
X14840000Y-25594900D02*
X14873333Y-25561566D01*
X14873333Y-25561566D02*
X14906666Y-25494900D01*
X14906666Y-25494900D02*
X14906666Y-25294900D01*
X14906666Y-25294900D02*
X14873333Y-25228233D01*
X14873333Y-25228233D02*
X14840000Y-25194900D01*
X14840000Y-25194900D02*
X14773333Y-25161566D01*
X14773333Y-25161566D02*
X14640000Y-25161566D01*
X14640000Y-25161566D02*
X14573333Y-25194900D01*
X13706667Y-25628233D02*
X13706667Y-24928233D01*
X13706667Y-25194900D02*
X13640000Y-25161566D01*
X13640000Y-25161566D02*
X13506667Y-25161566D01*
X13506667Y-25161566D02*
X13440000Y-25194900D01*
X13440000Y-25194900D02*
X13406667Y-25228233D01*
X13406667Y-25228233D02*
X13373334Y-25294900D01*
X13373334Y-25294900D02*
X13373334Y-25494900D01*
X13373334Y-25494900D02*
X13406667Y-25561566D01*
X13406667Y-25561566D02*
X13440000Y-25594900D01*
X13440000Y-25594900D02*
X13506667Y-25628233D01*
X13506667Y-25628233D02*
X13640000Y-25628233D01*
X13640000Y-25628233D02*
X13706667Y-25594900D01*
X13140001Y-25161566D02*
X12973334Y-25628233D01*
X12806667Y-25161566D02*
X12973334Y-25628233D01*
X12973334Y-25628233D02*
X13040001Y-25794900D01*
X13040001Y-25794900D02*
X13073334Y-25828233D01*
X13073334Y-25828233D02*
X13140001Y-25861566D01*
X19206666Y-26555233D02*
X18873333Y-26555233D01*
X19273333Y-26755233D02*
X19040000Y-26055233D01*
X19040000Y-26055233D02*
X18806666Y-26755233D01*
X18573333Y-26755233D02*
X18573333Y-26055233D01*
X18273333Y-26721900D02*
X18173333Y-26755233D01*
X18173333Y-26755233D02*
X18006667Y-26755233D01*
X18006667Y-26755233D02*
X17940000Y-26721900D01*
X17940000Y-26721900D02*
X17906667Y-26688566D01*
X17906667Y-26688566D02*
X17873333Y-26621900D01*
X17873333Y-26621900D02*
X17873333Y-26555233D01*
X17873333Y-26555233D02*
X17906667Y-26488566D01*
X17906667Y-26488566D02*
X17940000Y-26455233D01*
X17940000Y-26455233D02*
X18006667Y-26421900D01*
X18006667Y-26421900D02*
X18140000Y-26388566D01*
X18140000Y-26388566D02*
X18206667Y-26355233D01*
X18206667Y-26355233D02*
X18240000Y-26321900D01*
X18240000Y-26321900D02*
X18273333Y-26255233D01*
X18273333Y-26255233D02*
X18273333Y-26188566D01*
X18273333Y-26188566D02*
X18240000Y-26121900D01*
X18240000Y-26121900D02*
X18206667Y-26088566D01*
X18206667Y-26088566D02*
X18140000Y-26055233D01*
X18140000Y-26055233D02*
X17973333Y-26055233D01*
X17973333Y-26055233D02*
X17873333Y-26088566D01*
X17240000Y-26755233D02*
X17573333Y-26755233D01*
X17573333Y-26755233D02*
X17573333Y-26055233D01*
X17006666Y-26388566D02*
X16773333Y-26388566D01*
X16673333Y-26755233D02*
X17006666Y-26755233D01*
X17006666Y-26755233D02*
X17006666Y-26055233D01*
X17006666Y-26055233D02*
X16673333Y-26055233D01*
X15973333Y-26755233D02*
X16206666Y-26421900D01*
X16373333Y-26755233D02*
X16373333Y-26055233D01*
X16373333Y-26055233D02*
X16106666Y-26055233D01*
X16106666Y-26055233D02*
X16040000Y-26088566D01*
X16040000Y-26088566D02*
X16006666Y-26121900D01*
X16006666Y-26121900D02*
X15973333Y-26188566D01*
X15973333Y-26188566D02*
X15973333Y-26288566D01*
X15973333Y-26288566D02*
X16006666Y-26355233D01*
X16006666Y-26355233D02*
X16040000Y-26388566D01*
X16040000Y-26388566D02*
X16106666Y-26421900D01*
X16106666Y-26421900D02*
X16373333Y-26421900D01*
X15673333Y-26688566D02*
X15640000Y-26721900D01*
X15640000Y-26721900D02*
X15673333Y-26755233D01*
X15673333Y-26755233D02*
X15706666Y-26721900D01*
X15706666Y-26721900D02*
X15673333Y-26688566D01*
X15673333Y-26688566D02*
X15673333Y-26755233D01*
X15340000Y-26288566D02*
X15340000Y-26755233D01*
X15340000Y-26355233D02*
X15306667Y-26321900D01*
X15306667Y-26321900D02*
X15240000Y-26288566D01*
X15240000Y-26288566D02*
X15140000Y-26288566D01*
X15140000Y-26288566D02*
X15073333Y-26321900D01*
X15073333Y-26321900D02*
X15040000Y-26388566D01*
X15040000Y-26388566D02*
X15040000Y-26755233D01*
X14440000Y-26721900D02*
X14506667Y-26755233D01*
X14506667Y-26755233D02*
X14640000Y-26755233D01*
X14640000Y-26755233D02*
X14706667Y-26721900D01*
X14706667Y-26721900D02*
X14740000Y-26655233D01*
X14740000Y-26655233D02*
X14740000Y-26388566D01*
X14740000Y-26388566D02*
X14706667Y-26321900D01*
X14706667Y-26321900D02*
X14640000Y-26288566D01*
X14640000Y-26288566D02*
X14506667Y-26288566D01*
X14506667Y-26288566D02*
X14440000Y-26321900D01*
X14440000Y-26321900D02*
X14406667Y-26388566D01*
X14406667Y-26388566D02*
X14406667Y-26455233D01*
X14406667Y-26455233D02*
X14740000Y-26521900D01*
X14206667Y-26288566D02*
X13940000Y-26288566D01*
X14106667Y-26055233D02*
X14106667Y-26655233D01*
X14106667Y-26655233D02*
X14073334Y-26721900D01*
X14073334Y-26721900D02*
X14006667Y-26755233D01*
X14006667Y-26755233D02*
X13940000Y-26755233D01*
D11*
X19501666Y-6511033D02*
X19734999Y-6177700D01*
X19901666Y-6511033D02*
X19901666Y-5811033D01*
X19901666Y-5811033D02*
X19634999Y-5811033D01*
X19634999Y-5811033D02*
X19568333Y-5844366D01*
X19568333Y-5844366D02*
X19534999Y-5877700D01*
X19534999Y-5877700D02*
X19501666Y-5944366D01*
X19501666Y-5944366D02*
X19501666Y-6044366D01*
X19501666Y-6044366D02*
X19534999Y-6111033D01*
X19534999Y-6111033D02*
X19568333Y-6144366D01*
X19568333Y-6144366D02*
X19634999Y-6177700D01*
X19634999Y-6177700D02*
X19901666Y-6177700D01*
X19234999Y-5877700D02*
X19201666Y-5844366D01*
X19201666Y-5844366D02*
X19134999Y-5811033D01*
X19134999Y-5811033D02*
X18968333Y-5811033D01*
X18968333Y-5811033D02*
X18901666Y-5844366D01*
X18901666Y-5844366D02*
X18868333Y-5877700D01*
X18868333Y-5877700D02*
X18834999Y-5944366D01*
X18834999Y-5944366D02*
X18834999Y-6011033D01*
X18834999Y-6011033D02*
X18868333Y-6111033D01*
X18868333Y-6111033D02*
X19268333Y-6511033D01*
X19268333Y-6511033D02*
X18834999Y-6511033D01*
X17401666Y-8799366D02*
X17434999Y-8832700D01*
X17434999Y-8832700D02*
X17534999Y-8866033D01*
X17534999Y-8866033D02*
X17601666Y-8866033D01*
X17601666Y-8866033D02*
X17701666Y-8832700D01*
X17701666Y-8832700D02*
X17768333Y-8766033D01*
X17768333Y-8766033D02*
X17801666Y-8699366D01*
X17801666Y-8699366D02*
X17834999Y-8566033D01*
X17834999Y-8566033D02*
X17834999Y-8466033D01*
X17834999Y-8466033D02*
X17801666Y-8332700D01*
X17801666Y-8332700D02*
X17768333Y-8266033D01*
X17768333Y-8266033D02*
X17701666Y-8199366D01*
X17701666Y-8199366D02*
X17601666Y-8166033D01*
X17601666Y-8166033D02*
X17534999Y-8166033D01*
X17534999Y-8166033D02*
X17434999Y-8199366D01*
X17434999Y-8199366D02*
X17401666Y-8232700D01*
X17134999Y-8232700D02*
X17101666Y-8199366D01*
X17101666Y-8199366D02*
X17034999Y-8166033D01*
X17034999Y-8166033D02*
X16868333Y-8166033D01*
X16868333Y-8166033D02*
X16801666Y-8199366D01*
X16801666Y-8199366D02*
X16768333Y-8232700D01*
X16768333Y-8232700D02*
X16734999Y-8299366D01*
X16734999Y-8299366D02*
X16734999Y-8366033D01*
X16734999Y-8366033D02*
X16768333Y-8466033D01*
X16768333Y-8466033D02*
X17168333Y-8866033D01*
X17168333Y-8866033D02*
X16734999Y-8866033D01*
X19786666Y-2294366D02*
X19819999Y-2327700D01*
X19819999Y-2327700D02*
X19919999Y-2361033D01*
X19919999Y-2361033D02*
X19986666Y-2361033D01*
X19986666Y-2361033D02*
X20086666Y-2327700D01*
X20086666Y-2327700D02*
X20153333Y-2261033D01*
X20153333Y-2261033D02*
X20186666Y-2194366D01*
X20186666Y-2194366D02*
X20219999Y-2061033D01*
X20219999Y-2061033D02*
X20219999Y-1961033D01*
X20219999Y-1961033D02*
X20186666Y-1827700D01*
X20186666Y-1827700D02*
X20153333Y-1761033D01*
X20153333Y-1761033D02*
X20086666Y-1694366D01*
X20086666Y-1694366D02*
X19986666Y-1661033D01*
X19986666Y-1661033D02*
X19919999Y-1661033D01*
X19919999Y-1661033D02*
X19819999Y-1694366D01*
X19819999Y-1694366D02*
X19786666Y-1727700D01*
X19553333Y-1661033D02*
X19086666Y-1661033D01*
X19086666Y-1661033D02*
X19386666Y-2361033D01*
X15683333Y-9816033D02*
X15683333Y-9116033D01*
X14950000Y-9749366D02*
X14983333Y-9782700D01*
X14983333Y-9782700D02*
X15083333Y-9816033D01*
X15083333Y-9816033D02*
X15150000Y-9816033D01*
X15150000Y-9816033D02*
X15250000Y-9782700D01*
X15250000Y-9782700D02*
X15316667Y-9716033D01*
X15316667Y-9716033D02*
X15350000Y-9649366D01*
X15350000Y-9649366D02*
X15383333Y-9516033D01*
X15383333Y-9516033D02*
X15383333Y-9416033D01*
X15383333Y-9416033D02*
X15350000Y-9282700D01*
X15350000Y-9282700D02*
X15316667Y-9216033D01*
X15316667Y-9216033D02*
X15250000Y-9149366D01*
X15250000Y-9149366D02*
X15150000Y-9116033D01*
X15150000Y-9116033D02*
X15083333Y-9116033D01*
X15083333Y-9116033D02*
X14983333Y-9149366D01*
X14983333Y-9149366D02*
X14950000Y-9182700D01*
X14283333Y-9816033D02*
X14683333Y-9816033D01*
X14483333Y-9816033D02*
X14483333Y-9116033D01*
X14483333Y-9116033D02*
X14550000Y-9216033D01*
X14550000Y-9216033D02*
X14616667Y-9282700D01*
X14616667Y-9282700D02*
X14683333Y-9316033D01*
X19491666Y-3511033D02*
X19724999Y-3177700D01*
X19891666Y-3511033D02*
X19891666Y-2811033D01*
X19891666Y-2811033D02*
X19624999Y-2811033D01*
X19624999Y-2811033D02*
X19558333Y-2844366D01*
X19558333Y-2844366D02*
X19524999Y-2877700D01*
X19524999Y-2877700D02*
X19491666Y-2944366D01*
X19491666Y-2944366D02*
X19491666Y-3044366D01*
X19491666Y-3044366D02*
X19524999Y-3111033D01*
X19524999Y-3111033D02*
X19558333Y-3144366D01*
X19558333Y-3144366D02*
X19624999Y-3177700D01*
X19624999Y-3177700D02*
X19891666Y-3177700D01*
X18824999Y-3511033D02*
X19224999Y-3511033D01*
X19024999Y-3511033D02*
X19024999Y-2811033D01*
X19024999Y-2811033D02*
X19091666Y-2911033D01*
X19091666Y-2911033D02*
X19158333Y-2977700D01*
X19158333Y-2977700D02*
X19224999Y-3011033D01*
X10511666Y-6511033D02*
X10744999Y-6177700D01*
X10911666Y-6511033D02*
X10911666Y-5811033D01*
X10911666Y-5811033D02*
X10644999Y-5811033D01*
X10644999Y-5811033D02*
X10578333Y-5844366D01*
X10578333Y-5844366D02*
X10544999Y-5877700D01*
X10544999Y-5877700D02*
X10511666Y-5944366D01*
X10511666Y-5944366D02*
X10511666Y-6044366D01*
X10511666Y-6044366D02*
X10544999Y-6111033D01*
X10544999Y-6111033D02*
X10578333Y-6144366D01*
X10578333Y-6144366D02*
X10644999Y-6177700D01*
X10644999Y-6177700D02*
X10911666Y-6177700D01*
X10111666Y-6111033D02*
X10178333Y-6077700D01*
X10178333Y-6077700D02*
X10211666Y-6044366D01*
X10211666Y-6044366D02*
X10244999Y-5977700D01*
X10244999Y-5977700D02*
X10244999Y-5944366D01*
X10244999Y-5944366D02*
X10211666Y-5877700D01*
X10211666Y-5877700D02*
X10178333Y-5844366D01*
X10178333Y-5844366D02*
X10111666Y-5811033D01*
X10111666Y-5811033D02*
X9978333Y-5811033D01*
X9978333Y-5811033D02*
X9911666Y-5844366D01*
X9911666Y-5844366D02*
X9878333Y-5877700D01*
X9878333Y-5877700D02*
X9844999Y-5944366D01*
X9844999Y-5944366D02*
X9844999Y-5977700D01*
X9844999Y-5977700D02*
X9878333Y-6044366D01*
X9878333Y-6044366D02*
X9911666Y-6077700D01*
X9911666Y-6077700D02*
X9978333Y-6111033D01*
X9978333Y-6111033D02*
X10111666Y-6111033D01*
X10111666Y-6111033D02*
X10178333Y-6144366D01*
X10178333Y-6144366D02*
X10211666Y-6177700D01*
X10211666Y-6177700D02*
X10244999Y-6244366D01*
X10244999Y-6244366D02*
X10244999Y-6377700D01*
X10244999Y-6377700D02*
X10211666Y-6444366D01*
X10211666Y-6444366D02*
X10178333Y-6477700D01*
X10178333Y-6477700D02*
X10111666Y-6511033D01*
X10111666Y-6511033D02*
X9978333Y-6511033D01*
X9978333Y-6511033D02*
X9911666Y-6477700D01*
X9911666Y-6477700D02*
X9878333Y-6444366D01*
X9878333Y-6444366D02*
X9844999Y-6377700D01*
X9844999Y-6377700D02*
X9844999Y-6244366D01*
X9844999Y-6244366D02*
X9878333Y-6177700D01*
X9878333Y-6177700D02*
X9911666Y-6144366D01*
X9911666Y-6144366D02*
X9978333Y-6111033D01*
X13631666Y-8714366D02*
X13664999Y-8747700D01*
X13664999Y-8747700D02*
X13764999Y-8781033D01*
X13764999Y-8781033D02*
X13831666Y-8781033D01*
X13831666Y-8781033D02*
X13931666Y-8747700D01*
X13931666Y-8747700D02*
X13998333Y-8681033D01*
X13998333Y-8681033D02*
X14031666Y-8614366D01*
X14031666Y-8614366D02*
X14064999Y-8481033D01*
X14064999Y-8481033D02*
X14064999Y-8381033D01*
X14064999Y-8381033D02*
X14031666Y-8247700D01*
X14031666Y-8247700D02*
X13998333Y-8181033D01*
X13998333Y-8181033D02*
X13931666Y-8114366D01*
X13931666Y-8114366D02*
X13831666Y-8081033D01*
X13831666Y-8081033D02*
X13764999Y-8081033D01*
X13764999Y-8081033D02*
X13664999Y-8114366D01*
X13664999Y-8114366D02*
X13631666Y-8147700D01*
X13398333Y-8081033D02*
X12964999Y-8081033D01*
X12964999Y-8081033D02*
X13198333Y-8347700D01*
X13198333Y-8347700D02*
X13098333Y-8347700D01*
X13098333Y-8347700D02*
X13031666Y-8381033D01*
X13031666Y-8381033D02*
X12998333Y-8414366D01*
X12998333Y-8414366D02*
X12964999Y-8481033D01*
X12964999Y-8481033D02*
X12964999Y-8647700D01*
X12964999Y-8647700D02*
X12998333Y-8714366D01*
X12998333Y-8714366D02*
X13031666Y-8747700D01*
X13031666Y-8747700D02*
X13098333Y-8781033D01*
X13098333Y-8781033D02*
X13298333Y-8781033D01*
X13298333Y-8781033D02*
X13364999Y-8747700D01*
X13364999Y-8747700D02*
X13398333Y-8714366D01*
X13591666Y-6511033D02*
X13824999Y-6177700D01*
X13991666Y-6511033D02*
X13991666Y-5811033D01*
X13991666Y-5811033D02*
X13724999Y-5811033D01*
X13724999Y-5811033D02*
X13658333Y-5844366D01*
X13658333Y-5844366D02*
X13624999Y-5877700D01*
X13624999Y-5877700D02*
X13591666Y-5944366D01*
X13591666Y-5944366D02*
X13591666Y-6044366D01*
X13591666Y-6044366D02*
X13624999Y-6111033D01*
X13624999Y-6111033D02*
X13658333Y-6144366D01*
X13658333Y-6144366D02*
X13724999Y-6177700D01*
X13724999Y-6177700D02*
X13991666Y-6177700D01*
X12991666Y-5811033D02*
X13124999Y-5811033D01*
X13124999Y-5811033D02*
X13191666Y-5844366D01*
X13191666Y-5844366D02*
X13224999Y-5877700D01*
X13224999Y-5877700D02*
X13291666Y-5977700D01*
X13291666Y-5977700D02*
X13324999Y-6111033D01*
X13324999Y-6111033D02*
X13324999Y-6377700D01*
X13324999Y-6377700D02*
X13291666Y-6444366D01*
X13291666Y-6444366D02*
X13258333Y-6477700D01*
X13258333Y-6477700D02*
X13191666Y-6511033D01*
X13191666Y-6511033D02*
X13058333Y-6511033D01*
X13058333Y-6511033D02*
X12991666Y-6477700D01*
X12991666Y-6477700D02*
X12958333Y-6444366D01*
X12958333Y-6444366D02*
X12924999Y-6377700D01*
X12924999Y-6377700D02*
X12924999Y-6211033D01*
X12924999Y-6211033D02*
X12958333Y-6144366D01*
X12958333Y-6144366D02*
X12991666Y-6111033D01*
X12991666Y-6111033D02*
X13058333Y-6077700D01*
X13058333Y-6077700D02*
X13191666Y-6077700D01*
X13191666Y-6077700D02*
X13258333Y-6111033D01*
X13258333Y-6111033D02*
X13291666Y-6144366D01*
X13291666Y-6144366D02*
X13324999Y-6211033D01*
X16076666Y-19239366D02*
X16109999Y-19272700D01*
X16109999Y-19272700D02*
X16209999Y-19306033D01*
X16209999Y-19306033D02*
X16276666Y-19306033D01*
X16276666Y-19306033D02*
X16376666Y-19272700D01*
X16376666Y-19272700D02*
X16443333Y-19206033D01*
X16443333Y-19206033D02*
X16476666Y-19139366D01*
X16476666Y-19139366D02*
X16509999Y-19006033D01*
X16509999Y-19006033D02*
X16509999Y-18906033D01*
X16509999Y-18906033D02*
X16476666Y-18772700D01*
X16476666Y-18772700D02*
X16443333Y-18706033D01*
X16443333Y-18706033D02*
X16376666Y-18639366D01*
X16376666Y-18639366D02*
X16276666Y-18606033D01*
X16276666Y-18606033D02*
X16209999Y-18606033D01*
X16209999Y-18606033D02*
X16109999Y-18639366D01*
X16109999Y-18639366D02*
X16076666Y-18672700D01*
X15476666Y-18839366D02*
X15476666Y-19306033D01*
X15643333Y-18572700D02*
X15809999Y-19072700D01*
X15809999Y-19072700D02*
X15376666Y-19072700D01*
X6591666Y-4757700D02*
X6658333Y-4724366D01*
X6658333Y-4724366D02*
X6725000Y-4657700D01*
X6725000Y-4657700D02*
X6825000Y-4557700D01*
X6825000Y-4557700D02*
X6891666Y-4524366D01*
X6891666Y-4524366D02*
X6958333Y-4524366D01*
X6925000Y-4691033D02*
X6991666Y-4657700D01*
X6991666Y-4657700D02*
X7058333Y-4591033D01*
X7058333Y-4591033D02*
X7091666Y-4457700D01*
X7091666Y-4457700D02*
X7091666Y-4224366D01*
X7091666Y-4224366D02*
X7058333Y-4091033D01*
X7058333Y-4091033D02*
X6991666Y-4024366D01*
X6991666Y-4024366D02*
X6925000Y-3991033D01*
X6925000Y-3991033D02*
X6791666Y-3991033D01*
X6791666Y-3991033D02*
X6725000Y-4024366D01*
X6725000Y-4024366D02*
X6658333Y-4091033D01*
X6658333Y-4091033D02*
X6625000Y-4224366D01*
X6625000Y-4224366D02*
X6625000Y-4457700D01*
X6625000Y-4457700D02*
X6658333Y-4591033D01*
X6658333Y-4591033D02*
X6725000Y-4657700D01*
X6725000Y-4657700D02*
X6791666Y-4691033D01*
X6791666Y-4691033D02*
X6925000Y-4691033D01*
X5958333Y-4691033D02*
X6358333Y-4691033D01*
X6158333Y-4691033D02*
X6158333Y-3991033D01*
X6158333Y-3991033D02*
X6225000Y-4091033D01*
X6225000Y-4091033D02*
X6291667Y-4157700D01*
X6291667Y-4157700D02*
X6358333Y-4191033D01*
X10501666Y-3511033D02*
X10734999Y-3177700D01*
X10901666Y-3511033D02*
X10901666Y-2811033D01*
X10901666Y-2811033D02*
X10634999Y-2811033D01*
X10634999Y-2811033D02*
X10568333Y-2844366D01*
X10568333Y-2844366D02*
X10534999Y-2877700D01*
X10534999Y-2877700D02*
X10501666Y-2944366D01*
X10501666Y-2944366D02*
X10501666Y-3044366D01*
X10501666Y-3044366D02*
X10534999Y-3111033D01*
X10534999Y-3111033D02*
X10568333Y-3144366D01*
X10568333Y-3144366D02*
X10634999Y-3177700D01*
X10634999Y-3177700D02*
X10901666Y-3177700D01*
X10268333Y-2811033D02*
X9801666Y-2811033D01*
X9801666Y-2811033D02*
X10101666Y-3511033D01*
X19993333Y-4341033D02*
X19993333Y-4907700D01*
X19993333Y-4907700D02*
X19960000Y-4974366D01*
X19960000Y-4974366D02*
X19926666Y-5007700D01*
X19926666Y-5007700D02*
X19860000Y-5041033D01*
X19860000Y-5041033D02*
X19726666Y-5041033D01*
X19726666Y-5041033D02*
X19660000Y-5007700D01*
X19660000Y-5007700D02*
X19626666Y-4974366D01*
X19626666Y-4974366D02*
X19593333Y-4907700D01*
X19593333Y-4907700D02*
X19593333Y-4341033D01*
X18893333Y-5041033D02*
X19293333Y-5041033D01*
X19093333Y-5041033D02*
X19093333Y-4341033D01*
X19093333Y-4341033D02*
X19160000Y-4441033D01*
X19160000Y-4441033D02*
X19226667Y-4507700D01*
X19226667Y-4507700D02*
X19293333Y-4541033D01*
X23101666Y-4184366D02*
X23134999Y-4217700D01*
X23134999Y-4217700D02*
X23234999Y-4251033D01*
X23234999Y-4251033D02*
X23301666Y-4251033D01*
X23301666Y-4251033D02*
X23401666Y-4217700D01*
X23401666Y-4217700D02*
X23468333Y-4151033D01*
X23468333Y-4151033D02*
X23501666Y-4084366D01*
X23501666Y-4084366D02*
X23534999Y-3951033D01*
X23534999Y-3951033D02*
X23534999Y-3851033D01*
X23534999Y-3851033D02*
X23501666Y-3717700D01*
X23501666Y-3717700D02*
X23468333Y-3651033D01*
X23468333Y-3651033D02*
X23401666Y-3584366D01*
X23401666Y-3584366D02*
X23301666Y-3551033D01*
X23301666Y-3551033D02*
X23234999Y-3551033D01*
X23234999Y-3551033D02*
X23134999Y-3584366D01*
X23134999Y-3584366D02*
X23101666Y-3617700D01*
X22501666Y-3551033D02*
X22634999Y-3551033D01*
X22634999Y-3551033D02*
X22701666Y-3584366D01*
X22701666Y-3584366D02*
X22734999Y-3617700D01*
X22734999Y-3617700D02*
X22801666Y-3717700D01*
X22801666Y-3717700D02*
X22834999Y-3851033D01*
X22834999Y-3851033D02*
X22834999Y-4117700D01*
X22834999Y-4117700D02*
X22801666Y-4184366D01*
X22801666Y-4184366D02*
X22768333Y-4217700D01*
X22768333Y-4217700D02*
X22701666Y-4251033D01*
X22701666Y-4251033D02*
X22568333Y-4251033D01*
X22568333Y-4251033D02*
X22501666Y-4217700D01*
X22501666Y-4217700D02*
X22468333Y-4184366D01*
X22468333Y-4184366D02*
X22434999Y-4117700D01*
X22434999Y-4117700D02*
X22434999Y-3951033D01*
X22434999Y-3951033D02*
X22468333Y-3884366D01*
X22468333Y-3884366D02*
X22501666Y-3851033D01*
X22501666Y-3851033D02*
X22568333Y-3817700D01*
X22568333Y-3817700D02*
X22701666Y-3817700D01*
X22701666Y-3817700D02*
X22768333Y-3851033D01*
X22768333Y-3851033D02*
X22801666Y-3884366D01*
X22801666Y-3884366D02*
X22834999Y-3951033D01*
X16661666Y-3511033D02*
X16894999Y-3177700D01*
X17061666Y-3511033D02*
X17061666Y-2811033D01*
X17061666Y-2811033D02*
X16794999Y-2811033D01*
X16794999Y-2811033D02*
X16728333Y-2844366D01*
X16728333Y-2844366D02*
X16694999Y-2877700D01*
X16694999Y-2877700D02*
X16661666Y-2944366D01*
X16661666Y-2944366D02*
X16661666Y-3044366D01*
X16661666Y-3044366D02*
X16694999Y-3111033D01*
X16694999Y-3111033D02*
X16728333Y-3144366D01*
X16728333Y-3144366D02*
X16794999Y-3177700D01*
X16794999Y-3177700D02*
X17061666Y-3177700D01*
X16428333Y-2811033D02*
X15994999Y-2811033D01*
X15994999Y-2811033D02*
X16228333Y-3077700D01*
X16228333Y-3077700D02*
X16128333Y-3077700D01*
X16128333Y-3077700D02*
X16061666Y-3111033D01*
X16061666Y-3111033D02*
X16028333Y-3144366D01*
X16028333Y-3144366D02*
X15994999Y-3211033D01*
X15994999Y-3211033D02*
X15994999Y-3377700D01*
X15994999Y-3377700D02*
X16028333Y-3444366D01*
X16028333Y-3444366D02*
X16061666Y-3477700D01*
X16061666Y-3477700D02*
X16128333Y-3511033D01*
X16128333Y-3511033D02*
X16328333Y-3511033D01*
X16328333Y-3511033D02*
X16394999Y-3477700D01*
X16394999Y-3477700D02*
X16428333Y-3444366D01*
X24631666Y-5924366D02*
X24664999Y-5957700D01*
X24664999Y-5957700D02*
X24764999Y-5991033D01*
X24764999Y-5991033D02*
X24831666Y-5991033D01*
X24831666Y-5991033D02*
X24931666Y-5957700D01*
X24931666Y-5957700D02*
X24998333Y-5891033D01*
X24998333Y-5891033D02*
X25031666Y-5824366D01*
X25031666Y-5824366D02*
X25064999Y-5691033D01*
X25064999Y-5691033D02*
X25064999Y-5591033D01*
X25064999Y-5591033D02*
X25031666Y-5457700D01*
X25031666Y-5457700D02*
X24998333Y-5391033D01*
X24998333Y-5391033D02*
X24931666Y-5324366D01*
X24931666Y-5324366D02*
X24831666Y-5291033D01*
X24831666Y-5291033D02*
X24764999Y-5291033D01*
X24764999Y-5291033D02*
X24664999Y-5324366D01*
X24664999Y-5324366D02*
X24631666Y-5357700D01*
X23998333Y-5291033D02*
X24331666Y-5291033D01*
X24331666Y-5291033D02*
X24364999Y-5624366D01*
X24364999Y-5624366D02*
X24331666Y-5591033D01*
X24331666Y-5591033D02*
X24264999Y-5557700D01*
X24264999Y-5557700D02*
X24098333Y-5557700D01*
X24098333Y-5557700D02*
X24031666Y-5591033D01*
X24031666Y-5591033D02*
X23998333Y-5624366D01*
X23998333Y-5624366D02*
X23964999Y-5691033D01*
X23964999Y-5691033D02*
X23964999Y-5857700D01*
X23964999Y-5857700D02*
X23998333Y-5924366D01*
X23998333Y-5924366D02*
X24031666Y-5957700D01*
X24031666Y-5957700D02*
X24098333Y-5991033D01*
X24098333Y-5991033D02*
X24264999Y-5991033D01*
X24264999Y-5991033D02*
X24331666Y-5957700D01*
X24331666Y-5957700D02*
X24364999Y-5924366D01*
X13581666Y-3511033D02*
X13814999Y-3177700D01*
X13981666Y-3511033D02*
X13981666Y-2811033D01*
X13981666Y-2811033D02*
X13714999Y-2811033D01*
X13714999Y-2811033D02*
X13648333Y-2844366D01*
X13648333Y-2844366D02*
X13614999Y-2877700D01*
X13614999Y-2877700D02*
X13581666Y-2944366D01*
X13581666Y-2944366D02*
X13581666Y-3044366D01*
X13581666Y-3044366D02*
X13614999Y-3111033D01*
X13614999Y-3111033D02*
X13648333Y-3144366D01*
X13648333Y-3144366D02*
X13714999Y-3177700D01*
X13714999Y-3177700D02*
X13981666Y-3177700D01*
X12948333Y-2811033D02*
X13281666Y-2811033D01*
X13281666Y-2811033D02*
X13314999Y-3144366D01*
X13314999Y-3144366D02*
X13281666Y-3111033D01*
X13281666Y-3111033D02*
X13214999Y-3077700D01*
X13214999Y-3077700D02*
X13048333Y-3077700D01*
X13048333Y-3077700D02*
X12981666Y-3111033D01*
X12981666Y-3111033D02*
X12948333Y-3144366D01*
X12948333Y-3144366D02*
X12914999Y-3211033D01*
X12914999Y-3211033D02*
X12914999Y-3377700D01*
X12914999Y-3377700D02*
X12948333Y-3444366D01*
X12948333Y-3444366D02*
X12981666Y-3477700D01*
X12981666Y-3477700D02*
X13048333Y-3511033D01*
X13048333Y-3511033D02*
X13214999Y-3511033D01*
X13214999Y-3511033D02*
X13281666Y-3477700D01*
X13281666Y-3477700D02*
X13314999Y-3444366D01*
X16671666Y-6511033D02*
X16904999Y-6177700D01*
X17071666Y-6511033D02*
X17071666Y-5811033D01*
X17071666Y-5811033D02*
X16804999Y-5811033D01*
X16804999Y-5811033D02*
X16738333Y-5844366D01*
X16738333Y-5844366D02*
X16704999Y-5877700D01*
X16704999Y-5877700D02*
X16671666Y-5944366D01*
X16671666Y-5944366D02*
X16671666Y-6044366D01*
X16671666Y-6044366D02*
X16704999Y-6111033D01*
X16704999Y-6111033D02*
X16738333Y-6144366D01*
X16738333Y-6144366D02*
X16804999Y-6177700D01*
X16804999Y-6177700D02*
X17071666Y-6177700D01*
X16071666Y-6044366D02*
X16071666Y-6511033D01*
X16238333Y-5777700D02*
X16404999Y-6277700D01*
X16404999Y-6277700D02*
X15971666Y-6277700D01*
X17501666Y-18289366D02*
X17534999Y-18322700D01*
X17534999Y-18322700D02*
X17634999Y-18356033D01*
X17634999Y-18356033D02*
X17701666Y-18356033D01*
X17701666Y-18356033D02*
X17801666Y-18322700D01*
X17801666Y-18322700D02*
X17868333Y-18256033D01*
X17868333Y-18256033D02*
X17901666Y-18189366D01*
X17901666Y-18189366D02*
X17934999Y-18056033D01*
X17934999Y-18056033D02*
X17934999Y-17956033D01*
X17934999Y-17956033D02*
X17901666Y-17822700D01*
X17901666Y-17822700D02*
X17868333Y-17756033D01*
X17868333Y-17756033D02*
X17801666Y-17689366D01*
X17801666Y-17689366D02*
X17701666Y-17656033D01*
X17701666Y-17656033D02*
X17634999Y-17656033D01*
X17634999Y-17656033D02*
X17534999Y-17689366D01*
X17534999Y-17689366D02*
X17501666Y-17722700D01*
X16834999Y-18356033D02*
X17234999Y-18356033D01*
X17034999Y-18356033D02*
X17034999Y-17656033D01*
X17034999Y-17656033D02*
X17101666Y-17756033D01*
X17101666Y-17756033D02*
X17168333Y-17822700D01*
X17168333Y-17822700D02*
X17234999Y-17856033D01*
D15*
%TO.C,TP1*%
X7875000Y-2375000D02*
G75*
G03*
X6475000Y-2375000I-700000J0D01*
G01*
X6475000Y-2375000D02*
G75*
G03*
X7875000Y-2375000I700000J0D01*
G01*
%TO.C,R2*%
X18637500Y-5957742D02*
X18637500Y-6432258D01*
X17592500Y-5957742D02*
X17592500Y-6432258D01*
%TO.C,C2*%
X16802164Y-9280000D02*
X17017836Y-9280000D01*
X16802164Y-10000000D02*
X17017836Y-10000000D01*
%TO.C,C7*%
X21494420Y-2185000D02*
X21775580Y-2185000D01*
X21494420Y-3205000D02*
X21775580Y-3205000D01*
D16*
%TO.C,IC1*%
X17225000Y-10500000D02*
G75*
G03*
X16975000Y-10500000I-125000J0D01*
G01*
X16975000Y-10500000D02*
G75*
G03*
X17225000Y-10500000I125000J0D01*
G01*
D15*
%TO.C,J4*%
X29040000Y-6675000D02*
X29640000Y-6675000D01*
X29040000Y-6785000D02*
X29040000Y-6675000D01*
X26450000Y-9550000D02*
X26850000Y-9750000D01*
X26850000Y-9750000D02*
X26450000Y-9950000D01*
X26450000Y-9950000D02*
X26450000Y-9550000D01*
X29040000Y-23215000D02*
X29040000Y-23325000D01*
X29040000Y-23325000D02*
X29640000Y-23325000D01*
%TO.C,R1*%
X18627500Y-2957742D02*
X18627500Y-3432258D01*
X17582500Y-2957742D02*
X17582500Y-3432258D01*
%TO.C,R8*%
X9547500Y-5957742D02*
X9547500Y-6432258D01*
X8502500Y-5957742D02*
X8502500Y-6432258D01*
%TO.C,C3*%
X13172836Y-10010000D02*
X12957164Y-10010000D01*
X13172836Y-9290000D02*
X12957164Y-9290000D01*
%TO.C,R6*%
X12627500Y-5957742D02*
X12627500Y-6432258D01*
X11582500Y-5957742D02*
X11582500Y-6432258D01*
%TO.C,C4*%
X15827164Y-17645000D02*
X16042836Y-17645000D01*
X15827164Y-18365000D02*
X16042836Y-18365000D01*
%TO.C,J5*%
X960000Y-23325000D02*
X360000Y-23325000D01*
X960000Y-23215000D02*
X960000Y-23325000D01*
X3550000Y-9950000D02*
X3150000Y-9750000D01*
X3550000Y-9950000D02*
X3550000Y-9550000D01*
X3150000Y-9750000D02*
X3550000Y-9550000D01*
X960000Y-6785000D02*
X960000Y-6675000D01*
X960000Y-6675000D02*
X360000Y-6675000D01*
%TO.C,Q1*%
X6075000Y-5325000D02*
X6075000Y-6875000D01*
X7875000Y-6875000D02*
X7875000Y-5575000D01*
%TO.C,R7*%
X9537500Y-2957742D02*
X9537500Y-3432258D01*
X8492500Y-2957742D02*
X8492500Y-3432258D01*
%TO.C,U1*%
X23385000Y-6560000D02*
X23385000Y-5760000D01*
X23385000Y-6560000D02*
X23385000Y-7360000D01*
X20265000Y-6560000D02*
X20265000Y-4760000D01*
X20265000Y-6560000D02*
X20265000Y-7360000D01*
%TO.C,TP4*%
X22825000Y-1075000D02*
G75*
G03*
X21425000Y-1075000I-700000J0D01*
G01*
X21425000Y-1075000D02*
G75*
G03*
X22825000Y-1075000I700000J0D01*
G01*
%TO.C,TP2*%
X14225000Y-4725000D02*
G75*
G03*
X12825000Y-4725000I-700000J0D01*
G01*
X12825000Y-4725000D02*
G75*
G03*
X14225000Y-4725000I700000J0D01*
G01*
%TO.C,C6*%
X21227164Y-3665000D02*
X21442836Y-3665000D01*
X21227164Y-4385000D02*
X21442836Y-4385000D01*
%TO.C,TP3*%
X11025000Y-4725000D02*
G75*
G03*
X9625000Y-4725000I-700000J0D01*
G01*
X9625000Y-4725000D02*
G75*
G03*
X11025000Y-4725000I700000J0D01*
G01*
%TO.C,R3*%
X15697500Y-2957742D02*
X15697500Y-3432258D01*
X14652500Y-2957742D02*
X14652500Y-3432258D01*
%TO.C,C5*%
X23655000Y-7322836D02*
X23655000Y-7107164D01*
X24375000Y-7322836D02*
X24375000Y-7107164D01*
%TO.C,R5*%
X12617500Y-2957742D02*
X12617500Y-3432258D01*
X11572500Y-2957742D02*
X11572500Y-3432258D01*
%TO.C,R4*%
X15707500Y-5957742D02*
X15707500Y-6432258D01*
X14662500Y-5957742D02*
X14662500Y-6432258D01*
%TO.C,C1*%
X16902164Y-16645000D02*
X17117836Y-16645000D01*
X16902164Y-17365000D02*
X17117836Y-17365000D01*
%TD*%
M02*
