%TF.GenerationSoftware,KiCad,Pcbnew,7.0.10*%
%TF.CreationDate,2024-03-24T13:51:37+01:00*%
%TF.ProjectId,CSI2-SPY-22-1A,43534932-2d53-4505-992d-32322d31412e,rev?*%
%TF.SameCoordinates,Original*%
%TF.FileFunction,Copper,L3,Inr*%
%TF.FilePolarity,Positive*%
%FSLAX46Y46*%
G04 Gerber Fmt 4.6, Leading zero omitted, Abs format (unit mm)*
G04 Created by KiCad (PCBNEW 7.0.10) date 2024-03-24 13:51:37*
%MOMM*%
%LPD*%
G01*
G04 APERTURE LIST*
%TA.AperFunction,ComponentPad*%
%ADD10R,1.700000X1.700000*%
%TD*%
%TA.AperFunction,ComponentPad*%
%ADD11O,1.700000X1.700000*%
%TD*%
%TA.AperFunction,ComponentPad*%
%ADD12C,5.600000*%
%TD*%
%TA.AperFunction,ViaPad*%
%ADD13C,0.800000*%
%TD*%
%TA.AperFunction,ViaPad*%
%ADD14C,0.450000*%
%TD*%
%TA.AperFunction,ViaPad*%
%ADD15C,0.550000*%
%TD*%
%TA.AperFunction,ViaPad*%
%ADD16C,0.500000*%
%TD*%
%TA.AperFunction,Conductor*%
%ADD17C,0.250000*%
%TD*%
%TA.AperFunction,Conductor*%
%ADD18C,0.500000*%
%TD*%
%TA.AperFunction,Conductor*%
%ADD19C,1.000000*%
%TD*%
G04 APERTURE END LIST*
D10*
%TO.N,/IO0*%
%TO.C,J3*%
X21425000Y-23075000D03*
D11*
%TO.N,GND*%
X16345000Y-23075000D03*
%TO.N,/SCL*%
X13805000Y-23075000D03*
%TO.N,/SDA*%
X11265000Y-23075000D03*
%TD*%
D12*
%TO.N,unconnected-(H2-Pad1)*%
%TO.C,H2*%
X3000000Y-27000000D03*
%TD*%
%TO.N,unconnected-(H1-Pad1)*%
%TO.C,H1*%
X3000000Y-3000000D03*
%TD*%
%TO.N,unconnected-(H3-Pad1)*%
%TO.C,H3*%
X27000000Y-27000000D03*
%TD*%
%TO.N,unconnected-(H4-Pad1)*%
%TO.C,H4*%
X27000000Y-3000000D03*
%TD*%
D13*
%TO.N,GND*%
X16740000Y-950000D03*
X3000000Y-12750000D03*
X16750000Y-4350000D03*
X27000000Y-11250000D03*
D14*
X15000000Y-12000000D03*
D15*
X18100000Y-8300000D03*
D14*
X15750000Y-12000000D03*
D13*
X6930000Y-24170000D03*
D15*
X11850000Y-8775000D03*
D13*
X22125000Y-1075000D03*
X13550000Y-26130000D03*
X27000000Y-17250000D03*
X22500000Y-9250000D03*
D14*
X14250000Y-12000000D03*
D13*
X19970000Y-28810000D03*
X9070000Y-950000D03*
D14*
X15000000Y-15000000D03*
X14250000Y-13500000D03*
D13*
X12130000Y-950000D03*
X29250000Y-6000000D03*
X3000000Y-14250000D03*
X4840000Y-21650000D03*
X27000000Y-10000000D03*
X3000000Y-15750000D03*
X7060000Y-28810000D03*
D15*
X18107727Y-17332727D03*
D13*
X19970000Y-26050000D03*
D16*
X13000000Y-10550000D03*
D13*
X9500000Y-9250000D03*
X11270000Y-28810000D03*
X3000000Y-11250000D03*
D15*
X12625000Y-8650000D03*
D13*
X3000000Y-18750000D03*
X25100000Y-22800000D03*
X23650000Y-28810000D03*
X3000000Y-17250000D03*
X3000000Y-10000000D03*
X15610000Y-28810000D03*
D16*
X17000000Y-10550000D03*
D13*
X27000000Y-15750000D03*
X26950000Y-20060000D03*
X27000000Y-18750000D03*
D15*
X18100000Y-9025000D03*
D13*
X24750000Y-9250000D03*
X29250000Y-23750000D03*
D14*
X15750000Y-13500000D03*
X15000000Y-13500000D03*
D13*
X5830000Y-950000D03*
X27000000Y-14250000D03*
X750000Y-6000000D03*
X27000000Y-12750000D03*
X20500000Y-9250000D03*
D14*
X14250000Y-15000000D03*
D13*
X5250000Y-9250000D03*
D14*
X15750000Y-15000000D03*
D13*
X750000Y-23750000D03*
%TO.N,/IO0*%
X23310000Y-4540000D03*
X21425000Y-17750000D03*
%TO.N,/IO1*%
X18885000Y-18500000D03*
%TO.N,/SCL*%
X13805000Y-19250000D03*
X7850000Y-4700000D03*
%TO.N,/SDA*%
X12750000Y-20000000D03*
X5790000Y-6310000D03*
%TO.N,/VDD33*%
X23350000Y-21340000D03*
X24090000Y-21040000D03*
X19950000Y-1930000D03*
%TO.N,VCC*%
X8170000Y-8010000D03*
D15*
X15925000Y-17300000D03*
D13*
X10500000Y-2370000D03*
D15*
%TO.N,VDD*%
X15175000Y-17300000D03*
%TO.N,EQ{slash}SCL*%
X14425000Y-17300000D03*
D13*
X11080000Y-6170000D03*
%TO.N,ERC{slash}SDA*%
X10325000Y-4725000D03*
D15*
X13675000Y-17300000D03*
%TD*%
D17*
%TO.N,/IO0*%
X27705000Y-22075000D02*
X24799695Y-22075000D01*
X22260000Y-22240000D02*
X21425000Y-23075000D01*
X24555000Y-6125000D02*
X24555000Y-6135000D01*
X24634695Y-22240000D02*
X22260000Y-22240000D01*
X29030000Y-8390000D02*
X29030000Y-20750000D01*
X24799695Y-22075000D02*
X24634695Y-22240000D01*
X23310000Y-4880000D02*
X24555000Y-6125000D01*
X23310000Y-4540000D02*
X23310000Y-4880000D01*
X29030000Y-20750000D02*
X27705000Y-22075000D01*
X27960000Y-7320000D02*
X29030000Y-8390000D01*
X24555000Y-6135000D02*
X25740000Y-7320000D01*
X25740000Y-7320000D02*
X27960000Y-7320000D01*
%TO.N,/SCL*%
X6179418Y-25760000D02*
X11120000Y-25760000D01*
D18*
X13805000Y-19250000D02*
X13805000Y-23075000D01*
D17*
X3069746Y-6125000D02*
X425000Y-8769746D01*
X3059745Y-23875000D02*
X4294418Y-23875000D01*
X4294418Y-23875000D02*
X6179418Y-25760000D01*
X11120000Y-25760000D02*
X13805000Y-23075000D01*
X4294418Y-6125000D02*
X3069746Y-6125000D01*
X425000Y-8769746D02*
X425000Y-21240255D01*
X7850000Y-4700000D02*
X5719418Y-4700000D01*
X5719418Y-4700000D02*
X4294418Y-6125000D01*
X425000Y-21240255D02*
X3059745Y-23875000D01*
D18*
%TO.N,/SDA*%
X11265000Y-23075000D02*
X12750000Y-21590000D01*
D17*
X9710000Y-25310000D02*
X11265000Y-23755000D01*
X6365814Y-25310000D02*
X9710000Y-25310000D01*
X5790000Y-6310000D02*
X5525000Y-6575000D01*
D18*
X12750000Y-21590000D02*
X12750000Y-20000000D01*
D17*
X4480814Y-23425000D02*
X6365814Y-25310000D01*
X5525000Y-6575000D02*
X3256142Y-6575000D01*
X875000Y-8956142D02*
X875000Y-21053859D01*
X875000Y-21053859D02*
X3246141Y-23425000D01*
X3246141Y-23425000D02*
X4480814Y-23425000D01*
X11265000Y-23755000D02*
X11265000Y-23075000D01*
X3256142Y-6575000D02*
X875000Y-8956142D01*
D19*
%TO.N,/VDD33*%
X23350000Y-21340000D02*
X23650000Y-21040000D01*
X28165000Y-8691726D02*
X27623274Y-8150000D01*
X28165000Y-20448274D02*
X28165000Y-8691726D01*
X23650000Y-21040000D02*
X24090000Y-21040000D01*
X19950000Y-2760000D02*
X19950000Y-1930000D01*
X27453274Y-21160000D02*
X28165000Y-20448274D01*
X24090000Y-21040000D02*
X24210000Y-21160000D01*
X24210000Y-21160000D02*
X27453274Y-21160000D01*
X25340000Y-8150000D02*
X19950000Y-2760000D01*
X27623274Y-8150000D02*
X25340000Y-8150000D01*
D18*
%TO.N,VCC*%
X11684239Y-7560000D02*
X12520000Y-6724239D01*
X12520000Y-4390000D02*
X10500000Y-2370000D01*
X8170000Y-8010000D02*
X8620000Y-7560000D01*
X12520000Y-6724239D02*
X12520000Y-4390000D01*
X8620000Y-7560000D02*
X11684239Y-7560000D01*
D17*
%TO.N,EQ{slash}SCL*%
X11080000Y-6170000D02*
X11020000Y-6110000D01*
X12200000Y-18820000D02*
X13120000Y-17900000D01*
X1530000Y-20806396D02*
X3563604Y-22840000D01*
X14425000Y-17398529D02*
X14425000Y-17300000D01*
X10730000Y-18820000D02*
X12200000Y-18820000D01*
X11020000Y-6110000D02*
X8100000Y-6110000D01*
X3563604Y-22840000D02*
X6710000Y-22840000D01*
X13120000Y-17900000D02*
X13923529Y-17900000D01*
X13923529Y-17900000D02*
X14425000Y-17398529D01*
X1530000Y-9323604D02*
X1530000Y-20806396D01*
X7150000Y-7060000D02*
X3793604Y-7060000D01*
X8100000Y-6110000D02*
X7150000Y-7060000D01*
X3793604Y-7060000D02*
X1530000Y-9323604D01*
X6710000Y-22840000D02*
X10730000Y-18820000D01*
%TO.N,ERC{slash}SDA*%
X10543604Y-18370000D02*
X6523604Y-22390000D01*
X11805000Y-5869695D02*
X10660305Y-4725000D01*
X12013604Y-18370000D02*
X10543604Y-18370000D01*
X13675000Y-17300000D02*
X13083604Y-17300000D01*
X7337106Y-7510000D02*
X7952106Y-6895000D01*
X11805000Y-6470305D02*
X11805000Y-5869695D01*
X1980000Y-20620000D02*
X1980000Y-9510000D01*
X3980000Y-7510000D02*
X7337106Y-7510000D01*
X10660305Y-4725000D02*
X10325000Y-4725000D01*
X3750000Y-22390000D02*
X1980000Y-20620000D01*
X1980000Y-9510000D02*
X3980000Y-7510000D01*
X13083604Y-17300000D02*
X12013604Y-18370000D01*
X7952106Y-6895000D02*
X11380305Y-6895000D01*
X6523604Y-22390000D02*
X3750000Y-22390000D01*
X11380305Y-6895000D02*
X11805000Y-6470305D01*
%TD*%
%TA.AperFunction,Conductor*%
%TO.N,GND*%
G36*
X25211023Y-320185D02*
G01*
X25256778Y-372989D01*
X25266722Y-442147D01*
X25237697Y-505703D01*
X25215739Y-525630D01*
X25095040Y-611269D01*
X24839573Y-839570D01*
X24839570Y-839573D01*
X24611269Y-1095040D01*
X24412998Y-1374478D01*
X24247263Y-1674353D01*
X24116146Y-1990899D01*
X24021297Y-2320124D01*
X24021295Y-2320133D01*
X23963905Y-2657906D01*
X23963903Y-2657918D01*
X23944693Y-3000000D01*
X23963903Y-3342081D01*
X23963904Y-3342086D01*
X24021296Y-3679870D01*
X24116147Y-4009104D01*
X24209914Y-4235477D01*
X24247263Y-4325646D01*
X24412998Y-4625521D01*
X24611269Y-4904959D01*
X24839570Y-5160426D01*
X24839573Y-5160429D01*
X25095040Y-5388730D01*
X25095046Y-5388734D01*
X25095047Y-5388735D01*
X25374479Y-5587002D01*
X25674352Y-5752736D01*
X25990896Y-5883853D01*
X26320130Y-5978704D01*
X26657914Y-6036096D01*
X27000000Y-6055307D01*
X27342086Y-6036096D01*
X27679870Y-5978704D01*
X28009104Y-5883853D01*
X28325648Y-5752736D01*
X28625521Y-5587002D01*
X28904953Y-5388735D01*
X28929735Y-5366589D01*
X29001076Y-5302834D01*
X29160428Y-5160428D01*
X29388735Y-4904953D01*
X29474370Y-4784260D01*
X29529218Y-4740977D01*
X29598760Y-4734217D01*
X29660917Y-4766128D01*
X29695955Y-4826577D01*
X29699500Y-4856016D01*
X29699500Y-25143983D01*
X29679815Y-25211022D01*
X29627011Y-25256777D01*
X29557853Y-25266721D01*
X29494297Y-25237696D01*
X29474371Y-25215739D01*
X29388731Y-25095042D01*
X29160429Y-24839573D01*
X29160426Y-24839570D01*
X28904959Y-24611269D01*
X28625521Y-24412998D01*
X28325646Y-24247263D01*
X28260087Y-24220108D01*
X28009104Y-24116147D01*
X27862573Y-24073932D01*
X27679875Y-24021297D01*
X27679866Y-24021295D01*
X27342093Y-23963905D01*
X27342081Y-23963903D01*
X27000000Y-23944693D01*
X26657918Y-23963903D01*
X26657906Y-23963905D01*
X26320133Y-24021295D01*
X26320124Y-24021297D01*
X25990899Y-24116146D01*
X25990896Y-24116147D01*
X25898184Y-24154549D01*
X25674353Y-24247263D01*
X25374478Y-24412998D01*
X25095040Y-24611269D01*
X24839573Y-24839570D01*
X24839570Y-24839573D01*
X24611269Y-25095040D01*
X24412998Y-25374478D01*
X24247263Y-25674353D01*
X24116146Y-25990899D01*
X24021297Y-26320124D01*
X24021295Y-26320133D01*
X23963905Y-26657906D01*
X23963903Y-26657918D01*
X23944693Y-27000000D01*
X23963903Y-27342081D01*
X23963905Y-27342093D01*
X23993626Y-27517020D01*
X24021296Y-27679870D01*
X24116147Y-28009104D01*
X24188764Y-28184416D01*
X24247263Y-28325646D01*
X24412998Y-28625521D01*
X24611269Y-28904959D01*
X24839570Y-29160426D01*
X24839573Y-29160429D01*
X25095040Y-29388730D01*
X25215739Y-29474370D01*
X25259023Y-29529218D01*
X25265783Y-29598760D01*
X25233872Y-29660917D01*
X25173423Y-29695955D01*
X25143984Y-29699500D01*
X4856016Y-29699500D01*
X4788977Y-29679815D01*
X4743222Y-29627011D01*
X4733278Y-29557853D01*
X4762303Y-29494297D01*
X4784261Y-29474370D01*
X4904953Y-29388735D01*
X4962836Y-29337008D01*
X4985414Y-29316829D01*
X5160428Y-29160428D01*
X5388735Y-28904953D01*
X5587002Y-28625521D01*
X5752736Y-28325648D01*
X5883853Y-28009104D01*
X5978704Y-27679870D01*
X6036096Y-27342086D01*
X6055307Y-27000000D01*
X6036096Y-26657914D01*
X5978704Y-26320130D01*
X5970308Y-26290987D01*
X5970664Y-26221120D01*
X6008738Y-26162535D01*
X6072440Y-26133834D01*
X6109870Y-26134351D01*
X6116757Y-26135499D01*
X6116758Y-26135500D01*
X6116759Y-26135500D01*
X6124523Y-26136795D01*
X6132329Y-26137768D01*
X6132330Y-26137769D01*
X6132330Y-26137768D01*
X6132331Y-26137769D01*
X6184625Y-26135606D01*
X6189750Y-26135500D01*
X11068196Y-26135500D01*
X11093641Y-26138139D01*
X11096724Y-26138785D01*
X11104268Y-26140367D01*
X11135676Y-26136451D01*
X11151014Y-26135500D01*
X11151112Y-26135500D01*
X11151114Y-26135500D01*
X11171643Y-26132073D01*
X11176673Y-26131341D01*
X11228626Y-26124866D01*
X11228628Y-26124864D01*
X11236141Y-26122628D01*
X11243606Y-26120066D01*
X11243606Y-26120065D01*
X11243610Y-26120065D01*
X11282270Y-26099143D01*
X11289636Y-26095157D01*
X11294193Y-26092812D01*
X11309102Y-26085522D01*
X11341211Y-26069826D01*
X11341213Y-26069823D01*
X11347594Y-26065268D01*
X11353820Y-26060421D01*
X11353826Y-26060419D01*
X11389293Y-26021890D01*
X11392795Y-26018240D01*
X13279972Y-24131063D01*
X13341293Y-24097580D01*
X13410985Y-24102564D01*
X13412444Y-24103119D01*
X13502544Y-24138024D01*
X13703024Y-24175500D01*
X13703026Y-24175500D01*
X13906974Y-24175500D01*
X13906976Y-24175500D01*
X14107456Y-24138024D01*
X14297637Y-24064348D01*
X14471041Y-23956981D01*
X14621764Y-23819579D01*
X14744673Y-23656821D01*
X14835582Y-23474250D01*
X14891397Y-23278083D01*
X14910215Y-23075000D01*
X14896316Y-22924999D01*
X15254186Y-22924999D01*
X15254187Y-22925000D01*
X15867935Y-22925000D01*
X15845000Y-23003111D01*
X15845000Y-23146889D01*
X15867935Y-23225000D01*
X15254187Y-23225000D01*
X15259097Y-23277991D01*
X15314883Y-23474063D01*
X15314886Y-23474069D01*
X15405754Y-23656556D01*
X15528608Y-23819242D01*
X15679260Y-23956578D01*
X15852584Y-24063897D01*
X16042678Y-24137539D01*
X16195000Y-24166013D01*
X16195000Y-23556170D01*
X16202685Y-23559680D01*
X16309237Y-23575000D01*
X16380763Y-23575000D01*
X16487315Y-23559680D01*
X16495000Y-23556170D01*
X16495000Y-24166013D01*
X16647321Y-24137539D01*
X16837415Y-24063897D01*
X17010739Y-23956578D01*
X17161391Y-23819242D01*
X17284245Y-23656556D01*
X17375113Y-23474069D01*
X17375116Y-23474063D01*
X17430902Y-23277991D01*
X17435813Y-23225000D01*
X16822065Y-23225000D01*
X16845000Y-23146889D01*
X16845000Y-23118933D01*
X18130668Y-23118933D01*
X18158716Y-23277991D01*
X18161135Y-23291711D01*
X18230623Y-23452804D01*
X18230624Y-23452806D01*
X18230626Y-23452809D01*
X18321595Y-23575000D01*
X18335390Y-23593530D01*
X18469786Y-23706302D01*
X18547488Y-23745325D01*
X18626562Y-23785038D01*
X18626563Y-23785038D01*
X18626567Y-23785040D01*
X18797279Y-23825500D01*
X18797282Y-23825500D01*
X18928701Y-23825500D01*
X18928709Y-23825500D01*
X19059255Y-23810241D01*
X19224117Y-23750237D01*
X19370696Y-23653830D01*
X19491092Y-23526218D01*
X19578812Y-23374281D01*
X19629130Y-23206210D01*
X19639331Y-23031065D01*
X19608865Y-22858289D01*
X19539377Y-22697196D01*
X19529376Y-22683763D01*
X19434609Y-22556469D01*
X19300214Y-22443698D01*
X19300212Y-22443697D01*
X19143437Y-22364961D01*
X19143433Y-22364960D01*
X18972721Y-22324500D01*
X18841291Y-22324500D01*
X18736854Y-22336707D01*
X18710743Y-22339759D01*
X18710740Y-22339760D01*
X18545884Y-22399762D01*
X18545880Y-22399764D01*
X18399306Y-22496167D01*
X18399305Y-22496168D01*
X18278910Y-22623778D01*
X18191188Y-22775718D01*
X18140870Y-22943789D01*
X18140869Y-22943794D01*
X18130668Y-23118933D01*
X16845000Y-23118933D01*
X16845000Y-23003111D01*
X16822065Y-22925000D01*
X17435813Y-22925000D01*
X17435813Y-22924999D01*
X17430902Y-22872008D01*
X17375116Y-22675936D01*
X17375113Y-22675930D01*
X17284245Y-22493443D01*
X17161391Y-22330757D01*
X17010739Y-22193421D01*
X16837415Y-22086102D01*
X16647322Y-22012460D01*
X16495000Y-21983985D01*
X16495000Y-22593829D01*
X16487315Y-22590320D01*
X16380763Y-22575000D01*
X16309237Y-22575000D01*
X16202685Y-22590320D01*
X16195000Y-22593829D01*
X16195000Y-21983985D01*
X16042677Y-22012460D01*
X15852584Y-22086102D01*
X15679260Y-22193421D01*
X15528608Y-22330757D01*
X15405754Y-22493443D01*
X15314886Y-22675930D01*
X15314883Y-22675936D01*
X15259097Y-22872008D01*
X15254186Y-22924999D01*
X14896316Y-22924999D01*
X14891397Y-22871917D01*
X14835582Y-22675750D01*
X14833944Y-22672461D01*
X14775359Y-22554806D01*
X14744673Y-22493179D01*
X14655745Y-22375419D01*
X14621762Y-22330418D01*
X14471042Y-22193020D01*
X14471041Y-22193019D01*
X14406353Y-22152966D01*
X14364222Y-22126879D01*
X14317587Y-22074851D01*
X14305500Y-22021452D01*
X14305500Y-19708657D01*
X14325185Y-19641618D01*
X14327450Y-19638217D01*
X14385219Y-19554524D01*
X14385220Y-19554523D01*
X14441237Y-19406818D01*
X14460278Y-19250000D01*
X14458071Y-19231819D01*
X14441237Y-19093181D01*
X14419992Y-19037164D01*
X14385220Y-18945477D01*
X14295483Y-18815470D01*
X14177240Y-18710717D01*
X14177238Y-18710716D01*
X14177237Y-18710715D01*
X14037365Y-18637303D01*
X13883986Y-18599500D01*
X13883985Y-18599500D01*
X13726015Y-18599500D01*
X13726014Y-18599500D01*
X13572634Y-18637303D01*
X13432762Y-18710715D01*
X13314516Y-18815471D01*
X13224781Y-18945475D01*
X13224780Y-18945476D01*
X13168762Y-19093181D01*
X13149722Y-19249999D01*
X13149722Y-19250006D01*
X13150552Y-19256844D01*
X13139090Y-19325767D01*
X13092184Y-19377551D01*
X13024728Y-19395756D01*
X12989689Y-19388936D01*
X12989649Y-19389099D01*
X12986364Y-19388289D01*
X12983490Y-19387730D01*
X12982367Y-19387304D01*
X12828986Y-19349500D01*
X12828985Y-19349500D01*
X12671015Y-19349500D01*
X12671014Y-19349500D01*
X12517634Y-19387303D01*
X12377762Y-19460715D01*
X12259516Y-19565471D01*
X12169781Y-19695475D01*
X12169780Y-19695476D01*
X12113762Y-19843181D01*
X12094722Y-19999999D01*
X12094722Y-20000000D01*
X12113762Y-20156818D01*
X12169780Y-20304523D01*
X12169780Y-20304524D01*
X12227550Y-20388217D01*
X12249433Y-20454571D01*
X12249500Y-20458657D01*
X12249500Y-21331323D01*
X12229815Y-21398362D01*
X12213181Y-21419004D01*
X11658118Y-21974066D01*
X11596795Y-22007551D01*
X11547652Y-22008274D01*
X11366976Y-21974500D01*
X11163024Y-21974500D01*
X10962544Y-22011976D01*
X10962541Y-22011976D01*
X10962541Y-22011977D01*
X10772364Y-22085651D01*
X10772357Y-22085655D01*
X10598960Y-22193017D01*
X10598958Y-22193019D01*
X10448237Y-22330418D01*
X10325327Y-22493178D01*
X10234422Y-22675739D01*
X10234417Y-22675752D01*
X10178602Y-22871917D01*
X10159785Y-23074999D01*
X10159785Y-23075000D01*
X10178602Y-23278082D01*
X10234417Y-23474247D01*
X10234422Y-23474260D01*
X10323838Y-23653830D01*
X10325327Y-23656821D01*
X10448236Y-23819579D01*
X10467949Y-23837549D01*
X10504231Y-23897258D01*
X10502472Y-23967105D01*
X10472093Y-24016868D01*
X9590781Y-24898181D01*
X9529458Y-24931666D01*
X9503100Y-24934500D01*
X6572713Y-24934500D01*
X6505674Y-24914815D01*
X6485032Y-24898181D01*
X5014033Y-23427181D01*
X4980548Y-23365858D01*
X4985532Y-23296166D01*
X5027404Y-23240233D01*
X5092868Y-23215816D01*
X5101714Y-23215500D01*
X6658196Y-23215500D01*
X6683641Y-23218139D01*
X6686724Y-23218785D01*
X6694268Y-23220367D01*
X6725676Y-23216451D01*
X6741014Y-23215500D01*
X6741112Y-23215500D01*
X6741114Y-23215500D01*
X6761643Y-23212073D01*
X6766673Y-23211341D01*
X6818626Y-23204866D01*
X6818628Y-23204864D01*
X6826141Y-23202628D01*
X6833606Y-23200066D01*
X6833606Y-23200065D01*
X6833610Y-23200065D01*
X6879636Y-23175157D01*
X6884193Y-23172812D01*
X6899102Y-23165522D01*
X6931211Y-23149826D01*
X6931213Y-23149823D01*
X6937594Y-23145268D01*
X6943820Y-23140421D01*
X6943826Y-23140419D01*
X6963604Y-23118933D01*
X7970668Y-23118933D01*
X7998716Y-23277991D01*
X8001135Y-23291711D01*
X8070623Y-23452804D01*
X8070624Y-23452806D01*
X8070626Y-23452809D01*
X8161595Y-23575000D01*
X8175390Y-23593530D01*
X8309786Y-23706302D01*
X8387488Y-23745325D01*
X8466562Y-23785038D01*
X8466563Y-23785038D01*
X8466567Y-23785040D01*
X8637279Y-23825500D01*
X8637282Y-23825500D01*
X8768701Y-23825500D01*
X8768709Y-23825500D01*
X8899255Y-23810241D01*
X9064117Y-23750237D01*
X9210696Y-23653830D01*
X9331092Y-23526218D01*
X9418812Y-23374281D01*
X9469130Y-23206210D01*
X9479331Y-23031065D01*
X9448865Y-22858289D01*
X9379377Y-22697196D01*
X9369376Y-22683763D01*
X9274609Y-22556469D01*
X9140214Y-22443698D01*
X9140212Y-22443697D01*
X8983437Y-22364961D01*
X8983433Y-22364960D01*
X8812721Y-22324500D01*
X8681291Y-22324500D01*
X8576854Y-22336707D01*
X8550743Y-22339759D01*
X8550740Y-22339760D01*
X8385884Y-22399762D01*
X8385880Y-22399764D01*
X8239306Y-22496167D01*
X8239305Y-22496168D01*
X8118910Y-22623778D01*
X8031188Y-22775718D01*
X7980870Y-22943789D01*
X7980869Y-22943794D01*
X7970668Y-23118933D01*
X6963604Y-23118933D01*
X6979293Y-23101890D01*
X6982795Y-23098240D01*
X10849218Y-19231819D01*
X10910541Y-19198334D01*
X10936899Y-19195500D01*
X12148196Y-19195500D01*
X12173641Y-19198139D01*
X12176724Y-19198785D01*
X12184268Y-19200367D01*
X12215676Y-19196451D01*
X12231014Y-19195500D01*
X12231112Y-19195500D01*
X12231114Y-19195500D01*
X12251643Y-19192073D01*
X12256673Y-19191341D01*
X12308626Y-19184866D01*
X12308628Y-19184864D01*
X12316141Y-19182628D01*
X12323606Y-19180066D01*
X12323606Y-19180065D01*
X12323610Y-19180065D01*
X12369636Y-19155157D01*
X12374193Y-19152812D01*
X12389102Y-19145522D01*
X12421211Y-19129826D01*
X12421213Y-19129823D01*
X12427594Y-19125268D01*
X12433820Y-19120421D01*
X12433826Y-19120419D01*
X12469293Y-19081890D01*
X12472795Y-19078240D01*
X13051037Y-18500000D01*
X18229722Y-18500000D01*
X18248762Y-18656818D01*
X18269203Y-18710715D01*
X18304780Y-18804523D01*
X18394517Y-18934530D01*
X18512760Y-19039283D01*
X18512762Y-19039284D01*
X18652634Y-19112696D01*
X18806014Y-19150500D01*
X18806015Y-19150500D01*
X18963985Y-19150500D01*
X19117365Y-19112696D01*
X19154547Y-19093181D01*
X19257240Y-19039283D01*
X19375483Y-18934530D01*
X19465220Y-18804523D01*
X19521237Y-18656818D01*
X19540278Y-18500000D01*
X19523607Y-18362696D01*
X19521237Y-18343181D01*
X19489715Y-18260065D01*
X19465220Y-18195477D01*
X19375483Y-18065470D01*
X19257240Y-17960717D01*
X19257238Y-17960716D01*
X19257237Y-17960715D01*
X19117365Y-17887303D01*
X18963986Y-17849500D01*
X18963985Y-17849500D01*
X18806015Y-17849500D01*
X18806014Y-17849500D01*
X18652634Y-17887303D01*
X18512762Y-17960715D01*
X18394516Y-18065471D01*
X18304781Y-18195475D01*
X18304780Y-18195476D01*
X18248762Y-18343181D01*
X18229722Y-18499999D01*
X18229722Y-18500000D01*
X13051037Y-18500000D01*
X13239218Y-18311819D01*
X13300541Y-18278334D01*
X13326899Y-18275500D01*
X13871725Y-18275500D01*
X13897170Y-18278139D01*
X13900253Y-18278785D01*
X13907797Y-18280367D01*
X13939205Y-18276451D01*
X13954543Y-18275500D01*
X13954641Y-18275500D01*
X13954643Y-18275500D01*
X13975172Y-18272073D01*
X13980202Y-18271341D01*
X14032155Y-18264866D01*
X14032157Y-18264864D01*
X14039670Y-18262628D01*
X14047135Y-18260066D01*
X14047135Y-18260065D01*
X14047139Y-18260065D01*
X14093165Y-18235157D01*
X14097722Y-18232812D01*
X14112631Y-18225522D01*
X14144740Y-18209826D01*
X14144742Y-18209823D01*
X14151123Y-18205268D01*
X14157349Y-18200421D01*
X14157355Y-18200419D01*
X14192822Y-18161890D01*
X14196324Y-18158240D01*
X14511926Y-17842638D01*
X14555636Y-17817407D01*
X14554674Y-17815085D01*
X14690016Y-17759025D01*
X14690019Y-17759023D01*
X14701779Y-17749999D01*
X14724513Y-17732554D01*
X14789680Y-17707359D01*
X14858125Y-17721396D01*
X14875484Y-17732552D01*
X14891082Y-17744521D01*
X14909980Y-17759023D01*
X14909981Y-17759023D01*
X14909982Y-17759024D01*
X15037817Y-17811974D01*
X15160702Y-17828152D01*
X15174999Y-17830035D01*
X15175000Y-17830035D01*
X15175001Y-17830035D01*
X15187947Y-17828330D01*
X15312183Y-17811974D01*
X15440018Y-17759024D01*
X15474513Y-17732554D01*
X15539680Y-17707359D01*
X15608125Y-17721396D01*
X15625484Y-17732552D01*
X15641082Y-17744521D01*
X15659980Y-17759023D01*
X15659981Y-17759023D01*
X15659982Y-17759024D01*
X15787817Y-17811974D01*
X15910702Y-17828152D01*
X15924999Y-17830035D01*
X15925000Y-17830035D01*
X15925001Y-17830035D01*
X15937947Y-17828330D01*
X16062183Y-17811974D01*
X16190018Y-17759024D01*
X16201778Y-17750000D01*
X20769722Y-17750000D01*
X20788762Y-17906818D01*
X20844780Y-18054523D01*
X20934517Y-18184530D01*
X21052760Y-18289283D01*
X21052762Y-18289284D01*
X21192634Y-18362696D01*
X21346014Y-18400500D01*
X21346015Y-18400500D01*
X21503985Y-18400500D01*
X21657365Y-18362696D01*
X21694547Y-18343181D01*
X21797240Y-18289283D01*
X21915483Y-18184530D01*
X22005220Y-18054523D01*
X22061237Y-17906818D01*
X22080278Y-17750000D01*
X22075101Y-17707359D01*
X22061237Y-17593181D01*
X22039992Y-17537164D01*
X22005220Y-17445477D01*
X21915483Y-17315470D01*
X21797240Y-17210717D01*
X21797238Y-17210716D01*
X21797237Y-17210715D01*
X21657365Y-17137303D01*
X21503986Y-17099500D01*
X21503985Y-17099500D01*
X21346015Y-17099500D01*
X21346014Y-17099500D01*
X21192634Y-17137303D01*
X21052762Y-17210715D01*
X20934516Y-17315471D01*
X20844781Y-17445475D01*
X20844780Y-17445476D01*
X20788762Y-17593181D01*
X20769722Y-17749999D01*
X20769722Y-17750000D01*
X16201778Y-17750000D01*
X16299791Y-17674791D01*
X16384024Y-17565018D01*
X16436974Y-17437183D01*
X16455035Y-17300000D01*
X16436974Y-17162817D01*
X16384024Y-17034983D01*
X16299791Y-16925209D01*
X16299789Y-16925208D01*
X16299789Y-16925207D01*
X16224514Y-16867446D01*
X16190018Y-16840976D01*
X16190017Y-16840975D01*
X16190015Y-16840974D01*
X16062186Y-16788027D01*
X16062184Y-16788026D01*
X16062183Y-16788026D01*
X15970727Y-16775985D01*
X15925001Y-16769965D01*
X15924999Y-16769965D01*
X15856408Y-16778995D01*
X15787817Y-16788026D01*
X15787816Y-16788026D01*
X15787813Y-16788027D01*
X15659984Y-16840974D01*
X15659982Y-16840976D01*
X15625486Y-16867446D01*
X15560316Y-16892640D01*
X15491872Y-16878601D01*
X15474513Y-16867445D01*
X15440019Y-16840976D01*
X15440016Y-16840975D01*
X15312186Y-16788027D01*
X15312184Y-16788026D01*
X15312183Y-16788026D01*
X15220727Y-16775985D01*
X15175001Y-16769965D01*
X15174999Y-16769965D01*
X15106408Y-16778995D01*
X15037817Y-16788026D01*
X15037816Y-16788026D01*
X15037813Y-16788027D01*
X14909984Y-16840974D01*
X14909982Y-16840976D01*
X14875486Y-16867446D01*
X14810316Y-16892640D01*
X14741872Y-16878601D01*
X14724513Y-16867445D01*
X14690019Y-16840976D01*
X14690016Y-16840975D01*
X14562186Y-16788027D01*
X14562184Y-16788026D01*
X14562183Y-16788026D01*
X14470727Y-16775985D01*
X14425001Y-16769965D01*
X14424999Y-16769965D01*
X14356408Y-16778995D01*
X14287817Y-16788026D01*
X14287816Y-16788026D01*
X14287813Y-16788027D01*
X14159984Y-16840974D01*
X14159982Y-16840976D01*
X14125486Y-16867446D01*
X14060316Y-16892640D01*
X13991872Y-16878601D01*
X13974513Y-16867445D01*
X13940019Y-16840976D01*
X13940016Y-16840975D01*
X13812186Y-16788027D01*
X13812184Y-16788026D01*
X13812183Y-16788026D01*
X13720727Y-16775985D01*
X13675001Y-16769965D01*
X13674999Y-16769965D01*
X13606408Y-16778995D01*
X13537817Y-16788026D01*
X13537816Y-16788026D01*
X13537813Y-16788027D01*
X13409984Y-16840974D01*
X13409982Y-16840976D01*
X13334526Y-16898876D01*
X13269357Y-16924070D01*
X13259040Y-16924500D01*
X13135407Y-16924500D01*
X13109962Y-16921861D01*
X13109143Y-16921689D01*
X13099336Y-16919633D01*
X13099335Y-16919633D01*
X13067927Y-16923548D01*
X13052589Y-16924500D01*
X13052489Y-16924500D01*
X13031985Y-16927920D01*
X13026925Y-16928657D01*
X12974986Y-16935132D01*
X12967446Y-16937377D01*
X12959997Y-16939934D01*
X12959994Y-16939935D01*
X12959990Y-16939936D01*
X12959987Y-16939938D01*
X12913971Y-16964840D01*
X12909416Y-16967185D01*
X12862395Y-16990172D01*
X12855985Y-16994748D01*
X12849778Y-16999579D01*
X12814322Y-17038094D01*
X12810776Y-17041789D01*
X11894385Y-17958181D01*
X11833062Y-17991666D01*
X11806704Y-17994500D01*
X10595407Y-17994500D01*
X10569962Y-17991861D01*
X10569032Y-17991666D01*
X10559336Y-17989633D01*
X10559335Y-17989633D01*
X10527927Y-17993548D01*
X10512589Y-17994500D01*
X10512489Y-17994500D01*
X10491985Y-17997920D01*
X10486925Y-17998657D01*
X10434986Y-18005132D01*
X10427446Y-18007377D01*
X10419997Y-18009934D01*
X10419994Y-18009935D01*
X10419990Y-18009936D01*
X10419987Y-18009938D01*
X10373971Y-18034840D01*
X10369416Y-18037185D01*
X10322395Y-18060172D01*
X10315985Y-18064748D01*
X10309778Y-18069579D01*
X10274321Y-18108095D01*
X10270775Y-18111790D01*
X6404385Y-21978181D01*
X6343062Y-22011666D01*
X6316704Y-22014500D01*
X3956899Y-22014500D01*
X3889860Y-21994815D01*
X3869218Y-21978181D01*
X2391819Y-20500781D01*
X2358334Y-20439458D01*
X2355500Y-20413100D01*
X2355500Y-9716899D01*
X2375185Y-9649860D01*
X2391819Y-9629218D01*
X4099218Y-7921819D01*
X4160541Y-7888334D01*
X4186899Y-7885500D01*
X7285302Y-7885500D01*
X7310747Y-7888139D01*
X7313830Y-7888785D01*
X7321374Y-7890367D01*
X7352782Y-7886451D01*
X7368120Y-7885500D01*
X7368218Y-7885500D01*
X7368220Y-7885500D01*
X7370292Y-7885154D01*
X7371147Y-7885257D01*
X7373336Y-7885076D01*
X7373373Y-7885525D01*
X7439659Y-7893524D01*
X7493488Y-7938068D01*
X7514690Y-8004643D01*
X7514722Y-8007459D01*
X7514722Y-8010000D01*
X7533762Y-8166818D01*
X7577209Y-8281377D01*
X7589780Y-8314523D01*
X7679517Y-8444530D01*
X7797760Y-8549283D01*
X7797762Y-8549284D01*
X7937634Y-8622696D01*
X8091014Y-8660500D01*
X8091015Y-8660500D01*
X8248985Y-8660500D01*
X8402365Y-8622696D01*
X8500378Y-8571254D01*
X8542240Y-8549283D01*
X8660483Y-8444530D01*
X8673961Y-8425003D01*
X13144508Y-8425003D01*
X13164352Y-8550300D01*
X13164352Y-8550301D01*
X13182805Y-8586517D01*
X13221950Y-8663342D01*
X13221952Y-8663344D01*
X13221954Y-8663347D01*
X13311652Y-8753045D01*
X13311654Y-8753046D01*
X13311658Y-8753050D01*
X13424696Y-8810646D01*
X13424697Y-8810646D01*
X13424699Y-8810647D01*
X13549997Y-8830492D01*
X13550000Y-8830492D01*
X13550003Y-8830492D01*
X13675300Y-8810647D01*
X13675301Y-8810647D01*
X13675302Y-8810646D01*
X13675304Y-8810646D01*
X13788342Y-8753050D01*
X13878050Y-8663342D01*
X13902016Y-8616305D01*
X13949990Y-8565511D01*
X14017811Y-8548716D01*
X14083946Y-8571254D01*
X14122983Y-8616305D01*
X14146950Y-8663342D01*
X14146952Y-8663344D01*
X14146954Y-8663347D01*
X14236652Y-8753045D01*
X14236654Y-8753046D01*
X14236658Y-8753050D01*
X14349696Y-8810646D01*
X14349697Y-8810646D01*
X14349699Y-8810647D01*
X14474997Y-8830492D01*
X14475000Y-8830492D01*
X14475003Y-8830492D01*
X14600300Y-8810647D01*
X14600301Y-8810647D01*
X14600302Y-8810646D01*
X14600304Y-8810646D01*
X14713342Y-8753050D01*
X14803050Y-8663342D01*
X14860646Y-8550304D01*
X14860646Y-8550302D01*
X14864515Y-8542710D01*
X14912490Y-8491914D01*
X14980311Y-8475119D01*
X15046446Y-8497657D01*
X15085485Y-8542710D01*
X15089353Y-8550302D01*
X15089354Y-8550304D01*
X15146950Y-8663342D01*
X15146952Y-8663344D01*
X15146954Y-8663347D01*
X15236652Y-8753045D01*
X15236654Y-8753046D01*
X15236658Y-8753050D01*
X15349696Y-8810646D01*
X15349697Y-8810646D01*
X15349699Y-8810647D01*
X15474997Y-8830492D01*
X15475000Y-8830492D01*
X15475003Y-8830492D01*
X15600300Y-8810647D01*
X15600301Y-8810647D01*
X15600302Y-8810646D01*
X15600304Y-8810646D01*
X15713342Y-8753050D01*
X15803050Y-8663342D01*
X15860646Y-8550304D01*
X15860646Y-8550302D01*
X15860647Y-8550301D01*
X15860647Y-8550300D01*
X15880492Y-8425003D01*
X15880492Y-8424996D01*
X15860647Y-8299699D01*
X15860647Y-8299698D01*
X15843676Y-8266391D01*
X15803050Y-8186658D01*
X15803046Y-8186654D01*
X15803045Y-8186652D01*
X15713347Y-8096954D01*
X15713344Y-8096952D01*
X15713342Y-8096950D01*
X15600304Y-8039354D01*
X15600303Y-8039353D01*
X15600300Y-8039352D01*
X15475003Y-8019508D01*
X15474997Y-8019508D01*
X15349699Y-8039352D01*
X15349698Y-8039352D01*
X15296776Y-8066318D01*
X15236658Y-8096950D01*
X15236657Y-8096951D01*
X15236652Y-8096954D01*
X15146954Y-8186652D01*
X15146949Y-8186659D01*
X15085484Y-8307290D01*
X15037510Y-8358085D01*
X14969689Y-8374880D01*
X14903554Y-8352342D01*
X14864516Y-8307290D01*
X14817913Y-8215829D01*
X14803050Y-8186658D01*
X14803047Y-8186655D01*
X14803045Y-8186652D01*
X14713347Y-8096954D01*
X14713344Y-8096952D01*
X14713342Y-8096950D01*
X14600304Y-8039354D01*
X14600303Y-8039353D01*
X14600300Y-8039352D01*
X14475003Y-8019508D01*
X14474997Y-8019508D01*
X14349699Y-8039352D01*
X14349698Y-8039352D01*
X14296776Y-8066318D01*
X14236658Y-8096950D01*
X14236657Y-8096951D01*
X14236652Y-8096954D01*
X14146954Y-8186652D01*
X14146949Y-8186659D01*
X14122984Y-8233693D01*
X14075009Y-8284488D01*
X14007188Y-8301283D01*
X13941054Y-8278745D01*
X13902016Y-8233693D01*
X13892071Y-8214176D01*
X13878050Y-8186658D01*
X13878047Y-8186655D01*
X13878045Y-8186652D01*
X13788347Y-8096954D01*
X13788344Y-8096952D01*
X13788342Y-8096950D01*
X13675304Y-8039354D01*
X13675303Y-8039353D01*
X13675300Y-8039352D01*
X13550003Y-8019508D01*
X13549997Y-8019508D01*
X13424699Y-8039352D01*
X13424698Y-8039352D01*
X13371776Y-8066318D01*
X13311658Y-8096950D01*
X13311657Y-8096951D01*
X13311652Y-8096954D01*
X13221954Y-8186652D01*
X13221951Y-8186657D01*
X13221950Y-8186658D01*
X13207087Y-8215829D01*
X13164352Y-8299698D01*
X13164352Y-8299699D01*
X13144508Y-8424996D01*
X13144508Y-8425003D01*
X8673961Y-8425003D01*
X8750220Y-8314523D01*
X8806237Y-8166818D01*
X8808032Y-8159536D01*
X8810006Y-8160022D01*
X8833529Y-8105373D01*
X8891464Y-8066318D01*
X8929001Y-8060500D01*
X11617096Y-8060500D01*
X11643454Y-8063334D01*
X11648166Y-8064359D01*
X11697700Y-8060815D01*
X11706547Y-8060500D01*
X11720038Y-8060500D01*
X11733395Y-8058579D01*
X11742190Y-8057633D01*
X11791722Y-8054091D01*
X11796231Y-8052408D01*
X11821924Y-8045850D01*
X11826696Y-8045165D01*
X11871876Y-8024530D01*
X11880040Y-8021149D01*
X11926570Y-8003796D01*
X11930428Y-8000907D01*
X11953234Y-7987375D01*
X11957612Y-7985377D01*
X11995138Y-7952859D01*
X12002017Y-7947316D01*
X12012832Y-7939221D01*
X12022394Y-7929658D01*
X12028844Y-7923653D01*
X12066382Y-7891128D01*
X12068990Y-7887068D01*
X12085620Y-7866431D01*
X12826431Y-7125620D01*
X12847068Y-7108990D01*
X12851128Y-7106382D01*
X12883653Y-7068844D01*
X12889658Y-7062394D01*
X12899221Y-7052832D01*
X12907316Y-7042017D01*
X12912859Y-7035138D01*
X12945377Y-6997612D01*
X12947375Y-6993234D01*
X12960907Y-6970428D01*
X12963796Y-6966570D01*
X12981149Y-6920040D01*
X12984534Y-6911869D01*
X13005165Y-6866696D01*
X13005850Y-6861924D01*
X13012409Y-6836231D01*
X13014091Y-6831722D01*
X13017633Y-6782190D01*
X13018580Y-6773387D01*
X13020500Y-6760038D01*
X13020500Y-6746547D01*
X13020816Y-6737700D01*
X13024359Y-6688166D01*
X13023332Y-6683445D01*
X13020500Y-6657097D01*
X13020500Y-4457137D01*
X13023334Y-4430778D01*
X13024358Y-4426073D01*
X13020816Y-4376547D01*
X13020500Y-4367701D01*
X13020500Y-4354200D01*
X13018579Y-4340845D01*
X13017632Y-4332035D01*
X13014091Y-4282519D01*
X13014091Y-4282515D01*
X13012408Y-4278004D01*
X13005851Y-4252316D01*
X13005165Y-4247543D01*
X12984536Y-4202372D01*
X12981149Y-4194195D01*
X12974391Y-4176080D01*
X12963795Y-4147669D01*
X12960908Y-4143813D01*
X12947379Y-4121012D01*
X12945377Y-4116627D01*
X12912857Y-4079097D01*
X12907304Y-4072206D01*
X12899220Y-4061406D01*
X12899214Y-4061400D01*
X12899210Y-4061395D01*
X12889676Y-4051861D01*
X12883643Y-4045382D01*
X12851129Y-4007858D01*
X12851125Y-4007854D01*
X12847066Y-4005246D01*
X12826428Y-3988614D01*
X11575839Y-2738025D01*
X19194710Y-2738025D01*
X19199028Y-2787368D01*
X19199500Y-2798176D01*
X19199500Y-2803711D01*
X19203098Y-2834495D01*
X19203464Y-2838083D01*
X19210000Y-2912791D01*
X19211461Y-2919867D01*
X19211403Y-2919878D01*
X19213034Y-2927237D01*
X19213092Y-2927224D01*
X19214757Y-2934249D01*
X19214758Y-2934254D01*
X19214759Y-2934255D01*
X19238687Y-3000000D01*
X19240400Y-3004705D01*
X19241582Y-3008107D01*
X19265182Y-3079326D01*
X19268236Y-3085874D01*
X19268182Y-3085898D01*
X19271470Y-3092688D01*
X19271521Y-3092663D01*
X19274761Y-3099114D01*
X19315979Y-3161784D01*
X19317889Y-3164782D01*
X19348972Y-3215174D01*
X19357289Y-3228658D01*
X19361766Y-3234319D01*
X19361719Y-3234356D01*
X19366482Y-3240202D01*
X19366528Y-3240164D01*
X19371173Y-3245699D01*
X19425708Y-3297150D01*
X19428296Y-3299664D01*
X24764267Y-8635634D01*
X24776048Y-8649266D01*
X24786531Y-8663347D01*
X24790390Y-8668530D01*
X24828343Y-8700376D01*
X24836319Y-8707686D01*
X24840219Y-8711587D01*
X24864544Y-8730821D01*
X24867340Y-8733099D01*
X24891111Y-8753045D01*
X24924786Y-8781302D01*
X24924794Y-8781306D01*
X24930824Y-8785273D01*
X24930790Y-8785323D01*
X24937147Y-8789372D01*
X24937179Y-8789321D01*
X24943319Y-8793108D01*
X24943323Y-8793111D01*
X24980927Y-8810646D01*
X25011320Y-8824819D01*
X25014566Y-8826391D01*
X25081562Y-8860038D01*
X25088357Y-8862511D01*
X25088336Y-8862567D01*
X25095455Y-8865042D01*
X25095474Y-8864986D01*
X25102323Y-8867256D01*
X25102326Y-8867256D01*
X25102327Y-8867257D01*
X25175815Y-8882429D01*
X25179307Y-8883204D01*
X25252279Y-8900500D01*
X25252281Y-8900500D01*
X25259452Y-8901339D01*
X25259445Y-8901397D01*
X25266946Y-8902163D01*
X25266952Y-8902104D01*
X25274141Y-8902733D01*
X25274143Y-8902732D01*
X25274144Y-8902733D01*
X25349111Y-8900552D01*
X25352717Y-8900500D01*
X27261043Y-8900500D01*
X27328082Y-8920185D01*
X27348723Y-8936817D01*
X27378180Y-8966273D01*
X27411666Y-9027596D01*
X27414500Y-9053956D01*
X27414500Y-20086044D01*
X27394815Y-20153083D01*
X27378181Y-20173725D01*
X27178725Y-20373181D01*
X27117402Y-20406666D01*
X27091044Y-20409500D01*
X24541212Y-20409500D01*
X24488806Y-20397882D01*
X24418691Y-20365186D01*
X24415447Y-20363615D01*
X24384530Y-20348088D01*
X24348433Y-20329960D01*
X24348431Y-20329959D01*
X24348430Y-20329959D01*
X24341645Y-20327489D01*
X24341665Y-20327433D01*
X24334549Y-20324959D01*
X24334531Y-20325015D01*
X24327674Y-20322743D01*
X24254210Y-20307573D01*
X24250693Y-20306793D01*
X24177718Y-20289499D01*
X24170547Y-20288661D01*
X24170553Y-20288601D01*
X24163055Y-20287835D01*
X24163050Y-20287895D01*
X24155860Y-20287265D01*
X24080870Y-20289448D01*
X24077263Y-20289500D01*
X23713705Y-20289500D01*
X23695735Y-20288191D01*
X23671972Y-20284710D01*
X23626826Y-20288661D01*
X23622630Y-20289028D01*
X23611824Y-20289500D01*
X23606284Y-20289500D01*
X23575501Y-20293098D01*
X23571916Y-20293464D01*
X23497199Y-20300001D01*
X23490132Y-20301460D01*
X23490120Y-20301404D01*
X23482763Y-20303035D01*
X23482777Y-20303092D01*
X23475740Y-20304760D01*
X23405231Y-20330421D01*
X23401830Y-20331603D01*
X23330668Y-20355184D01*
X23324126Y-20358235D01*
X23324101Y-20358183D01*
X23317308Y-20361471D01*
X23317334Y-20361522D01*
X23310886Y-20364760D01*
X23248228Y-20405970D01*
X23245191Y-20407905D01*
X23181344Y-20447288D01*
X23175677Y-20451769D01*
X23175641Y-20451723D01*
X23169798Y-20456484D01*
X23169835Y-20456528D01*
X23164310Y-20461164D01*
X23112848Y-20515709D01*
X23110336Y-20518294D01*
X22788414Y-20840216D01*
X22706887Y-20943325D01*
X22632742Y-21102328D01*
X22597266Y-21274141D01*
X22597266Y-21274143D01*
X22597266Y-21274144D01*
X22602369Y-21449512D01*
X22602369Y-21449515D01*
X22602370Y-21449516D01*
X22647776Y-21618975D01*
X22681570Y-21681650D01*
X22696061Y-21750000D01*
X22671298Y-21815335D01*
X22615143Y-21856909D01*
X22572425Y-21864500D01*
X22311804Y-21864500D01*
X22286357Y-21861861D01*
X22275731Y-21859633D01*
X22275730Y-21859633D01*
X22244325Y-21863548D01*
X22228986Y-21864500D01*
X22228884Y-21864500D01*
X22208367Y-21867923D01*
X22203322Y-21868658D01*
X22183196Y-21871167D01*
X22151368Y-21875135D01*
X22143844Y-21877375D01*
X22136388Y-21879935D01*
X22090357Y-21904844D01*
X22085807Y-21907186D01*
X22038791Y-21930171D01*
X22032395Y-21934737D01*
X22018067Y-21945891D01*
X22016097Y-21943360D01*
X21970969Y-21970476D01*
X21939637Y-21974500D01*
X20550323Y-21974500D01*
X20477264Y-21989032D01*
X20477260Y-21989033D01*
X20394399Y-22044399D01*
X20339033Y-22127260D01*
X20339032Y-22127264D01*
X20324500Y-22200321D01*
X20324500Y-23949678D01*
X20339032Y-24022735D01*
X20339033Y-24022739D01*
X20339034Y-24022740D01*
X20394399Y-24105601D01*
X20477260Y-24160966D01*
X20477264Y-24160967D01*
X20550321Y-24175499D01*
X20550324Y-24175500D01*
X20550326Y-24175500D01*
X22299676Y-24175500D01*
X22299677Y-24175499D01*
X22372740Y-24160966D01*
X22455601Y-24105601D01*
X22510966Y-24022740D01*
X22525500Y-23949674D01*
X22525500Y-22739500D01*
X22545185Y-22672461D01*
X22597989Y-22626706D01*
X22649500Y-22615500D01*
X24582891Y-22615500D01*
X24608336Y-22618139D01*
X24611419Y-22618785D01*
X24618963Y-22620367D01*
X24650371Y-22616451D01*
X24665709Y-22615500D01*
X24665807Y-22615500D01*
X24665809Y-22615500D01*
X24686338Y-22612073D01*
X24691368Y-22611341D01*
X24743321Y-22604866D01*
X24743323Y-22604864D01*
X24750836Y-22602628D01*
X24758301Y-22600066D01*
X24758301Y-22600065D01*
X24758305Y-22600065D01*
X24804331Y-22575157D01*
X24808888Y-22572812D01*
X24823797Y-22565522D01*
X24855906Y-22549826D01*
X24855908Y-22549823D01*
X24862289Y-22545268D01*
X24868515Y-22540422D01*
X24868521Y-22540419D01*
X24904012Y-22501864D01*
X24907492Y-22498238D01*
X24918916Y-22486814D01*
X24980240Y-22453333D01*
X25006593Y-22450500D01*
X27653196Y-22450500D01*
X27678641Y-22453139D01*
X27681724Y-22453785D01*
X27689268Y-22455367D01*
X27720676Y-22451451D01*
X27736014Y-22450500D01*
X27736112Y-22450500D01*
X27736114Y-22450500D01*
X27756643Y-22447073D01*
X27761673Y-22446341D01*
X27813626Y-22439866D01*
X27813628Y-22439864D01*
X27821141Y-22437628D01*
X27828606Y-22435066D01*
X27828606Y-22435065D01*
X27828610Y-22435065D01*
X27874636Y-22410157D01*
X27879193Y-22407812D01*
X27895659Y-22399762D01*
X27926211Y-22384826D01*
X27926213Y-22384823D01*
X27932594Y-22380268D01*
X27938820Y-22375422D01*
X27938826Y-22375419D01*
X27974316Y-22336865D01*
X27977794Y-22333241D01*
X29258892Y-21052144D01*
X29278741Y-21036025D01*
X29287836Y-21030084D01*
X29307272Y-21005110D01*
X29317450Y-20993587D01*
X29317520Y-20993518D01*
X29329607Y-20976586D01*
X29332666Y-20972485D01*
X29346066Y-20955268D01*
X29364809Y-20931189D01*
X29364811Y-20931182D01*
X29368547Y-20924280D01*
X29372003Y-20917207D01*
X29372010Y-20917199D01*
X29386955Y-20866995D01*
X29388483Y-20862224D01*
X29405500Y-20812660D01*
X29405500Y-20812656D01*
X29406790Y-20804924D01*
X29407768Y-20797085D01*
X29405606Y-20744807D01*
X29405500Y-20739683D01*
X29405500Y-8441803D01*
X29408139Y-8416358D01*
X29408177Y-8416175D01*
X29410367Y-8405732D01*
X29406452Y-8374323D01*
X29405500Y-8358985D01*
X29405500Y-8358890D01*
X29405500Y-8358886D01*
X29402078Y-8338384D01*
X29401339Y-8333309D01*
X29398997Y-8314523D01*
X29394866Y-8281375D01*
X29394864Y-8281371D01*
X29392621Y-8273837D01*
X29390065Y-8266391D01*
X29390065Y-8266390D01*
X29365159Y-8220369D01*
X29362822Y-8215829D01*
X29362784Y-8215752D01*
X29339826Y-8168789D01*
X29339823Y-8168786D01*
X29339823Y-8168785D01*
X29335280Y-8162421D01*
X29330420Y-8156176D01*
X29330419Y-8156174D01*
X29291892Y-8120707D01*
X29288218Y-8117181D01*
X28262149Y-7091111D01*
X28246022Y-7071252D01*
X28240086Y-7062167D01*
X28240085Y-7062166D01*
X28240084Y-7062164D01*
X28215109Y-7042725D01*
X28203591Y-7032553D01*
X28203515Y-7032477D01*
X28186595Y-7020398D01*
X28182479Y-7017329D01*
X28141189Y-6985190D01*
X28134274Y-6981448D01*
X28127197Y-6977988D01*
X28077043Y-6963056D01*
X28072167Y-6961494D01*
X28022662Y-6944500D01*
X28014923Y-6943208D01*
X28007085Y-6942231D01*
X27956201Y-6944336D01*
X27954806Y-6944394D01*
X27949684Y-6944500D01*
X25946899Y-6944500D01*
X25879860Y-6924815D01*
X25859218Y-6908181D01*
X24889020Y-5937982D01*
X24865299Y-5904757D01*
X24864826Y-5903789D01*
X24864824Y-5903787D01*
X24864824Y-5903786D01*
X24860280Y-5897421D01*
X24855420Y-5891176D01*
X24855419Y-5891174D01*
X24816892Y-5855707D01*
X24813218Y-5852181D01*
X23923631Y-4962593D01*
X23890146Y-4901270D01*
X23895130Y-4831578D01*
X23895205Y-4831376D01*
X23946237Y-4696818D01*
X23965278Y-4540000D01*
X23950766Y-4420477D01*
X23946237Y-4383181D01*
X23910140Y-4288003D01*
X23890220Y-4235477D01*
X23800483Y-4105470D01*
X23682240Y-4000717D01*
X23682238Y-4000716D01*
X23682237Y-4000715D01*
X23542365Y-3927303D01*
X23388986Y-3889500D01*
X23388985Y-3889500D01*
X23231015Y-3889500D01*
X23231014Y-3889500D01*
X23077634Y-3927303D01*
X22937762Y-4000715D01*
X22819516Y-4105471D01*
X22729781Y-4235475D01*
X22726296Y-4242116D01*
X22724332Y-4241085D01*
X22688794Y-4288003D01*
X22623192Y-4312049D01*
X22555005Y-4296811D01*
X22527366Y-4275998D01*
X20736819Y-2485451D01*
X20703334Y-2424128D01*
X20700500Y-2397770D01*
X20700500Y-1886298D01*
X20700500Y-1886291D01*
X20685241Y-1755745D01*
X20625237Y-1590883D01*
X20575187Y-1514786D01*
X20528832Y-1444306D01*
X20528831Y-1444305D01*
X20401221Y-1323910D01*
X20249281Y-1236188D01*
X20249282Y-1236188D01*
X20081210Y-1185870D01*
X20081205Y-1185869D01*
X19906066Y-1175669D01*
X19906065Y-1175669D01*
X19848220Y-1185869D01*
X19733293Y-1206134D01*
X19733291Y-1206134D01*
X19733289Y-1206135D01*
X19733287Y-1206136D01*
X19572198Y-1275622D01*
X19572190Y-1275626D01*
X19431469Y-1380390D01*
X19318698Y-1514785D01*
X19318697Y-1514787D01*
X19239961Y-1671562D01*
X19239960Y-1671567D01*
X19202241Y-1830717D01*
X19199500Y-1842281D01*
X19199500Y-2696294D01*
X19198191Y-2714263D01*
X19194710Y-2738025D01*
X11575839Y-2738025D01*
X11178274Y-2340460D01*
X11144789Y-2279137D01*
X11142859Y-2267724D01*
X11136237Y-2213181D01*
X11110226Y-2144596D01*
X11080220Y-2065477D01*
X10990483Y-1935470D01*
X10872240Y-1830717D01*
X10872238Y-1830716D01*
X10872237Y-1830715D01*
X10732365Y-1757303D01*
X10578986Y-1719500D01*
X10578985Y-1719500D01*
X10421015Y-1719500D01*
X10421014Y-1719500D01*
X10267634Y-1757303D01*
X10127762Y-1830715D01*
X10009516Y-1935471D01*
X9919781Y-2065475D01*
X9919780Y-2065476D01*
X9863762Y-2213181D01*
X9844722Y-2369999D01*
X9844722Y-2370000D01*
X9863762Y-2526818D01*
X9919780Y-2674523D01*
X10009517Y-2804530D01*
X10127760Y-2909283D01*
X10127762Y-2909284D01*
X10267634Y-2982696D01*
X10267633Y-2982696D01*
X10416211Y-3019316D01*
X10474218Y-3052032D01*
X11983181Y-4560995D01*
X12016666Y-4622318D01*
X12019500Y-4648676D01*
X12019500Y-5253795D01*
X11999815Y-5320834D01*
X11947011Y-5366589D01*
X11877853Y-5376533D01*
X11814297Y-5347508D01*
X11807819Y-5341476D01*
X10962454Y-4496111D01*
X10946327Y-4476252D01*
X10940391Y-4467167D01*
X10940390Y-4467166D01*
X10940389Y-4467164D01*
X10940386Y-4467161D01*
X10933430Y-4459605D01*
X10934926Y-4458227D01*
X10911054Y-4425890D01*
X10908708Y-4427122D01*
X10905220Y-4420477D01*
X10879477Y-4383182D01*
X10815483Y-4290470D01*
X10697240Y-4185717D01*
X10697238Y-4185716D01*
X10697237Y-4185715D01*
X10557365Y-4112303D01*
X10403986Y-4074500D01*
X10403985Y-4074500D01*
X10246015Y-4074500D01*
X10246014Y-4074500D01*
X10092634Y-4112303D01*
X9952762Y-4185715D01*
X9933960Y-4202372D01*
X9843497Y-4282515D01*
X9834516Y-4290471D01*
X9744781Y-4420475D01*
X9744780Y-4420476D01*
X9688762Y-4568181D01*
X9669722Y-4724999D01*
X9669722Y-4725000D01*
X9688762Y-4881818D01*
X9735299Y-5004523D01*
X9744780Y-5029523D01*
X9834517Y-5159530D01*
X9952760Y-5264283D01*
X9952762Y-5264284D01*
X10092634Y-5337696D01*
X10246014Y-5375500D01*
X10246015Y-5375500D01*
X10403985Y-5375500D01*
X10557365Y-5337696D01*
X10597635Y-5316559D01*
X10666143Y-5302834D01*
X10731197Y-5328326D01*
X10742943Y-5338675D01*
X10803193Y-5398925D01*
X10836678Y-5460248D01*
X10831694Y-5529940D01*
X10789822Y-5585873D01*
X10773139Y-5596402D01*
X10707761Y-5630716D01*
X10625812Y-5703316D01*
X10562578Y-5733037D01*
X10543585Y-5734500D01*
X8151804Y-5734500D01*
X8126359Y-5731861D01*
X8115732Y-5729633D01*
X8084324Y-5733548D01*
X8068986Y-5734500D01*
X8068886Y-5734500D01*
X8048400Y-5737918D01*
X8043338Y-5738656D01*
X8033699Y-5739857D01*
X7991370Y-5745134D01*
X7983857Y-5747371D01*
X7976386Y-5749936D01*
X7930371Y-5774837D01*
X7925820Y-5777180D01*
X7878792Y-5800171D01*
X7872375Y-5804753D01*
X7866174Y-5809579D01*
X7830718Y-5848094D01*
X7827172Y-5851789D01*
X7030781Y-6648181D01*
X6969458Y-6681666D01*
X6943100Y-6684500D01*
X6523326Y-6684500D01*
X6456287Y-6664815D01*
X6410532Y-6612011D01*
X6400588Y-6542853D01*
X6407382Y-6516532D01*
X6426237Y-6466818D01*
X6445278Y-6310000D01*
X6426237Y-6153182D01*
X6370220Y-6005477D01*
X6280483Y-5875470D01*
X6162240Y-5770717D01*
X6162238Y-5770716D01*
X6162237Y-5770715D01*
X6022365Y-5697303D01*
X5868986Y-5659500D01*
X5868985Y-5659500D01*
X5711015Y-5659500D01*
X5711014Y-5659500D01*
X5585436Y-5690451D01*
X5515634Y-5687381D01*
X5458572Y-5647061D01*
X5432367Y-5582292D01*
X5445340Y-5513637D01*
X5468078Y-5482376D01*
X5838636Y-5111819D01*
X5899959Y-5078334D01*
X5926317Y-5075500D01*
X7253692Y-5075500D01*
X7320731Y-5095185D01*
X7355742Y-5129061D01*
X7358163Y-5132569D01*
X7359515Y-5134528D01*
X7359517Y-5134530D01*
X7477760Y-5239283D01*
X7477762Y-5239284D01*
X7617634Y-5312696D01*
X7771014Y-5350500D01*
X7771015Y-5350500D01*
X7928985Y-5350500D01*
X8082365Y-5312696D01*
X8101155Y-5302834D01*
X8222240Y-5239283D01*
X8340483Y-5134530D01*
X8430220Y-5004523D01*
X8486237Y-4856818D01*
X8505278Y-4700000D01*
X8489273Y-4568181D01*
X8486237Y-4543181D01*
X8454018Y-4458227D01*
X8430220Y-4395477D01*
X8340483Y-4265470D01*
X8222240Y-4160717D01*
X8222238Y-4160716D01*
X8222237Y-4160715D01*
X8082365Y-4087303D01*
X7928986Y-4049500D01*
X7928985Y-4049500D01*
X7771015Y-4049500D01*
X7771014Y-4049500D01*
X7617634Y-4087303D01*
X7477762Y-4160715D01*
X7359516Y-4265470D01*
X7357089Y-4268987D01*
X7355742Y-4270938D01*
X7301463Y-4314929D01*
X7253692Y-4324500D01*
X5938790Y-4324500D01*
X5871751Y-4304815D01*
X5825996Y-4252011D01*
X5816052Y-4182853D01*
X5824229Y-4153047D01*
X5826457Y-4147668D01*
X5883853Y-4009104D01*
X5978704Y-3679870D01*
X6036096Y-3342086D01*
X6055307Y-3000000D01*
X6036096Y-2657914D01*
X5978704Y-2320130D01*
X5883853Y-1990896D01*
X5752736Y-1674352D01*
X5587002Y-1374479D01*
X5388735Y-1095047D01*
X5388734Y-1095046D01*
X5388730Y-1095040D01*
X5160429Y-839573D01*
X5160426Y-839570D01*
X4904959Y-611269D01*
X4784261Y-525630D01*
X4740977Y-470782D01*
X4734217Y-401240D01*
X4766128Y-339083D01*
X4826577Y-304045D01*
X4856016Y-300500D01*
X25143984Y-300500D01*
X25211023Y-320185D01*
G37*
%TD.AperFunction*%
%TA.AperFunction,Conductor*%
G36*
X505703Y-21852441D02*
G01*
X512181Y-21858473D01*
X2453741Y-23800033D01*
X2487226Y-23861356D01*
X2482242Y-23931048D01*
X2440370Y-23986981D01*
X2386833Y-24009962D01*
X2320128Y-24021296D01*
X2320124Y-24021297D01*
X1990899Y-24116146D01*
X1990896Y-24116147D01*
X1898184Y-24154549D01*
X1674353Y-24247263D01*
X1374478Y-24412998D01*
X1095040Y-24611269D01*
X839573Y-24839570D01*
X839570Y-24839573D01*
X611268Y-25095042D01*
X525629Y-25215739D01*
X470781Y-25259022D01*
X401240Y-25265782D01*
X339083Y-25233871D01*
X304045Y-25173422D01*
X300500Y-25143983D01*
X300500Y-21946154D01*
X320185Y-21879115D01*
X372989Y-21833360D01*
X442147Y-21823416D01*
X505703Y-21852441D01*
G37*
%TD.AperFunction*%
%TA.AperFunction,Conductor*%
G36*
X505703Y-4762303D02*
G01*
X525628Y-4784259D01*
X558750Y-4830940D01*
X611269Y-4904959D01*
X839570Y-5160426D01*
X839573Y-5160429D01*
X1095040Y-5388730D01*
X1095046Y-5388734D01*
X1095047Y-5388735D01*
X1374479Y-5587002D01*
X1674352Y-5752736D01*
X1990896Y-5883853D01*
X2320130Y-5978704D01*
X2395379Y-5991489D01*
X2458174Y-6022125D01*
X2494437Y-6081847D01*
X2492656Y-6151694D01*
X2462289Y-6201418D01*
X512181Y-8151527D01*
X450858Y-8185012D01*
X381166Y-8180028D01*
X325233Y-8138156D01*
X300816Y-8072692D01*
X300500Y-8063846D01*
X300500Y-4856016D01*
X320185Y-4788977D01*
X372989Y-4743222D01*
X442147Y-4733278D01*
X505703Y-4762303D01*
G37*
%TD.AperFunction*%
%TD*%
M02*
