%TF.GenerationSoftware,KiCad,Pcbnew,7.0.10*%
%TF.CreationDate,2024-03-24T13:51:38+01:00*%
%TF.ProjectId,CSI2-SPY-22-1A,43534932-2d53-4505-992d-32322d31412e,rev?*%
%TF.SameCoordinates,Original*%
%TF.FileFunction,Legend,Bot*%
%TF.FilePolarity,Positive*%
%FSLAX46Y46*%
G04 Gerber Fmt 4.6, Leading zero omitted, Abs format (unit mm)*
G04 Created by KiCad (PCBNEW 7.0.10) date 2024-03-24 13:51:38*
%MOMM*%
%LPD*%
G01*
G04 APERTURE LIST*
%ADD10C,0.000000*%
%ADD11C,0.150000*%
%ADD12C,0.162500*%
%ADD13C,0.175000*%
%ADD14C,0.200000*%
%ADD15C,0.120000*%
%ADD16C,0.250000*%
G04 APERTURE END LIST*
D10*
G36*
X8857138Y-25985086D02*
G01*
X8870499Y-25986389D01*
X8884065Y-25988774D01*
X8897805Y-25992281D01*
X8901237Y-25993402D01*
X8904793Y-25994770D01*
X8908463Y-25996380D01*
X8912236Y-25998224D01*
X8916102Y-26000294D01*
X8920052Y-26002585D01*
X8924074Y-26005088D01*
X8928158Y-26007797D01*
X8932295Y-26010706D01*
X8936474Y-26013806D01*
X8940685Y-26017091D01*
X8944917Y-26020554D01*
X8949161Y-26024188D01*
X8953405Y-26027986D01*
X8957641Y-26031940D01*
X8961858Y-26036045D01*
X8967158Y-26041378D01*
X8971971Y-26046371D01*
X8976329Y-26051078D01*
X8980264Y-26055555D01*
X8983809Y-26059856D01*
X8986997Y-26064038D01*
X8989859Y-26068154D01*
X8992429Y-26072260D01*
X8994739Y-26076411D01*
X8996822Y-26080663D01*
X8998710Y-26085069D01*
X9000435Y-26089687D01*
X9002031Y-26094569D01*
X9003530Y-26099772D01*
X9004964Y-26105351D01*
X9006366Y-26111360D01*
X9007781Y-26118304D01*
X9008912Y-26125212D01*
X9009762Y-26132080D01*
X9010332Y-26138901D01*
X9010626Y-26145672D01*
X9010646Y-26152386D01*
X9010393Y-26159039D01*
X9009871Y-26165626D01*
X9009082Y-26172141D01*
X9008029Y-26178580D01*
X9006712Y-26184937D01*
X9005136Y-26191207D01*
X9003303Y-26197385D01*
X9001214Y-26203466D01*
X8998873Y-26209444D01*
X8996281Y-26215316D01*
X8993441Y-26221075D01*
X8990356Y-26226716D01*
X8987027Y-26232234D01*
X8983458Y-26237625D01*
X8979650Y-26242883D01*
X8975606Y-26248002D01*
X8971329Y-26252979D01*
X8966820Y-26257807D01*
X8962082Y-26262481D01*
X8957119Y-26266997D01*
X8951931Y-26271350D01*
X8946521Y-26275533D01*
X8940892Y-26279543D01*
X8935046Y-26283373D01*
X8928986Y-26287019D01*
X8922714Y-26290476D01*
X8922713Y-26290476D01*
X8911014Y-26296462D01*
X8905822Y-26298929D01*
X8900950Y-26301069D01*
X8896312Y-26302899D01*
X8891820Y-26304436D01*
X8887384Y-26305697D01*
X8882918Y-26306699D01*
X8878334Y-26307459D01*
X8873543Y-26307994D01*
X8868459Y-26308322D01*
X8862992Y-26308460D01*
X8857056Y-26308424D01*
X8850561Y-26308233D01*
X8835548Y-26307449D01*
X8824598Y-26306535D01*
X8814107Y-26305162D01*
X8804061Y-26303321D01*
X8794442Y-26301001D01*
X8789788Y-26299659D01*
X8785236Y-26298194D01*
X8780782Y-26296605D01*
X8776425Y-26294890D01*
X8772164Y-26293050D01*
X8767995Y-26291081D01*
X8763918Y-26288984D01*
X8759930Y-26286757D01*
X8756029Y-26284399D01*
X8752213Y-26281909D01*
X8748480Y-26279285D01*
X8744828Y-26276527D01*
X8741256Y-26273633D01*
X8737760Y-26270602D01*
X8734340Y-26267433D01*
X8730993Y-26264125D01*
X8727717Y-26260677D01*
X8724511Y-26257087D01*
X8718297Y-26249479D01*
X8712336Y-26241291D01*
X8706613Y-26232514D01*
X8699742Y-26220376D01*
X8694027Y-26208126D01*
X8689436Y-26195804D01*
X8685936Y-26183450D01*
X8683495Y-26171107D01*
X8682079Y-26158816D01*
X8681655Y-26146618D01*
X8682191Y-26134553D01*
X8683655Y-26122664D01*
X8686013Y-26110991D01*
X8689232Y-26099575D01*
X8693280Y-26088458D01*
X8698125Y-26077681D01*
X8703732Y-26067285D01*
X8710070Y-26057312D01*
X8717105Y-26047802D01*
X8724806Y-26038796D01*
X8733138Y-26030337D01*
X8742070Y-26022464D01*
X8751568Y-26015220D01*
X8761600Y-26008645D01*
X8772133Y-26002780D01*
X8783134Y-25997668D01*
X8794571Y-25993348D01*
X8806410Y-25989863D01*
X8818619Y-25987253D01*
X8831166Y-25985559D01*
X8844016Y-25984823D01*
X8857138Y-25985086D01*
G37*
G36*
X9615168Y-25770292D02*
G01*
X9625685Y-25771306D01*
X9636078Y-25772991D01*
X9646316Y-25775329D01*
X9656367Y-25778303D01*
X9666199Y-25781894D01*
X9675779Y-25786085D01*
X9685075Y-25790858D01*
X9694057Y-25796196D01*
X9702691Y-25802081D01*
X9710945Y-25808494D01*
X9718788Y-25815419D01*
X9726187Y-25822837D01*
X9733111Y-25830732D01*
X9739528Y-25839085D01*
X9745405Y-25847878D01*
X9750711Y-25857094D01*
X9755413Y-25866715D01*
X9759479Y-25876724D01*
X9762878Y-25887102D01*
X9765577Y-25897832D01*
X9767545Y-25908896D01*
X9768749Y-25920277D01*
X9769157Y-25931957D01*
X9769027Y-25938079D01*
X9768638Y-25944199D01*
X9767998Y-25950309D01*
X9767112Y-25956399D01*
X9765985Y-25962463D01*
X9764624Y-25968490D01*
X9763034Y-25974472D01*
X9761222Y-25980402D01*
X9759192Y-25986269D01*
X9756951Y-25992066D01*
X9754505Y-25997784D01*
X9751859Y-26003415D01*
X9749019Y-26008949D01*
X9745992Y-26014379D01*
X9742782Y-26019696D01*
X9739396Y-26024890D01*
X9735839Y-26029954D01*
X9732117Y-26034880D01*
X9728237Y-26039657D01*
X9724203Y-26044278D01*
X9720022Y-26048735D01*
X9715699Y-26053018D01*
X9711240Y-26057120D01*
X9706652Y-26061031D01*
X9701940Y-26064742D01*
X9697109Y-26068247D01*
X9692165Y-26071535D01*
X9687115Y-26074598D01*
X9681964Y-26077428D01*
X9676718Y-26080016D01*
X9671382Y-26082353D01*
X9665963Y-26084431D01*
X9665963Y-26084430D01*
X9658114Y-26086995D01*
X9650098Y-26089161D01*
X9641942Y-26090928D01*
X9633672Y-26092298D01*
X9625314Y-26093273D01*
X9616895Y-26093852D01*
X9608440Y-26094039D01*
X9599975Y-26093833D01*
X9591527Y-26093236D01*
X9583121Y-26092250D01*
X9574785Y-26090875D01*
X9566543Y-26089113D01*
X9558422Y-26086965D01*
X9550449Y-26084432D01*
X9542648Y-26081516D01*
X9535047Y-26078218D01*
X9524463Y-26072833D01*
X9514513Y-26066853D01*
X9505199Y-26060316D01*
X9496522Y-26053259D01*
X9488485Y-26045719D01*
X9481089Y-26037731D01*
X9474337Y-26029334D01*
X9468229Y-26020565D01*
X9462770Y-26011459D01*
X9457959Y-26002055D01*
X9453799Y-25992389D01*
X9450292Y-25982498D01*
X9447440Y-25972418D01*
X9445246Y-25962187D01*
X9443709Y-25951842D01*
X9442834Y-25941420D01*
X9442621Y-25930957D01*
X9443072Y-25920491D01*
X9444191Y-25910058D01*
X9445977Y-25899695D01*
X9448434Y-25889440D01*
X9451563Y-25879329D01*
X9455366Y-25869399D01*
X9459845Y-25859686D01*
X9465003Y-25850229D01*
X9470840Y-25841064D01*
X9477359Y-25832227D01*
X9484562Y-25823756D01*
X9492450Y-25815687D01*
X9501026Y-25808059D01*
X9510292Y-25800906D01*
X9520249Y-25794267D01*
X9530435Y-25788448D01*
X9540786Y-25783459D01*
X9551270Y-25779282D01*
X9561854Y-25775900D01*
X9572508Y-25773295D01*
X9583198Y-25771450D01*
X9593892Y-25770346D01*
X9604560Y-25769966D01*
X9615168Y-25770292D01*
G37*
G36*
X9506937Y-26524131D02*
G01*
X9518152Y-26525204D01*
X9529247Y-26527032D01*
X9540180Y-26529602D01*
X9550910Y-26532900D01*
X9561396Y-26536911D01*
X9571599Y-26541623D01*
X9581476Y-26547019D01*
X9590987Y-26553088D01*
X9600092Y-26559814D01*
X9608750Y-26567183D01*
X9616919Y-26575182D01*
X9624559Y-26583796D01*
X9631629Y-26593011D01*
X9638088Y-26602813D01*
X9643896Y-26613189D01*
X9649011Y-26624124D01*
X9653393Y-26635603D01*
X9657001Y-26647614D01*
X9659795Y-26660141D01*
X9661733Y-26673171D01*
X9662248Y-26679068D01*
X9662472Y-26685009D01*
X9662413Y-26690986D01*
X9662075Y-26696988D01*
X9661465Y-26703007D01*
X9660588Y-26709031D01*
X9659451Y-26715052D01*
X9658059Y-26721060D01*
X9656419Y-26727045D01*
X9654535Y-26732996D01*
X9652415Y-26738905D01*
X9650063Y-26744762D01*
X9647486Y-26750556D01*
X9644690Y-26756279D01*
X9641681Y-26761919D01*
X9638464Y-26767469D01*
X9635045Y-26772916D01*
X9631430Y-26778253D01*
X9627626Y-26783469D01*
X9623638Y-26788555D01*
X9619471Y-26793500D01*
X9615133Y-26798296D01*
X9610628Y-26802931D01*
X9605963Y-26807397D01*
X9601143Y-26811683D01*
X9596175Y-26815780D01*
X9591064Y-26819678D01*
X9585816Y-26823368D01*
X9580437Y-26826839D01*
X9574933Y-26830082D01*
X9569310Y-26833087D01*
X9563574Y-26835844D01*
X9560348Y-26837226D01*
X9556890Y-26838552D01*
X9553223Y-26839817D01*
X9549370Y-26841017D01*
X9545355Y-26842148D01*
X9541202Y-26843204D01*
X9536934Y-26844181D01*
X9532576Y-26845074D01*
X9523679Y-26846593D01*
X9519189Y-26847209D01*
X9514703Y-26847723D01*
X9510243Y-26848131D01*
X9505835Y-26848428D01*
X9501501Y-26848610D01*
X9497265Y-26848671D01*
X9488592Y-26848473D01*
X9480091Y-26847877D01*
X9471758Y-26846884D01*
X9463591Y-26845492D01*
X9455588Y-26843700D01*
X9447747Y-26841507D01*
X9440065Y-26838912D01*
X9432542Y-26835914D01*
X9425174Y-26832513D01*
X9417959Y-26828708D01*
X9410895Y-26824497D01*
X9403980Y-26819880D01*
X9397212Y-26814855D01*
X9390588Y-26809422D01*
X9384107Y-26803580D01*
X9377766Y-26797328D01*
X9372872Y-26791975D01*
X9368149Y-26786189D01*
X9363617Y-26780017D01*
X9359295Y-26773507D01*
X9355205Y-26766706D01*
X9351365Y-26759663D01*
X9347797Y-26752424D01*
X9344519Y-26745038D01*
X9341552Y-26737551D01*
X9338916Y-26730011D01*
X9336630Y-26722467D01*
X9334716Y-26714965D01*
X9333192Y-26707553D01*
X9332078Y-26700279D01*
X9331396Y-26693190D01*
X9331164Y-26686334D01*
X9331396Y-26679478D01*
X9332078Y-26672390D01*
X9333192Y-26665116D01*
X9334716Y-26657704D01*
X9336630Y-26650202D01*
X9338916Y-26642657D01*
X9341552Y-26635118D01*
X9344519Y-26627631D01*
X9347797Y-26620245D01*
X9351365Y-26613006D01*
X9355205Y-26605962D01*
X9359295Y-26599162D01*
X9363616Y-26592652D01*
X9368149Y-26586480D01*
X9372872Y-26580694D01*
X9377766Y-26575341D01*
X9387251Y-26566246D01*
X9397104Y-26558075D01*
X9407285Y-26550815D01*
X9417753Y-26544452D01*
X9428468Y-26538971D01*
X9439388Y-26534358D01*
X9450472Y-26530600D01*
X9461681Y-26527682D01*
X9472972Y-26525590D01*
X9484306Y-26524310D01*
X9495641Y-26523829D01*
X9506937Y-26524131D01*
G37*
G36*
X12389655Y-25953997D02*
G01*
X12406923Y-25988629D01*
X12423176Y-26023644D01*
X12438362Y-26058935D01*
X12452432Y-26094394D01*
X12465332Y-26129916D01*
X12477012Y-26165394D01*
X12487421Y-26200720D01*
X12496507Y-26235788D01*
X12504218Y-26270491D01*
X12506515Y-26281593D01*
X12508777Y-26292143D01*
X12510946Y-26301895D01*
X12512964Y-26310606D01*
X12514772Y-26318030D01*
X12516313Y-26323924D01*
X12517528Y-26328041D01*
X12517996Y-26329358D01*
X12518360Y-26330139D01*
X12518820Y-26330659D01*
X12519568Y-26331213D01*
X12520588Y-26331795D01*
X12521862Y-26332400D01*
X12523374Y-26333025D01*
X12525108Y-26333662D01*
X12529172Y-26334959D01*
X12533920Y-26336252D01*
X12539220Y-26337500D01*
X12544937Y-26338666D01*
X12550938Y-26339708D01*
X12558361Y-26341148D01*
X12568153Y-26343448D01*
X12579894Y-26346491D01*
X12593166Y-26350158D01*
X12607550Y-26354329D01*
X12622626Y-26358887D01*
X12637974Y-26363712D01*
X12653175Y-26368685D01*
X12722140Y-26394238D01*
X12788630Y-26423920D01*
X12852516Y-26457589D01*
X12913673Y-26495103D01*
X12971973Y-26536318D01*
X13027288Y-26581092D01*
X13079493Y-26629283D01*
X13128460Y-26680748D01*
X13174061Y-26735344D01*
X13216169Y-26792930D01*
X13254659Y-26853362D01*
X13289402Y-26916498D01*
X13320271Y-26982195D01*
X13347139Y-27050311D01*
X13369880Y-27120704D01*
X13388366Y-27193231D01*
X13392307Y-27213219D01*
X13395719Y-27235101D01*
X13398600Y-27258608D01*
X13400951Y-27283471D01*
X13404064Y-27336186D01*
X13405062Y-27391091D01*
X13403946Y-27446031D01*
X13400719Y-27498850D01*
X13398314Y-27523792D01*
X13395383Y-27547395D01*
X13391926Y-27569391D01*
X13387942Y-27589510D01*
X13368557Y-27663543D01*
X13343885Y-27735591D01*
X13314133Y-27805444D01*
X13279510Y-27872896D01*
X13240224Y-27937738D01*
X13196483Y-27999761D01*
X13148494Y-28058757D01*
X13096465Y-28114518D01*
X13040604Y-28166836D01*
X12981120Y-28215503D01*
X12918220Y-28260309D01*
X12852112Y-28301047D01*
X12783004Y-28337509D01*
X12711103Y-28369485D01*
X12636619Y-28396769D01*
X12559758Y-28419152D01*
X12508222Y-28432213D01*
X12461282Y-28441940D01*
X12404784Y-28448892D01*
X12324575Y-28453623D01*
X12206501Y-28456692D01*
X12036409Y-28458654D01*
X11483560Y-28461487D01*
X11483546Y-28461417D01*
X9317308Y-28464994D01*
X8040404Y-28464624D01*
X8016333Y-28458571D01*
X8569867Y-28458571D01*
X8569931Y-28458634D01*
X8570676Y-28458935D01*
X8572863Y-28459224D01*
X8581263Y-28459761D01*
X8612116Y-28460639D01*
X8657779Y-28461181D01*
X8713540Y-28461301D01*
X8857148Y-28460931D01*
X9258559Y-28069238D01*
X9659971Y-27677545D01*
X9661818Y-27501463D01*
X9663670Y-27325379D01*
X9874638Y-27099829D01*
X10085608Y-26874279D01*
X10085608Y-26548014D01*
X10266432Y-26367095D01*
X10447255Y-26186174D01*
X10472328Y-26193131D01*
X10475144Y-26193819D01*
X10478395Y-26194450D01*
X10486046Y-26195532D01*
X10494973Y-26196363D01*
X10504864Y-26196931D01*
X10515410Y-26197222D01*
X10526301Y-26197223D01*
X10537227Y-26196920D01*
X10547879Y-26196301D01*
X10565383Y-26194436D01*
X10582427Y-26191525D01*
X10598988Y-26187609D01*
X10615043Y-26182726D01*
X10630570Y-26176917D01*
X10645547Y-26170221D01*
X10659950Y-26162677D01*
X10673756Y-26154325D01*
X10686944Y-26145205D01*
X10699490Y-26135356D01*
X10711372Y-26124817D01*
X10722566Y-26113629D01*
X10733051Y-26101830D01*
X10742803Y-26089461D01*
X10751800Y-26076561D01*
X10760019Y-26063169D01*
X10767437Y-26049325D01*
X10774033Y-26035068D01*
X10779782Y-26020438D01*
X10784662Y-26005475D01*
X10788651Y-25990218D01*
X10791726Y-25974707D01*
X10793864Y-25958981D01*
X10795042Y-25943079D01*
X10795238Y-25927042D01*
X10794429Y-25910909D01*
X10792593Y-25894719D01*
X10789706Y-25878512D01*
X10785746Y-25862328D01*
X10780690Y-25846205D01*
X10774516Y-25830184D01*
X10767201Y-25814305D01*
X10760732Y-25802144D01*
X10753708Y-25790429D01*
X10746138Y-25779169D01*
X10738035Y-25768372D01*
X10729410Y-25758049D01*
X10720275Y-25748209D01*
X10710641Y-25738862D01*
X10700519Y-25730016D01*
X10689921Y-25721683D01*
X10678859Y-25713871D01*
X10667344Y-25706590D01*
X10655387Y-25699849D01*
X10643001Y-25693658D01*
X10630196Y-25688026D01*
X10616984Y-25682963D01*
X10603377Y-25678479D01*
X10587773Y-25674249D01*
X10572162Y-25671013D01*
X10556578Y-25668748D01*
X10541052Y-25667432D01*
X10525617Y-25667040D01*
X10510306Y-25667550D01*
X10495151Y-25668938D01*
X10480185Y-25671182D01*
X10465441Y-25674257D01*
X10450952Y-25678141D01*
X10436749Y-25682810D01*
X10422866Y-25688241D01*
X10409335Y-25694411D01*
X10396189Y-25701297D01*
X10383460Y-25708876D01*
X10371182Y-25717124D01*
X10359386Y-25726017D01*
X10348105Y-25735534D01*
X10337373Y-25745650D01*
X10327221Y-25756342D01*
X10317682Y-25767588D01*
X10308789Y-25779363D01*
X10300574Y-25791645D01*
X10293071Y-25804410D01*
X10286311Y-25817636D01*
X10280328Y-25831298D01*
X10275154Y-25845374D01*
X10270821Y-25859841D01*
X10267363Y-25874675D01*
X10264812Y-25889853D01*
X10263200Y-25905351D01*
X10262560Y-25921148D01*
X10262579Y-25932102D01*
X10262817Y-25943174D01*
X10263250Y-25954060D01*
X10263860Y-25964457D01*
X10264624Y-25974062D01*
X10265522Y-25982572D01*
X10266532Y-25989683D01*
X10267073Y-25992619D01*
X10267635Y-25995091D01*
X10268509Y-25998925D01*
X10268888Y-26002659D01*
X10268479Y-26006612D01*
X10266990Y-26011103D01*
X10264127Y-26016448D01*
X10259598Y-26022967D01*
X10253111Y-26030979D01*
X10244372Y-26040800D01*
X10218969Y-26067148D01*
X10181046Y-26104556D01*
X10058279Y-26222741D01*
X9843376Y-26428785D01*
X9843376Y-26778271D01*
X9732960Y-26891484D01*
X9622544Y-27004697D01*
X9622173Y-26961909D01*
X9622151Y-26955467D01*
X9622192Y-26949663D01*
X9622306Y-26944462D01*
X9622394Y-26942075D01*
X9622504Y-26939826D01*
X9622637Y-26937708D01*
X9622794Y-26935718D01*
X9622977Y-26933852D01*
X9623188Y-26932103D01*
X9623427Y-26930469D01*
X9623695Y-26928943D01*
X9623994Y-26927523D01*
X9624325Y-26926202D01*
X9624690Y-26924977D01*
X9625089Y-26923843D01*
X9625524Y-26922795D01*
X9625996Y-26921829D01*
X9626506Y-26920940D01*
X9627056Y-26920124D01*
X9627647Y-26919375D01*
X9628280Y-26918691D01*
X9628956Y-26918064D01*
X9629677Y-26917493D01*
X9630444Y-26916970D01*
X9631258Y-26916493D01*
X9632120Y-26916057D01*
X9633031Y-26915656D01*
X9633994Y-26915286D01*
X9635009Y-26914944D01*
X9637280Y-26914092D01*
X9639746Y-26912924D01*
X9645207Y-26909701D01*
X9651281Y-26905394D01*
X9657858Y-26900125D01*
X9664825Y-26894013D01*
X9672071Y-26887180D01*
X9679487Y-26879746D01*
X9686961Y-26871832D01*
X9694381Y-26863558D01*
X9701638Y-26855045D01*
X9708619Y-26846414D01*
X9715214Y-26837786D01*
X9721312Y-26829280D01*
X9726801Y-26821018D01*
X9731572Y-26813121D01*
X9735512Y-26805709D01*
X9739286Y-26797426D01*
X9743110Y-26787980D01*
X9746877Y-26777699D01*
X9750484Y-26766913D01*
X9753825Y-26755952D01*
X9756794Y-26745146D01*
X9759286Y-26734825D01*
X9761196Y-26725318D01*
X9762799Y-26714818D01*
X9763919Y-26704300D01*
X9764563Y-26693777D01*
X9764739Y-26683262D01*
X9764452Y-26672768D01*
X9763711Y-26662307D01*
X9762522Y-26651893D01*
X9760892Y-26641538D01*
X9758829Y-26631256D01*
X9756340Y-26621060D01*
X9753431Y-26610962D01*
X9750111Y-26600976D01*
X9746384Y-26591114D01*
X9742260Y-26581390D01*
X9737745Y-26571817D01*
X9732846Y-26562407D01*
X9727570Y-26553173D01*
X9721925Y-26544129D01*
X9715917Y-26535287D01*
X9709553Y-26526661D01*
X9702841Y-26518263D01*
X9695787Y-26510107D01*
X9688399Y-26502204D01*
X9680684Y-26494569D01*
X9672649Y-26487215D01*
X9664300Y-26480153D01*
X9655646Y-26473398D01*
X9646692Y-26466963D01*
X9637447Y-26460859D01*
X9627917Y-26455100D01*
X9618110Y-26449700D01*
X9608032Y-26444671D01*
X9594083Y-26438253D01*
X9587854Y-26435587D01*
X9581972Y-26433254D01*
X9576323Y-26431233D01*
X9570794Y-26429501D01*
X9565273Y-26428038D01*
X9559646Y-26426821D01*
X9553801Y-26425828D01*
X9547624Y-26425039D01*
X9541003Y-26424430D01*
X9533825Y-26423981D01*
X9517344Y-26423474D01*
X9497277Y-26423343D01*
X9477212Y-26423473D01*
X9468580Y-26423669D01*
X9460731Y-26423980D01*
X9453553Y-26424429D01*
X9446932Y-26425037D01*
X9440755Y-26425827D01*
X9434910Y-26426819D01*
X9429283Y-26428036D01*
X9423762Y-26429499D01*
X9418233Y-26431231D01*
X9412584Y-26433252D01*
X9406701Y-26435585D01*
X9400473Y-26438251D01*
X9386524Y-26444671D01*
X9371785Y-26452183D01*
X9357652Y-26460451D01*
X9344142Y-26469451D01*
X9331276Y-26479160D01*
X9319069Y-26489555D01*
X9307540Y-26500613D01*
X9296708Y-26512310D01*
X9286590Y-26524623D01*
X9277205Y-26537529D01*
X9268569Y-26551004D01*
X9260702Y-26565026D01*
X9253622Y-26579570D01*
X9247345Y-26594613D01*
X9241891Y-26610133D01*
X9237278Y-26626106D01*
X9233522Y-26642509D01*
X9231818Y-26652261D01*
X9230578Y-26662104D01*
X9229794Y-26672021D01*
X9229458Y-26681997D01*
X9229562Y-26692015D01*
X9230099Y-26702059D01*
X9231060Y-26712113D01*
X9232436Y-26722160D01*
X9234222Y-26732185D01*
X9236407Y-26742170D01*
X9238985Y-26752101D01*
X9241947Y-26761959D01*
X9245286Y-26771730D01*
X9248992Y-26781397D01*
X9253059Y-26790944D01*
X9257479Y-26800355D01*
X9262243Y-26809613D01*
X9267343Y-26818702D01*
X9272772Y-26827606D01*
X9278521Y-26836309D01*
X9284582Y-26844794D01*
X9290948Y-26853046D01*
X9297611Y-26861047D01*
X9304562Y-26868782D01*
X9311794Y-26876235D01*
X9319298Y-26883389D01*
X9327066Y-26890229D01*
X9335091Y-26896737D01*
X9343365Y-26902897D01*
X9351879Y-26908694D01*
X9360626Y-26914111D01*
X9369598Y-26919132D01*
X9400386Y-26935465D01*
X9400015Y-27253838D01*
X9399645Y-27572210D01*
X9237375Y-27738312D01*
X9075103Y-27904413D01*
X9075367Y-27710628D01*
X9075632Y-27516843D01*
X9111466Y-27492620D01*
X9124888Y-27482877D01*
X9137484Y-27472366D01*
X9149240Y-27461118D01*
X9160141Y-27449163D01*
X9170173Y-27436534D01*
X9179322Y-27423260D01*
X9187572Y-27409373D01*
X9194911Y-27394904D01*
X9201322Y-27379883D01*
X9206792Y-27364341D01*
X9211306Y-27348310D01*
X9214850Y-27331820D01*
X9217410Y-27314902D01*
X9218970Y-27297588D01*
X9219517Y-27279907D01*
X9219037Y-27261891D01*
X9217501Y-27243896D01*
X9214905Y-27226392D01*
X9211257Y-27209394D01*
X9209041Y-27201089D01*
X9206566Y-27192915D01*
X9203833Y-27184875D01*
X9200842Y-27176969D01*
X9197595Y-27169200D01*
X9194093Y-27161569D01*
X9190337Y-27154078D01*
X9186329Y-27146729D01*
X9182069Y-27139523D01*
X9177558Y-27132462D01*
X9172798Y-27125548D01*
X9167789Y-27118783D01*
X9162534Y-27112167D01*
X9157032Y-27105703D01*
X9151286Y-27099393D01*
X9145295Y-27093238D01*
X9132588Y-27081401D01*
X9118919Y-27070205D01*
X9104298Y-27059664D01*
X9088733Y-27049792D01*
X9072234Y-27040601D01*
X9058769Y-27033752D01*
X9052830Y-27030937D01*
X9047236Y-27028492D01*
X9041851Y-27026393D01*
X9036539Y-27024613D01*
X9031164Y-27023126D01*
X9025588Y-27021905D01*
X9019675Y-27020925D01*
X9013288Y-27020159D01*
X9006291Y-27019581D01*
X8998546Y-27019165D01*
X8980271Y-27018714D01*
X8957367Y-27018597D01*
X8934471Y-27018682D01*
X8924801Y-27018842D01*
X8916131Y-27019117D01*
X8908320Y-27019533D01*
X8901227Y-27020116D01*
X8894713Y-27020892D01*
X8888638Y-27021889D01*
X8882860Y-27023132D01*
X8877240Y-27024649D01*
X8871638Y-27026466D01*
X8865914Y-27028608D01*
X8859926Y-27031104D01*
X8853536Y-27033979D01*
X8838986Y-27040972D01*
X8828768Y-27046296D01*
X8818721Y-27052122D01*
X8808871Y-27058425D01*
X8799242Y-27065182D01*
X8789856Y-27072368D01*
X8780738Y-27079958D01*
X8771913Y-27087929D01*
X8763403Y-27096255D01*
X8755233Y-27104912D01*
X8747427Y-27113877D01*
X8740009Y-27123125D01*
X8733002Y-27132630D01*
X8726431Y-27142370D01*
X8720319Y-27152320D01*
X8714691Y-27162454D01*
X8709570Y-27172750D01*
X8704169Y-27184769D01*
X8701904Y-27190305D01*
X8699907Y-27195648D01*
X8698162Y-27200890D01*
X8696654Y-27206122D01*
X8695366Y-27211436D01*
X8694282Y-27216924D01*
X8693386Y-27222677D01*
X8692662Y-27228787D01*
X8692094Y-27235345D01*
X8691665Y-27242444D01*
X8691161Y-27258628D01*
X8691021Y-27278072D01*
X8691150Y-27298188D01*
X8691344Y-27306831D01*
X8691654Y-27314682D01*
X8692103Y-27321856D01*
X8692712Y-27328468D01*
X8693504Y-27334631D01*
X8694501Y-27340461D01*
X8695725Y-27346071D01*
X8697199Y-27351576D01*
X8698944Y-27357091D01*
X8700983Y-27362729D01*
X8703338Y-27368605D01*
X8706032Y-27374834D01*
X8712522Y-27388807D01*
X8717313Y-27398231D01*
X8722684Y-27407703D01*
X8728579Y-27417162D01*
X8734942Y-27426550D01*
X8741718Y-27435806D01*
X8748851Y-27444872D01*
X8756284Y-27453686D01*
X8763963Y-27462191D01*
X8771831Y-27470325D01*
X8779833Y-27478030D01*
X8787912Y-27485245D01*
X8796015Y-27491912D01*
X8804083Y-27497970D01*
X8812063Y-27503359D01*
X8819897Y-27508021D01*
X8827531Y-27511895D01*
X8853306Y-27523764D01*
X8853465Y-27824973D01*
X8853623Y-28126181D01*
X8711745Y-28290890D01*
X8656656Y-28355079D01*
X8611543Y-28408091D01*
X8581062Y-28444423D01*
X8572762Y-28454614D01*
X8570603Y-28457415D01*
X8569867Y-28458571D01*
X8016333Y-28458571D01*
X7967735Y-28446350D01*
X7951866Y-28442232D01*
X7934604Y-28437527D01*
X7898115Y-28427014D01*
X7862697Y-28416129D01*
X7846773Y-28410958D01*
X7832777Y-28406188D01*
X7802107Y-28394148D01*
X7759034Y-28375624D01*
X7708641Y-28352999D01*
X7656013Y-28328656D01*
X7606231Y-28304979D01*
X7564380Y-28284351D01*
X7535541Y-28269156D01*
X7527590Y-28264340D01*
X7524799Y-28261777D01*
X7525114Y-28261086D01*
X7526039Y-28259777D01*
X7529594Y-28255437D01*
X7535214Y-28249028D01*
X7542651Y-28240823D01*
X7561974Y-28220111D01*
X7585571Y-28195476D01*
X9258224Y-26482126D01*
X9380859Y-26356941D01*
X9470507Y-26264916D01*
X9536666Y-26196505D01*
X9605200Y-26195547D01*
X9625231Y-26195124D01*
X9633975Y-26194802D01*
X9641989Y-26194384D01*
X9649361Y-26193855D01*
X9656180Y-26193199D01*
X9662533Y-26192401D01*
X9668509Y-26191444D01*
X9674196Y-26190314D01*
X9679681Y-26188994D01*
X9685054Y-26187468D01*
X9690402Y-26185720D01*
X9695813Y-26183736D01*
X9701376Y-26181498D01*
X9707178Y-26178992D01*
X9713308Y-26176201D01*
X9723130Y-26171335D01*
X9732932Y-26165885D01*
X9742674Y-26159891D01*
X9752317Y-26153389D01*
X9761820Y-26146419D01*
X9771143Y-26139017D01*
X9780247Y-26131223D01*
X9789093Y-26123074D01*
X9797639Y-26114609D01*
X9805846Y-26105865D01*
X9813675Y-26096880D01*
X9821085Y-26087693D01*
X9828037Y-26078342D01*
X9834491Y-26068865D01*
X9840406Y-26059299D01*
X9845744Y-26049684D01*
X9852588Y-26036277D01*
X9855395Y-26030370D01*
X9857828Y-26024800D01*
X9859913Y-26019424D01*
X9861677Y-26014099D01*
X9863147Y-26008680D01*
X9864349Y-26003023D01*
X9865309Y-25996983D01*
X9866056Y-25990418D01*
X9866614Y-25983183D01*
X9867011Y-25975134D01*
X9867427Y-25956017D01*
X9867519Y-25931916D01*
X9867440Y-25907387D01*
X9867294Y-25897170D01*
X9867036Y-25888109D01*
X9866635Y-25880045D01*
X9866059Y-25872822D01*
X9865278Y-25866282D01*
X9864260Y-25860266D01*
X9862975Y-25854619D01*
X9861390Y-25849183D01*
X9859476Y-25843799D01*
X9857201Y-25838311D01*
X9854534Y-25832562D01*
X9851443Y-25826393D01*
X9843868Y-25812167D01*
X9837971Y-25801884D01*
X9831516Y-25791732D01*
X9824545Y-25781749D01*
X9817101Y-25771975D01*
X9809229Y-25762449D01*
X9800969Y-25753213D01*
X9792367Y-25744304D01*
X9783464Y-25735764D01*
X9774303Y-25727631D01*
X9764928Y-25719946D01*
X9755382Y-25712748D01*
X9745707Y-25706076D01*
X9735947Y-25699971D01*
X9726145Y-25694472D01*
X9716343Y-25689619D01*
X9706585Y-25685451D01*
X9695443Y-25681364D01*
X9689978Y-25679589D01*
X9684525Y-25677984D01*
X9679043Y-25676541D01*
X9673489Y-25675254D01*
X9667819Y-25674115D01*
X9661991Y-25673119D01*
X9655962Y-25672257D01*
X9649689Y-25671524D01*
X9636239Y-25670413D01*
X9621299Y-25669732D01*
X9604525Y-25669425D01*
X9585553Y-25669429D01*
X9577362Y-25669574D01*
X9569889Y-25669844D01*
X9563027Y-25670258D01*
X9556668Y-25670839D01*
X9550703Y-25671607D01*
X9545025Y-25672583D01*
X9539525Y-25673789D01*
X9534094Y-25675246D01*
X9528626Y-25676974D01*
X9523011Y-25678995D01*
X9517141Y-25681330D01*
X9510909Y-25684000D01*
X9496924Y-25690431D01*
X9486928Y-25695308D01*
X9477398Y-25700267D01*
X9468314Y-25705325D01*
X9459652Y-25710501D01*
X9451392Y-25715814D01*
X9443511Y-25721281D01*
X9435989Y-25726921D01*
X9428802Y-25732753D01*
X9421930Y-25738795D01*
X9415351Y-25745064D01*
X9409043Y-25751580D01*
X9402984Y-25758361D01*
X9397152Y-25765425D01*
X9391527Y-25772791D01*
X9386085Y-25780476D01*
X9380806Y-25788500D01*
X9373195Y-25801220D01*
X9366337Y-25814208D01*
X9360235Y-25827440D01*
X9354893Y-25840893D01*
X9350313Y-25854542D01*
X9346498Y-25868363D01*
X9343452Y-25882332D01*
X9341178Y-25896427D01*
X9339679Y-25910622D01*
X9338958Y-25924893D01*
X9339019Y-25939218D01*
X9339865Y-25953571D01*
X9341499Y-25967930D01*
X9343923Y-25982269D01*
X9347142Y-25996566D01*
X9351159Y-26010796D01*
X9364245Y-26052844D01*
X9178722Y-26229421D01*
X9106366Y-26297982D01*
X9046504Y-26354128D01*
X9023203Y-26375734D01*
X9005358Y-26392064D01*
X8993749Y-26402392D01*
X8990525Y-26405080D01*
X8989152Y-26405996D01*
X8988945Y-26405976D01*
X8988740Y-26405916D01*
X8988539Y-26405816D01*
X8988341Y-26405679D01*
X8987955Y-26405293D01*
X8987586Y-26404768D01*
X8987235Y-26404110D01*
X8986904Y-26403328D01*
X8986595Y-26402430D01*
X8986311Y-26401423D01*
X8986052Y-26400316D01*
X8985823Y-26399116D01*
X8985623Y-26397832D01*
X8985457Y-26396472D01*
X8985325Y-26395043D01*
X8985229Y-26393554D01*
X8985173Y-26392012D01*
X8985157Y-26390425D01*
X8985185Y-26389482D01*
X8985263Y-26388530D01*
X8985570Y-26386605D01*
X8986075Y-26384653D01*
X8986776Y-26382676D01*
X8987669Y-26380680D01*
X8988752Y-26378666D01*
X8990024Y-26376638D01*
X8991481Y-26374599D01*
X8993121Y-26372553D01*
X8994941Y-26370503D01*
X8996939Y-26368452D01*
X8999113Y-26366403D01*
X9001459Y-26364360D01*
X9003976Y-26362326D01*
X9006661Y-26360305D01*
X9009512Y-26358299D01*
X9020717Y-26350002D01*
X9031427Y-26340742D01*
X9041610Y-26330583D01*
X9051235Y-26319592D01*
X9060269Y-26307833D01*
X9068682Y-26295371D01*
X9076442Y-26282272D01*
X9083518Y-26268600D01*
X9089878Y-26254422D01*
X9095490Y-26239802D01*
X9100324Y-26224806D01*
X9104348Y-26209499D01*
X9107530Y-26193946D01*
X9109839Y-26178212D01*
X9111243Y-26162363D01*
X9111712Y-26146464D01*
X9111474Y-26131785D01*
X9110762Y-26117862D01*
X9109546Y-26104623D01*
X9107795Y-26091996D01*
X9105479Y-26079912D01*
X9102569Y-26068299D01*
X9099035Y-26057086D01*
X9094846Y-26046201D01*
X9089973Y-26035574D01*
X9084386Y-26025134D01*
X9078055Y-26014809D01*
X9070950Y-26004528D01*
X9063041Y-25994221D01*
X9054298Y-25983816D01*
X9044691Y-25973242D01*
X9034190Y-25962427D01*
X9023185Y-25951733D01*
X9012461Y-25941971D01*
X9001937Y-25933108D01*
X8991533Y-25925111D01*
X8981168Y-25917947D01*
X8970762Y-25911581D01*
X8960234Y-25905981D01*
X8949503Y-25901112D01*
X8938489Y-25896941D01*
X8927112Y-25893436D01*
X8915290Y-25890561D01*
X8902942Y-25888284D01*
X8889990Y-25886572D01*
X8876351Y-25885390D01*
X8861945Y-25884706D01*
X8846692Y-25884485D01*
X8832463Y-25884700D01*
X8818903Y-25885359D01*
X8805954Y-25886485D01*
X8793557Y-25888099D01*
X8781655Y-25890226D01*
X8770190Y-25892886D01*
X8759103Y-25896102D01*
X8748337Y-25899897D01*
X8737833Y-25904293D01*
X8727533Y-25909312D01*
X8717380Y-25914977D01*
X8707314Y-25921309D01*
X8697279Y-25928332D01*
X8687216Y-25936068D01*
X8677067Y-25944538D01*
X8666773Y-25953767D01*
X8655423Y-25964858D01*
X8644864Y-25976362D01*
X8635096Y-25988246D01*
X8626116Y-26000482D01*
X8617924Y-26013037D01*
X8610517Y-26025882D01*
X8603894Y-26038986D01*
X8598053Y-26052319D01*
X8592993Y-26065851D01*
X8588712Y-26079550D01*
X8585208Y-26093386D01*
X8582481Y-26107329D01*
X8580527Y-26121348D01*
X8579346Y-26135413D01*
X8578936Y-26149493D01*
X8579295Y-26163557D01*
X8580422Y-26177576D01*
X8582315Y-26191519D01*
X8584972Y-26205355D01*
X8588393Y-26219054D01*
X8592574Y-26232585D01*
X8597516Y-26245918D01*
X8603215Y-26259022D01*
X8609671Y-26271866D01*
X8616882Y-26284421D01*
X8624846Y-26296656D01*
X8633561Y-26308540D01*
X8643027Y-26320043D01*
X8653241Y-26331134D01*
X8664201Y-26341783D01*
X8675907Y-26351959D01*
X8688356Y-26361632D01*
X8722117Y-26386413D01*
X8722117Y-26679254D01*
X8575108Y-26826382D01*
X8545470Y-26855937D01*
X8517613Y-26883509D01*
X8492162Y-26908495D01*
X8469741Y-26930291D01*
X8450975Y-26948294D01*
X8436487Y-26961900D01*
X8426904Y-26970507D01*
X8424146Y-26972746D01*
X8422848Y-26973509D01*
X8422578Y-26973480D01*
X8422312Y-26973393D01*
X8422049Y-26973249D01*
X8421791Y-26973050D01*
X8421288Y-26972494D01*
X8420806Y-26971735D01*
X8420348Y-26970784D01*
X8419915Y-26969654D01*
X8419511Y-26968357D01*
X8419138Y-26966902D01*
X8418799Y-26965303D01*
X8418497Y-26963570D01*
X8418234Y-26961715D01*
X8418013Y-26959750D01*
X8417837Y-26957686D01*
X8417708Y-26955535D01*
X8417630Y-26953307D01*
X8417604Y-26951016D01*
X8417664Y-26947585D01*
X8417858Y-26944418D01*
X8418210Y-26941482D01*
X8418744Y-26938743D01*
X8419087Y-26937437D01*
X8419484Y-26936169D01*
X8419939Y-26934933D01*
X8420455Y-26933726D01*
X8421035Y-26932543D01*
X8421681Y-26931381D01*
X8422398Y-26930235D01*
X8423187Y-26929100D01*
X8424052Y-26927974D01*
X8424996Y-26926851D01*
X8427133Y-26924601D01*
X8429623Y-26922315D01*
X8432490Y-26919961D01*
X8435757Y-26917506D01*
X8439450Y-26914915D01*
X8443592Y-26912157D01*
X8448209Y-26909198D01*
X8455951Y-26904087D01*
X8463558Y-26898627D01*
X8471016Y-26892834D01*
X8478311Y-26886723D01*
X8485430Y-26880310D01*
X8492359Y-26873612D01*
X8499084Y-26866644D01*
X8505591Y-26859422D01*
X8511867Y-26851961D01*
X8517897Y-26844278D01*
X8523668Y-26836389D01*
X8529166Y-26828309D01*
X8534377Y-26820054D01*
X8539288Y-26811639D01*
X8543885Y-26803082D01*
X8548153Y-26794397D01*
X8553501Y-26782489D01*
X8555740Y-26776995D01*
X8557710Y-26771679D01*
X8559428Y-26766442D01*
X8560910Y-26761187D01*
X8562173Y-26755816D01*
X8563234Y-26750231D01*
X8564108Y-26744335D01*
X8564812Y-26738030D01*
X8565363Y-26731219D01*
X8565776Y-26723804D01*
X8566259Y-26706770D01*
X8566390Y-26686147D01*
X8566279Y-26664454D01*
X8566101Y-26655248D01*
X8565807Y-26646960D01*
X8565370Y-26639456D01*
X8564765Y-26632603D01*
X8563964Y-26626269D01*
X8562943Y-26620320D01*
X8561675Y-26614625D01*
X8560133Y-26609049D01*
X8558293Y-26603460D01*
X8556127Y-26597725D01*
X8553609Y-26591712D01*
X8550714Y-26585288D01*
X8543686Y-26570673D01*
X8533898Y-26552474D01*
X8523087Y-26535465D01*
X8511319Y-26519647D01*
X8498665Y-26505018D01*
X8485190Y-26491578D01*
X8470965Y-26479326D01*
X8456056Y-26468262D01*
X8440533Y-26458384D01*
X8424463Y-26449693D01*
X8407914Y-26442187D01*
X8390955Y-26435865D01*
X8373654Y-26430728D01*
X8356079Y-26426774D01*
X8338298Y-26424002D01*
X8320379Y-26422413D01*
X8302390Y-26422005D01*
X8284401Y-26422777D01*
X8266478Y-26424729D01*
X8248690Y-26427861D01*
X8231105Y-26432171D01*
X8213791Y-26437658D01*
X8196817Y-26444323D01*
X8180250Y-26452165D01*
X8164159Y-26461182D01*
X8148612Y-26471374D01*
X8133678Y-26482740D01*
X8119423Y-26495281D01*
X8105917Y-26508994D01*
X8093228Y-26523879D01*
X8081423Y-26539937D01*
X8070571Y-26557165D01*
X8060741Y-26575563D01*
X8054571Y-26588561D01*
X8052016Y-26594389D01*
X8049785Y-26599927D01*
X8047857Y-26605292D01*
X8046212Y-26610599D01*
X8044827Y-26615967D01*
X8043683Y-26621513D01*
X8042757Y-26627352D01*
X8042028Y-26633603D01*
X8041476Y-26640382D01*
X8041079Y-26647807D01*
X8040665Y-26665059D01*
X8040617Y-26686297D01*
X8040811Y-26706985D01*
X8041025Y-26715903D01*
X8041341Y-26724004D01*
X8041777Y-26731387D01*
X8042350Y-26738153D01*
X8043077Y-26744402D01*
X8043976Y-26750232D01*
X8045064Y-26755745D01*
X8046359Y-26761040D01*
X8047879Y-26766217D01*
X8049641Y-26771376D01*
X8051662Y-26776617D01*
X8053960Y-26782039D01*
X8056552Y-26787743D01*
X8059456Y-26793828D01*
X8064132Y-26803063D01*
X8069087Y-26812110D01*
X8074305Y-26820950D01*
X8079769Y-26829565D01*
X8085465Y-26837935D01*
X8091374Y-26846042D01*
X8097480Y-26853867D01*
X8103769Y-26861390D01*
X8110222Y-26868594D01*
X8116823Y-26875459D01*
X8123557Y-26881966D01*
X8130407Y-26888096D01*
X8137357Y-26893830D01*
X8144389Y-26899151D01*
X8151489Y-26904037D01*
X8158639Y-26908472D01*
X8189202Y-26926383D01*
X8189202Y-27228774D01*
X7756465Y-27640973D01*
X7587934Y-27801022D01*
X7448956Y-27932088D01*
X7353941Y-28020647D01*
X7327423Y-28044759D01*
X7320200Y-28051033D01*
X7317300Y-28053172D01*
X7315049Y-28052551D01*
X7312119Y-28050729D01*
X7304376Y-28043711D01*
X7294381Y-28032589D01*
X7282448Y-28017832D01*
X7254008Y-27979285D01*
X7221547Y-27931825D01*
X7187557Y-27879202D01*
X7154530Y-27825171D01*
X7124956Y-27773483D01*
X7112243Y-27749690D01*
X7101328Y-27727891D01*
X7087987Y-27699375D01*
X7075744Y-27671661D01*
X7064578Y-27644657D01*
X7054469Y-27618272D01*
X7045396Y-27592412D01*
X7037337Y-27566988D01*
X7030273Y-27541908D01*
X7024182Y-27517078D01*
X7019044Y-27492409D01*
X7014837Y-27467808D01*
X7011542Y-27443184D01*
X7009137Y-27418445D01*
X7007602Y-27393499D01*
X7006915Y-27368255D01*
X7007056Y-27342621D01*
X7008005Y-27316506D01*
X7010146Y-27284951D01*
X7013340Y-27253512D01*
X7017573Y-27222211D01*
X7022833Y-27191067D01*
X7036378Y-27129340D01*
X7053869Y-27068499D01*
X7075203Y-27008716D01*
X7100273Y-26950160D01*
X7128974Y-26892999D01*
X7161202Y-26837405D01*
X7196850Y-26783547D01*
X7235814Y-26731594D01*
X7277988Y-26681716D01*
X7323268Y-26634083D01*
X7371548Y-26588864D01*
X7422722Y-26546229D01*
X7476686Y-26506348D01*
X7533334Y-26469390D01*
X7578488Y-26442991D01*
X7601033Y-26430751D01*
X7623672Y-26419105D01*
X7646495Y-26408017D01*
X7669590Y-26397455D01*
X7693044Y-26387384D01*
X7716947Y-26377769D01*
X7741385Y-26368577D01*
X7766447Y-26359772D01*
X7818796Y-26343191D01*
X7874699Y-26327750D01*
X7934860Y-26313176D01*
X7953893Y-26308842D01*
X7953893Y-26244693D01*
X7955370Y-26186772D01*
X7959761Y-26128367D01*
X7967004Y-26069640D01*
X7977038Y-26010751D01*
X7989801Y-25951864D01*
X8005232Y-25893141D01*
X8023270Y-25834743D01*
X8043852Y-25776833D01*
X8066919Y-25719573D01*
X8092407Y-25663124D01*
X8120256Y-25607650D01*
X8150405Y-25553312D01*
X8182791Y-25500272D01*
X8217354Y-25448692D01*
X8254031Y-25398735D01*
X8292762Y-25350562D01*
X8343476Y-25293066D01*
X8396606Y-25238218D01*
X8452089Y-25186053D01*
X8509862Y-25136606D01*
X8569862Y-25089911D01*
X8632026Y-25046003D01*
X8696292Y-25004916D01*
X8762595Y-24966684D01*
X8830874Y-24931343D01*
X8901065Y-24898925D01*
X8973104Y-24869467D01*
X9046930Y-24843002D01*
X9122479Y-24819565D01*
X9199687Y-24799190D01*
X9278493Y-24781912D01*
X9358833Y-24767765D01*
X9382481Y-24764673D01*
X9410366Y-24761992D01*
X9476393Y-24757863D01*
X9552005Y-24755381D01*
X9632297Y-24754547D01*
X9712361Y-24755361D01*
X9787291Y-24757825D01*
X9852180Y-24761942D01*
X9879326Y-24764620D01*
X9902122Y-24767712D01*
X9963863Y-24778832D01*
X10025152Y-24792154D01*
X10085898Y-24807633D01*
X10146011Y-24825227D01*
X10205400Y-24844893D01*
X10263974Y-24866588D01*
X10321643Y-24890269D01*
X10378316Y-24915893D01*
X10433902Y-24943417D01*
X10488310Y-24972798D01*
X10541451Y-25003994D01*
X10593232Y-25036960D01*
X10643564Y-25071655D01*
X10692355Y-25108036D01*
X10739516Y-25146059D01*
X10784954Y-25185681D01*
X10830358Y-25226865D01*
X10909530Y-25218137D01*
X10954366Y-25214131D01*
X11004002Y-25211342D01*
X11056690Y-25209763D01*
X11110681Y-25209386D01*
X11164227Y-25210204D01*
X11215577Y-25212210D01*
X11262984Y-25215396D01*
X11304698Y-25219756D01*
X11352990Y-25226822D01*
X11401123Y-25235514D01*
X11449028Y-25245803D01*
X11496636Y-25257663D01*
X11543880Y-25271065D01*
X11590690Y-25285981D01*
X11636998Y-25302383D01*
X11682737Y-25320243D01*
X11727837Y-25339533D01*
X11772230Y-25360225D01*
X11815847Y-25382291D01*
X11858621Y-25405704D01*
X11900484Y-25430435D01*
X11941365Y-25456456D01*
X11981198Y-25483740D01*
X12019914Y-25512257D01*
X12031226Y-25521186D01*
X12043825Y-25531648D01*
X12072092Y-25556397D01*
X12103134Y-25584967D01*
X12135371Y-25615817D01*
X12167226Y-25647410D01*
X12197117Y-25678206D01*
X12223465Y-25706667D01*
X12234817Y-25719540D01*
X12244691Y-25731253D01*
X12267622Y-25760217D01*
X12289898Y-25790312D01*
X12311467Y-25821430D01*
X12332279Y-25853464D01*
X12352282Y-25886308D01*
X12371425Y-25919854D01*
X12375263Y-25927042D01*
X12389655Y-25953997D01*
G37*
G36*
X8315855Y-26523738D02*
G01*
X8327353Y-26524904D01*
X8338717Y-26526937D01*
X8349923Y-26529836D01*
X8360947Y-26533595D01*
X8371764Y-26538212D01*
X8382350Y-26543683D01*
X8392678Y-26550005D01*
X8402726Y-26557174D01*
X8412469Y-26565187D01*
X8419129Y-26571331D01*
X8425350Y-26577651D01*
X8431132Y-26584149D01*
X8436477Y-26590831D01*
X8441387Y-26597697D01*
X8445863Y-26604752D01*
X8449906Y-26611998D01*
X8453517Y-26619439D01*
X8456698Y-26627077D01*
X8459451Y-26634916D01*
X8461776Y-26642958D01*
X8463676Y-26651208D01*
X8465151Y-26659667D01*
X8466203Y-26668339D01*
X8466833Y-26677227D01*
X8467043Y-26686334D01*
X8466982Y-26690083D01*
X8466804Y-26694023D01*
X8466516Y-26698122D01*
X8466122Y-26702348D01*
X8465043Y-26711043D01*
X8463615Y-26719844D01*
X8461885Y-26728487D01*
X8459903Y-26736707D01*
X8458832Y-26740575D01*
X8457715Y-26744239D01*
X8456559Y-26747665D01*
X8455370Y-26750820D01*
X8452437Y-26757245D01*
X8448709Y-26763935D01*
X8444269Y-26770812D01*
X8439200Y-26777796D01*
X8433584Y-26784810D01*
X8427504Y-26791775D01*
X8421044Y-26798614D01*
X8414286Y-26805246D01*
X8407313Y-26811595D01*
X8400208Y-26817582D01*
X8393054Y-26823128D01*
X8385934Y-26828155D01*
X8378930Y-26832585D01*
X8372126Y-26836339D01*
X8365604Y-26839339D01*
X8362474Y-26840532D01*
X8359447Y-26841507D01*
X8359446Y-26841507D01*
X8348996Y-26844230D01*
X8338592Y-26846331D01*
X8328253Y-26847824D01*
X8317997Y-26848722D01*
X8307845Y-26849039D01*
X8297813Y-26848787D01*
X8287921Y-26847981D01*
X8278188Y-26846633D01*
X8268632Y-26844756D01*
X8259272Y-26842365D01*
X8250127Y-26839471D01*
X8241215Y-26836089D01*
X8232556Y-26832232D01*
X8224167Y-26827913D01*
X8216069Y-26823146D01*
X8208278Y-26817943D01*
X8200815Y-26812318D01*
X8193697Y-26806284D01*
X8186945Y-26799855D01*
X8180575Y-26793043D01*
X8174607Y-26785863D01*
X8169060Y-26778327D01*
X8163953Y-26770449D01*
X8159303Y-26762242D01*
X8155131Y-26753719D01*
X8151454Y-26744894D01*
X8148291Y-26735779D01*
X8145662Y-26726389D01*
X8143584Y-26716736D01*
X8142077Y-26706833D01*
X8141158Y-26696695D01*
X8140848Y-26686334D01*
X8140946Y-26680217D01*
X8141240Y-26674176D01*
X8141728Y-26668214D01*
X8142409Y-26662335D01*
X8143280Y-26656538D01*
X8144342Y-26650829D01*
X8145591Y-26645207D01*
X8147028Y-26639676D01*
X8148649Y-26634239D01*
X8150455Y-26628897D01*
X8152442Y-26623652D01*
X8154611Y-26618508D01*
X8156959Y-26613465D01*
X8159485Y-26608528D01*
X8162188Y-26603697D01*
X8165065Y-26598976D01*
X8168116Y-26594366D01*
X8171340Y-26589870D01*
X8174733Y-26585490D01*
X8178296Y-26581228D01*
X8182027Y-26577087D01*
X8185924Y-26573070D01*
X8189986Y-26569178D01*
X8194211Y-26565413D01*
X8198597Y-26561778D01*
X8203144Y-26558276D01*
X8207850Y-26554909D01*
X8212714Y-26551678D01*
X8217733Y-26548586D01*
X8222907Y-26545636D01*
X8228234Y-26542830D01*
X8233712Y-26540170D01*
X8245453Y-26535164D01*
X8257232Y-26531049D01*
X8269026Y-26527823D01*
X8280810Y-26525483D01*
X8292559Y-26524024D01*
X8304249Y-26523443D01*
X8315855Y-26523738D01*
G37*
G36*
X8965629Y-27115812D02*
G01*
X8975939Y-27116700D01*
X8986078Y-27118252D01*
X8996022Y-27120448D01*
X9005749Y-27123265D01*
X9015235Y-27126681D01*
X9024456Y-27130676D01*
X9033390Y-27135228D01*
X9042013Y-27140315D01*
X9050301Y-27145916D01*
X9058232Y-27152009D01*
X9065783Y-27158573D01*
X9072929Y-27165585D01*
X9079647Y-27173026D01*
X9085915Y-27180873D01*
X9091709Y-27189104D01*
X9097005Y-27197698D01*
X9101781Y-27206634D01*
X9106013Y-27215890D01*
X9109678Y-27225444D01*
X9112752Y-27235275D01*
X9115212Y-27245362D01*
X9117035Y-27255683D01*
X9118198Y-27266216D01*
X9118677Y-27276939D01*
X9118449Y-27287833D01*
X9117491Y-27298874D01*
X9115778Y-27310041D01*
X9113428Y-27320749D01*
X9110447Y-27331116D01*
X9106846Y-27341129D01*
X9102637Y-27350776D01*
X9097830Y-27360043D01*
X9092437Y-27368918D01*
X9086469Y-27377389D01*
X9079937Y-27385441D01*
X9072853Y-27393063D01*
X9065226Y-27400242D01*
X9057069Y-27406964D01*
X9048393Y-27413217D01*
X9039208Y-27418989D01*
X9029526Y-27424266D01*
X9019358Y-27429036D01*
X9008714Y-27433286D01*
X8998905Y-27436527D01*
X8989070Y-27439088D01*
X8979230Y-27440984D01*
X8969409Y-27442232D01*
X8959628Y-27442846D01*
X8949909Y-27442844D01*
X8940274Y-27442241D01*
X8930747Y-27441052D01*
X8921348Y-27439294D01*
X8912100Y-27436982D01*
X8903025Y-27434132D01*
X8894145Y-27430760D01*
X8885483Y-27426882D01*
X8877060Y-27422513D01*
X8868899Y-27417670D01*
X8861021Y-27412369D01*
X8853450Y-27406624D01*
X8846206Y-27400452D01*
X8839313Y-27393869D01*
X8832792Y-27386891D01*
X8826665Y-27379533D01*
X8820955Y-27371812D01*
X8815684Y-27363742D01*
X8810874Y-27355341D01*
X8806546Y-27346623D01*
X8802724Y-27337604D01*
X8799429Y-27328302D01*
X8796683Y-27318730D01*
X8794510Y-27308905D01*
X8792929Y-27298844D01*
X8791965Y-27288561D01*
X8791639Y-27278072D01*
X8791777Y-27271243D01*
X8792191Y-27264488D01*
X8792875Y-27257812D01*
X8793827Y-27251220D01*
X8795040Y-27244717D01*
X8796513Y-27238309D01*
X8798240Y-27232001D01*
X8800218Y-27225799D01*
X8802442Y-27219707D01*
X8804908Y-27213730D01*
X8807613Y-27207874D01*
X8810553Y-27202145D01*
X8813723Y-27196547D01*
X8817119Y-27191085D01*
X8820737Y-27185765D01*
X8824573Y-27180592D01*
X8828624Y-27175572D01*
X8832884Y-27170709D01*
X8837351Y-27166008D01*
X8842020Y-27161476D01*
X8846887Y-27157117D01*
X8851947Y-27152936D01*
X8857198Y-27148939D01*
X8862634Y-27145131D01*
X8868252Y-27141516D01*
X8874048Y-27138101D01*
X8880017Y-27134891D01*
X8886156Y-27131890D01*
X8892461Y-27129105D01*
X8898927Y-27126540D01*
X8905551Y-27124200D01*
X8912328Y-27122091D01*
X8923144Y-27119334D01*
X8933905Y-27117349D01*
X8944589Y-27116115D01*
X8955171Y-27115609D01*
X8965629Y-27115812D01*
G37*
D11*
X13175000Y-16350000D02*
X12500000Y-17025000D01*
D10*
G36*
X10543451Y-25770423D02*
G01*
X10555000Y-25771944D01*
X10566384Y-25774264D01*
X10577558Y-25777366D01*
X10588475Y-25781230D01*
X10599090Y-25785838D01*
X10609355Y-25791173D01*
X10619224Y-25797216D01*
X10628652Y-25803949D01*
X10637593Y-25811354D01*
X10645999Y-25819413D01*
X10653826Y-25828107D01*
X10661026Y-25837419D01*
X10667554Y-25847330D01*
X10673363Y-25857822D01*
X10678408Y-25868876D01*
X10682641Y-25880476D01*
X10686018Y-25892602D01*
X10688491Y-25905236D01*
X10690015Y-25918361D01*
X10690543Y-25931957D01*
X10690445Y-25938079D01*
X10690138Y-25944141D01*
X10689624Y-25950141D01*
X10688905Y-25956075D01*
X10687983Y-25961939D01*
X10686861Y-25967731D01*
X10685540Y-25973448D01*
X10684023Y-25979085D01*
X10682311Y-25984640D01*
X10680407Y-25990109D01*
X10678314Y-25995489D01*
X10676032Y-26000777D01*
X10673565Y-26005969D01*
X10670914Y-26011062D01*
X10668082Y-26016052D01*
X10665070Y-26020937D01*
X10661881Y-26025713D01*
X10658517Y-26030377D01*
X10654980Y-26034925D01*
X10651272Y-26039354D01*
X10647395Y-26043661D01*
X10643352Y-26047843D01*
X10639145Y-26051895D01*
X10634775Y-26055815D01*
X10630244Y-26059600D01*
X10625556Y-26063246D01*
X10620712Y-26066750D01*
X10615714Y-26070109D01*
X10610564Y-26073319D01*
X10605265Y-26076376D01*
X10599818Y-26079278D01*
X10594226Y-26082022D01*
X10585946Y-26085492D01*
X10577171Y-26088375D01*
X10567973Y-26090674D01*
X10558419Y-26092397D01*
X10548580Y-26093547D01*
X10538524Y-26094131D01*
X10528321Y-26094154D01*
X10518041Y-26093622D01*
X10507752Y-26092539D01*
X10497524Y-26090912D01*
X10487427Y-26088746D01*
X10477530Y-26086046D01*
X10467901Y-26082818D01*
X10458611Y-26079067D01*
X10449729Y-26074798D01*
X10441324Y-26070018D01*
X10433307Y-26064738D01*
X10425715Y-26059085D01*
X10418550Y-26053082D01*
X10411814Y-26046748D01*
X10405511Y-26040105D01*
X10399642Y-26033174D01*
X10394212Y-26025977D01*
X10389222Y-26018533D01*
X10384676Y-26010865D01*
X10380576Y-26002994D01*
X10376925Y-25994940D01*
X10373726Y-25986726D01*
X10370981Y-25978371D01*
X10368694Y-25969897D01*
X10366866Y-25961325D01*
X10365501Y-25952677D01*
X10364601Y-25943973D01*
X10364170Y-25935234D01*
X10364210Y-25926482D01*
X10364724Y-25917738D01*
X10365714Y-25909023D01*
X10367183Y-25900358D01*
X10369134Y-25891764D01*
X10371570Y-25883262D01*
X10374494Y-25874874D01*
X10377908Y-25866620D01*
X10381815Y-25858522D01*
X10386218Y-25850600D01*
X10391119Y-25842877D01*
X10396522Y-25835372D01*
X10402428Y-25828108D01*
X10408842Y-25821104D01*
X10418763Y-25811620D01*
X10429073Y-25803153D01*
X10439727Y-25795685D01*
X10450679Y-25789197D01*
X10461881Y-25783672D01*
X10473288Y-25779092D01*
X10484855Y-25775437D01*
X10496533Y-25772691D01*
X10508278Y-25770834D01*
X10520044Y-25769850D01*
X10531783Y-25769719D01*
X10543451Y-25770423D01*
G37*
D11*
X25150000Y-9739866D02*
X24616667Y-9739866D01*
X23916666Y-10006533D02*
X24316666Y-10006533D01*
X24116666Y-10006533D02*
X24116666Y-9306533D01*
X24116666Y-9306533D02*
X24183333Y-9406533D01*
X24183333Y-9406533D02*
X24250000Y-9473200D01*
X24250000Y-9473200D02*
X24316666Y-9506533D01*
D12*
X11364285Y-1331050D02*
X11271428Y-1362002D01*
X11271428Y-1362002D02*
X11116666Y-1362002D01*
X11116666Y-1362002D02*
X11054761Y-1331050D01*
X11054761Y-1331050D02*
X11023809Y-1300097D01*
X11023809Y-1300097D02*
X10992856Y-1238192D01*
X10992856Y-1238192D02*
X10992856Y-1176288D01*
X10992856Y-1176288D02*
X11023809Y-1114383D01*
X11023809Y-1114383D02*
X11054761Y-1083430D01*
X11054761Y-1083430D02*
X11116666Y-1052478D01*
X11116666Y-1052478D02*
X11240475Y-1021526D01*
X11240475Y-1021526D02*
X11302380Y-990573D01*
X11302380Y-990573D02*
X11333333Y-959621D01*
X11333333Y-959621D02*
X11364285Y-897716D01*
X11364285Y-897716D02*
X11364285Y-835811D01*
X11364285Y-835811D02*
X11333333Y-773907D01*
X11333333Y-773907D02*
X11302380Y-742954D01*
X11302380Y-742954D02*
X11240475Y-712002D01*
X11240475Y-712002D02*
X11085714Y-712002D01*
X11085714Y-712002D02*
X10992856Y-742954D01*
X10714285Y-1362002D02*
X10714285Y-712002D01*
X10714285Y-712002D02*
X10559523Y-712002D01*
X10559523Y-712002D02*
X10466666Y-742954D01*
X10466666Y-742954D02*
X10404761Y-804859D01*
X10404761Y-804859D02*
X10373808Y-866764D01*
X10373808Y-866764D02*
X10342856Y-990573D01*
X10342856Y-990573D02*
X10342856Y-1083430D01*
X10342856Y-1083430D02*
X10373808Y-1207240D01*
X10373808Y-1207240D02*
X10404761Y-1269145D01*
X10404761Y-1269145D02*
X10466666Y-1331050D01*
X10466666Y-1331050D02*
X10559523Y-1362002D01*
X10559523Y-1362002D02*
X10714285Y-1362002D01*
X10095237Y-1176288D02*
X9785713Y-1176288D01*
X10157142Y-1362002D02*
X9940475Y-712002D01*
X9940475Y-712002D02*
X9723808Y-1362002D01*
D11*
X20557142Y-10534323D02*
X20557142Y-9914323D01*
X20557142Y-9914323D02*
X20414285Y-9914323D01*
X20414285Y-9914323D02*
X20328571Y-9943847D01*
X20328571Y-9943847D02*
X20271428Y-10002895D01*
X20271428Y-10002895D02*
X20242857Y-10061942D01*
X20242857Y-10061942D02*
X20214285Y-10180038D01*
X20214285Y-10180038D02*
X20214285Y-10268609D01*
X20214285Y-10268609D02*
X20242857Y-10386704D01*
X20242857Y-10386704D02*
X20271428Y-10445752D01*
X20271428Y-10445752D02*
X20328571Y-10504800D01*
X20328571Y-10504800D02*
X20414285Y-10534323D01*
X20414285Y-10534323D02*
X20557142Y-10534323D01*
X19842857Y-9914323D02*
X19785714Y-9914323D01*
X19785714Y-9914323D02*
X19728571Y-9943847D01*
X19728571Y-9943847D02*
X19700000Y-9973371D01*
X19700000Y-9973371D02*
X19671428Y-10032419D01*
X19671428Y-10032419D02*
X19642857Y-10150514D01*
X19642857Y-10150514D02*
X19642857Y-10298133D01*
X19642857Y-10298133D02*
X19671428Y-10416228D01*
X19671428Y-10416228D02*
X19700000Y-10475276D01*
X19700000Y-10475276D02*
X19728571Y-10504800D01*
X19728571Y-10504800D02*
X19785714Y-10534323D01*
X19785714Y-10534323D02*
X19842857Y-10534323D01*
X19842857Y-10534323D02*
X19900000Y-10504800D01*
X19900000Y-10504800D02*
X19928571Y-10475276D01*
X19928571Y-10475276D02*
X19957142Y-10416228D01*
X19957142Y-10416228D02*
X19985714Y-10298133D01*
X19985714Y-10298133D02*
X19985714Y-10150514D01*
X19985714Y-10150514D02*
X19957142Y-10032419D01*
X19957142Y-10032419D02*
X19928571Y-9973371D01*
X19928571Y-9973371D02*
X19900000Y-9943847D01*
X19900000Y-9943847D02*
X19842857Y-9914323D01*
X19385713Y-10534323D02*
X19385713Y-9914323D01*
X19385713Y-9914323D02*
X19042856Y-10534323D01*
X19042856Y-10534323D02*
X19042856Y-9914323D01*
X21314284Y-11296333D02*
X20857142Y-11296333D01*
X20257142Y-10942047D02*
X20314285Y-10912523D01*
X20314285Y-10912523D02*
X20399999Y-10912523D01*
X20399999Y-10912523D02*
X20485713Y-10942047D01*
X20485713Y-10942047D02*
X20542856Y-11001095D01*
X20542856Y-11001095D02*
X20571427Y-11060142D01*
X20571427Y-11060142D02*
X20599999Y-11178238D01*
X20599999Y-11178238D02*
X20599999Y-11266809D01*
X20599999Y-11266809D02*
X20571427Y-11384904D01*
X20571427Y-11384904D02*
X20542856Y-11443952D01*
X20542856Y-11443952D02*
X20485713Y-11503000D01*
X20485713Y-11503000D02*
X20399999Y-11532523D01*
X20399999Y-11532523D02*
X20342856Y-11532523D01*
X20342856Y-11532523D02*
X20257142Y-11503000D01*
X20257142Y-11503000D02*
X20228570Y-11473476D01*
X20228570Y-11473476D02*
X20228570Y-11266809D01*
X20228570Y-11266809D02*
X20342856Y-11266809D01*
X19971427Y-11532523D02*
X19971427Y-10912523D01*
X19971427Y-10912523D02*
X19628570Y-11532523D01*
X19628570Y-11532523D02*
X19628570Y-10912523D01*
X19342856Y-11532523D02*
X19342856Y-10912523D01*
X19342856Y-10912523D02*
X19199999Y-10912523D01*
X19199999Y-10912523D02*
X19114285Y-10942047D01*
X19114285Y-10942047D02*
X19057142Y-11001095D01*
X19057142Y-11001095D02*
X19028571Y-11060142D01*
X19028571Y-11060142D02*
X18999999Y-11178238D01*
X18999999Y-11178238D02*
X18999999Y-11266809D01*
X18999999Y-11266809D02*
X19028571Y-11384904D01*
X19028571Y-11384904D02*
X19057142Y-11443952D01*
X19057142Y-11443952D02*
X19114285Y-11503000D01*
X19114285Y-11503000D02*
X19199999Y-11532523D01*
X19199999Y-11532523D02*
X19342856Y-11532523D01*
X18742856Y-11296333D02*
X18285714Y-11296333D01*
X20542856Y-12530723D02*
X20542856Y-11910723D01*
X20542856Y-11910723D02*
X20399999Y-11910723D01*
X20399999Y-11910723D02*
X20314285Y-11940247D01*
X20314285Y-11940247D02*
X20257142Y-11999295D01*
X20257142Y-11999295D02*
X20228571Y-12058342D01*
X20228571Y-12058342D02*
X20199999Y-12176438D01*
X20199999Y-12176438D02*
X20199999Y-12265009D01*
X20199999Y-12265009D02*
X20228571Y-12383104D01*
X20228571Y-12383104D02*
X20257142Y-12442152D01*
X20257142Y-12442152D02*
X20314285Y-12501200D01*
X20314285Y-12501200D02*
X20399999Y-12530723D01*
X20399999Y-12530723D02*
X20542856Y-12530723D01*
X19628571Y-12530723D02*
X19971428Y-12530723D01*
X19799999Y-12530723D02*
X19799999Y-11910723D01*
X19799999Y-11910723D02*
X19857142Y-11999295D01*
X19857142Y-11999295D02*
X19914285Y-12058342D01*
X19914285Y-12058342D02*
X19971428Y-12087866D01*
X19371427Y-12530723D02*
X19371427Y-11910723D01*
X19371427Y-11910723D02*
X19142856Y-11910723D01*
X19142856Y-11910723D02*
X19085713Y-11940247D01*
X19085713Y-11940247D02*
X19057142Y-11969771D01*
X19057142Y-11969771D02*
X19028570Y-12028819D01*
X19028570Y-12028819D02*
X19028570Y-12117390D01*
X19028570Y-12117390D02*
X19057142Y-12176438D01*
X19057142Y-12176438D02*
X19085713Y-12205961D01*
X19085713Y-12205961D02*
X19142856Y-12235485D01*
X19142856Y-12235485D02*
X19371427Y-12235485D01*
X20228570Y-13469876D02*
X20257142Y-13499400D01*
X20257142Y-13499400D02*
X20342856Y-13528923D01*
X20342856Y-13528923D02*
X20399999Y-13528923D01*
X20399999Y-13528923D02*
X20485713Y-13499400D01*
X20485713Y-13499400D02*
X20542856Y-13440352D01*
X20542856Y-13440352D02*
X20571427Y-13381304D01*
X20571427Y-13381304D02*
X20599999Y-13263209D01*
X20599999Y-13263209D02*
X20599999Y-13174638D01*
X20599999Y-13174638D02*
X20571427Y-13056542D01*
X20571427Y-13056542D02*
X20542856Y-12997495D01*
X20542856Y-12997495D02*
X20485713Y-12938447D01*
X20485713Y-12938447D02*
X20399999Y-12908923D01*
X20399999Y-12908923D02*
X20342856Y-12908923D01*
X20342856Y-12908923D02*
X20257142Y-12938447D01*
X20257142Y-12938447D02*
X20228570Y-12967971D01*
X19971427Y-13528923D02*
X19971427Y-12908923D01*
X19628570Y-13528923D02*
X19885713Y-13174638D01*
X19628570Y-12908923D02*
X19971427Y-13263209D01*
X19371427Y-13528923D02*
X19371427Y-12908923D01*
X19371427Y-12908923D02*
X19028570Y-13528923D01*
X19028570Y-13528923D02*
X19028570Y-12908923D01*
X21314284Y-14290933D02*
X20857142Y-14290933D01*
X20257142Y-13936647D02*
X20314285Y-13907123D01*
X20314285Y-13907123D02*
X20399999Y-13907123D01*
X20399999Y-13907123D02*
X20485713Y-13936647D01*
X20485713Y-13936647D02*
X20542856Y-13995695D01*
X20542856Y-13995695D02*
X20571427Y-14054742D01*
X20571427Y-14054742D02*
X20599999Y-14172838D01*
X20599999Y-14172838D02*
X20599999Y-14261409D01*
X20599999Y-14261409D02*
X20571427Y-14379504D01*
X20571427Y-14379504D02*
X20542856Y-14438552D01*
X20542856Y-14438552D02*
X20485713Y-14497600D01*
X20485713Y-14497600D02*
X20399999Y-14527123D01*
X20399999Y-14527123D02*
X20342856Y-14527123D01*
X20342856Y-14527123D02*
X20257142Y-14497600D01*
X20257142Y-14497600D02*
X20228570Y-14468076D01*
X20228570Y-14468076D02*
X20228570Y-14261409D01*
X20228570Y-14261409D02*
X20342856Y-14261409D01*
X19971427Y-14527123D02*
X19971427Y-13907123D01*
X19971427Y-13907123D02*
X19628570Y-14527123D01*
X19628570Y-14527123D02*
X19628570Y-13907123D01*
X19342856Y-14527123D02*
X19342856Y-13907123D01*
X19342856Y-13907123D02*
X19199999Y-13907123D01*
X19199999Y-13907123D02*
X19114285Y-13936647D01*
X19114285Y-13936647D02*
X19057142Y-13995695D01*
X19057142Y-13995695D02*
X19028571Y-14054742D01*
X19028571Y-14054742D02*
X18999999Y-14172838D01*
X18999999Y-14172838D02*
X18999999Y-14261409D01*
X18999999Y-14261409D02*
X19028571Y-14379504D01*
X19028571Y-14379504D02*
X19057142Y-14438552D01*
X19057142Y-14438552D02*
X19114285Y-14497600D01*
X19114285Y-14497600D02*
X19199999Y-14527123D01*
X19199999Y-14527123D02*
X19342856Y-14527123D01*
X18742856Y-14290933D02*
X18285714Y-14290933D01*
X20542856Y-15525323D02*
X20542856Y-14905323D01*
X20542856Y-14905323D02*
X20399999Y-14905323D01*
X20399999Y-14905323D02*
X20314285Y-14934847D01*
X20314285Y-14934847D02*
X20257142Y-14993895D01*
X20257142Y-14993895D02*
X20228571Y-15052942D01*
X20228571Y-15052942D02*
X20199999Y-15171038D01*
X20199999Y-15171038D02*
X20199999Y-15259609D01*
X20199999Y-15259609D02*
X20228571Y-15377704D01*
X20228571Y-15377704D02*
X20257142Y-15436752D01*
X20257142Y-15436752D02*
X20314285Y-15495800D01*
X20314285Y-15495800D02*
X20399999Y-15525323D01*
X20399999Y-15525323D02*
X20542856Y-15525323D01*
X19971428Y-14964371D02*
X19942856Y-14934847D01*
X19942856Y-14934847D02*
X19885714Y-14905323D01*
X19885714Y-14905323D02*
X19742856Y-14905323D01*
X19742856Y-14905323D02*
X19685714Y-14934847D01*
X19685714Y-14934847D02*
X19657142Y-14964371D01*
X19657142Y-14964371D02*
X19628571Y-15023419D01*
X19628571Y-15023419D02*
X19628571Y-15082466D01*
X19628571Y-15082466D02*
X19657142Y-15171038D01*
X19657142Y-15171038D02*
X19999999Y-15525323D01*
X19999999Y-15525323D02*
X19628571Y-15525323D01*
X19371427Y-15525323D02*
X19371427Y-14905323D01*
X19371427Y-14905323D02*
X19142856Y-14905323D01*
X19142856Y-14905323D02*
X19085713Y-14934847D01*
X19085713Y-14934847D02*
X19057142Y-14964371D01*
X19057142Y-14964371D02*
X19028570Y-15023419D01*
X19028570Y-15023419D02*
X19028570Y-15111990D01*
X19028570Y-15111990D02*
X19057142Y-15171038D01*
X19057142Y-15171038D02*
X19085713Y-15200561D01*
X19085713Y-15200561D02*
X19142856Y-15230085D01*
X19142856Y-15230085D02*
X19371427Y-15230085D01*
X20557142Y-16523523D02*
X20557142Y-15903523D01*
X20557142Y-15903523D02*
X20414285Y-15903523D01*
X20414285Y-15903523D02*
X20328571Y-15933047D01*
X20328571Y-15933047D02*
X20271428Y-15992095D01*
X20271428Y-15992095D02*
X20242857Y-16051142D01*
X20242857Y-16051142D02*
X20214285Y-16169238D01*
X20214285Y-16169238D02*
X20214285Y-16257809D01*
X20214285Y-16257809D02*
X20242857Y-16375904D01*
X20242857Y-16375904D02*
X20271428Y-16434952D01*
X20271428Y-16434952D02*
X20328571Y-16494000D01*
X20328571Y-16494000D02*
X20414285Y-16523523D01*
X20414285Y-16523523D02*
X20557142Y-16523523D01*
X20014285Y-15903523D02*
X19642857Y-15903523D01*
X19642857Y-15903523D02*
X19842857Y-16139714D01*
X19842857Y-16139714D02*
X19757142Y-16139714D01*
X19757142Y-16139714D02*
X19700000Y-16169238D01*
X19700000Y-16169238D02*
X19671428Y-16198761D01*
X19671428Y-16198761D02*
X19642857Y-16257809D01*
X19642857Y-16257809D02*
X19642857Y-16405428D01*
X19642857Y-16405428D02*
X19671428Y-16464476D01*
X19671428Y-16464476D02*
X19700000Y-16494000D01*
X19700000Y-16494000D02*
X19757142Y-16523523D01*
X19757142Y-16523523D02*
X19928571Y-16523523D01*
X19928571Y-16523523D02*
X19985714Y-16494000D01*
X19985714Y-16494000D02*
X20014285Y-16464476D01*
X19385713Y-16523523D02*
X19385713Y-15903523D01*
X19385713Y-15903523D02*
X19042856Y-16523523D01*
X19042856Y-16523523D02*
X19042856Y-15903523D01*
X21314284Y-17285533D02*
X20857142Y-17285533D01*
X20257142Y-16931247D02*
X20314285Y-16901723D01*
X20314285Y-16901723D02*
X20399999Y-16901723D01*
X20399999Y-16901723D02*
X20485713Y-16931247D01*
X20485713Y-16931247D02*
X20542856Y-16990295D01*
X20542856Y-16990295D02*
X20571427Y-17049342D01*
X20571427Y-17049342D02*
X20599999Y-17167438D01*
X20599999Y-17167438D02*
X20599999Y-17256009D01*
X20599999Y-17256009D02*
X20571427Y-17374104D01*
X20571427Y-17374104D02*
X20542856Y-17433152D01*
X20542856Y-17433152D02*
X20485713Y-17492200D01*
X20485713Y-17492200D02*
X20399999Y-17521723D01*
X20399999Y-17521723D02*
X20342856Y-17521723D01*
X20342856Y-17521723D02*
X20257142Y-17492200D01*
X20257142Y-17492200D02*
X20228570Y-17462676D01*
X20228570Y-17462676D02*
X20228570Y-17256009D01*
X20228570Y-17256009D02*
X20342856Y-17256009D01*
X19971427Y-17521723D02*
X19971427Y-16901723D01*
X19971427Y-16901723D02*
X19628570Y-17521723D01*
X19628570Y-17521723D02*
X19628570Y-16901723D01*
X19342856Y-17521723D02*
X19342856Y-16901723D01*
X19342856Y-16901723D02*
X19199999Y-16901723D01*
X19199999Y-16901723D02*
X19114285Y-16931247D01*
X19114285Y-16931247D02*
X19057142Y-16990295D01*
X19057142Y-16990295D02*
X19028571Y-17049342D01*
X19028571Y-17049342D02*
X18999999Y-17167438D01*
X18999999Y-17167438D02*
X18999999Y-17256009D01*
X18999999Y-17256009D02*
X19028571Y-17374104D01*
X19028571Y-17374104D02*
X19057142Y-17433152D01*
X19057142Y-17433152D02*
X19114285Y-17492200D01*
X19114285Y-17492200D02*
X19199999Y-17521723D01*
X19199999Y-17521723D02*
X19342856Y-17521723D01*
X18742856Y-17285533D02*
X18285714Y-17285533D01*
X20399999Y-18519923D02*
X20399999Y-17899923D01*
X20000000Y-17899923D02*
X19885714Y-17899923D01*
X19885714Y-17899923D02*
X19828571Y-17929447D01*
X19828571Y-17929447D02*
X19771428Y-17988495D01*
X19771428Y-17988495D02*
X19742857Y-18106590D01*
X19742857Y-18106590D02*
X19742857Y-18313257D01*
X19742857Y-18313257D02*
X19771428Y-18431352D01*
X19771428Y-18431352D02*
X19828571Y-18490400D01*
X19828571Y-18490400D02*
X19885714Y-18519923D01*
X19885714Y-18519923D02*
X20000000Y-18519923D01*
X20000000Y-18519923D02*
X20057143Y-18490400D01*
X20057143Y-18490400D02*
X20114285Y-18431352D01*
X20114285Y-18431352D02*
X20142857Y-18313257D01*
X20142857Y-18313257D02*
X20142857Y-18106590D01*
X20142857Y-18106590D02*
X20114285Y-17988495D01*
X20114285Y-17988495D02*
X20057143Y-17929447D01*
X20057143Y-17929447D02*
X20000000Y-17899923D01*
X19171429Y-18519923D02*
X19514286Y-18519923D01*
X19342857Y-18519923D02*
X19342857Y-17899923D01*
X19342857Y-17899923D02*
X19400000Y-17988495D01*
X19400000Y-17988495D02*
X19457143Y-18047542D01*
X19457143Y-18047542D02*
X19514286Y-18077066D01*
X20514285Y-19488600D02*
X20428571Y-19518123D01*
X20428571Y-19518123D02*
X20285713Y-19518123D01*
X20285713Y-19518123D02*
X20228571Y-19488600D01*
X20228571Y-19488600D02*
X20199999Y-19459076D01*
X20199999Y-19459076D02*
X20171428Y-19400028D01*
X20171428Y-19400028D02*
X20171428Y-19340980D01*
X20171428Y-19340980D02*
X20199999Y-19281933D01*
X20199999Y-19281933D02*
X20228571Y-19252409D01*
X20228571Y-19252409D02*
X20285713Y-19222885D01*
X20285713Y-19222885D02*
X20399999Y-19193361D01*
X20399999Y-19193361D02*
X20457142Y-19163838D01*
X20457142Y-19163838D02*
X20485713Y-19134314D01*
X20485713Y-19134314D02*
X20514285Y-19075266D01*
X20514285Y-19075266D02*
X20514285Y-19016219D01*
X20514285Y-19016219D02*
X20485713Y-18957171D01*
X20485713Y-18957171D02*
X20457142Y-18927647D01*
X20457142Y-18927647D02*
X20399999Y-18898123D01*
X20399999Y-18898123D02*
X20257142Y-18898123D01*
X20257142Y-18898123D02*
X20171428Y-18927647D01*
X19571427Y-19459076D02*
X19599999Y-19488600D01*
X19599999Y-19488600D02*
X19685713Y-19518123D01*
X19685713Y-19518123D02*
X19742856Y-19518123D01*
X19742856Y-19518123D02*
X19828570Y-19488600D01*
X19828570Y-19488600D02*
X19885713Y-19429552D01*
X19885713Y-19429552D02*
X19914284Y-19370504D01*
X19914284Y-19370504D02*
X19942856Y-19252409D01*
X19942856Y-19252409D02*
X19942856Y-19163838D01*
X19942856Y-19163838D02*
X19914284Y-19045742D01*
X19914284Y-19045742D02*
X19885713Y-18986695D01*
X19885713Y-18986695D02*
X19828570Y-18927647D01*
X19828570Y-18927647D02*
X19742856Y-18898123D01*
X19742856Y-18898123D02*
X19685713Y-18898123D01*
X19685713Y-18898123D02*
X19599999Y-18927647D01*
X19599999Y-18927647D02*
X19571427Y-18957171D01*
X19028570Y-19518123D02*
X19314284Y-19518123D01*
X19314284Y-19518123D02*
X19314284Y-18898123D01*
X21171429Y-19896323D02*
X20971429Y-20516323D01*
X20971429Y-20516323D02*
X20771429Y-19896323D01*
X20571428Y-20516323D02*
X20571428Y-19896323D01*
X20571428Y-19896323D02*
X20428571Y-19896323D01*
X20428571Y-19896323D02*
X20342857Y-19925847D01*
X20342857Y-19925847D02*
X20285714Y-19984895D01*
X20285714Y-19984895D02*
X20257143Y-20043942D01*
X20257143Y-20043942D02*
X20228571Y-20162038D01*
X20228571Y-20162038D02*
X20228571Y-20250609D01*
X20228571Y-20250609D02*
X20257143Y-20368704D01*
X20257143Y-20368704D02*
X20285714Y-20427752D01*
X20285714Y-20427752D02*
X20342857Y-20486800D01*
X20342857Y-20486800D02*
X20428571Y-20516323D01*
X20428571Y-20516323D02*
X20571428Y-20516323D01*
X19971428Y-20516323D02*
X19971428Y-19896323D01*
X19971428Y-19896323D02*
X19828571Y-19896323D01*
X19828571Y-19896323D02*
X19742857Y-19925847D01*
X19742857Y-19925847D02*
X19685714Y-19984895D01*
X19685714Y-19984895D02*
X19657143Y-20043942D01*
X19657143Y-20043942D02*
X19628571Y-20162038D01*
X19628571Y-20162038D02*
X19628571Y-20250609D01*
X19628571Y-20250609D02*
X19657143Y-20368704D01*
X19657143Y-20368704D02*
X19685714Y-20427752D01*
X19685714Y-20427752D02*
X19742857Y-20486800D01*
X19742857Y-20486800D02*
X19828571Y-20516323D01*
X19828571Y-20516323D02*
X19971428Y-20516323D01*
X19428571Y-19896323D02*
X19057143Y-19896323D01*
X19057143Y-19896323D02*
X19257143Y-20132514D01*
X19257143Y-20132514D02*
X19171428Y-20132514D01*
X19171428Y-20132514D02*
X19114286Y-20162038D01*
X19114286Y-20162038D02*
X19085714Y-20191561D01*
X19085714Y-20191561D02*
X19057143Y-20250609D01*
X19057143Y-20250609D02*
X19057143Y-20398228D01*
X19057143Y-20398228D02*
X19085714Y-20457276D01*
X19085714Y-20457276D02*
X19114286Y-20486800D01*
X19114286Y-20486800D02*
X19171428Y-20516323D01*
X19171428Y-20516323D02*
X19342857Y-20516323D01*
X19342857Y-20516323D02*
X19400000Y-20486800D01*
X19400000Y-20486800D02*
X19428571Y-20457276D01*
X18857142Y-19896323D02*
X18485714Y-19896323D01*
X18485714Y-19896323D02*
X18685714Y-20132514D01*
X18685714Y-20132514D02*
X18599999Y-20132514D01*
X18599999Y-20132514D02*
X18542857Y-20162038D01*
X18542857Y-20162038D02*
X18514285Y-20191561D01*
X18514285Y-20191561D02*
X18485714Y-20250609D01*
X18485714Y-20250609D02*
X18485714Y-20398228D01*
X18485714Y-20398228D02*
X18514285Y-20457276D01*
X18514285Y-20457276D02*
X18542857Y-20486800D01*
X18542857Y-20486800D02*
X18599999Y-20516323D01*
X18599999Y-20516323D02*
X18771428Y-20516323D01*
X18771428Y-20516323D02*
X18828571Y-20486800D01*
X18828571Y-20486800D02*
X18857142Y-20457276D01*
X5733333Y-10016033D02*
X6133333Y-10016033D01*
X5933333Y-10016033D02*
X5933333Y-9316033D01*
X5933333Y-9316033D02*
X6000000Y-9416033D01*
X6000000Y-9416033D02*
X6066667Y-9482700D01*
X6066667Y-9482700D02*
X6133333Y-9516033D01*
X5433333Y-9749366D02*
X4900000Y-9749366D01*
X12325000Y-17866033D02*
X12325000Y-17166033D01*
X12325000Y-17166033D02*
X12158333Y-17166033D01*
X12158333Y-17166033D02*
X12058333Y-17199366D01*
X12058333Y-17199366D02*
X11991667Y-17266033D01*
X11991667Y-17266033D02*
X11958333Y-17332700D01*
X11958333Y-17332700D02*
X11925000Y-17466033D01*
X11925000Y-17466033D02*
X11925000Y-17566033D01*
X11925000Y-17566033D02*
X11958333Y-17699366D01*
X11958333Y-17699366D02*
X11991667Y-17766033D01*
X11991667Y-17766033D02*
X12058333Y-17832700D01*
X12058333Y-17832700D02*
X12158333Y-17866033D01*
X12158333Y-17866033D02*
X12325000Y-17866033D01*
X11625000Y-17866033D02*
X11625000Y-17166033D01*
X11625000Y-17166033D02*
X11358333Y-17166033D01*
X11358333Y-17166033D02*
X11291667Y-17199366D01*
X11291667Y-17199366D02*
X11258333Y-17232700D01*
X11258333Y-17232700D02*
X11225000Y-17299366D01*
X11225000Y-17299366D02*
X11225000Y-17399366D01*
X11225000Y-17399366D02*
X11258333Y-17466033D01*
X11258333Y-17466033D02*
X11291667Y-17499366D01*
X11291667Y-17499366D02*
X11358333Y-17532700D01*
X11358333Y-17532700D02*
X11625000Y-17532700D01*
X10925000Y-17866033D02*
X10925000Y-17166033D01*
X10925000Y-17499366D02*
X10525000Y-17499366D01*
X10525000Y-17866033D02*
X10525000Y-17166033D01*
X10058334Y-17532700D02*
X10058334Y-17866033D01*
X10291667Y-17166033D02*
X10058334Y-17532700D01*
X10058334Y-17532700D02*
X9825000Y-17166033D01*
X9291667Y-17399366D02*
X9291667Y-17866033D01*
X9458334Y-17132700D02*
X9625000Y-17632700D01*
X9625000Y-17632700D02*
X9191667Y-17632700D01*
X8625000Y-17399366D02*
X8625000Y-17866033D01*
X8791667Y-17132700D02*
X8958333Y-17632700D01*
X8958333Y-17632700D02*
X8525000Y-17632700D01*
X8125000Y-17166033D02*
X8058333Y-17166033D01*
X8058333Y-17166033D02*
X7991666Y-17199366D01*
X7991666Y-17199366D02*
X7958333Y-17232700D01*
X7958333Y-17232700D02*
X7925000Y-17299366D01*
X7925000Y-17299366D02*
X7891666Y-17432700D01*
X7891666Y-17432700D02*
X7891666Y-17599366D01*
X7891666Y-17599366D02*
X7925000Y-17732700D01*
X7925000Y-17732700D02*
X7958333Y-17799366D01*
X7958333Y-17799366D02*
X7991666Y-17832700D01*
X7991666Y-17832700D02*
X8058333Y-17866033D01*
X8058333Y-17866033D02*
X8125000Y-17866033D01*
X8125000Y-17866033D02*
X8191666Y-17832700D01*
X8191666Y-17832700D02*
X8225000Y-17799366D01*
X8225000Y-17799366D02*
X8258333Y-17732700D01*
X8258333Y-17732700D02*
X8291666Y-17599366D01*
X8291666Y-17599366D02*
X8291666Y-17432700D01*
X8291666Y-17432700D02*
X8258333Y-17299366D01*
X8258333Y-17299366D02*
X8225000Y-17232700D01*
X8225000Y-17232700D02*
X8191666Y-17199366D01*
X8191666Y-17199366D02*
X8125000Y-17166033D01*
X25183333Y-20249366D02*
X24650000Y-20249366D01*
X24349999Y-19882700D02*
X24316666Y-19849366D01*
X24316666Y-19849366D02*
X24249999Y-19816033D01*
X24249999Y-19816033D02*
X24083333Y-19816033D01*
X24083333Y-19816033D02*
X24016666Y-19849366D01*
X24016666Y-19849366D02*
X23983333Y-19882700D01*
X23983333Y-19882700D02*
X23949999Y-19949366D01*
X23949999Y-19949366D02*
X23949999Y-20016033D01*
X23949999Y-20016033D02*
X23983333Y-20116033D01*
X23983333Y-20116033D02*
X24383333Y-20516033D01*
X24383333Y-20516033D02*
X23949999Y-20516033D01*
X23683332Y-19882700D02*
X23649999Y-19849366D01*
X23649999Y-19849366D02*
X23583332Y-19816033D01*
X23583332Y-19816033D02*
X23416666Y-19816033D01*
X23416666Y-19816033D02*
X23349999Y-19849366D01*
X23349999Y-19849366D02*
X23316666Y-19882700D01*
X23316666Y-19882700D02*
X23283332Y-19949366D01*
X23283332Y-19949366D02*
X23283332Y-20016033D01*
X23283332Y-20016033D02*
X23316666Y-20116033D01*
X23316666Y-20116033D02*
X23716666Y-20516033D01*
X23716666Y-20516033D02*
X23283332Y-20516033D01*
D13*
X16808332Y-21246816D02*
X16874999Y-21213483D01*
X16874999Y-21213483D02*
X16974999Y-21213483D01*
X16974999Y-21213483D02*
X17074999Y-21246816D01*
X17074999Y-21246816D02*
X17141666Y-21313483D01*
X17141666Y-21313483D02*
X17174999Y-21380150D01*
X17174999Y-21380150D02*
X17208332Y-21513483D01*
X17208332Y-21513483D02*
X17208332Y-21613483D01*
X17208332Y-21613483D02*
X17174999Y-21746816D01*
X17174999Y-21746816D02*
X17141666Y-21813483D01*
X17141666Y-21813483D02*
X17074999Y-21880150D01*
X17074999Y-21880150D02*
X16974999Y-21913483D01*
X16974999Y-21913483D02*
X16908332Y-21913483D01*
X16908332Y-21913483D02*
X16808332Y-21880150D01*
X16808332Y-21880150D02*
X16774999Y-21846816D01*
X16774999Y-21846816D02*
X16774999Y-21613483D01*
X16774999Y-21613483D02*
X16908332Y-21613483D01*
X16474999Y-21913483D02*
X16474999Y-21213483D01*
X16474999Y-21213483D02*
X16074999Y-21913483D01*
X16074999Y-21913483D02*
X16074999Y-21213483D01*
X15741666Y-21913483D02*
X15741666Y-21213483D01*
X15741666Y-21213483D02*
X15574999Y-21213483D01*
X15574999Y-21213483D02*
X15474999Y-21246816D01*
X15474999Y-21246816D02*
X15408333Y-21313483D01*
X15408333Y-21313483D02*
X15374999Y-21380150D01*
X15374999Y-21380150D02*
X15341666Y-21513483D01*
X15341666Y-21513483D02*
X15341666Y-21613483D01*
X15341666Y-21613483D02*
X15374999Y-21746816D01*
X15374999Y-21746816D02*
X15408333Y-21813483D01*
X15408333Y-21813483D02*
X15474999Y-21880150D01*
X15474999Y-21880150D02*
X15574999Y-21913483D01*
X15574999Y-21913483D02*
X15741666Y-21913483D01*
D11*
X23914284Y-9748133D02*
X23457142Y-9748133D01*
X22857142Y-9393847D02*
X22914285Y-9364323D01*
X22914285Y-9364323D02*
X22999999Y-9364323D01*
X22999999Y-9364323D02*
X23085713Y-9393847D01*
X23085713Y-9393847D02*
X23142856Y-9452895D01*
X23142856Y-9452895D02*
X23171427Y-9511942D01*
X23171427Y-9511942D02*
X23199999Y-9630038D01*
X23199999Y-9630038D02*
X23199999Y-9718609D01*
X23199999Y-9718609D02*
X23171427Y-9836704D01*
X23171427Y-9836704D02*
X23142856Y-9895752D01*
X23142856Y-9895752D02*
X23085713Y-9954800D01*
X23085713Y-9954800D02*
X22999999Y-9984323D01*
X22999999Y-9984323D02*
X22942856Y-9984323D01*
X22942856Y-9984323D02*
X22857142Y-9954800D01*
X22857142Y-9954800D02*
X22828570Y-9925276D01*
X22828570Y-9925276D02*
X22828570Y-9718609D01*
X22828570Y-9718609D02*
X22942856Y-9718609D01*
X22571427Y-9984323D02*
X22571427Y-9364323D01*
X22571427Y-9364323D02*
X22228570Y-9984323D01*
X22228570Y-9984323D02*
X22228570Y-9364323D01*
X21942856Y-9984323D02*
X21942856Y-9364323D01*
X21942856Y-9364323D02*
X21799999Y-9364323D01*
X21799999Y-9364323D02*
X21714285Y-9393847D01*
X21714285Y-9393847D02*
X21657142Y-9452895D01*
X21657142Y-9452895D02*
X21628571Y-9511942D01*
X21628571Y-9511942D02*
X21599999Y-9630038D01*
X21599999Y-9630038D02*
X21599999Y-9718609D01*
X21599999Y-9718609D02*
X21628571Y-9836704D01*
X21628571Y-9836704D02*
X21657142Y-9895752D01*
X21657142Y-9895752D02*
X21714285Y-9954800D01*
X21714285Y-9954800D02*
X21799999Y-9984323D01*
X21799999Y-9984323D02*
X21942856Y-9984323D01*
X21342856Y-9748133D02*
X20885714Y-9748133D01*
X23142856Y-10982523D02*
X23142856Y-10362523D01*
X23142856Y-10362523D02*
X22999999Y-10362523D01*
X22999999Y-10362523D02*
X22914285Y-10392047D01*
X22914285Y-10392047D02*
X22857142Y-10451095D01*
X22857142Y-10451095D02*
X22828571Y-10510142D01*
X22828571Y-10510142D02*
X22799999Y-10628238D01*
X22799999Y-10628238D02*
X22799999Y-10716809D01*
X22799999Y-10716809D02*
X22828571Y-10834904D01*
X22828571Y-10834904D02*
X22857142Y-10893952D01*
X22857142Y-10893952D02*
X22914285Y-10953000D01*
X22914285Y-10953000D02*
X22999999Y-10982523D01*
X22999999Y-10982523D02*
X23142856Y-10982523D01*
X22428571Y-10362523D02*
X22371428Y-10362523D01*
X22371428Y-10362523D02*
X22314285Y-10392047D01*
X22314285Y-10392047D02*
X22285714Y-10421571D01*
X22285714Y-10421571D02*
X22257142Y-10480619D01*
X22257142Y-10480619D02*
X22228571Y-10598714D01*
X22228571Y-10598714D02*
X22228571Y-10746333D01*
X22228571Y-10746333D02*
X22257142Y-10864428D01*
X22257142Y-10864428D02*
X22285714Y-10923476D01*
X22285714Y-10923476D02*
X22314285Y-10953000D01*
X22314285Y-10953000D02*
X22371428Y-10982523D01*
X22371428Y-10982523D02*
X22428571Y-10982523D01*
X22428571Y-10982523D02*
X22485714Y-10953000D01*
X22485714Y-10953000D02*
X22514285Y-10923476D01*
X22514285Y-10923476D02*
X22542856Y-10864428D01*
X22542856Y-10864428D02*
X22571428Y-10746333D01*
X22571428Y-10746333D02*
X22571428Y-10598714D01*
X22571428Y-10598714D02*
X22542856Y-10480619D01*
X22542856Y-10480619D02*
X22514285Y-10421571D01*
X22514285Y-10421571D02*
X22485714Y-10392047D01*
X22485714Y-10392047D02*
X22428571Y-10362523D01*
X21971427Y-10982523D02*
X21971427Y-10362523D01*
X21971427Y-10362523D02*
X21742856Y-10362523D01*
X21742856Y-10362523D02*
X21685713Y-10392047D01*
X21685713Y-10392047D02*
X21657142Y-10421571D01*
X21657142Y-10421571D02*
X21628570Y-10480619D01*
X21628570Y-10480619D02*
X21628570Y-10569190D01*
X21628570Y-10569190D02*
X21657142Y-10628238D01*
X21657142Y-10628238D02*
X21685713Y-10657761D01*
X21685713Y-10657761D02*
X21742856Y-10687285D01*
X21742856Y-10687285D02*
X21971427Y-10687285D01*
X23157142Y-11980723D02*
X23157142Y-11360723D01*
X23157142Y-11360723D02*
X23014285Y-11360723D01*
X23014285Y-11360723D02*
X22928571Y-11390247D01*
X22928571Y-11390247D02*
X22871428Y-11449295D01*
X22871428Y-11449295D02*
X22842857Y-11508342D01*
X22842857Y-11508342D02*
X22814285Y-11626438D01*
X22814285Y-11626438D02*
X22814285Y-11715009D01*
X22814285Y-11715009D02*
X22842857Y-11833104D01*
X22842857Y-11833104D02*
X22871428Y-11892152D01*
X22871428Y-11892152D02*
X22928571Y-11951200D01*
X22928571Y-11951200D02*
X23014285Y-11980723D01*
X23014285Y-11980723D02*
X23157142Y-11980723D01*
X22242857Y-11980723D02*
X22585714Y-11980723D01*
X22414285Y-11980723D02*
X22414285Y-11360723D01*
X22414285Y-11360723D02*
X22471428Y-11449295D01*
X22471428Y-11449295D02*
X22528571Y-11508342D01*
X22528571Y-11508342D02*
X22585714Y-11537866D01*
X21985713Y-11980723D02*
X21985713Y-11360723D01*
X21985713Y-11360723D02*
X21642856Y-11980723D01*
X21642856Y-11980723D02*
X21642856Y-11360723D01*
X23914284Y-12742733D02*
X23457142Y-12742733D01*
X22857142Y-12388447D02*
X22914285Y-12358923D01*
X22914285Y-12358923D02*
X22999999Y-12358923D01*
X22999999Y-12358923D02*
X23085713Y-12388447D01*
X23085713Y-12388447D02*
X23142856Y-12447495D01*
X23142856Y-12447495D02*
X23171427Y-12506542D01*
X23171427Y-12506542D02*
X23199999Y-12624638D01*
X23199999Y-12624638D02*
X23199999Y-12713209D01*
X23199999Y-12713209D02*
X23171427Y-12831304D01*
X23171427Y-12831304D02*
X23142856Y-12890352D01*
X23142856Y-12890352D02*
X23085713Y-12949400D01*
X23085713Y-12949400D02*
X22999999Y-12978923D01*
X22999999Y-12978923D02*
X22942856Y-12978923D01*
X22942856Y-12978923D02*
X22857142Y-12949400D01*
X22857142Y-12949400D02*
X22828570Y-12919876D01*
X22828570Y-12919876D02*
X22828570Y-12713209D01*
X22828570Y-12713209D02*
X22942856Y-12713209D01*
X22571427Y-12978923D02*
X22571427Y-12358923D01*
X22571427Y-12358923D02*
X22228570Y-12978923D01*
X22228570Y-12978923D02*
X22228570Y-12358923D01*
X21942856Y-12978923D02*
X21942856Y-12358923D01*
X21942856Y-12358923D02*
X21799999Y-12358923D01*
X21799999Y-12358923D02*
X21714285Y-12388447D01*
X21714285Y-12388447D02*
X21657142Y-12447495D01*
X21657142Y-12447495D02*
X21628571Y-12506542D01*
X21628571Y-12506542D02*
X21599999Y-12624638D01*
X21599999Y-12624638D02*
X21599999Y-12713209D01*
X21599999Y-12713209D02*
X21628571Y-12831304D01*
X21628571Y-12831304D02*
X21657142Y-12890352D01*
X21657142Y-12890352D02*
X21714285Y-12949400D01*
X21714285Y-12949400D02*
X21799999Y-12978923D01*
X21799999Y-12978923D02*
X21942856Y-12978923D01*
X21342856Y-12742733D02*
X20885714Y-12742733D01*
X22814285Y-13918076D02*
X22842857Y-13947600D01*
X22842857Y-13947600D02*
X22928571Y-13977123D01*
X22928571Y-13977123D02*
X22985714Y-13977123D01*
X22985714Y-13977123D02*
X23071428Y-13947600D01*
X23071428Y-13947600D02*
X23128571Y-13888552D01*
X23128571Y-13888552D02*
X23157142Y-13829504D01*
X23157142Y-13829504D02*
X23185714Y-13711409D01*
X23185714Y-13711409D02*
X23185714Y-13622838D01*
X23185714Y-13622838D02*
X23157142Y-13504742D01*
X23157142Y-13504742D02*
X23128571Y-13445695D01*
X23128571Y-13445695D02*
X23071428Y-13386647D01*
X23071428Y-13386647D02*
X22985714Y-13357123D01*
X22985714Y-13357123D02*
X22928571Y-13357123D01*
X22928571Y-13357123D02*
X22842857Y-13386647D01*
X22842857Y-13386647D02*
X22814285Y-13416171D01*
X22557142Y-13977123D02*
X22557142Y-13357123D01*
X22214285Y-13977123D02*
X22471428Y-13622838D01*
X22214285Y-13357123D02*
X22557142Y-13711409D01*
X21957142Y-13977123D02*
X21957142Y-13357123D01*
X21957142Y-13357123D02*
X21728571Y-13357123D01*
X21728571Y-13357123D02*
X21671428Y-13386647D01*
X21671428Y-13386647D02*
X21642857Y-13416171D01*
X21642857Y-13416171D02*
X21614285Y-13475219D01*
X21614285Y-13475219D02*
X21614285Y-13563790D01*
X21614285Y-13563790D02*
X21642857Y-13622838D01*
X21642857Y-13622838D02*
X21671428Y-13652361D01*
X21671428Y-13652361D02*
X21728571Y-13681885D01*
X21728571Y-13681885D02*
X21957142Y-13681885D01*
X23157142Y-14975323D02*
X23157142Y-14355323D01*
X23157142Y-14355323D02*
X23014285Y-14355323D01*
X23014285Y-14355323D02*
X22928571Y-14384847D01*
X22928571Y-14384847D02*
X22871428Y-14443895D01*
X22871428Y-14443895D02*
X22842857Y-14502942D01*
X22842857Y-14502942D02*
X22814285Y-14621038D01*
X22814285Y-14621038D02*
X22814285Y-14709609D01*
X22814285Y-14709609D02*
X22842857Y-14827704D01*
X22842857Y-14827704D02*
X22871428Y-14886752D01*
X22871428Y-14886752D02*
X22928571Y-14945800D01*
X22928571Y-14945800D02*
X23014285Y-14975323D01*
X23014285Y-14975323D02*
X23157142Y-14975323D01*
X22585714Y-14414371D02*
X22557142Y-14384847D01*
X22557142Y-14384847D02*
X22500000Y-14355323D01*
X22500000Y-14355323D02*
X22357142Y-14355323D01*
X22357142Y-14355323D02*
X22300000Y-14384847D01*
X22300000Y-14384847D02*
X22271428Y-14414371D01*
X22271428Y-14414371D02*
X22242857Y-14473419D01*
X22242857Y-14473419D02*
X22242857Y-14532466D01*
X22242857Y-14532466D02*
X22271428Y-14621038D01*
X22271428Y-14621038D02*
X22614285Y-14975323D01*
X22614285Y-14975323D02*
X22242857Y-14975323D01*
X21985713Y-14975323D02*
X21985713Y-14355323D01*
X21985713Y-14355323D02*
X21642856Y-14975323D01*
X21642856Y-14975323D02*
X21642856Y-14355323D01*
X23914284Y-15737333D02*
X23457142Y-15737333D01*
X22857142Y-15383047D02*
X22914285Y-15353523D01*
X22914285Y-15353523D02*
X22999999Y-15353523D01*
X22999999Y-15353523D02*
X23085713Y-15383047D01*
X23085713Y-15383047D02*
X23142856Y-15442095D01*
X23142856Y-15442095D02*
X23171427Y-15501142D01*
X23171427Y-15501142D02*
X23199999Y-15619238D01*
X23199999Y-15619238D02*
X23199999Y-15707809D01*
X23199999Y-15707809D02*
X23171427Y-15825904D01*
X23171427Y-15825904D02*
X23142856Y-15884952D01*
X23142856Y-15884952D02*
X23085713Y-15944000D01*
X23085713Y-15944000D02*
X22999999Y-15973523D01*
X22999999Y-15973523D02*
X22942856Y-15973523D01*
X22942856Y-15973523D02*
X22857142Y-15944000D01*
X22857142Y-15944000D02*
X22828570Y-15914476D01*
X22828570Y-15914476D02*
X22828570Y-15707809D01*
X22828570Y-15707809D02*
X22942856Y-15707809D01*
X22571427Y-15973523D02*
X22571427Y-15353523D01*
X22571427Y-15353523D02*
X22228570Y-15973523D01*
X22228570Y-15973523D02*
X22228570Y-15353523D01*
X21942856Y-15973523D02*
X21942856Y-15353523D01*
X21942856Y-15353523D02*
X21799999Y-15353523D01*
X21799999Y-15353523D02*
X21714285Y-15383047D01*
X21714285Y-15383047D02*
X21657142Y-15442095D01*
X21657142Y-15442095D02*
X21628571Y-15501142D01*
X21628571Y-15501142D02*
X21599999Y-15619238D01*
X21599999Y-15619238D02*
X21599999Y-15707809D01*
X21599999Y-15707809D02*
X21628571Y-15825904D01*
X21628571Y-15825904D02*
X21657142Y-15884952D01*
X21657142Y-15884952D02*
X21714285Y-15944000D01*
X21714285Y-15944000D02*
X21799999Y-15973523D01*
X21799999Y-15973523D02*
X21942856Y-15973523D01*
X21342856Y-15737333D02*
X20885714Y-15737333D01*
X23142856Y-16971723D02*
X23142856Y-16351723D01*
X23142856Y-16351723D02*
X22999999Y-16351723D01*
X22999999Y-16351723D02*
X22914285Y-16381247D01*
X22914285Y-16381247D02*
X22857142Y-16440295D01*
X22857142Y-16440295D02*
X22828571Y-16499342D01*
X22828571Y-16499342D02*
X22799999Y-16617438D01*
X22799999Y-16617438D02*
X22799999Y-16706009D01*
X22799999Y-16706009D02*
X22828571Y-16824104D01*
X22828571Y-16824104D02*
X22857142Y-16883152D01*
X22857142Y-16883152D02*
X22914285Y-16942200D01*
X22914285Y-16942200D02*
X22999999Y-16971723D01*
X22999999Y-16971723D02*
X23142856Y-16971723D01*
X22599999Y-16351723D02*
X22228571Y-16351723D01*
X22228571Y-16351723D02*
X22428571Y-16587914D01*
X22428571Y-16587914D02*
X22342856Y-16587914D01*
X22342856Y-16587914D02*
X22285714Y-16617438D01*
X22285714Y-16617438D02*
X22257142Y-16646961D01*
X22257142Y-16646961D02*
X22228571Y-16706009D01*
X22228571Y-16706009D02*
X22228571Y-16853628D01*
X22228571Y-16853628D02*
X22257142Y-16912676D01*
X22257142Y-16912676D02*
X22285714Y-16942200D01*
X22285714Y-16942200D02*
X22342856Y-16971723D01*
X22342856Y-16971723D02*
X22514285Y-16971723D01*
X22514285Y-16971723D02*
X22571428Y-16942200D01*
X22571428Y-16942200D02*
X22599999Y-16912676D01*
X21971427Y-16971723D02*
X21971427Y-16351723D01*
X21971427Y-16351723D02*
X21742856Y-16351723D01*
X21742856Y-16351723D02*
X21685713Y-16381247D01*
X21685713Y-16381247D02*
X21657142Y-16410771D01*
X21657142Y-16410771D02*
X21628570Y-16469819D01*
X21628570Y-16469819D02*
X21628570Y-16558390D01*
X21628570Y-16558390D02*
X21657142Y-16617438D01*
X21657142Y-16617438D02*
X21685713Y-16646961D01*
X21685713Y-16646961D02*
X21742856Y-16676485D01*
X21742856Y-16676485D02*
X21971427Y-16676485D01*
X23942856Y-17969923D02*
X23942856Y-17349923D01*
X23942856Y-17349923D02*
X23714285Y-17349923D01*
X23714285Y-17349923D02*
X23657142Y-17379447D01*
X23657142Y-17379447D02*
X23628571Y-17408971D01*
X23628571Y-17408971D02*
X23599999Y-17468019D01*
X23599999Y-17468019D02*
X23599999Y-17556590D01*
X23599999Y-17556590D02*
X23628571Y-17615638D01*
X23628571Y-17615638D02*
X23657142Y-17645161D01*
X23657142Y-17645161D02*
X23714285Y-17674685D01*
X23714285Y-17674685D02*
X23942856Y-17674685D01*
X23399999Y-17349923D02*
X23257142Y-17969923D01*
X23257142Y-17969923D02*
X23142856Y-17527066D01*
X23142856Y-17527066D02*
X23028571Y-17969923D01*
X23028571Y-17969923D02*
X22885714Y-17349923D01*
X22657142Y-17645161D02*
X22457142Y-17645161D01*
X22371428Y-17969923D02*
X22657142Y-17969923D01*
X22657142Y-17969923D02*
X22657142Y-17349923D01*
X22657142Y-17349923D02*
X22371428Y-17349923D01*
X22114285Y-17969923D02*
X22114285Y-17349923D01*
X22114285Y-17349923D02*
X21771428Y-17969923D01*
X21771428Y-17969923D02*
X21771428Y-17349923D01*
X23914284Y-18731933D02*
X23457142Y-18731933D01*
X22857142Y-18377647D02*
X22914285Y-18348123D01*
X22914285Y-18348123D02*
X22999999Y-18348123D01*
X22999999Y-18348123D02*
X23085713Y-18377647D01*
X23085713Y-18377647D02*
X23142856Y-18436695D01*
X23142856Y-18436695D02*
X23171427Y-18495742D01*
X23171427Y-18495742D02*
X23199999Y-18613838D01*
X23199999Y-18613838D02*
X23199999Y-18702409D01*
X23199999Y-18702409D02*
X23171427Y-18820504D01*
X23171427Y-18820504D02*
X23142856Y-18879552D01*
X23142856Y-18879552D02*
X23085713Y-18938600D01*
X23085713Y-18938600D02*
X22999999Y-18968123D01*
X22999999Y-18968123D02*
X22942856Y-18968123D01*
X22942856Y-18968123D02*
X22857142Y-18938600D01*
X22857142Y-18938600D02*
X22828570Y-18909076D01*
X22828570Y-18909076D02*
X22828570Y-18702409D01*
X22828570Y-18702409D02*
X22942856Y-18702409D01*
X22571427Y-18968123D02*
X22571427Y-18348123D01*
X22571427Y-18348123D02*
X22228570Y-18968123D01*
X22228570Y-18968123D02*
X22228570Y-18348123D01*
X21942856Y-18968123D02*
X21942856Y-18348123D01*
X21942856Y-18348123D02*
X21799999Y-18348123D01*
X21799999Y-18348123D02*
X21714285Y-18377647D01*
X21714285Y-18377647D02*
X21657142Y-18436695D01*
X21657142Y-18436695D02*
X21628571Y-18495742D01*
X21628571Y-18495742D02*
X21599999Y-18613838D01*
X21599999Y-18613838D02*
X21599999Y-18702409D01*
X21599999Y-18702409D02*
X21628571Y-18820504D01*
X21628571Y-18820504D02*
X21657142Y-18879552D01*
X21657142Y-18879552D02*
X21714285Y-18938600D01*
X21714285Y-18938600D02*
X21799999Y-18968123D01*
X21799999Y-18968123D02*
X21942856Y-18968123D01*
X21342856Y-18731933D02*
X20885714Y-18731933D01*
X23128571Y-19936800D02*
X23042857Y-19966323D01*
X23042857Y-19966323D02*
X22899999Y-19966323D01*
X22899999Y-19966323D02*
X22842857Y-19936800D01*
X22842857Y-19936800D02*
X22814285Y-19907276D01*
X22814285Y-19907276D02*
X22785714Y-19848228D01*
X22785714Y-19848228D02*
X22785714Y-19789180D01*
X22785714Y-19789180D02*
X22814285Y-19730133D01*
X22814285Y-19730133D02*
X22842857Y-19700609D01*
X22842857Y-19700609D02*
X22899999Y-19671085D01*
X22899999Y-19671085D02*
X23014285Y-19641561D01*
X23014285Y-19641561D02*
X23071428Y-19612038D01*
X23071428Y-19612038D02*
X23099999Y-19582514D01*
X23099999Y-19582514D02*
X23128571Y-19523466D01*
X23128571Y-19523466D02*
X23128571Y-19464419D01*
X23128571Y-19464419D02*
X23099999Y-19405371D01*
X23099999Y-19405371D02*
X23071428Y-19375847D01*
X23071428Y-19375847D02*
X23014285Y-19346323D01*
X23014285Y-19346323D02*
X22871428Y-19346323D01*
X22871428Y-19346323D02*
X22785714Y-19375847D01*
X22528570Y-19966323D02*
X22528570Y-19346323D01*
X22528570Y-19346323D02*
X22385713Y-19346323D01*
X22385713Y-19346323D02*
X22299999Y-19375847D01*
X22299999Y-19375847D02*
X22242856Y-19434895D01*
X22242856Y-19434895D02*
X22214285Y-19493942D01*
X22214285Y-19493942D02*
X22185713Y-19612038D01*
X22185713Y-19612038D02*
X22185713Y-19700609D01*
X22185713Y-19700609D02*
X22214285Y-19818704D01*
X22214285Y-19818704D02*
X22242856Y-19877752D01*
X22242856Y-19877752D02*
X22299999Y-19936800D01*
X22299999Y-19936800D02*
X22385713Y-19966323D01*
X22385713Y-19966323D02*
X22528570Y-19966323D01*
X21957142Y-19789180D02*
X21671428Y-19789180D01*
X22014285Y-19966323D02*
X21814285Y-19346323D01*
X21814285Y-19346323D02*
X21614285Y-19966323D01*
D13*
X19524999Y-21913483D02*
X19524999Y-21213483D01*
X19058333Y-21213483D02*
X18924999Y-21213483D01*
X18924999Y-21213483D02*
X18858333Y-21246816D01*
X18858333Y-21246816D02*
X18791666Y-21313483D01*
X18791666Y-21313483D02*
X18758333Y-21446816D01*
X18758333Y-21446816D02*
X18758333Y-21680150D01*
X18758333Y-21680150D02*
X18791666Y-21813483D01*
X18791666Y-21813483D02*
X18858333Y-21880150D01*
X18858333Y-21880150D02*
X18924999Y-21913483D01*
X18924999Y-21913483D02*
X19058333Y-21913483D01*
X19058333Y-21913483D02*
X19124999Y-21880150D01*
X19124999Y-21880150D02*
X19191666Y-21813483D01*
X19191666Y-21813483D02*
X19224999Y-21680150D01*
X19224999Y-21680150D02*
X19224999Y-21446816D01*
X19224999Y-21446816D02*
X19191666Y-21313483D01*
X19191666Y-21313483D02*
X19124999Y-21246816D01*
X19124999Y-21246816D02*
X19058333Y-21213483D01*
X18091666Y-21913483D02*
X18491666Y-21913483D01*
X18291666Y-21913483D02*
X18291666Y-21213483D01*
X18291666Y-21213483D02*
X18358333Y-21313483D01*
X18358333Y-21313483D02*
X18425000Y-21380150D01*
X18425000Y-21380150D02*
X18491666Y-21413483D01*
X20803332Y-703566D02*
X20869999Y-670233D01*
X20869999Y-670233D02*
X20969999Y-670233D01*
X20969999Y-670233D02*
X21069999Y-703566D01*
X21069999Y-703566D02*
X21136666Y-770233D01*
X21136666Y-770233D02*
X21169999Y-836900D01*
X21169999Y-836900D02*
X21203332Y-970233D01*
X21203332Y-970233D02*
X21203332Y-1070233D01*
X21203332Y-1070233D02*
X21169999Y-1203566D01*
X21169999Y-1203566D02*
X21136666Y-1270233D01*
X21136666Y-1270233D02*
X21069999Y-1336900D01*
X21069999Y-1336900D02*
X20969999Y-1370233D01*
X20969999Y-1370233D02*
X20903332Y-1370233D01*
X20903332Y-1370233D02*
X20803332Y-1336900D01*
X20803332Y-1336900D02*
X20769999Y-1303566D01*
X20769999Y-1303566D02*
X20769999Y-1070233D01*
X20769999Y-1070233D02*
X20903332Y-1070233D01*
X20469999Y-1370233D02*
X20469999Y-670233D01*
X20469999Y-670233D02*
X20069999Y-1370233D01*
X20069999Y-1370233D02*
X20069999Y-670233D01*
X19736666Y-1370233D02*
X19736666Y-670233D01*
X19736666Y-670233D02*
X19569999Y-670233D01*
X19569999Y-670233D02*
X19469999Y-703566D01*
X19469999Y-703566D02*
X19403333Y-770233D01*
X19403333Y-770233D02*
X19369999Y-836900D01*
X19369999Y-836900D02*
X19336666Y-970233D01*
X19336666Y-970233D02*
X19336666Y-1070233D01*
X19336666Y-1070233D02*
X19369999Y-1203566D01*
X19369999Y-1203566D02*
X19403333Y-1270233D01*
X19403333Y-1270233D02*
X19469999Y-1336900D01*
X19469999Y-1336900D02*
X19569999Y-1370233D01*
X19569999Y-1370233D02*
X19736666Y-1370233D01*
X12124999Y-21880150D02*
X12024999Y-21913483D01*
X12024999Y-21913483D02*
X11858333Y-21913483D01*
X11858333Y-21913483D02*
X11791666Y-21880150D01*
X11791666Y-21880150D02*
X11758333Y-21846816D01*
X11758333Y-21846816D02*
X11724999Y-21780150D01*
X11724999Y-21780150D02*
X11724999Y-21713483D01*
X11724999Y-21713483D02*
X11758333Y-21646816D01*
X11758333Y-21646816D02*
X11791666Y-21613483D01*
X11791666Y-21613483D02*
X11858333Y-21580150D01*
X11858333Y-21580150D02*
X11991666Y-21546816D01*
X11991666Y-21546816D02*
X12058333Y-21513483D01*
X12058333Y-21513483D02*
X12091666Y-21480150D01*
X12091666Y-21480150D02*
X12124999Y-21413483D01*
X12124999Y-21413483D02*
X12124999Y-21346816D01*
X12124999Y-21346816D02*
X12091666Y-21280150D01*
X12091666Y-21280150D02*
X12058333Y-21246816D01*
X12058333Y-21246816D02*
X11991666Y-21213483D01*
X11991666Y-21213483D02*
X11824999Y-21213483D01*
X11824999Y-21213483D02*
X11724999Y-21246816D01*
X11424999Y-21913483D02*
X11424999Y-21213483D01*
X11424999Y-21213483D02*
X11258332Y-21213483D01*
X11258332Y-21213483D02*
X11158332Y-21246816D01*
X11158332Y-21246816D02*
X11091666Y-21313483D01*
X11091666Y-21313483D02*
X11058332Y-21380150D01*
X11058332Y-21380150D02*
X11024999Y-21513483D01*
X11024999Y-21513483D02*
X11024999Y-21613483D01*
X11024999Y-21613483D02*
X11058332Y-21746816D01*
X11058332Y-21746816D02*
X11091666Y-21813483D01*
X11091666Y-21813483D02*
X11158332Y-21880150D01*
X11158332Y-21880150D02*
X11258332Y-21913483D01*
X11258332Y-21913483D02*
X11424999Y-21913483D01*
X10758332Y-21713483D02*
X10424999Y-21713483D01*
X10824999Y-21913483D02*
X10591666Y-21213483D01*
X10591666Y-21213483D02*
X10358332Y-21913483D01*
D14*
X9016666Y-15477219D02*
X9016666Y-14477219D01*
X9016666Y-14953409D02*
X8445238Y-14953409D01*
X8445238Y-15477219D02*
X8445238Y-14477219D01*
X7778571Y-14477219D02*
X7588095Y-14477219D01*
X7588095Y-14477219D02*
X7492857Y-14524838D01*
X7492857Y-14524838D02*
X7397619Y-14620076D01*
X7397619Y-14620076D02*
X7350000Y-14810552D01*
X7350000Y-14810552D02*
X7350000Y-15143885D01*
X7350000Y-15143885D02*
X7397619Y-15334361D01*
X7397619Y-15334361D02*
X7492857Y-15429600D01*
X7492857Y-15429600D02*
X7588095Y-15477219D01*
X7588095Y-15477219D02*
X7778571Y-15477219D01*
X7778571Y-15477219D02*
X7873809Y-15429600D01*
X7873809Y-15429600D02*
X7969047Y-15334361D01*
X7969047Y-15334361D02*
X8016666Y-15143885D01*
X8016666Y-15143885D02*
X8016666Y-14810552D01*
X8016666Y-14810552D02*
X7969047Y-14620076D01*
X7969047Y-14620076D02*
X7873809Y-14524838D01*
X7873809Y-14524838D02*
X7778571Y-14477219D01*
X6969047Y-15429600D02*
X6826190Y-15477219D01*
X6826190Y-15477219D02*
X6588095Y-15477219D01*
X6588095Y-15477219D02*
X6492857Y-15429600D01*
X6492857Y-15429600D02*
X6445238Y-15381980D01*
X6445238Y-15381980D02*
X6397619Y-15286742D01*
X6397619Y-15286742D02*
X6397619Y-15191504D01*
X6397619Y-15191504D02*
X6445238Y-15096266D01*
X6445238Y-15096266D02*
X6492857Y-15048647D01*
X6492857Y-15048647D02*
X6588095Y-15001028D01*
X6588095Y-15001028D02*
X6778571Y-14953409D01*
X6778571Y-14953409D02*
X6873809Y-14905790D01*
X6873809Y-14905790D02*
X6921428Y-14858171D01*
X6921428Y-14858171D02*
X6969047Y-14762933D01*
X6969047Y-14762933D02*
X6969047Y-14667695D01*
X6969047Y-14667695D02*
X6921428Y-14572457D01*
X6921428Y-14572457D02*
X6873809Y-14524838D01*
X6873809Y-14524838D02*
X6778571Y-14477219D01*
X6778571Y-14477219D02*
X6540476Y-14477219D01*
X6540476Y-14477219D02*
X6397619Y-14524838D01*
X6111904Y-14477219D02*
X5540476Y-14477219D01*
X5826190Y-15477219D02*
X5826190Y-14477219D01*
D13*
X14608333Y-21880150D02*
X14508333Y-21913483D01*
X14508333Y-21913483D02*
X14341667Y-21913483D01*
X14341667Y-21913483D02*
X14275000Y-21880150D01*
X14275000Y-21880150D02*
X14241667Y-21846816D01*
X14241667Y-21846816D02*
X14208333Y-21780150D01*
X14208333Y-21780150D02*
X14208333Y-21713483D01*
X14208333Y-21713483D02*
X14241667Y-21646816D01*
X14241667Y-21646816D02*
X14275000Y-21613483D01*
X14275000Y-21613483D02*
X14341667Y-21580150D01*
X14341667Y-21580150D02*
X14475000Y-21546816D01*
X14475000Y-21546816D02*
X14541667Y-21513483D01*
X14541667Y-21513483D02*
X14575000Y-21480150D01*
X14575000Y-21480150D02*
X14608333Y-21413483D01*
X14608333Y-21413483D02*
X14608333Y-21346816D01*
X14608333Y-21346816D02*
X14575000Y-21280150D01*
X14575000Y-21280150D02*
X14541667Y-21246816D01*
X14541667Y-21246816D02*
X14475000Y-21213483D01*
X14475000Y-21213483D02*
X14308333Y-21213483D01*
X14308333Y-21213483D02*
X14208333Y-21246816D01*
X13508333Y-21846816D02*
X13541666Y-21880150D01*
X13541666Y-21880150D02*
X13641666Y-21913483D01*
X13641666Y-21913483D02*
X13708333Y-21913483D01*
X13708333Y-21913483D02*
X13808333Y-21880150D01*
X13808333Y-21880150D02*
X13875000Y-21813483D01*
X13875000Y-21813483D02*
X13908333Y-21746816D01*
X13908333Y-21746816D02*
X13941666Y-21613483D01*
X13941666Y-21613483D02*
X13941666Y-21513483D01*
X13941666Y-21513483D02*
X13908333Y-21380150D01*
X13908333Y-21380150D02*
X13875000Y-21313483D01*
X13875000Y-21313483D02*
X13808333Y-21246816D01*
X13808333Y-21246816D02*
X13708333Y-21213483D01*
X13708333Y-21213483D02*
X13641666Y-21213483D01*
X13641666Y-21213483D02*
X13541666Y-21246816D01*
X13541666Y-21246816D02*
X13508333Y-21280150D01*
X12875000Y-21913483D02*
X13208333Y-21913483D01*
X13208333Y-21913483D02*
X13208333Y-21213483D01*
D12*
X14398809Y-1356050D02*
X14305952Y-1387002D01*
X14305952Y-1387002D02*
X14151190Y-1387002D01*
X14151190Y-1387002D02*
X14089285Y-1356050D01*
X14089285Y-1356050D02*
X14058333Y-1325097D01*
X14058333Y-1325097D02*
X14027380Y-1263192D01*
X14027380Y-1263192D02*
X14027380Y-1201288D01*
X14027380Y-1201288D02*
X14058333Y-1139383D01*
X14058333Y-1139383D02*
X14089285Y-1108430D01*
X14089285Y-1108430D02*
X14151190Y-1077478D01*
X14151190Y-1077478D02*
X14274999Y-1046526D01*
X14274999Y-1046526D02*
X14336904Y-1015573D01*
X14336904Y-1015573D02*
X14367857Y-984621D01*
X14367857Y-984621D02*
X14398809Y-922716D01*
X14398809Y-922716D02*
X14398809Y-860811D01*
X14398809Y-860811D02*
X14367857Y-798907D01*
X14367857Y-798907D02*
X14336904Y-767954D01*
X14336904Y-767954D02*
X14274999Y-737002D01*
X14274999Y-737002D02*
X14120238Y-737002D01*
X14120238Y-737002D02*
X14027380Y-767954D01*
X13377380Y-1325097D02*
X13408332Y-1356050D01*
X13408332Y-1356050D02*
X13501190Y-1387002D01*
X13501190Y-1387002D02*
X13563094Y-1387002D01*
X13563094Y-1387002D02*
X13655951Y-1356050D01*
X13655951Y-1356050D02*
X13717856Y-1294145D01*
X13717856Y-1294145D02*
X13748809Y-1232240D01*
X13748809Y-1232240D02*
X13779761Y-1108430D01*
X13779761Y-1108430D02*
X13779761Y-1015573D01*
X13779761Y-1015573D02*
X13748809Y-891764D01*
X13748809Y-891764D02*
X13717856Y-829859D01*
X13717856Y-829859D02*
X13655951Y-767954D01*
X13655951Y-767954D02*
X13563094Y-737002D01*
X13563094Y-737002D02*
X13501190Y-737002D01*
X13501190Y-737002D02*
X13408332Y-767954D01*
X13408332Y-767954D02*
X13377380Y-798907D01*
X12789285Y-1387002D02*
X13098809Y-1387002D01*
X13098809Y-1387002D02*
X13098809Y-737002D01*
D13*
X22791666Y-21913483D02*
X22791666Y-21213483D01*
X22791666Y-21213483D02*
X22524999Y-21213483D01*
X22524999Y-21213483D02*
X22458333Y-21246816D01*
X22458333Y-21246816D02*
X22424999Y-21280150D01*
X22424999Y-21280150D02*
X22391666Y-21346816D01*
X22391666Y-21346816D02*
X22391666Y-21446816D01*
X22391666Y-21446816D02*
X22424999Y-21513483D01*
X22424999Y-21513483D02*
X22458333Y-21546816D01*
X22458333Y-21546816D02*
X22524999Y-21580150D01*
X22524999Y-21580150D02*
X22791666Y-21580150D01*
X22158333Y-21213483D02*
X21991666Y-21913483D01*
X21991666Y-21913483D02*
X21858333Y-21413483D01*
X21858333Y-21413483D02*
X21724999Y-21913483D01*
X21724999Y-21913483D02*
X21558333Y-21213483D01*
X21291666Y-21546816D02*
X21058333Y-21546816D01*
X20958333Y-21913483D02*
X21291666Y-21913483D01*
X21291666Y-21913483D02*
X21291666Y-21213483D01*
X21291666Y-21213483D02*
X20958333Y-21213483D01*
X20658333Y-21913483D02*
X20658333Y-21213483D01*
X20658333Y-21213483D02*
X20258333Y-21913483D01*
X20258333Y-21913483D02*
X20258333Y-21213483D01*
X7633333Y-1380233D02*
X8033333Y-1380233D01*
X7833333Y-1380233D02*
X7833333Y-680233D01*
X7833333Y-680233D02*
X7900000Y-780233D01*
X7900000Y-780233D02*
X7966667Y-846900D01*
X7966667Y-846900D02*
X8033333Y-880233D01*
X7433333Y-680233D02*
X7200000Y-1380233D01*
X7200000Y-1380233D02*
X6966666Y-680233D01*
X6633333Y-980233D02*
X6700000Y-946900D01*
X6700000Y-946900D02*
X6733333Y-913566D01*
X6733333Y-913566D02*
X6766666Y-846900D01*
X6766666Y-846900D02*
X6766666Y-813566D01*
X6766666Y-813566D02*
X6733333Y-746900D01*
X6733333Y-746900D02*
X6700000Y-713566D01*
X6700000Y-713566D02*
X6633333Y-680233D01*
X6633333Y-680233D02*
X6500000Y-680233D01*
X6500000Y-680233D02*
X6433333Y-713566D01*
X6433333Y-713566D02*
X6400000Y-746900D01*
X6400000Y-746900D02*
X6366666Y-813566D01*
X6366666Y-813566D02*
X6366666Y-846900D01*
X6366666Y-846900D02*
X6400000Y-913566D01*
X6400000Y-913566D02*
X6433333Y-946900D01*
X6433333Y-946900D02*
X6500000Y-980233D01*
X6500000Y-980233D02*
X6633333Y-980233D01*
X6633333Y-980233D02*
X6700000Y-1013566D01*
X6700000Y-1013566D02*
X6733333Y-1046900D01*
X6733333Y-1046900D02*
X6766666Y-1113566D01*
X6766666Y-1113566D02*
X6766666Y-1246900D01*
X6766666Y-1246900D02*
X6733333Y-1313566D01*
X6733333Y-1313566D02*
X6700000Y-1346900D01*
X6700000Y-1346900D02*
X6633333Y-1380233D01*
X6633333Y-1380233D02*
X6500000Y-1380233D01*
X6500000Y-1380233D02*
X6433333Y-1346900D01*
X6433333Y-1346900D02*
X6400000Y-1313566D01*
X6400000Y-1313566D02*
X6366666Y-1246900D01*
X6366666Y-1246900D02*
X6366666Y-1113566D01*
X6366666Y-1113566D02*
X6400000Y-1046900D01*
X6400000Y-1046900D02*
X6433333Y-1013566D01*
X6433333Y-1013566D02*
X6500000Y-980233D01*
D11*
X6716666Y-19882700D02*
X6683333Y-19849366D01*
X6683333Y-19849366D02*
X6616666Y-19816033D01*
X6616666Y-19816033D02*
X6450000Y-19816033D01*
X6450000Y-19816033D02*
X6383333Y-19849366D01*
X6383333Y-19849366D02*
X6350000Y-19882700D01*
X6350000Y-19882700D02*
X6316666Y-19949366D01*
X6316666Y-19949366D02*
X6316666Y-20016033D01*
X6316666Y-20016033D02*
X6350000Y-20116033D01*
X6350000Y-20116033D02*
X6750000Y-20516033D01*
X6750000Y-20516033D02*
X6316666Y-20516033D01*
X6049999Y-19882700D02*
X6016666Y-19849366D01*
X6016666Y-19849366D02*
X5949999Y-19816033D01*
X5949999Y-19816033D02*
X5783333Y-19816033D01*
X5783333Y-19816033D02*
X5716666Y-19849366D01*
X5716666Y-19849366D02*
X5683333Y-19882700D01*
X5683333Y-19882700D02*
X5649999Y-19949366D01*
X5649999Y-19949366D02*
X5649999Y-20016033D01*
X5649999Y-20016033D02*
X5683333Y-20116033D01*
X5683333Y-20116033D02*
X6083333Y-20516033D01*
X6083333Y-20516033D02*
X5649999Y-20516033D01*
X5349999Y-20249366D02*
X4816666Y-20249366D01*
D13*
X9708333Y-21213483D02*
X9475000Y-21913483D01*
X9475000Y-21913483D02*
X9241666Y-21213483D01*
X9008333Y-21913483D02*
X9008333Y-21213483D01*
X9008333Y-21213483D02*
X8841666Y-21213483D01*
X8841666Y-21213483D02*
X8741666Y-21246816D01*
X8741666Y-21246816D02*
X8675000Y-21313483D01*
X8675000Y-21313483D02*
X8641666Y-21380150D01*
X8641666Y-21380150D02*
X8608333Y-21513483D01*
X8608333Y-21513483D02*
X8608333Y-21613483D01*
X8608333Y-21613483D02*
X8641666Y-21746816D01*
X8641666Y-21746816D02*
X8675000Y-21813483D01*
X8675000Y-21813483D02*
X8741666Y-21880150D01*
X8741666Y-21880150D02*
X8841666Y-21913483D01*
X8841666Y-21913483D02*
X9008333Y-21913483D01*
X8308333Y-21913483D02*
X8308333Y-21213483D01*
X8308333Y-21213483D02*
X8141666Y-21213483D01*
X8141666Y-21213483D02*
X8041666Y-21246816D01*
X8041666Y-21246816D02*
X7975000Y-21313483D01*
X7975000Y-21313483D02*
X7941666Y-21380150D01*
X7941666Y-21380150D02*
X7908333Y-21513483D01*
X7908333Y-21513483D02*
X7908333Y-21613483D01*
X7908333Y-21613483D02*
X7941666Y-21746816D01*
X7941666Y-21746816D02*
X7975000Y-21813483D01*
X7975000Y-21813483D02*
X8041666Y-21880150D01*
X8041666Y-21880150D02*
X8141666Y-21913483D01*
X8141666Y-21913483D02*
X8308333Y-21913483D01*
X23006664Y-25628233D02*
X23006664Y-24928233D01*
X22939997Y-25361566D02*
X22739997Y-25628233D01*
X22739997Y-25161566D02*
X23006664Y-25428233D01*
X22439997Y-25628233D02*
X22439997Y-25161566D01*
X22439997Y-24928233D02*
X22473330Y-24961566D01*
X22473330Y-24961566D02*
X22439997Y-24994900D01*
X22439997Y-24994900D02*
X22406664Y-24961566D01*
X22406664Y-24961566D02*
X22439997Y-24928233D01*
X22439997Y-24928233D02*
X22439997Y-24994900D01*
X22106664Y-25161566D02*
X22106664Y-25628233D01*
X22106664Y-25228233D02*
X22073331Y-25194900D01*
X22073331Y-25194900D02*
X22006664Y-25161566D01*
X22006664Y-25161566D02*
X21906664Y-25161566D01*
X21906664Y-25161566D02*
X21839997Y-25194900D01*
X21839997Y-25194900D02*
X21806664Y-25261566D01*
X21806664Y-25261566D02*
X21806664Y-25628233D01*
X21173331Y-25628233D02*
X21173331Y-24928233D01*
X21173331Y-25594900D02*
X21239998Y-25628233D01*
X21239998Y-25628233D02*
X21373331Y-25628233D01*
X21373331Y-25628233D02*
X21439998Y-25594900D01*
X21439998Y-25594900D02*
X21473331Y-25561566D01*
X21473331Y-25561566D02*
X21506664Y-25494900D01*
X21506664Y-25494900D02*
X21506664Y-25294900D01*
X21506664Y-25294900D02*
X21473331Y-25228233D01*
X21473331Y-25228233D02*
X21439998Y-25194900D01*
X21439998Y-25194900D02*
X21373331Y-25161566D01*
X21373331Y-25161566D02*
X21239998Y-25161566D01*
X21239998Y-25161566D02*
X21173331Y-25194900D01*
X20739998Y-25628233D02*
X20806665Y-25594900D01*
X20806665Y-25594900D02*
X20839998Y-25528233D01*
X20839998Y-25528233D02*
X20839998Y-24928233D01*
X20539998Y-25161566D02*
X20373331Y-25628233D01*
X20206664Y-25161566D02*
X20373331Y-25628233D01*
X20373331Y-25628233D02*
X20439998Y-25794900D01*
X20439998Y-25794900D02*
X20473331Y-25828233D01*
X20473331Y-25828233D02*
X20539998Y-25861566D01*
X19439998Y-25594900D02*
X19373332Y-25628233D01*
X19373332Y-25628233D02*
X19239998Y-25628233D01*
X19239998Y-25628233D02*
X19173332Y-25594900D01*
X19173332Y-25594900D02*
X19139998Y-25528233D01*
X19139998Y-25528233D02*
X19139998Y-25494900D01*
X19139998Y-25494900D02*
X19173332Y-25428233D01*
X19173332Y-25428233D02*
X19239998Y-25394900D01*
X19239998Y-25394900D02*
X19339998Y-25394900D01*
X19339998Y-25394900D02*
X19406665Y-25361566D01*
X19406665Y-25361566D02*
X19439998Y-25294900D01*
X19439998Y-25294900D02*
X19439998Y-25261566D01*
X19439998Y-25261566D02*
X19406665Y-25194900D01*
X19406665Y-25194900D02*
X19339998Y-25161566D01*
X19339998Y-25161566D02*
X19239998Y-25161566D01*
X19239998Y-25161566D02*
X19173332Y-25194900D01*
X18539998Y-25161566D02*
X18539998Y-25628233D01*
X18839998Y-25161566D02*
X18839998Y-25528233D01*
X18839998Y-25528233D02*
X18806665Y-25594900D01*
X18806665Y-25594900D02*
X18739998Y-25628233D01*
X18739998Y-25628233D02*
X18639998Y-25628233D01*
X18639998Y-25628233D02*
X18573331Y-25594900D01*
X18573331Y-25594900D02*
X18539998Y-25561566D01*
X18206665Y-25161566D02*
X18206665Y-25861566D01*
X18206665Y-25194900D02*
X18139998Y-25161566D01*
X18139998Y-25161566D02*
X18006665Y-25161566D01*
X18006665Y-25161566D02*
X17939998Y-25194900D01*
X17939998Y-25194900D02*
X17906665Y-25228233D01*
X17906665Y-25228233D02*
X17873332Y-25294900D01*
X17873332Y-25294900D02*
X17873332Y-25494900D01*
X17873332Y-25494900D02*
X17906665Y-25561566D01*
X17906665Y-25561566D02*
X17939998Y-25594900D01*
X17939998Y-25594900D02*
X18006665Y-25628233D01*
X18006665Y-25628233D02*
X18139998Y-25628233D01*
X18139998Y-25628233D02*
X18206665Y-25594900D01*
X17573332Y-25161566D02*
X17573332Y-25861566D01*
X17573332Y-25194900D02*
X17506665Y-25161566D01*
X17506665Y-25161566D02*
X17373332Y-25161566D01*
X17373332Y-25161566D02*
X17306665Y-25194900D01*
X17306665Y-25194900D02*
X17273332Y-25228233D01*
X17273332Y-25228233D02*
X17239999Y-25294900D01*
X17239999Y-25294900D02*
X17239999Y-25494900D01*
X17239999Y-25494900D02*
X17273332Y-25561566D01*
X17273332Y-25561566D02*
X17306665Y-25594900D01*
X17306665Y-25594900D02*
X17373332Y-25628233D01*
X17373332Y-25628233D02*
X17506665Y-25628233D01*
X17506665Y-25628233D02*
X17573332Y-25594900D01*
X16839999Y-25628233D02*
X16906666Y-25594900D01*
X16906666Y-25594900D02*
X16939999Y-25561566D01*
X16939999Y-25561566D02*
X16973332Y-25494900D01*
X16973332Y-25494900D02*
X16973332Y-25294900D01*
X16973332Y-25294900D02*
X16939999Y-25228233D01*
X16939999Y-25228233D02*
X16906666Y-25194900D01*
X16906666Y-25194900D02*
X16839999Y-25161566D01*
X16839999Y-25161566D02*
X16739999Y-25161566D01*
X16739999Y-25161566D02*
X16673332Y-25194900D01*
X16673332Y-25194900D02*
X16639999Y-25228233D01*
X16639999Y-25228233D02*
X16606666Y-25294900D01*
X16606666Y-25294900D02*
X16606666Y-25494900D01*
X16606666Y-25494900D02*
X16639999Y-25561566D01*
X16639999Y-25561566D02*
X16673332Y-25594900D01*
X16673332Y-25594900D02*
X16739999Y-25628233D01*
X16739999Y-25628233D02*
X16839999Y-25628233D01*
X16306666Y-25628233D02*
X16306666Y-25161566D01*
X16306666Y-25294900D02*
X16273333Y-25228233D01*
X16273333Y-25228233D02*
X16239999Y-25194900D01*
X16239999Y-25194900D02*
X16173333Y-25161566D01*
X16173333Y-25161566D02*
X16106666Y-25161566D01*
X15973333Y-25161566D02*
X15706666Y-25161566D01*
X15873333Y-24928233D02*
X15873333Y-25528233D01*
X15873333Y-25528233D02*
X15840000Y-25594900D01*
X15840000Y-25594900D02*
X15773333Y-25628233D01*
X15773333Y-25628233D02*
X15706666Y-25628233D01*
X15206666Y-25594900D02*
X15273333Y-25628233D01*
X15273333Y-25628233D02*
X15406666Y-25628233D01*
X15406666Y-25628233D02*
X15473333Y-25594900D01*
X15473333Y-25594900D02*
X15506666Y-25528233D01*
X15506666Y-25528233D02*
X15506666Y-25261566D01*
X15506666Y-25261566D02*
X15473333Y-25194900D01*
X15473333Y-25194900D02*
X15406666Y-25161566D01*
X15406666Y-25161566D02*
X15273333Y-25161566D01*
X15273333Y-25161566D02*
X15206666Y-25194900D01*
X15206666Y-25194900D02*
X15173333Y-25261566D01*
X15173333Y-25261566D02*
X15173333Y-25328233D01*
X15173333Y-25328233D02*
X15506666Y-25394900D01*
X14573333Y-25628233D02*
X14573333Y-24928233D01*
X14573333Y-25594900D02*
X14640000Y-25628233D01*
X14640000Y-25628233D02*
X14773333Y-25628233D01*
X14773333Y-25628233D02*
X14840000Y-25594900D01*
X14840000Y-25594900D02*
X14873333Y-25561566D01*
X14873333Y-25561566D02*
X14906666Y-25494900D01*
X14906666Y-25494900D02*
X14906666Y-25294900D01*
X14906666Y-25294900D02*
X14873333Y-25228233D01*
X14873333Y-25228233D02*
X14840000Y-25194900D01*
X14840000Y-25194900D02*
X14773333Y-25161566D01*
X14773333Y-25161566D02*
X14640000Y-25161566D01*
X14640000Y-25161566D02*
X14573333Y-25194900D01*
X13706667Y-25628233D02*
X13706667Y-24928233D01*
X13706667Y-25194900D02*
X13640000Y-25161566D01*
X13640000Y-25161566D02*
X13506667Y-25161566D01*
X13506667Y-25161566D02*
X13440000Y-25194900D01*
X13440000Y-25194900D02*
X13406667Y-25228233D01*
X13406667Y-25228233D02*
X13373334Y-25294900D01*
X13373334Y-25294900D02*
X13373334Y-25494900D01*
X13373334Y-25494900D02*
X13406667Y-25561566D01*
X13406667Y-25561566D02*
X13440000Y-25594900D01*
X13440000Y-25594900D02*
X13506667Y-25628233D01*
X13506667Y-25628233D02*
X13640000Y-25628233D01*
X13640000Y-25628233D02*
X13706667Y-25594900D01*
X13140001Y-25161566D02*
X12973334Y-25628233D01*
X12806667Y-25161566D02*
X12973334Y-25628233D01*
X12973334Y-25628233D02*
X13040001Y-25794900D01*
X13040001Y-25794900D02*
X13073334Y-25828233D01*
X13073334Y-25828233D02*
X13140001Y-25861566D01*
X19206666Y-26555233D02*
X18873333Y-26555233D01*
X19273333Y-26755233D02*
X19040000Y-26055233D01*
X19040000Y-26055233D02*
X18806666Y-26755233D01*
X18573333Y-26755233D02*
X18573333Y-26055233D01*
X18273333Y-26721900D02*
X18173333Y-26755233D01*
X18173333Y-26755233D02*
X18006667Y-26755233D01*
X18006667Y-26755233D02*
X17940000Y-26721900D01*
X17940000Y-26721900D02*
X17906667Y-26688566D01*
X17906667Y-26688566D02*
X17873333Y-26621900D01*
X17873333Y-26621900D02*
X17873333Y-26555233D01*
X17873333Y-26555233D02*
X17906667Y-26488566D01*
X17906667Y-26488566D02*
X17940000Y-26455233D01*
X17940000Y-26455233D02*
X18006667Y-26421900D01*
X18006667Y-26421900D02*
X18140000Y-26388566D01*
X18140000Y-26388566D02*
X18206667Y-26355233D01*
X18206667Y-26355233D02*
X18240000Y-26321900D01*
X18240000Y-26321900D02*
X18273333Y-26255233D01*
X18273333Y-26255233D02*
X18273333Y-26188566D01*
X18273333Y-26188566D02*
X18240000Y-26121900D01*
X18240000Y-26121900D02*
X18206667Y-26088566D01*
X18206667Y-26088566D02*
X18140000Y-26055233D01*
X18140000Y-26055233D02*
X17973333Y-26055233D01*
X17973333Y-26055233D02*
X17873333Y-26088566D01*
X17240000Y-26755233D02*
X17573333Y-26755233D01*
X17573333Y-26755233D02*
X17573333Y-26055233D01*
X17006666Y-26388566D02*
X16773333Y-26388566D01*
X16673333Y-26755233D02*
X17006666Y-26755233D01*
X17006666Y-26755233D02*
X17006666Y-26055233D01*
X17006666Y-26055233D02*
X16673333Y-26055233D01*
X15973333Y-26755233D02*
X16206666Y-26421900D01*
X16373333Y-26755233D02*
X16373333Y-26055233D01*
X16373333Y-26055233D02*
X16106666Y-26055233D01*
X16106666Y-26055233D02*
X16040000Y-26088566D01*
X16040000Y-26088566D02*
X16006666Y-26121900D01*
X16006666Y-26121900D02*
X15973333Y-26188566D01*
X15973333Y-26188566D02*
X15973333Y-26288566D01*
X15973333Y-26288566D02*
X16006666Y-26355233D01*
X16006666Y-26355233D02*
X16040000Y-26388566D01*
X16040000Y-26388566D02*
X16106666Y-26421900D01*
X16106666Y-26421900D02*
X16373333Y-26421900D01*
X15673333Y-26688566D02*
X15640000Y-26721900D01*
X15640000Y-26721900D02*
X15673333Y-26755233D01*
X15673333Y-26755233D02*
X15706666Y-26721900D01*
X15706666Y-26721900D02*
X15673333Y-26688566D01*
X15673333Y-26688566D02*
X15673333Y-26755233D01*
X15340000Y-26288566D02*
X15340000Y-26755233D01*
X15340000Y-26355233D02*
X15306667Y-26321900D01*
X15306667Y-26321900D02*
X15240000Y-26288566D01*
X15240000Y-26288566D02*
X15140000Y-26288566D01*
X15140000Y-26288566D02*
X15073333Y-26321900D01*
X15073333Y-26321900D02*
X15040000Y-26388566D01*
X15040000Y-26388566D02*
X15040000Y-26755233D01*
X14440000Y-26721900D02*
X14506667Y-26755233D01*
X14506667Y-26755233D02*
X14640000Y-26755233D01*
X14640000Y-26755233D02*
X14706667Y-26721900D01*
X14706667Y-26721900D02*
X14740000Y-26655233D01*
X14740000Y-26655233D02*
X14740000Y-26388566D01*
X14740000Y-26388566D02*
X14706667Y-26321900D01*
X14706667Y-26321900D02*
X14640000Y-26288566D01*
X14640000Y-26288566D02*
X14506667Y-26288566D01*
X14506667Y-26288566D02*
X14440000Y-26321900D01*
X14440000Y-26321900D02*
X14406667Y-26388566D01*
X14406667Y-26388566D02*
X14406667Y-26455233D01*
X14406667Y-26455233D02*
X14740000Y-26521900D01*
X14206667Y-26288566D02*
X13940000Y-26288566D01*
X14106667Y-26055233D02*
X14106667Y-26655233D01*
X14106667Y-26655233D02*
X14073334Y-26721900D01*
X14073334Y-26721900D02*
X14006667Y-26755233D01*
X14006667Y-26755233D02*
X13940000Y-26755233D01*
D11*
X19501666Y-6511033D02*
X19734999Y-6177700D01*
X19901666Y-6511033D02*
X19901666Y-5811033D01*
X19901666Y-5811033D02*
X19634999Y-5811033D01*
X19634999Y-5811033D02*
X19568333Y-5844366D01*
X19568333Y-5844366D02*
X19534999Y-5877700D01*
X19534999Y-5877700D02*
X19501666Y-5944366D01*
X19501666Y-5944366D02*
X19501666Y-6044366D01*
X19501666Y-6044366D02*
X19534999Y-6111033D01*
X19534999Y-6111033D02*
X19568333Y-6144366D01*
X19568333Y-6144366D02*
X19634999Y-6177700D01*
X19634999Y-6177700D02*
X19901666Y-6177700D01*
X19234999Y-5877700D02*
X19201666Y-5844366D01*
X19201666Y-5844366D02*
X19134999Y-5811033D01*
X19134999Y-5811033D02*
X18968333Y-5811033D01*
X18968333Y-5811033D02*
X18901666Y-5844366D01*
X18901666Y-5844366D02*
X18868333Y-5877700D01*
X18868333Y-5877700D02*
X18834999Y-5944366D01*
X18834999Y-5944366D02*
X18834999Y-6011033D01*
X18834999Y-6011033D02*
X18868333Y-6111033D01*
X18868333Y-6111033D02*
X19268333Y-6511033D01*
X19268333Y-6511033D02*
X18834999Y-6511033D01*
X19031666Y-9149366D02*
X19064999Y-9182700D01*
X19064999Y-9182700D02*
X19164999Y-9216033D01*
X19164999Y-9216033D02*
X19231666Y-9216033D01*
X19231666Y-9216033D02*
X19331666Y-9182700D01*
X19331666Y-9182700D02*
X19398333Y-9116033D01*
X19398333Y-9116033D02*
X19431666Y-9049366D01*
X19431666Y-9049366D02*
X19464999Y-8916033D01*
X19464999Y-8916033D02*
X19464999Y-8816033D01*
X19464999Y-8816033D02*
X19431666Y-8682700D01*
X19431666Y-8682700D02*
X19398333Y-8616033D01*
X19398333Y-8616033D02*
X19331666Y-8549366D01*
X19331666Y-8549366D02*
X19231666Y-8516033D01*
X19231666Y-8516033D02*
X19164999Y-8516033D01*
X19164999Y-8516033D02*
X19064999Y-8549366D01*
X19064999Y-8549366D02*
X19031666Y-8582700D01*
X18764999Y-8582700D02*
X18731666Y-8549366D01*
X18731666Y-8549366D02*
X18664999Y-8516033D01*
X18664999Y-8516033D02*
X18498333Y-8516033D01*
X18498333Y-8516033D02*
X18431666Y-8549366D01*
X18431666Y-8549366D02*
X18398333Y-8582700D01*
X18398333Y-8582700D02*
X18364999Y-8649366D01*
X18364999Y-8649366D02*
X18364999Y-8716033D01*
X18364999Y-8716033D02*
X18398333Y-8816033D01*
X18398333Y-8816033D02*
X18798333Y-9216033D01*
X18798333Y-9216033D02*
X18364999Y-9216033D01*
X19786666Y-2294366D02*
X19819999Y-2327700D01*
X19819999Y-2327700D02*
X19919999Y-2361033D01*
X19919999Y-2361033D02*
X19986666Y-2361033D01*
X19986666Y-2361033D02*
X20086666Y-2327700D01*
X20086666Y-2327700D02*
X20153333Y-2261033D01*
X20153333Y-2261033D02*
X20186666Y-2194366D01*
X20186666Y-2194366D02*
X20219999Y-2061033D01*
X20219999Y-2061033D02*
X20219999Y-1961033D01*
X20219999Y-1961033D02*
X20186666Y-1827700D01*
X20186666Y-1827700D02*
X20153333Y-1761033D01*
X20153333Y-1761033D02*
X20086666Y-1694366D01*
X20086666Y-1694366D02*
X19986666Y-1661033D01*
X19986666Y-1661033D02*
X19919999Y-1661033D01*
X19919999Y-1661033D02*
X19819999Y-1694366D01*
X19819999Y-1694366D02*
X19786666Y-1727700D01*
X19553333Y-1661033D02*
X19086666Y-1661033D01*
X19086666Y-1661033D02*
X19386666Y-2361033D01*
X15683333Y-9816033D02*
X15683333Y-9116033D01*
X14950000Y-9749366D02*
X14983333Y-9782700D01*
X14983333Y-9782700D02*
X15083333Y-9816033D01*
X15083333Y-9816033D02*
X15150000Y-9816033D01*
X15150000Y-9816033D02*
X15250000Y-9782700D01*
X15250000Y-9782700D02*
X15316667Y-9716033D01*
X15316667Y-9716033D02*
X15350000Y-9649366D01*
X15350000Y-9649366D02*
X15383333Y-9516033D01*
X15383333Y-9516033D02*
X15383333Y-9416033D01*
X15383333Y-9416033D02*
X15350000Y-9282700D01*
X15350000Y-9282700D02*
X15316667Y-9216033D01*
X15316667Y-9216033D02*
X15250000Y-9149366D01*
X15250000Y-9149366D02*
X15150000Y-9116033D01*
X15150000Y-9116033D02*
X15083333Y-9116033D01*
X15083333Y-9116033D02*
X14983333Y-9149366D01*
X14983333Y-9149366D02*
X14950000Y-9182700D01*
X14283333Y-9816033D02*
X14683333Y-9816033D01*
X14483333Y-9816033D02*
X14483333Y-9116033D01*
X14483333Y-9116033D02*
X14550000Y-9216033D01*
X14550000Y-9216033D02*
X14616667Y-9282700D01*
X14616667Y-9282700D02*
X14683333Y-9316033D01*
X19491666Y-3511033D02*
X19724999Y-3177700D01*
X19891666Y-3511033D02*
X19891666Y-2811033D01*
X19891666Y-2811033D02*
X19624999Y-2811033D01*
X19624999Y-2811033D02*
X19558333Y-2844366D01*
X19558333Y-2844366D02*
X19524999Y-2877700D01*
X19524999Y-2877700D02*
X19491666Y-2944366D01*
X19491666Y-2944366D02*
X19491666Y-3044366D01*
X19491666Y-3044366D02*
X19524999Y-3111033D01*
X19524999Y-3111033D02*
X19558333Y-3144366D01*
X19558333Y-3144366D02*
X19624999Y-3177700D01*
X19624999Y-3177700D02*
X19891666Y-3177700D01*
X18824999Y-3511033D02*
X19224999Y-3511033D01*
X19024999Y-3511033D02*
X19024999Y-2811033D01*
X19024999Y-2811033D02*
X19091666Y-2911033D01*
X19091666Y-2911033D02*
X19158333Y-2977700D01*
X19158333Y-2977700D02*
X19224999Y-3011033D01*
X10511666Y-6511033D02*
X10744999Y-6177700D01*
X10911666Y-6511033D02*
X10911666Y-5811033D01*
X10911666Y-5811033D02*
X10644999Y-5811033D01*
X10644999Y-5811033D02*
X10578333Y-5844366D01*
X10578333Y-5844366D02*
X10544999Y-5877700D01*
X10544999Y-5877700D02*
X10511666Y-5944366D01*
X10511666Y-5944366D02*
X10511666Y-6044366D01*
X10511666Y-6044366D02*
X10544999Y-6111033D01*
X10544999Y-6111033D02*
X10578333Y-6144366D01*
X10578333Y-6144366D02*
X10644999Y-6177700D01*
X10644999Y-6177700D02*
X10911666Y-6177700D01*
X10111666Y-6111033D02*
X10178333Y-6077700D01*
X10178333Y-6077700D02*
X10211666Y-6044366D01*
X10211666Y-6044366D02*
X10244999Y-5977700D01*
X10244999Y-5977700D02*
X10244999Y-5944366D01*
X10244999Y-5944366D02*
X10211666Y-5877700D01*
X10211666Y-5877700D02*
X10178333Y-5844366D01*
X10178333Y-5844366D02*
X10111666Y-5811033D01*
X10111666Y-5811033D02*
X9978333Y-5811033D01*
X9978333Y-5811033D02*
X9911666Y-5844366D01*
X9911666Y-5844366D02*
X9878333Y-5877700D01*
X9878333Y-5877700D02*
X9844999Y-5944366D01*
X9844999Y-5944366D02*
X9844999Y-5977700D01*
X9844999Y-5977700D02*
X9878333Y-6044366D01*
X9878333Y-6044366D02*
X9911666Y-6077700D01*
X9911666Y-6077700D02*
X9978333Y-6111033D01*
X9978333Y-6111033D02*
X10111666Y-6111033D01*
X10111666Y-6111033D02*
X10178333Y-6144366D01*
X10178333Y-6144366D02*
X10211666Y-6177700D01*
X10211666Y-6177700D02*
X10244999Y-6244366D01*
X10244999Y-6244366D02*
X10244999Y-6377700D01*
X10244999Y-6377700D02*
X10211666Y-6444366D01*
X10211666Y-6444366D02*
X10178333Y-6477700D01*
X10178333Y-6477700D02*
X10111666Y-6511033D01*
X10111666Y-6511033D02*
X9978333Y-6511033D01*
X9978333Y-6511033D02*
X9911666Y-6477700D01*
X9911666Y-6477700D02*
X9878333Y-6444366D01*
X9878333Y-6444366D02*
X9844999Y-6377700D01*
X9844999Y-6377700D02*
X9844999Y-6244366D01*
X9844999Y-6244366D02*
X9878333Y-6177700D01*
X9878333Y-6177700D02*
X9911666Y-6144366D01*
X9911666Y-6144366D02*
X9978333Y-6111033D01*
X13631666Y-8714366D02*
X13664999Y-8747700D01*
X13664999Y-8747700D02*
X13764999Y-8781033D01*
X13764999Y-8781033D02*
X13831666Y-8781033D01*
X13831666Y-8781033D02*
X13931666Y-8747700D01*
X13931666Y-8747700D02*
X13998333Y-8681033D01*
X13998333Y-8681033D02*
X14031666Y-8614366D01*
X14031666Y-8614366D02*
X14064999Y-8481033D01*
X14064999Y-8481033D02*
X14064999Y-8381033D01*
X14064999Y-8381033D02*
X14031666Y-8247700D01*
X14031666Y-8247700D02*
X13998333Y-8181033D01*
X13998333Y-8181033D02*
X13931666Y-8114366D01*
X13931666Y-8114366D02*
X13831666Y-8081033D01*
X13831666Y-8081033D02*
X13764999Y-8081033D01*
X13764999Y-8081033D02*
X13664999Y-8114366D01*
X13664999Y-8114366D02*
X13631666Y-8147700D01*
X13398333Y-8081033D02*
X12964999Y-8081033D01*
X12964999Y-8081033D02*
X13198333Y-8347700D01*
X13198333Y-8347700D02*
X13098333Y-8347700D01*
X13098333Y-8347700D02*
X13031666Y-8381033D01*
X13031666Y-8381033D02*
X12998333Y-8414366D01*
X12998333Y-8414366D02*
X12964999Y-8481033D01*
X12964999Y-8481033D02*
X12964999Y-8647700D01*
X12964999Y-8647700D02*
X12998333Y-8714366D01*
X12998333Y-8714366D02*
X13031666Y-8747700D01*
X13031666Y-8747700D02*
X13098333Y-8781033D01*
X13098333Y-8781033D02*
X13298333Y-8781033D01*
X13298333Y-8781033D02*
X13364999Y-8747700D01*
X13364999Y-8747700D02*
X13398333Y-8714366D01*
X13591666Y-6511033D02*
X13824999Y-6177700D01*
X13991666Y-6511033D02*
X13991666Y-5811033D01*
X13991666Y-5811033D02*
X13724999Y-5811033D01*
X13724999Y-5811033D02*
X13658333Y-5844366D01*
X13658333Y-5844366D02*
X13624999Y-5877700D01*
X13624999Y-5877700D02*
X13591666Y-5944366D01*
X13591666Y-5944366D02*
X13591666Y-6044366D01*
X13591666Y-6044366D02*
X13624999Y-6111033D01*
X13624999Y-6111033D02*
X13658333Y-6144366D01*
X13658333Y-6144366D02*
X13724999Y-6177700D01*
X13724999Y-6177700D02*
X13991666Y-6177700D01*
X12991666Y-5811033D02*
X13124999Y-5811033D01*
X13124999Y-5811033D02*
X13191666Y-5844366D01*
X13191666Y-5844366D02*
X13224999Y-5877700D01*
X13224999Y-5877700D02*
X13291666Y-5977700D01*
X13291666Y-5977700D02*
X13324999Y-6111033D01*
X13324999Y-6111033D02*
X13324999Y-6377700D01*
X13324999Y-6377700D02*
X13291666Y-6444366D01*
X13291666Y-6444366D02*
X13258333Y-6477700D01*
X13258333Y-6477700D02*
X13191666Y-6511033D01*
X13191666Y-6511033D02*
X13058333Y-6511033D01*
X13058333Y-6511033D02*
X12991666Y-6477700D01*
X12991666Y-6477700D02*
X12958333Y-6444366D01*
X12958333Y-6444366D02*
X12924999Y-6377700D01*
X12924999Y-6377700D02*
X12924999Y-6211033D01*
X12924999Y-6211033D02*
X12958333Y-6144366D01*
X12958333Y-6144366D02*
X12991666Y-6111033D01*
X12991666Y-6111033D02*
X13058333Y-6077700D01*
X13058333Y-6077700D02*
X13191666Y-6077700D01*
X13191666Y-6077700D02*
X13258333Y-6111033D01*
X13258333Y-6111033D02*
X13291666Y-6144366D01*
X13291666Y-6144366D02*
X13324999Y-6211033D01*
X16076666Y-19239366D02*
X16109999Y-19272700D01*
X16109999Y-19272700D02*
X16209999Y-19306033D01*
X16209999Y-19306033D02*
X16276666Y-19306033D01*
X16276666Y-19306033D02*
X16376666Y-19272700D01*
X16376666Y-19272700D02*
X16443333Y-19206033D01*
X16443333Y-19206033D02*
X16476666Y-19139366D01*
X16476666Y-19139366D02*
X16509999Y-19006033D01*
X16509999Y-19006033D02*
X16509999Y-18906033D01*
X16509999Y-18906033D02*
X16476666Y-18772700D01*
X16476666Y-18772700D02*
X16443333Y-18706033D01*
X16443333Y-18706033D02*
X16376666Y-18639366D01*
X16376666Y-18639366D02*
X16276666Y-18606033D01*
X16276666Y-18606033D02*
X16209999Y-18606033D01*
X16209999Y-18606033D02*
X16109999Y-18639366D01*
X16109999Y-18639366D02*
X16076666Y-18672700D01*
X15476666Y-18839366D02*
X15476666Y-19306033D01*
X15643333Y-18572700D02*
X15809999Y-19072700D01*
X15809999Y-19072700D02*
X15376666Y-19072700D01*
X6591666Y-4757700D02*
X6658333Y-4724366D01*
X6658333Y-4724366D02*
X6725000Y-4657700D01*
X6725000Y-4657700D02*
X6825000Y-4557700D01*
X6825000Y-4557700D02*
X6891666Y-4524366D01*
X6891666Y-4524366D02*
X6958333Y-4524366D01*
X6925000Y-4691033D02*
X6991666Y-4657700D01*
X6991666Y-4657700D02*
X7058333Y-4591033D01*
X7058333Y-4591033D02*
X7091666Y-4457700D01*
X7091666Y-4457700D02*
X7091666Y-4224366D01*
X7091666Y-4224366D02*
X7058333Y-4091033D01*
X7058333Y-4091033D02*
X6991666Y-4024366D01*
X6991666Y-4024366D02*
X6925000Y-3991033D01*
X6925000Y-3991033D02*
X6791666Y-3991033D01*
X6791666Y-3991033D02*
X6725000Y-4024366D01*
X6725000Y-4024366D02*
X6658333Y-4091033D01*
X6658333Y-4091033D02*
X6625000Y-4224366D01*
X6625000Y-4224366D02*
X6625000Y-4457700D01*
X6625000Y-4457700D02*
X6658333Y-4591033D01*
X6658333Y-4591033D02*
X6725000Y-4657700D01*
X6725000Y-4657700D02*
X6791666Y-4691033D01*
X6791666Y-4691033D02*
X6925000Y-4691033D01*
X5958333Y-4691033D02*
X6358333Y-4691033D01*
X6158333Y-4691033D02*
X6158333Y-3991033D01*
X6158333Y-3991033D02*
X6225000Y-4091033D01*
X6225000Y-4091033D02*
X6291667Y-4157700D01*
X6291667Y-4157700D02*
X6358333Y-4191033D01*
X16776666Y-8074366D02*
X16809999Y-8107700D01*
X16809999Y-8107700D02*
X16909999Y-8141033D01*
X16909999Y-8141033D02*
X16976666Y-8141033D01*
X16976666Y-8141033D02*
X17076666Y-8107700D01*
X17076666Y-8107700D02*
X17143333Y-8041033D01*
X17143333Y-8041033D02*
X17176666Y-7974366D01*
X17176666Y-7974366D02*
X17209999Y-7841033D01*
X17209999Y-7841033D02*
X17209999Y-7741033D01*
X17209999Y-7741033D02*
X17176666Y-7607700D01*
X17176666Y-7607700D02*
X17143333Y-7541033D01*
X17143333Y-7541033D02*
X17076666Y-7474366D01*
X17076666Y-7474366D02*
X16976666Y-7441033D01*
X16976666Y-7441033D02*
X16909999Y-7441033D01*
X16909999Y-7441033D02*
X16809999Y-7474366D01*
X16809999Y-7474366D02*
X16776666Y-7507700D01*
X16376666Y-7741033D02*
X16443333Y-7707700D01*
X16443333Y-7707700D02*
X16476666Y-7674366D01*
X16476666Y-7674366D02*
X16509999Y-7607700D01*
X16509999Y-7607700D02*
X16509999Y-7574366D01*
X16509999Y-7574366D02*
X16476666Y-7507700D01*
X16476666Y-7507700D02*
X16443333Y-7474366D01*
X16443333Y-7474366D02*
X16376666Y-7441033D01*
X16376666Y-7441033D02*
X16243333Y-7441033D01*
X16243333Y-7441033D02*
X16176666Y-7474366D01*
X16176666Y-7474366D02*
X16143333Y-7507700D01*
X16143333Y-7507700D02*
X16109999Y-7574366D01*
X16109999Y-7574366D02*
X16109999Y-7607700D01*
X16109999Y-7607700D02*
X16143333Y-7674366D01*
X16143333Y-7674366D02*
X16176666Y-7707700D01*
X16176666Y-7707700D02*
X16243333Y-7741033D01*
X16243333Y-7741033D02*
X16376666Y-7741033D01*
X16376666Y-7741033D02*
X16443333Y-7774366D01*
X16443333Y-7774366D02*
X16476666Y-7807700D01*
X16476666Y-7807700D02*
X16509999Y-7874366D01*
X16509999Y-7874366D02*
X16509999Y-8007700D01*
X16509999Y-8007700D02*
X16476666Y-8074366D01*
X16476666Y-8074366D02*
X16443333Y-8107700D01*
X16443333Y-8107700D02*
X16376666Y-8141033D01*
X16376666Y-8141033D02*
X16243333Y-8141033D01*
X16243333Y-8141033D02*
X16176666Y-8107700D01*
X16176666Y-8107700D02*
X16143333Y-8074366D01*
X16143333Y-8074366D02*
X16109999Y-8007700D01*
X16109999Y-8007700D02*
X16109999Y-7874366D01*
X16109999Y-7874366D02*
X16143333Y-7807700D01*
X16143333Y-7807700D02*
X16176666Y-7774366D01*
X16176666Y-7774366D02*
X16243333Y-7741033D01*
X10501666Y-3511033D02*
X10734999Y-3177700D01*
X10901666Y-3511033D02*
X10901666Y-2811033D01*
X10901666Y-2811033D02*
X10634999Y-2811033D01*
X10634999Y-2811033D02*
X10568333Y-2844366D01*
X10568333Y-2844366D02*
X10534999Y-2877700D01*
X10534999Y-2877700D02*
X10501666Y-2944366D01*
X10501666Y-2944366D02*
X10501666Y-3044366D01*
X10501666Y-3044366D02*
X10534999Y-3111033D01*
X10534999Y-3111033D02*
X10568333Y-3144366D01*
X10568333Y-3144366D02*
X10634999Y-3177700D01*
X10634999Y-3177700D02*
X10901666Y-3177700D01*
X10268333Y-2811033D02*
X9801666Y-2811033D01*
X9801666Y-2811033D02*
X10101666Y-3511033D01*
X19993333Y-4341033D02*
X19993333Y-4907700D01*
X19993333Y-4907700D02*
X19960000Y-4974366D01*
X19960000Y-4974366D02*
X19926666Y-5007700D01*
X19926666Y-5007700D02*
X19860000Y-5041033D01*
X19860000Y-5041033D02*
X19726666Y-5041033D01*
X19726666Y-5041033D02*
X19660000Y-5007700D01*
X19660000Y-5007700D02*
X19626666Y-4974366D01*
X19626666Y-4974366D02*
X19593333Y-4907700D01*
X19593333Y-4907700D02*
X19593333Y-4341033D01*
X18893333Y-5041033D02*
X19293333Y-5041033D01*
X19093333Y-5041033D02*
X19093333Y-4341033D01*
X19093333Y-4341033D02*
X19160000Y-4441033D01*
X19160000Y-4441033D02*
X19226667Y-4507700D01*
X19226667Y-4507700D02*
X19293333Y-4541033D01*
X23101666Y-4184366D02*
X23134999Y-4217700D01*
X23134999Y-4217700D02*
X23234999Y-4251033D01*
X23234999Y-4251033D02*
X23301666Y-4251033D01*
X23301666Y-4251033D02*
X23401666Y-4217700D01*
X23401666Y-4217700D02*
X23468333Y-4151033D01*
X23468333Y-4151033D02*
X23501666Y-4084366D01*
X23501666Y-4084366D02*
X23534999Y-3951033D01*
X23534999Y-3951033D02*
X23534999Y-3851033D01*
X23534999Y-3851033D02*
X23501666Y-3717700D01*
X23501666Y-3717700D02*
X23468333Y-3651033D01*
X23468333Y-3651033D02*
X23401666Y-3584366D01*
X23401666Y-3584366D02*
X23301666Y-3551033D01*
X23301666Y-3551033D02*
X23234999Y-3551033D01*
X23234999Y-3551033D02*
X23134999Y-3584366D01*
X23134999Y-3584366D02*
X23101666Y-3617700D01*
X22501666Y-3551033D02*
X22634999Y-3551033D01*
X22634999Y-3551033D02*
X22701666Y-3584366D01*
X22701666Y-3584366D02*
X22734999Y-3617700D01*
X22734999Y-3617700D02*
X22801666Y-3717700D01*
X22801666Y-3717700D02*
X22834999Y-3851033D01*
X22834999Y-3851033D02*
X22834999Y-4117700D01*
X22834999Y-4117700D02*
X22801666Y-4184366D01*
X22801666Y-4184366D02*
X22768333Y-4217700D01*
X22768333Y-4217700D02*
X22701666Y-4251033D01*
X22701666Y-4251033D02*
X22568333Y-4251033D01*
X22568333Y-4251033D02*
X22501666Y-4217700D01*
X22501666Y-4217700D02*
X22468333Y-4184366D01*
X22468333Y-4184366D02*
X22434999Y-4117700D01*
X22434999Y-4117700D02*
X22434999Y-3951033D01*
X22434999Y-3951033D02*
X22468333Y-3884366D01*
X22468333Y-3884366D02*
X22501666Y-3851033D01*
X22501666Y-3851033D02*
X22568333Y-3817700D01*
X22568333Y-3817700D02*
X22701666Y-3817700D01*
X22701666Y-3817700D02*
X22768333Y-3851033D01*
X22768333Y-3851033D02*
X22801666Y-3884366D01*
X22801666Y-3884366D02*
X22834999Y-3951033D01*
X16661666Y-3511033D02*
X16894999Y-3177700D01*
X17061666Y-3511033D02*
X17061666Y-2811033D01*
X17061666Y-2811033D02*
X16794999Y-2811033D01*
X16794999Y-2811033D02*
X16728333Y-2844366D01*
X16728333Y-2844366D02*
X16694999Y-2877700D01*
X16694999Y-2877700D02*
X16661666Y-2944366D01*
X16661666Y-2944366D02*
X16661666Y-3044366D01*
X16661666Y-3044366D02*
X16694999Y-3111033D01*
X16694999Y-3111033D02*
X16728333Y-3144366D01*
X16728333Y-3144366D02*
X16794999Y-3177700D01*
X16794999Y-3177700D02*
X17061666Y-3177700D01*
X16428333Y-2811033D02*
X15994999Y-2811033D01*
X15994999Y-2811033D02*
X16228333Y-3077700D01*
X16228333Y-3077700D02*
X16128333Y-3077700D01*
X16128333Y-3077700D02*
X16061666Y-3111033D01*
X16061666Y-3111033D02*
X16028333Y-3144366D01*
X16028333Y-3144366D02*
X15994999Y-3211033D01*
X15994999Y-3211033D02*
X15994999Y-3377700D01*
X15994999Y-3377700D02*
X16028333Y-3444366D01*
X16028333Y-3444366D02*
X16061666Y-3477700D01*
X16061666Y-3477700D02*
X16128333Y-3511033D01*
X16128333Y-3511033D02*
X16328333Y-3511033D01*
X16328333Y-3511033D02*
X16394999Y-3477700D01*
X16394999Y-3477700D02*
X16428333Y-3444366D01*
X24631666Y-5924366D02*
X24664999Y-5957700D01*
X24664999Y-5957700D02*
X24764999Y-5991033D01*
X24764999Y-5991033D02*
X24831666Y-5991033D01*
X24831666Y-5991033D02*
X24931666Y-5957700D01*
X24931666Y-5957700D02*
X24998333Y-5891033D01*
X24998333Y-5891033D02*
X25031666Y-5824366D01*
X25031666Y-5824366D02*
X25064999Y-5691033D01*
X25064999Y-5691033D02*
X25064999Y-5591033D01*
X25064999Y-5591033D02*
X25031666Y-5457700D01*
X25031666Y-5457700D02*
X24998333Y-5391033D01*
X24998333Y-5391033D02*
X24931666Y-5324366D01*
X24931666Y-5324366D02*
X24831666Y-5291033D01*
X24831666Y-5291033D02*
X24764999Y-5291033D01*
X24764999Y-5291033D02*
X24664999Y-5324366D01*
X24664999Y-5324366D02*
X24631666Y-5357700D01*
X23998333Y-5291033D02*
X24331666Y-5291033D01*
X24331666Y-5291033D02*
X24364999Y-5624366D01*
X24364999Y-5624366D02*
X24331666Y-5591033D01*
X24331666Y-5591033D02*
X24264999Y-5557700D01*
X24264999Y-5557700D02*
X24098333Y-5557700D01*
X24098333Y-5557700D02*
X24031666Y-5591033D01*
X24031666Y-5591033D02*
X23998333Y-5624366D01*
X23998333Y-5624366D02*
X23964999Y-5691033D01*
X23964999Y-5691033D02*
X23964999Y-5857700D01*
X23964999Y-5857700D02*
X23998333Y-5924366D01*
X23998333Y-5924366D02*
X24031666Y-5957700D01*
X24031666Y-5957700D02*
X24098333Y-5991033D01*
X24098333Y-5991033D02*
X24264999Y-5991033D01*
X24264999Y-5991033D02*
X24331666Y-5957700D01*
X24331666Y-5957700D02*
X24364999Y-5924366D01*
X13581666Y-3511033D02*
X13814999Y-3177700D01*
X13981666Y-3511033D02*
X13981666Y-2811033D01*
X13981666Y-2811033D02*
X13714999Y-2811033D01*
X13714999Y-2811033D02*
X13648333Y-2844366D01*
X13648333Y-2844366D02*
X13614999Y-2877700D01*
X13614999Y-2877700D02*
X13581666Y-2944366D01*
X13581666Y-2944366D02*
X13581666Y-3044366D01*
X13581666Y-3044366D02*
X13614999Y-3111033D01*
X13614999Y-3111033D02*
X13648333Y-3144366D01*
X13648333Y-3144366D02*
X13714999Y-3177700D01*
X13714999Y-3177700D02*
X13981666Y-3177700D01*
X12948333Y-2811033D02*
X13281666Y-2811033D01*
X13281666Y-2811033D02*
X13314999Y-3144366D01*
X13314999Y-3144366D02*
X13281666Y-3111033D01*
X13281666Y-3111033D02*
X13214999Y-3077700D01*
X13214999Y-3077700D02*
X13048333Y-3077700D01*
X13048333Y-3077700D02*
X12981666Y-3111033D01*
X12981666Y-3111033D02*
X12948333Y-3144366D01*
X12948333Y-3144366D02*
X12914999Y-3211033D01*
X12914999Y-3211033D02*
X12914999Y-3377700D01*
X12914999Y-3377700D02*
X12948333Y-3444366D01*
X12948333Y-3444366D02*
X12981666Y-3477700D01*
X12981666Y-3477700D02*
X13048333Y-3511033D01*
X13048333Y-3511033D02*
X13214999Y-3511033D01*
X13214999Y-3511033D02*
X13281666Y-3477700D01*
X13281666Y-3477700D02*
X13314999Y-3444366D01*
X16671666Y-6511033D02*
X16904999Y-6177700D01*
X17071666Y-6511033D02*
X17071666Y-5811033D01*
X17071666Y-5811033D02*
X16804999Y-5811033D01*
X16804999Y-5811033D02*
X16738333Y-5844366D01*
X16738333Y-5844366D02*
X16704999Y-5877700D01*
X16704999Y-5877700D02*
X16671666Y-5944366D01*
X16671666Y-5944366D02*
X16671666Y-6044366D01*
X16671666Y-6044366D02*
X16704999Y-6111033D01*
X16704999Y-6111033D02*
X16738333Y-6144366D01*
X16738333Y-6144366D02*
X16804999Y-6177700D01*
X16804999Y-6177700D02*
X17071666Y-6177700D01*
X16071666Y-6044366D02*
X16071666Y-6511033D01*
X16238333Y-5777700D02*
X16404999Y-6277700D01*
X16404999Y-6277700D02*
X15971666Y-6277700D01*
X17501666Y-18289366D02*
X17534999Y-18322700D01*
X17534999Y-18322700D02*
X17634999Y-18356033D01*
X17634999Y-18356033D02*
X17701666Y-18356033D01*
X17701666Y-18356033D02*
X17801666Y-18322700D01*
X17801666Y-18322700D02*
X17868333Y-18256033D01*
X17868333Y-18256033D02*
X17901666Y-18189366D01*
X17901666Y-18189366D02*
X17934999Y-18056033D01*
X17934999Y-18056033D02*
X17934999Y-17956033D01*
X17934999Y-17956033D02*
X17901666Y-17822700D01*
X17901666Y-17822700D02*
X17868333Y-17756033D01*
X17868333Y-17756033D02*
X17801666Y-17689366D01*
X17801666Y-17689366D02*
X17701666Y-17656033D01*
X17701666Y-17656033D02*
X17634999Y-17656033D01*
X17634999Y-17656033D02*
X17534999Y-17689366D01*
X17534999Y-17689366D02*
X17501666Y-17722700D01*
X16834999Y-18356033D02*
X17234999Y-18356033D01*
X17034999Y-18356033D02*
X17034999Y-17656033D01*
X17034999Y-17656033D02*
X17101666Y-17756033D01*
X17101666Y-17756033D02*
X17168333Y-17822700D01*
X17168333Y-17822700D02*
X17234999Y-17856033D01*
D15*
%TO.C,TP1*%
X7875000Y-2375000D02*
G75*
G03*
X6475000Y-2375000I-700000J0D01*
G01*
X6475000Y-2375000D02*
G75*
G03*
X7875000Y-2375000I700000J0D01*
G01*
%TO.C,R2*%
X18637500Y-5957742D02*
X18637500Y-6432258D01*
X17592500Y-5957742D02*
X17592500Y-6432258D01*
%TO.C,C2*%
X16802164Y-9280000D02*
X17017836Y-9280000D01*
X16802164Y-10000000D02*
X17017836Y-10000000D01*
%TO.C,C7*%
X21494420Y-2185000D02*
X21775580Y-2185000D01*
X21494420Y-3205000D02*
X21775580Y-3205000D01*
D16*
%TO.C,IC1*%
X17225000Y-10500000D02*
G75*
G03*
X16975000Y-10500000I-125000J0D01*
G01*
X16975000Y-10500000D02*
G75*
G03*
X17225000Y-10500000I125000J0D01*
G01*
D15*
%TO.C,J4*%
X29040000Y-6675000D02*
X29640000Y-6675000D01*
X29040000Y-6785000D02*
X29040000Y-6675000D01*
X26450000Y-9550000D02*
X26850000Y-9750000D01*
X26850000Y-9750000D02*
X26450000Y-9950000D01*
X26450000Y-9950000D02*
X26450000Y-9550000D01*
X29040000Y-23215000D02*
X29040000Y-23325000D01*
X29040000Y-23325000D02*
X29640000Y-23325000D01*
%TO.C,R1*%
X18627500Y-2957742D02*
X18627500Y-3432258D01*
X17582500Y-2957742D02*
X17582500Y-3432258D01*
%TO.C,R8*%
X9547500Y-5957742D02*
X9547500Y-6432258D01*
X8502500Y-5957742D02*
X8502500Y-6432258D01*
%TO.C,C3*%
X13172836Y-10010000D02*
X12957164Y-10010000D01*
X13172836Y-9290000D02*
X12957164Y-9290000D01*
%TO.C,R6*%
X12627500Y-5957742D02*
X12627500Y-6432258D01*
X11582500Y-5957742D02*
X11582500Y-6432258D01*
%TO.C,C4*%
X15827164Y-17645000D02*
X16042836Y-17645000D01*
X15827164Y-18365000D02*
X16042836Y-18365000D01*
%TO.C,J5*%
X960000Y-23325000D02*
X360000Y-23325000D01*
X960000Y-23215000D02*
X960000Y-23325000D01*
X3550000Y-9950000D02*
X3150000Y-9750000D01*
X3550000Y-9950000D02*
X3550000Y-9550000D01*
X3150000Y-9750000D02*
X3550000Y-9550000D01*
X960000Y-6785000D02*
X960000Y-6675000D01*
X960000Y-6675000D02*
X360000Y-6675000D01*
%TO.C,Q1*%
X6075000Y-5325000D02*
X6075000Y-6875000D01*
X7875000Y-6875000D02*
X7875000Y-5575000D01*
%TO.C,C8*%
X16802164Y-8355000D02*
X17017836Y-8355000D01*
X16802164Y-9075000D02*
X17017836Y-9075000D01*
%TO.C,R7*%
X9537500Y-2957742D02*
X9537500Y-3432258D01*
X8492500Y-2957742D02*
X8492500Y-3432258D01*
%TO.C,U1*%
X23385000Y-6560000D02*
X23385000Y-5760000D01*
X23385000Y-6560000D02*
X23385000Y-7360000D01*
X20265000Y-6560000D02*
X20265000Y-4760000D01*
X20265000Y-6560000D02*
X20265000Y-7360000D01*
%TO.C,TP4*%
X22825000Y-1075000D02*
G75*
G03*
X21425000Y-1075000I-700000J0D01*
G01*
X21425000Y-1075000D02*
G75*
G03*
X22825000Y-1075000I700000J0D01*
G01*
%TO.C,TP2*%
X14225000Y-4725000D02*
G75*
G03*
X12825000Y-4725000I-700000J0D01*
G01*
X12825000Y-4725000D02*
G75*
G03*
X14225000Y-4725000I700000J0D01*
G01*
%TO.C,C6*%
X21227164Y-3665000D02*
X21442836Y-3665000D01*
X21227164Y-4385000D02*
X21442836Y-4385000D01*
%TO.C,TP3*%
X11025000Y-4725000D02*
G75*
G03*
X9625000Y-4725000I-700000J0D01*
G01*
X9625000Y-4725000D02*
G75*
G03*
X11025000Y-4725000I700000J0D01*
G01*
%TO.C,R3*%
X15697500Y-2957742D02*
X15697500Y-3432258D01*
X14652500Y-2957742D02*
X14652500Y-3432258D01*
%TO.C,C5*%
X23655000Y-7322836D02*
X23655000Y-7107164D01*
X24375000Y-7322836D02*
X24375000Y-7107164D01*
%TO.C,R5*%
X12617500Y-2957742D02*
X12617500Y-3432258D01*
X11572500Y-2957742D02*
X11572500Y-3432258D01*
%TO.C,R4*%
X15707500Y-5957742D02*
X15707500Y-6432258D01*
X14662500Y-5957742D02*
X14662500Y-6432258D01*
%TO.C,C1*%
X16902164Y-16645000D02*
X17117836Y-16645000D01*
X16902164Y-17365000D02*
X17117836Y-17365000D01*
%TD*%
M02*
