%TF.GenerationSoftware,KiCad,Pcbnew,7.0.10*%
%TF.CreationDate,2024-03-24T13:51:38+01:00*%
%TF.ProjectId,CSI2-SPY-22-1A,43534932-2d53-4505-992d-32322d31412e,rev?*%
%TF.SameCoordinates,Original*%
%TF.FileFunction,Copper,L4,Bot*%
%TF.FilePolarity,Positive*%
%FSLAX46Y46*%
G04 Gerber Fmt 4.6, Leading zero omitted, Abs format (unit mm)*
G04 Created by KiCad (PCBNEW 7.0.10) date 2024-03-24 13:51:38*
%MOMM*%
%LPD*%
G01*
G04 APERTURE LIST*
G04 Aperture macros list*
%AMRoundRect*
0 Rectangle with rounded corners*
0 $1 Rounding radius*
0 $2 $3 $4 $5 $6 $7 $8 $9 X,Y pos of 4 corners*
0 Add a 4 corners polygon primitive as box body*
4,1,4,$2,$3,$4,$5,$6,$7,$8,$9,$2,$3,0*
0 Add four circle primitives for the rounded corners*
1,1,$1+$1,$2,$3*
1,1,$1+$1,$4,$5*
1,1,$1+$1,$6,$7*
1,1,$1+$1,$8,$9*
0 Add four rect primitives between the rounded corners*
20,1,$1+$1,$2,$3,$4,$5,0*
20,1,$1+$1,$4,$5,$6,$7,0*
20,1,$1+$1,$6,$7,$8,$9,0*
20,1,$1+$1,$8,$9,$2,$3,0*%
G04 Aperture macros list end*
%TA.AperFunction,ComponentPad*%
%ADD10R,1.700000X1.700000*%
%TD*%
%TA.AperFunction,ComponentPad*%
%ADD11O,1.700000X1.700000*%
%TD*%
%TA.AperFunction,ComponentPad*%
%ADD12C,5.600000*%
%TD*%
%TA.AperFunction,SMDPad,CuDef*%
%ADD13C,1.000000*%
%TD*%
%TA.AperFunction,SMDPad,CuDef*%
%ADD14RoundRect,0.200000X-0.275000X0.200000X-0.275000X-0.200000X0.275000X-0.200000X0.275000X0.200000X0*%
%TD*%
%TA.AperFunction,SMDPad,CuDef*%
%ADD15RoundRect,0.140000X-0.140000X-0.170000X0.140000X-0.170000X0.140000X0.170000X-0.140000X0.170000X0*%
%TD*%
%TA.AperFunction,SMDPad,CuDef*%
%ADD16RoundRect,0.225000X-0.225000X-0.250000X0.225000X-0.250000X0.225000X0.250000X-0.225000X0.250000X0*%
%TD*%
%TA.AperFunction,SMDPad,CuDef*%
%ADD17R,0.850000X0.300000*%
%TD*%
%TA.AperFunction,SMDPad,CuDef*%
%ADD18R,0.300000X0.850000*%
%TD*%
%TA.AperFunction,SMDPad,CuDef*%
%ADD19R,2.100000X4.100000*%
%TD*%
%TA.AperFunction,SMDPad,CuDef*%
%ADD20R,1.100000X0.300000*%
%TD*%
%TA.AperFunction,SMDPad,CuDef*%
%ADD21R,3.100000X2.300000*%
%TD*%
%TA.AperFunction,SMDPad,CuDef*%
%ADD22RoundRect,0.140000X0.140000X0.170000X-0.140000X0.170000X-0.140000X-0.170000X0.140000X-0.170000X0*%
%TD*%
%TA.AperFunction,SMDPad,CuDef*%
%ADD23C,0.500000*%
%TD*%
%TA.AperFunction,SMDPad,CuDef*%
%ADD24R,0.340000X0.700000*%
%TD*%
%TA.AperFunction,SMDPad,CuDef*%
%ADD25RoundRect,0.150000X-0.150000X0.512500X-0.150000X-0.512500X0.150000X-0.512500X0.150000X0.512500X0*%
%TD*%
%TA.AperFunction,SMDPad,CuDef*%
%ADD26RoundRect,0.140000X0.170000X-0.140000X0.170000X0.140000X-0.170000X0.140000X-0.170000X-0.140000X0*%
%TD*%
%TA.AperFunction,ViaPad*%
%ADD27C,0.800000*%
%TD*%
%TA.AperFunction,ViaPad*%
%ADD28C,0.450000*%
%TD*%
%TA.AperFunction,ViaPad*%
%ADD29C,0.550000*%
%TD*%
%TA.AperFunction,ViaPad*%
%ADD30C,0.500000*%
%TD*%
%TA.AperFunction,Conductor*%
%ADD31C,0.300000*%
%TD*%
%TA.AperFunction,Conductor*%
%ADD32C,0.250000*%
%TD*%
%TA.AperFunction,Conductor*%
%ADD33C,0.400000*%
%TD*%
%TA.AperFunction,Conductor*%
%ADD34C,0.190000*%
%TD*%
%TA.AperFunction,Conductor*%
%ADD35C,0.500000*%
%TD*%
G04 APERTURE END LIST*
D10*
%TO.P,J3,1,Pin_1*%
%TO.N,/IO0*%
X21425000Y-23075000D03*
D11*
%TO.P,J3,2,Pin_2*%
%TO.N,/IO1*%
X18885000Y-23075000D03*
%TO.P,J3,3,Pin_3*%
%TO.N,GND*%
X16345000Y-23075000D03*
%TO.P,J3,4,Pin_4*%
%TO.N,/SCL*%
X13805000Y-23075000D03*
%TO.P,J3,5,Pin_5*%
%TO.N,/SDA*%
X11265000Y-23075000D03*
%TO.P,J3,6,Pin_6*%
%TO.N,/VDD33*%
X8725000Y-23075000D03*
%TD*%
D12*
%TO.P,H2,1,1*%
%TO.N,unconnected-(H2-Pad1)*%
X3000000Y-27000000D03*
%TD*%
%TO.P,H1,1,1*%
%TO.N,unconnected-(H1-Pad1)*%
X3000000Y-3000000D03*
%TD*%
%TO.P,H3,1,1*%
%TO.N,unconnected-(H3-Pad1)*%
X27000000Y-27000000D03*
%TD*%
%TO.P,H4,1,1*%
%TO.N,unconnected-(H4-Pad1)*%
X27000000Y-3000000D03*
%TD*%
D13*
%TO.P,TP1,1,1*%
%TO.N,VCC*%
X7175000Y-2375000D03*
%TD*%
D14*
%TO.P,R2,1*%
%TO.N,VSADJ{slash}CFG0*%
X18115000Y-5370000D03*
%TO.P,R2,2*%
%TO.N,GND*%
X18115000Y-7020000D03*
%TD*%
D15*
%TO.P,C2,1*%
%TO.N,Net-(IC1-RSTN)*%
X16430000Y-9640000D03*
%TO.P,C2,2*%
%TO.N,GND*%
X17390000Y-9640000D03*
%TD*%
D16*
%TO.P,C7,1*%
%TO.N,/VDD33*%
X20860000Y-2695000D03*
%TO.P,C7,2*%
%TO.N,GND*%
X22410000Y-2695000D03*
%TD*%
D17*
%TO.P,IC1,1,DA0P*%
%TO.N,/S1D0_N*%
X16800000Y-11250000D03*
%TO.P,IC1,2,DA0N*%
%TO.N,/S1D0_P*%
X16800000Y-11750000D03*
%TO.P,IC1,3,DA1P*%
%TO.N,/S1D1_N*%
X16800000Y-12250000D03*
%TO.P,IC1,4,DA1N*%
%TO.N,/S1D1_P*%
X16800000Y-12750000D03*
%TO.P,IC1,5,DACP*%
%TO.N,/S1CK_N*%
X16800000Y-13250000D03*
%TO.P,IC1,6,DACN*%
%TO.N,/S1CK_P*%
X16800000Y-13750000D03*
%TO.P,IC1,7,DA2P*%
%TO.N,/S1D2_N*%
X16800000Y-14250000D03*
%TO.P,IC1,8,DA2N*%
%TO.N,/S1D2_P*%
X16800000Y-14750000D03*
%TO.P,IC1,9,DA3P*%
%TO.N,/S1D3_N*%
X16800000Y-15250000D03*
%TO.P,IC1,10,DA3N*%
%TO.N,/S1D3_P*%
X16800000Y-15750000D03*
D18*
%TO.P,IC1,11,VCC*%
%TO.N,VCC*%
X15750000Y-16200000D03*
%TO.P,IC1,12,VREG_OUT*%
%TO.N,VDD*%
X15250000Y-16200000D03*
%TO.P,IC1,13,EQ/SCL*%
%TO.N,EQ{slash}SCL*%
X14750000Y-16200000D03*
%TO.P,IC1,14,ERC/SDA*%
%TO.N,ERC{slash}SDA*%
X14250000Y-16200000D03*
D17*
%TO.P,IC1,15,DB3N*%
%TO.N,/C1D3_P*%
X13200000Y-15750000D03*
%TO.P,IC1,16,DB3P*%
%TO.N,/C1D3_N*%
X13200000Y-15250000D03*
%TO.P,IC1,17,DB2N*%
%TO.N,/C1D2_P*%
X13200000Y-14750000D03*
%TO.P,IC1,18,DB2P*%
%TO.N,/C1D2_N*%
X13200000Y-14250000D03*
%TO.P,IC1,19,DBCN*%
%TO.N,/C1CK_P*%
X13200000Y-13750000D03*
%TO.P,IC1,20,DBCP*%
%TO.N,/C1CK_N*%
X13200000Y-13250000D03*
%TO.P,IC1,21,DB1N*%
%TO.N,/C1D1_P*%
X13200000Y-12750000D03*
%TO.P,IC1,22,DB1P*%
%TO.N,/C1D1_N*%
X13200000Y-12250000D03*
%TO.P,IC1,23,DB0N*%
%TO.N,/C1D0_P*%
X13200000Y-11750000D03*
%TO.P,IC1,24,DB0P*%
%TO.N,/C1D0_N*%
X13200000Y-11250000D03*
D18*
%TO.P,IC1,25,VDD*%
%TO.N,VDD*%
X14250000Y-10800000D03*
%TO.P,IC1,26,PRE_CFG1*%
%TO.N,PRE{slash}CFG1*%
X14750000Y-10800000D03*
%TO.P,IC1,27,VSADJ_CFG0*%
%TO.N,VSADJ{slash}CFG0*%
X15250000Y-10800000D03*
%TO.P,IC1,28,RSTN*%
%TO.N,Net-(IC1-RSTN)*%
X15750000Y-10800000D03*
D19*
%TO.P,IC1,29,GND*%
%TO.N,GND*%
X15000000Y-13500000D03*
%TD*%
D20*
%TO.P,J4,1,Pin_1*%
%TO.N,GND*%
X25650000Y-9750000D03*
%TO.P,J4,2,Pin_2*%
%TO.N,/S1D0_N*%
X25650000Y-10250000D03*
%TO.P,J4,3,Pin_3*%
%TO.N,/S1D0_P*%
X25650000Y-10750000D03*
%TO.P,J4,4,Pin_4*%
%TO.N,GND*%
X25650000Y-11250000D03*
%TO.P,J4,5,Pin_5*%
%TO.N,/S1D1_N*%
X25650000Y-11750000D03*
%TO.P,J4,6,Pin_6*%
%TO.N,/S1D1_P*%
X25650000Y-12250000D03*
%TO.P,J4,7,Pin_7*%
%TO.N,GND*%
X25650000Y-12750000D03*
%TO.P,J4,8,Pin_8*%
%TO.N,/S1CK_N*%
X25650000Y-13250000D03*
%TO.P,J4,9,Pin_9*%
%TO.N,/S1CK_P*%
X25650000Y-13750000D03*
%TO.P,J4,10,Pin_10*%
%TO.N,GND*%
X25650000Y-14250000D03*
%TO.P,J4,11,Pin_11*%
%TO.N,/S1D2_N*%
X25650000Y-14750000D03*
%TO.P,J4,12,Pin_12*%
%TO.N,/S1D2_P*%
X25650000Y-15250000D03*
%TO.P,J4,13,Pin_13*%
%TO.N,GND*%
X25650000Y-15750000D03*
%TO.P,J4,14,Pin_14*%
%TO.N,/S1D3_N*%
X25650000Y-16250000D03*
%TO.P,J4,15,Pin_15*%
%TO.N,/S1D3_P*%
X25650000Y-16750000D03*
%TO.P,J4,16,Pin_16*%
%TO.N,GND*%
X25650000Y-17250000D03*
%TO.P,J4,17,Pin_17*%
%TO.N,/IO0*%
X25650000Y-17750000D03*
%TO.P,J4,18,Pin_18*%
%TO.N,/IO1*%
X25650000Y-18250000D03*
%TO.P,J4,19,Pin_19*%
%TO.N,GND*%
X25650000Y-18750000D03*
%TO.P,J4,20,Pin_20*%
%TO.N,/SCL*%
X25650000Y-19250000D03*
%TO.P,J4,21,Pin_21*%
%TO.N,/SDA*%
X25650000Y-19750000D03*
%TO.P,J4,22,Pin_22*%
%TO.N,/VDD33*%
X25650000Y-20250000D03*
D21*
%TO.P,J4,MP,MountPin*%
%TO.N,GND*%
X27350000Y-8080000D03*
X27350000Y-21920000D03*
%TD*%
D14*
%TO.P,R1,1*%
%TO.N,VCC*%
X18105000Y-2370000D03*
%TO.P,R1,2*%
%TO.N,VSADJ{slash}CFG0*%
X18105000Y-4020000D03*
%TD*%
%TO.P,R8,1*%
%TO.N,ERC{slash}SDA*%
X9025000Y-5370000D03*
%TO.P,R8,2*%
%TO.N,GND*%
X9025000Y-7020000D03*
%TD*%
D22*
%TO.P,C3,1*%
%TO.N,VDD*%
X13545000Y-9650000D03*
%TO.P,C3,2*%
%TO.N,GND*%
X12585000Y-9650000D03*
%TD*%
D14*
%TO.P,R6,1*%
%TO.N,EQ{slash}SCL*%
X12105000Y-5370000D03*
%TO.P,R6,2*%
%TO.N,GND*%
X12105000Y-7020000D03*
%TD*%
D15*
%TO.P,C4,1*%
%TO.N,VDD*%
X15455000Y-18005000D03*
%TO.P,C4,2*%
%TO.N,GND*%
X16415000Y-18005000D03*
%TD*%
D23*
%TO.P,FID4,*%
%TO.N,*%
X22500000Y-27500000D03*
%TD*%
D20*
%TO.P,J5,1,Pin_1*%
%TO.N,GND*%
X4350000Y-9750000D03*
%TO.P,J5,2,Pin_2*%
%TO.N,/C1D0_N*%
X4350000Y-10250000D03*
%TO.P,J5,3,Pin_3*%
%TO.N,/C1D0_P*%
X4350000Y-10750000D03*
%TO.P,J5,4,Pin_4*%
%TO.N,GND*%
X4350000Y-11250000D03*
%TO.P,J5,5,Pin_5*%
%TO.N,/C1D1_N*%
X4350000Y-11750000D03*
%TO.P,J5,6,Pin_6*%
%TO.N,/C1D1_P*%
X4350000Y-12250000D03*
%TO.P,J5,7,Pin_7*%
%TO.N,GND*%
X4350000Y-12750000D03*
%TO.P,J5,8,Pin_8*%
%TO.N,/C1CK_N*%
X4350000Y-13250000D03*
%TO.P,J5,9,Pin_9*%
%TO.N,/C1CK_P*%
X4350000Y-13750000D03*
%TO.P,J5,10,Pin_10*%
%TO.N,GND*%
X4350000Y-14250000D03*
%TO.P,J5,11,Pin_11*%
%TO.N,/C1D2_N*%
X4350000Y-14750000D03*
%TO.P,J5,12,Pin_12*%
%TO.N,/C1D2_P*%
X4350000Y-15250000D03*
%TO.P,J5,13,Pin_13*%
%TO.N,GND*%
X4350000Y-15750000D03*
%TO.P,J5,14,Pin_14*%
%TO.N,/C1D3_N*%
X4350000Y-16250000D03*
%TO.P,J5,15,Pin_15*%
%TO.N,/C1D3_P*%
X4350000Y-16750000D03*
%TO.P,J5,16,Pin_16*%
%TO.N,GND*%
X4350000Y-17250000D03*
%TO.P,J5,17,Pin_17*%
%TO.N,/IO0*%
X4350000Y-17750000D03*
%TO.P,J5,18,Pin_18*%
%TO.N,/IO1*%
X4350000Y-18250000D03*
%TO.P,J5,19,Pin_19*%
%TO.N,GND*%
X4350000Y-18750000D03*
%TO.P,J5,20,Pin_20*%
%TO.N,/SCL*%
X4350000Y-19250000D03*
%TO.P,J5,21,Pin_21*%
%TO.N,/SDA*%
X4350000Y-19750000D03*
%TO.P,J5,22,Pin_22*%
%TO.N,/VDD33*%
X4350000Y-20250000D03*
D21*
%TO.P,J5,MP,MountPin*%
%TO.N,GND*%
X2650000Y-21920000D03*
X2650000Y-8080000D03*
%TD*%
D24*
%TO.P,Q1,1,S1*%
%TO.N,ERC{slash}SDA*%
X6475000Y-5475000D03*
%TO.P,Q1,2,G1*%
%TO.N,VCC*%
X6975000Y-5475000D03*
%TO.P,Q1,3,D2*%
%TO.N,/SCL*%
X7475000Y-5475000D03*
%TO.P,Q1,4,S2*%
%TO.N,EQ{slash}SCL*%
X7475000Y-6975000D03*
%TO.P,Q1,5,G2*%
%TO.N,VCC*%
X6975000Y-6975000D03*
%TO.P,Q1,6,D1*%
%TO.N,/SDA*%
X6475000Y-6975000D03*
%TD*%
D23*
%TO.P,FID3,*%
%TO.N,*%
X5500000Y-7945000D03*
%TD*%
D15*
%TO.P,C8,1*%
%TO.N,Net-(IC1-RSTN)*%
X16430000Y-8715000D03*
%TO.P,C8,2*%
%TO.N,GND*%
X17390000Y-8715000D03*
%TD*%
D14*
%TO.P,R7,1*%
%TO.N,VCC*%
X9015000Y-2370000D03*
%TO.P,R7,2*%
%TO.N,ERC{slash}SDA*%
X9015000Y-4020000D03*
%TD*%
D25*
%TO.P,U1,1,IN*%
%TO.N,/VDD33*%
X20875000Y-5422500D03*
%TO.P,U1,2,GND*%
%TO.N,GND*%
X21825000Y-5422500D03*
%TO.P,U1,3,EN*%
%TO.N,/IO0*%
X22775000Y-5422500D03*
%TO.P,U1,4,BP*%
%TO.N,Net-(U1-BP)*%
X22775000Y-7697500D03*
%TO.P,U1,5,OUT*%
%TO.N,VCC*%
X20875000Y-7697500D03*
%TD*%
D13*
%TO.P,TP4,1,1*%
%TO.N,GND*%
X22125000Y-1075000D03*
%TD*%
%TO.P,TP2,1,1*%
%TO.N,EQ{slash}SCL*%
X13525000Y-4725000D03*
%TD*%
D15*
%TO.P,C6,1*%
%TO.N,/VDD33*%
X20855000Y-4025000D03*
%TO.P,C6,2*%
%TO.N,GND*%
X21815000Y-4025000D03*
%TD*%
D13*
%TO.P,TP3,1,1*%
%TO.N,ERC{slash}SDA*%
X10325000Y-4725000D03*
%TD*%
D14*
%TO.P,R3,1*%
%TO.N,VCC*%
X15175000Y-2370000D03*
%TO.P,R3,2*%
%TO.N,PRE{slash}CFG1*%
X15175000Y-4020000D03*
%TD*%
D26*
%TO.P,C5,1*%
%TO.N,Net-(U1-BP)*%
X24015000Y-7695000D03*
%TO.P,C5,2*%
%TO.N,GND*%
X24015000Y-6735000D03*
%TD*%
D14*
%TO.P,R5,1*%
%TO.N,VCC*%
X12095000Y-2370000D03*
%TO.P,R5,2*%
%TO.N,EQ{slash}SCL*%
X12095000Y-4020000D03*
%TD*%
%TO.P,R4,1*%
%TO.N,PRE{slash}CFG1*%
X15185000Y-5370000D03*
%TO.P,R4,2*%
%TO.N,GND*%
X15185000Y-7020000D03*
%TD*%
D15*
%TO.P,C1,1*%
%TO.N,VCC*%
X16530000Y-17005000D03*
%TO.P,C1,2*%
%TO.N,GND*%
X17490000Y-17005000D03*
%TD*%
D27*
%TO.N,GND*%
X16740000Y-950000D03*
X3000000Y-12750000D03*
X16750000Y-4350000D03*
X27000000Y-11250000D03*
D28*
X15000000Y-12000000D03*
D29*
X18100000Y-8300000D03*
D28*
X15750000Y-12000000D03*
D27*
X6930000Y-24170000D03*
D29*
X11850000Y-8775000D03*
D27*
X22125000Y-1075000D03*
X13550000Y-26130000D03*
X27000000Y-17250000D03*
X22500000Y-9250000D03*
D28*
X14250000Y-12000000D03*
D27*
X19970000Y-28810000D03*
X9070000Y-950000D03*
D28*
X15000000Y-15000000D03*
X14250000Y-13500000D03*
D27*
X12130000Y-950000D03*
X29250000Y-6000000D03*
X3000000Y-14250000D03*
X4840000Y-21650000D03*
X27000000Y-10000000D03*
X3000000Y-15750000D03*
X7060000Y-28810000D03*
D29*
X18107727Y-17332727D03*
D27*
X19970000Y-26050000D03*
D30*
X13000000Y-10550000D03*
D27*
X9500000Y-9250000D03*
X11270000Y-28810000D03*
X3000000Y-11250000D03*
D29*
X12625000Y-8650000D03*
D27*
X3000000Y-18750000D03*
X25100000Y-22800000D03*
X23650000Y-28810000D03*
X3000000Y-17250000D03*
X3000000Y-10000000D03*
X15610000Y-28810000D03*
D30*
X17000000Y-10550000D03*
D27*
X27000000Y-15750000D03*
X26950000Y-20060000D03*
X27000000Y-18750000D03*
D29*
X18100000Y-9025000D03*
D27*
X24750000Y-9250000D03*
X29250000Y-23750000D03*
D28*
X15750000Y-13500000D03*
X15000000Y-13500000D03*
D27*
X5830000Y-950000D03*
X27000000Y-14250000D03*
X750000Y-6000000D03*
X27000000Y-12750000D03*
X20500000Y-9250000D03*
D28*
X14250000Y-15000000D03*
D27*
X5250000Y-9250000D03*
D28*
X15750000Y-15000000D03*
D27*
X750000Y-23750000D03*
%TO.N,/IO0*%
X23310000Y-4540000D03*
X21425000Y-17750000D03*
%TO.N,/IO1*%
X18885000Y-18500000D03*
%TO.N,/SCL*%
X13805000Y-19250000D03*
X7850000Y-4700000D03*
%TO.N,/SDA*%
X12750000Y-20000000D03*
X5790000Y-6310000D03*
%TO.N,/VDD33*%
X23350000Y-21340000D03*
X24090000Y-21040000D03*
X19950000Y-1930000D03*
%TO.N,VCC*%
X8170000Y-8010000D03*
D29*
X15925000Y-17300000D03*
D27*
X10500000Y-2370000D03*
D29*
%TO.N,VDD*%
X13550000Y-8425000D03*
X15175000Y-17300000D03*
%TO.N,EQ{slash}SCL*%
X14425000Y-17300000D03*
D27*
X11080000Y-6170000D03*
%TO.N,ERC{slash}SDA*%
X10325000Y-4725000D03*
D29*
X13675000Y-17300000D03*
%TO.N,PRE{slash}CFG1*%
X14475000Y-8425000D03*
%TO.N,VSADJ{slash}CFG0*%
X15475000Y-8425000D03*
%TD*%
D31*
%TO.N,GND*%
X3005000Y-12745000D02*
X3000000Y-12750000D01*
X25250000Y-9750000D02*
X24750000Y-9250000D01*
X25650000Y-9750000D02*
X26750000Y-9750000D01*
X3250000Y-9750000D02*
X3000000Y-10000000D01*
X3005000Y-17245000D02*
X3000000Y-17250000D01*
X26995000Y-12755000D02*
X27000000Y-12750000D01*
X17395000Y-9640000D02*
X17070000Y-9965000D01*
X16420000Y-18005000D02*
X16552660Y-18005000D01*
X4350000Y-9750000D02*
X4750000Y-9750000D01*
X25650000Y-11250000D02*
X27000000Y-11250000D01*
X12580000Y-9707660D02*
X13000000Y-10127660D01*
X25650000Y-18750000D02*
X27000000Y-18750000D01*
X26995000Y-14255000D02*
X27000000Y-14250000D01*
X18040454Y-17400000D02*
X18107727Y-17332727D01*
X26995000Y-11255000D02*
X27000000Y-11250000D01*
X4350000Y-12750000D02*
X3000000Y-12750000D01*
X3255000Y-9745000D02*
X3000000Y-10000000D01*
X16552660Y-18005000D02*
X17157660Y-17400000D01*
X12580000Y-9650000D02*
X12580000Y-9707660D01*
X25650000Y-14250000D02*
X27000000Y-14250000D01*
D32*
X17390000Y-9640000D02*
X17390000Y-8715000D01*
D31*
X25650000Y-15750000D02*
X27000000Y-15750000D01*
X3005000Y-14245000D02*
X3000000Y-14250000D01*
X3005000Y-15745000D02*
X3000000Y-15750000D01*
X18107727Y-17332727D02*
X17822727Y-17332727D01*
X25650000Y-17250000D02*
X27000000Y-17250000D01*
X4350000Y-17250000D02*
X3000000Y-17250000D01*
X26995000Y-17255000D02*
X27000000Y-17250000D01*
X4350000Y-9750000D02*
X3250000Y-9750000D01*
X26995000Y-15755000D02*
X27000000Y-15750000D01*
X17070000Y-9965000D02*
X17070000Y-10480000D01*
X26995000Y-18755000D02*
X27000000Y-18750000D01*
X4350000Y-15750000D02*
X3000000Y-15750000D01*
X4350000Y-18745000D02*
X3005000Y-18745000D01*
X17822727Y-17332727D02*
X17495000Y-17005000D01*
X17070000Y-10480000D02*
X17000000Y-10550000D01*
X3005000Y-18745000D02*
X3000000Y-18750000D01*
X4350000Y-11250000D02*
X3000000Y-11250000D01*
X3005000Y-11245000D02*
X3000000Y-11250000D01*
X25650000Y-12750000D02*
X27000000Y-12750000D01*
X13000000Y-10127660D02*
X13000000Y-10550000D01*
X17157660Y-17400000D02*
X18040454Y-17400000D01*
X26750000Y-9750000D02*
X27000000Y-10000000D01*
X25650000Y-9750000D02*
X25250000Y-9750000D01*
X4750000Y-9750000D02*
X5250000Y-9250000D01*
X4350000Y-14250000D02*
X3000000Y-14250000D01*
%TO.N,/IO0*%
X5457107Y-17750000D02*
X5707107Y-18000000D01*
D32*
X22775000Y-5075000D02*
X23310000Y-4540000D01*
D31*
X21420000Y-17745000D02*
X21425000Y-17750000D01*
X21430000Y-17755000D02*
X21425000Y-17750000D01*
X15022768Y-18700000D02*
X17624339Y-18700000D01*
X5707107Y-18000000D02*
X14322768Y-18000000D01*
X4350000Y-17750000D02*
X5457107Y-17750000D01*
X25650000Y-17750000D02*
X21425000Y-17750000D01*
X18574339Y-17750000D02*
X21425000Y-17750000D01*
D32*
X22775000Y-5422500D02*
X22775000Y-5075000D01*
D31*
X14322768Y-18000000D02*
X15022768Y-18700000D01*
X17624339Y-18700000D02*
X18574339Y-17750000D01*
%TO.N,/IO1*%
X18885000Y-18500000D02*
X18585788Y-18500000D01*
X24000000Y-18500000D02*
X18885000Y-18500000D01*
X14115661Y-18500000D02*
X5500000Y-18500000D01*
X17885788Y-19200000D02*
X14815661Y-19200000D01*
X14815661Y-19200000D02*
X14115661Y-18500000D01*
X25650000Y-18250000D02*
X24250000Y-18250000D01*
X18585788Y-18500000D02*
X17885788Y-19200000D01*
X5250000Y-18250000D02*
X4562107Y-18250000D01*
X5500000Y-18500000D02*
X5250000Y-18250000D01*
X24250000Y-18250000D02*
X24000000Y-18500000D01*
D32*
%TO.N,/SCL*%
X7475000Y-5075000D02*
X7850000Y-4700000D01*
D31*
X25650000Y-19250000D02*
X18542894Y-19250000D01*
D32*
X7475000Y-5475000D02*
X7475000Y-5075000D01*
D31*
X13810000Y-19255000D02*
X13805000Y-19250000D01*
X18542894Y-19250000D02*
X18092894Y-19700000D01*
X13800000Y-19245000D02*
X13805000Y-19250000D01*
X4350000Y-19250000D02*
X13805000Y-19250000D01*
X18092894Y-19700000D02*
X14255000Y-19700000D01*
X14255000Y-19700000D02*
X13805000Y-19250000D01*
D32*
%TO.N,/SDA*%
X5790000Y-6310000D02*
X5810000Y-6310000D01*
D31*
X25650000Y-19750000D02*
X18750000Y-19750000D01*
X4350000Y-19750000D02*
X12500000Y-19750000D01*
X13000000Y-20250000D02*
X12750000Y-20000000D01*
X12500000Y-19750000D02*
X12750000Y-20000000D01*
X18250000Y-20250000D02*
X13000000Y-20250000D01*
X18750000Y-19750000D02*
X18250000Y-20250000D01*
D32*
X5810000Y-6310000D02*
X6475000Y-6975000D01*
D33*
%TO.N,/VDD33*%
X20715000Y-2695000D02*
X19950000Y-1930000D01*
X20860000Y-2695000D02*
X20715000Y-2695000D01*
X20875000Y-4045000D02*
X20855000Y-4025000D01*
X20855000Y-4025000D02*
X20855000Y-2700000D01*
X20855000Y-2700000D02*
X20860000Y-2695000D01*
X20875000Y-5422500D02*
X20875000Y-4045000D01*
D34*
%TO.N,/C1D3_P*%
X12126630Y-15685000D02*
X11126630Y-16685000D01*
X12497499Y-15685000D02*
X12126630Y-15685000D01*
X12562499Y-15750000D02*
X12497499Y-15685000D01*
X5240001Y-16685000D02*
X5175001Y-16750000D01*
X5175001Y-16750000D02*
X4350000Y-16750000D01*
X13200000Y-15750000D02*
X12562499Y-15750000D01*
X11126630Y-16685000D02*
X5240001Y-16685000D01*
%TO.N,/C1D3_N*%
X10973370Y-16315000D02*
X5240001Y-16315000D01*
X13200000Y-15250000D02*
X12562499Y-15250000D01*
X5240001Y-16315000D02*
X5175001Y-16250000D01*
X5175001Y-16250000D02*
X4350000Y-16250000D01*
X11973370Y-15315000D02*
X10973370Y-16315000D01*
X12497499Y-15315000D02*
X11973370Y-15315000D01*
X12562499Y-15250000D02*
X12497499Y-15315000D01*
%TO.N,/C1D2_P*%
X5240001Y-15185000D02*
X5175001Y-15250000D01*
X5935000Y-15185000D02*
X5240001Y-15185000D01*
X12562499Y-14750000D02*
X12497499Y-14685000D01*
X5175001Y-15250000D02*
X4350000Y-15250000D01*
X11526630Y-14685000D02*
X10771629Y-15440000D01*
X10771629Y-15440000D02*
X6190000Y-15440000D01*
X12497499Y-14685000D02*
X11526630Y-14685000D01*
X13200000Y-14750000D02*
X12562499Y-14750000D01*
X6190000Y-15440000D02*
X5935000Y-15185000D01*
%TO.N,/C1D2_N*%
X10618370Y-15070000D02*
X6343260Y-15070000D01*
X5175001Y-14750000D02*
X4350000Y-14750000D01*
X12497499Y-14315000D02*
X11373370Y-14315000D01*
X5240001Y-14815000D02*
X5175001Y-14750000D01*
X6343260Y-15070000D02*
X6088259Y-14815000D01*
X11373370Y-14315000D02*
X10618370Y-15070000D01*
X13200000Y-14250000D02*
X12562499Y-14250000D01*
X12562499Y-14250000D02*
X12497499Y-14315000D01*
X6088259Y-14815000D02*
X5240001Y-14815000D01*
%TO.N,/C1CK_P*%
X6520000Y-13390000D02*
X8328371Y-13390000D01*
X8328371Y-13390000D02*
X8828372Y-13890000D01*
X6225000Y-13685000D02*
X6520000Y-13390000D01*
X4350000Y-13750000D02*
X5175001Y-13750000D01*
X5240001Y-13685000D02*
X6225000Y-13685000D01*
X12562499Y-13750000D02*
X13200000Y-13750000D01*
X10710001Y-13890000D02*
X10915000Y-13685000D01*
X8828372Y-13890000D02*
X10710001Y-13890000D01*
X12497499Y-13685000D02*
X12562499Y-13750000D01*
X10915000Y-13685000D02*
X12497499Y-13685000D01*
X5175001Y-13750000D02*
X5240001Y-13685000D01*
%TO.N,/C1CK_N*%
X10761741Y-13315000D02*
X12497499Y-13315000D01*
X8481631Y-13020000D02*
X8981631Y-13520000D01*
X12497499Y-13315000D02*
X12562499Y-13250000D01*
X8981631Y-13520000D02*
X10556741Y-13520000D01*
X5175001Y-13250000D02*
X5240001Y-13315000D01*
X12562499Y-13250000D02*
X13200000Y-13250000D01*
X10556741Y-13520000D02*
X10761741Y-13315000D01*
X4350000Y-13250000D02*
X5175001Y-13250000D01*
X6071740Y-13315000D02*
X6366740Y-13020000D01*
X5240001Y-13315000D02*
X6071740Y-13315000D01*
X6366740Y-13020000D02*
X8481631Y-13020000D01*
%TO.N,/C1D1_P*%
X13200000Y-12750000D02*
X12562499Y-12750000D01*
X11343370Y-12685000D02*
X10598370Y-11940000D01*
X5175001Y-12250000D02*
X4350000Y-12250000D01*
X10598370Y-11940000D02*
X6071630Y-11940000D01*
X12562499Y-12750000D02*
X12497499Y-12685000D01*
X12497499Y-12685000D02*
X11343370Y-12685000D01*
X5240001Y-12185000D02*
X5175001Y-12250000D01*
X5826629Y-12185000D02*
X5240001Y-12185000D01*
X6071630Y-11940000D02*
X5826629Y-12185000D01*
%TO.N,/C1D1_N*%
X12562499Y-12250000D02*
X12497499Y-12315000D01*
X11496630Y-12315000D02*
X10751630Y-11570000D01*
X5673370Y-11815000D02*
X5240001Y-11815000D01*
X5918370Y-11570000D02*
X5673370Y-11815000D01*
X13200000Y-12250000D02*
X12562499Y-12250000D01*
X5240001Y-11815000D02*
X5175001Y-11750000D01*
X5175001Y-11750000D02*
X4350000Y-11750000D01*
X10751630Y-11570000D02*
X5918370Y-11570000D01*
X12497499Y-12315000D02*
X11496630Y-12315000D01*
%TO.N,/C1D0_P*%
X5240001Y-10685000D02*
X11093370Y-10685000D01*
X4350000Y-10750000D02*
X5175001Y-10750000D01*
X12497499Y-11685000D02*
X12562499Y-11750000D01*
X11093370Y-10685000D02*
X12093370Y-11685000D01*
X5175001Y-10750000D02*
X5240001Y-10685000D01*
X12562499Y-11750000D02*
X13200000Y-11750000D01*
X12093370Y-11685000D02*
X12497499Y-11685000D01*
%TO.N,/C1D0_N*%
X11246630Y-10315000D02*
X12246630Y-11315000D01*
X12497499Y-11315000D02*
X12562499Y-11250000D01*
X4350000Y-10250000D02*
X5175001Y-10250000D01*
X5240001Y-10315000D02*
X11246630Y-10315000D01*
X5175001Y-10250000D02*
X5240001Y-10315000D01*
X12246630Y-11315000D02*
X12497499Y-11315000D01*
X12562499Y-11250000D02*
X13200000Y-11250000D01*
%TO.N,/S1D0_N*%
X17437501Y-11250000D02*
X16800000Y-11250000D01*
X24824999Y-10250000D02*
X24759999Y-10315000D01*
X17502501Y-11315000D02*
X17437501Y-11250000D01*
X25650000Y-10250000D02*
X24824999Y-10250000D01*
X17943370Y-11315000D02*
X17502501Y-11315000D01*
X18943370Y-10315000D02*
X17943370Y-11315000D01*
X24759999Y-10315000D02*
X18943370Y-10315000D01*
%TO.N,/S1D0_P*%
X17502501Y-11685000D02*
X17437501Y-11750000D01*
X25650000Y-10750000D02*
X24824999Y-10750000D01*
X24759999Y-10685000D02*
X19096630Y-10685000D01*
X18096630Y-11685000D02*
X17502501Y-11685000D01*
X24824999Y-10750000D02*
X24759999Y-10685000D01*
X17437501Y-11750000D02*
X16800000Y-11750000D01*
X19096630Y-10685000D02*
X18096630Y-11685000D01*
%TO.N,/S1D1_N*%
X24824999Y-11750000D02*
X25650000Y-11750000D01*
X23621630Y-11570000D02*
X23866630Y-11815000D01*
X24759999Y-11815000D02*
X24824999Y-11750000D01*
X16800000Y-12250000D02*
X17437501Y-12250000D01*
X19478370Y-11570000D02*
X23621630Y-11570000D01*
X18733370Y-12315000D02*
X19478370Y-11570000D01*
X17437501Y-12250000D02*
X17502501Y-12315000D01*
X17502501Y-12315000D02*
X18733370Y-12315000D01*
X23866630Y-11815000D02*
X24759999Y-11815000D01*
%TO.N,/S1D1_P*%
X17437501Y-12750000D02*
X17502501Y-12685000D01*
X17502501Y-12685000D02*
X18886630Y-12685000D01*
X24824999Y-12250000D02*
X25650000Y-12250000D01*
X16800000Y-12750000D02*
X17437501Y-12750000D01*
X19631630Y-11940000D02*
X23468371Y-11940000D01*
X18886630Y-12685000D02*
X19631630Y-11940000D01*
X24759999Y-12185000D02*
X24824999Y-12250000D01*
X23713371Y-12185000D02*
X24759999Y-12185000D01*
X23468371Y-11940000D02*
X23713371Y-12185000D01*
%TO.N,/S1CK_N*%
X17437501Y-13250000D02*
X16800000Y-13250000D01*
X24824999Y-13250000D02*
X24759999Y-13315000D01*
X17502501Y-13315000D02*
X17437501Y-13250000D01*
X23746630Y-13315000D02*
X23511629Y-13080000D01*
X24759999Y-13315000D02*
X23746630Y-13315000D01*
X20109999Y-13580000D02*
X19844999Y-13315000D01*
X23511629Y-13080000D02*
X22118370Y-13080000D01*
X25650000Y-13250000D02*
X24824999Y-13250000D01*
X22118370Y-13080000D02*
X21618370Y-13580000D01*
X21618370Y-13580000D02*
X20109999Y-13580000D01*
X19844999Y-13315000D02*
X17502501Y-13315000D01*
%TO.N,/S1CK_P*%
X24824999Y-13750000D02*
X24759999Y-13685000D01*
X24759999Y-13685000D02*
X23593370Y-13685000D01*
X22271630Y-13450000D02*
X21771630Y-13950000D01*
X21771630Y-13950000D02*
X19956740Y-13950000D01*
X23358370Y-13450000D02*
X22271630Y-13450000D01*
X17437501Y-13750000D02*
X16800000Y-13750000D01*
X25650000Y-13750000D02*
X24824999Y-13750000D01*
X17502501Y-13685000D02*
X17437501Y-13750000D01*
X23593370Y-13685000D02*
X23358370Y-13450000D01*
X19691740Y-13685000D02*
X17502501Y-13685000D01*
X19956740Y-13950000D02*
X19691740Y-13685000D01*
%TO.N,/S1D2_N*%
X19701630Y-15070000D02*
X23528371Y-15070000D01*
X23783371Y-14815000D02*
X24759999Y-14815000D01*
X24824999Y-14750000D02*
X25650000Y-14750000D01*
X17437501Y-14250000D02*
X17502501Y-14315000D01*
X16800000Y-14250000D02*
X17437501Y-14250000D01*
X17502501Y-14315000D02*
X18946630Y-14315000D01*
X18946630Y-14315000D02*
X19701630Y-15070000D01*
X23528371Y-15070000D02*
X23783371Y-14815000D01*
X24759999Y-14815000D02*
X24824999Y-14750000D01*
%TO.N,/S1D2_P*%
X17437501Y-14750000D02*
X17502501Y-14685000D01*
X24824999Y-15250000D02*
X25650000Y-15250000D01*
X23681631Y-15440000D02*
X23936630Y-15185000D01*
X16800000Y-14750000D02*
X17437501Y-14750000D01*
X19548371Y-15440000D02*
X23681631Y-15440000D01*
X23936630Y-15185000D02*
X24759999Y-15185000D01*
X18793370Y-14685000D02*
X19548371Y-15440000D01*
X17502501Y-14685000D02*
X18793370Y-14685000D01*
X24759999Y-15185000D02*
X24824999Y-15250000D01*
%TO.N,/S1D3_N*%
X24824999Y-16250000D02*
X24759999Y-16315000D01*
X25650000Y-16250000D02*
X24824999Y-16250000D01*
X19276630Y-16315000D02*
X18276630Y-15315000D01*
X17437501Y-15250000D02*
X16800000Y-15250000D01*
X18276630Y-15315000D02*
X17502501Y-15315000D01*
X17502501Y-15315000D02*
X17437501Y-15250000D01*
X24759999Y-16315000D02*
X19276630Y-16315000D01*
%TO.N,/S1D3_P*%
X24759999Y-16685000D02*
X19123370Y-16685000D01*
X18123370Y-15685000D02*
X17502501Y-15685000D01*
X17437501Y-15750000D02*
X16800000Y-15750000D01*
X24824999Y-16750000D02*
X24759999Y-16685000D01*
X17502501Y-15685000D02*
X17437501Y-15750000D01*
X19123370Y-16685000D02*
X18123370Y-15685000D01*
X25650000Y-16750000D02*
X24824999Y-16750000D01*
D35*
%TO.N,VCC*%
X9015000Y-2370000D02*
X7180000Y-2370000D01*
D32*
X7340000Y-8010000D02*
X6975000Y-7645000D01*
D31*
X15750000Y-16750000D02*
X15950000Y-16950000D01*
D35*
X18105000Y-2370000D02*
X18820000Y-2370000D01*
D32*
X6975000Y-6975000D02*
X6975000Y-5475000D01*
D31*
X16005000Y-17005000D02*
X15950000Y-16950000D01*
X15925000Y-16975000D02*
X15925000Y-17300000D01*
D35*
X10500000Y-2370000D02*
X18105000Y-2370000D01*
X7180000Y-2370000D02*
X7175000Y-2375000D01*
D31*
X15950000Y-16950000D02*
X15950000Y-17275000D01*
D35*
X19700000Y-3250000D02*
X19700000Y-6522500D01*
D31*
X15950000Y-17275000D02*
X15925000Y-17300000D01*
D35*
X9015000Y-2370000D02*
X10500000Y-2370000D01*
D31*
X16525000Y-17005000D02*
X16005000Y-17005000D01*
X15750000Y-16200000D02*
X15750000Y-16750000D01*
X15950000Y-16950000D02*
X15925000Y-16975000D01*
D32*
X6975000Y-7645000D02*
X6975000Y-6975000D01*
D35*
X18820000Y-2370000D02*
X19700000Y-3250000D01*
D32*
X8170000Y-8010000D02*
X7340000Y-8010000D01*
D35*
X19700000Y-6522500D02*
X20875000Y-7697500D01*
D31*
%TO.N,VDD*%
X13550000Y-9650000D02*
X13550000Y-9975000D01*
X13550000Y-9975000D02*
X14250000Y-10675000D01*
X14250000Y-10675000D02*
X14250000Y-10800000D01*
X15450000Y-17708884D02*
X15450000Y-18005000D01*
X15175000Y-17433884D02*
X15450000Y-17708884D01*
X15175000Y-17300000D02*
X15175000Y-17433884D01*
X13550000Y-9650000D02*
X13550000Y-8425000D01*
X15250000Y-17225000D02*
X15175000Y-17300000D01*
X15250000Y-16200000D02*
X15250000Y-17225000D01*
D33*
%TO.N,Net-(U1-BP)*%
X22777500Y-7695000D02*
X22775000Y-7697500D01*
X24015000Y-7695000D02*
X22777500Y-7695000D01*
D31*
%TO.N,EQ{slash}SCL*%
X14750000Y-16200000D02*
X14750000Y-16841116D01*
X14750000Y-16841116D02*
X14425000Y-17166116D01*
D33*
X11080000Y-6170000D02*
X8280000Y-6170000D01*
X12095000Y-5360000D02*
X12105000Y-5370000D01*
X12095000Y-4020000D02*
X12095000Y-5360000D01*
X7545000Y-6905000D02*
X7545000Y-6975000D01*
X12105000Y-5370000D02*
X11305000Y-6170000D01*
X12105000Y-5370000D02*
X12880000Y-5370000D01*
D31*
X14425000Y-17166116D02*
X14425000Y-17300000D01*
D33*
X11305000Y-6170000D02*
X11080000Y-6170000D01*
X8280000Y-6170000D02*
X7545000Y-6905000D01*
X12880000Y-5370000D02*
X13525000Y-4725000D01*
D31*
%TO.N,ERC{slash}SDA*%
X14250000Y-16200000D02*
X14250000Y-16591116D01*
D32*
X9015000Y-4020000D02*
X9015000Y-4500000D01*
D33*
X9025000Y-5370000D02*
X9680000Y-5370000D01*
X9680000Y-5370000D02*
X10325000Y-4725000D01*
X9015000Y-5360000D02*
X9025000Y-5370000D01*
D32*
X7555000Y-3725000D02*
X8720000Y-3725000D01*
X6475000Y-5475000D02*
X6475000Y-4805000D01*
D31*
X14250000Y-16591116D02*
X13675000Y-17166116D01*
D33*
X9015000Y-4020000D02*
X9015000Y-5360000D01*
D32*
X8720000Y-3725000D02*
X9015000Y-4020000D01*
X6475000Y-4805000D02*
X7555000Y-3725000D01*
D31*
X13675000Y-17166116D02*
X13675000Y-17300000D01*
D33*
%TO.N,PRE{slash}CFG1*%
X15175000Y-4020000D02*
X15175000Y-5360000D01*
D31*
X14630000Y-5370000D02*
X14150000Y-5850000D01*
D33*
X15175000Y-5360000D02*
X15185000Y-5370000D01*
D31*
X14150000Y-8100000D02*
X14475000Y-8425000D01*
X14150000Y-5850000D02*
X14150000Y-8100000D01*
X15185000Y-5370000D02*
X14630000Y-5370000D01*
X14750000Y-8700000D02*
X14475000Y-8425000D01*
X14750000Y-10800000D02*
X14750000Y-8700000D01*
%TO.N,Net-(IC1-RSTN)*%
X16425000Y-9640000D02*
X16425000Y-9975000D01*
X16425000Y-9975000D02*
X15750000Y-10650000D01*
X15750000Y-10650000D02*
X15750000Y-10800000D01*
D33*
X16430000Y-9640000D02*
X16430000Y-8715000D01*
%TO.N,VSADJ{slash}CFG0*%
X18105000Y-4020000D02*
X18105000Y-5360000D01*
D31*
X15475000Y-8425000D02*
X16650000Y-7250000D01*
X15250000Y-10800000D02*
X15250000Y-8650000D01*
X17630000Y-5370000D02*
X18115000Y-5370000D01*
D33*
X18105000Y-5360000D02*
X18115000Y-5370000D01*
D31*
X16650000Y-7250000D02*
X16650000Y-6350000D01*
X16650000Y-6350000D02*
X17630000Y-5370000D01*
X15250000Y-8650000D02*
X15475000Y-8425000D01*
%TD*%
%TA.AperFunction,Conductor*%
%TO.N,GND*%
G36*
X21656341Y-320185D02*
G01*
X21702096Y-372989D01*
X21712522Y-438384D01*
X21711306Y-449174D01*
X22125000Y-862868D01*
X22125001Y-862868D01*
X22538693Y-449173D01*
X22537478Y-438382D01*
X22549533Y-369561D01*
X22596883Y-318182D01*
X22660698Y-300500D01*
X25143984Y-300500D01*
X25211023Y-320185D01*
X25256778Y-372989D01*
X25266722Y-442147D01*
X25237697Y-505703D01*
X25215739Y-525630D01*
X25095040Y-611269D01*
X24839573Y-839570D01*
X24839570Y-839573D01*
X24611269Y-1095040D01*
X24412998Y-1374478D01*
X24247263Y-1674353D01*
X24160079Y-1884834D01*
X24116196Y-1990779D01*
X24116146Y-1990899D01*
X24021297Y-2320124D01*
X24021295Y-2320133D01*
X23963905Y-2657906D01*
X23963903Y-2657918D01*
X23944693Y-3000000D01*
X23963903Y-3342081D01*
X23963905Y-3342093D01*
X24021295Y-3679866D01*
X24021297Y-3679875D01*
X24077512Y-3875000D01*
X24116147Y-4009104D01*
X24247264Y-4325648D01*
X24337479Y-4488880D01*
X24412998Y-4625521D01*
X24611269Y-4904959D01*
X24839570Y-5160426D01*
X24839573Y-5160429D01*
X25095040Y-5388730D01*
X25095046Y-5388734D01*
X25095047Y-5388735D01*
X25374479Y-5587002D01*
X25674352Y-5752736D01*
X25990896Y-5883853D01*
X26320130Y-5978704D01*
X26657914Y-6036096D01*
X27000000Y-6055307D01*
X27342086Y-6036096D01*
X27679870Y-5978704D01*
X28009104Y-5883853D01*
X28325648Y-5752736D01*
X28625521Y-5587002D01*
X28904953Y-5388735D01*
X29160428Y-5160428D01*
X29337170Y-4962654D01*
X29388730Y-4904959D01*
X29388731Y-4904957D01*
X29388735Y-4904953D01*
X29474370Y-4784260D01*
X29529218Y-4740977D01*
X29598760Y-4734217D01*
X29660917Y-4766128D01*
X29695955Y-4826577D01*
X29699500Y-4856016D01*
X29699500Y-25143983D01*
X29679815Y-25211022D01*
X29627011Y-25256777D01*
X29557853Y-25266721D01*
X29494297Y-25237696D01*
X29474371Y-25215739D01*
X29388731Y-25095042D01*
X29160429Y-24839573D01*
X29160426Y-24839570D01*
X28904959Y-24611269D01*
X28625521Y-24412998D01*
X28325646Y-24247263D01*
X28260087Y-24220108D01*
X28009104Y-24116147D01*
X27924479Y-24091766D01*
X27679875Y-24021297D01*
X27679866Y-24021295D01*
X27342093Y-23963905D01*
X27342081Y-23963903D01*
X27000000Y-23944693D01*
X26657918Y-23963903D01*
X26657906Y-23963905D01*
X26320133Y-24021295D01*
X26320124Y-24021297D01*
X25990899Y-24116146D01*
X25990896Y-24116147D01*
X25898184Y-24154549D01*
X25674353Y-24247263D01*
X25374478Y-24412998D01*
X25095040Y-24611269D01*
X24839573Y-24839570D01*
X24839570Y-24839573D01*
X24611269Y-25095040D01*
X24412998Y-25374478D01*
X24247263Y-25674353D01*
X24116146Y-25990899D01*
X24021297Y-26320124D01*
X24021295Y-26320133D01*
X23963905Y-26657906D01*
X23963903Y-26657918D01*
X23944693Y-27000000D01*
X23963903Y-27342081D01*
X23963905Y-27342093D01*
X23993626Y-27517020D01*
X24021296Y-27679870D01*
X24116147Y-28009104D01*
X24188764Y-28184416D01*
X24247263Y-28325646D01*
X24412998Y-28625521D01*
X24611269Y-28904959D01*
X24839570Y-29160426D01*
X24839573Y-29160429D01*
X25095040Y-29388730D01*
X25215739Y-29474370D01*
X25259023Y-29529218D01*
X25265783Y-29598760D01*
X25233872Y-29660917D01*
X25173423Y-29695955D01*
X25143984Y-29699500D01*
X4856016Y-29699500D01*
X4788977Y-29679815D01*
X4743222Y-29627011D01*
X4733278Y-29557853D01*
X4762303Y-29494297D01*
X4784261Y-29474370D01*
X4904953Y-29388735D01*
X4962836Y-29337008D01*
X4985414Y-29316829D01*
X5160428Y-29160428D01*
X5388735Y-28904953D01*
X5587002Y-28625521D01*
X5752736Y-28325648D01*
X5883853Y-28009104D01*
X5978704Y-27679870D01*
X6009265Y-27500000D01*
X21994353Y-27500000D01*
X22014834Y-27642456D01*
X22031919Y-27679866D01*
X22074623Y-27773373D01*
X22168872Y-27882143D01*
X22289947Y-27959953D01*
X22289950Y-27959954D01*
X22289949Y-27959954D01*
X22428036Y-28000499D01*
X22428038Y-28000500D01*
X22428039Y-28000500D01*
X22571962Y-28000500D01*
X22571962Y-28000499D01*
X22710053Y-27959953D01*
X22831128Y-27882143D01*
X22925377Y-27773373D01*
X22985165Y-27642457D01*
X23005647Y-27500000D01*
X22985165Y-27357543D01*
X22925377Y-27226627D01*
X22831128Y-27117857D01*
X22710053Y-27040047D01*
X22710051Y-27040046D01*
X22710049Y-27040045D01*
X22710050Y-27040045D01*
X22571963Y-26999500D01*
X22571961Y-26999500D01*
X22428039Y-26999500D01*
X22428036Y-26999500D01*
X22289949Y-27040045D01*
X22168873Y-27117856D01*
X22074623Y-27226626D01*
X22074622Y-27226628D01*
X22014834Y-27357543D01*
X21994353Y-27500000D01*
X6009265Y-27500000D01*
X6036096Y-27342086D01*
X6055307Y-27000000D01*
X6036096Y-26657914D01*
X5978704Y-26320130D01*
X5883853Y-25990896D01*
X5752736Y-25674352D01*
X5587002Y-25374479D01*
X5388735Y-25095047D01*
X5388731Y-25095042D01*
X5388730Y-25095040D01*
X5160429Y-24839573D01*
X5160426Y-24839570D01*
X4904959Y-24611269D01*
X4625521Y-24412998D01*
X4325646Y-24247263D01*
X4260087Y-24220108D01*
X4009104Y-24116147D01*
X3924479Y-24091766D01*
X3679875Y-24021297D01*
X3679866Y-24021295D01*
X3342093Y-23963905D01*
X3342081Y-23963903D01*
X3000000Y-23944693D01*
X2657918Y-23963903D01*
X2657906Y-23963905D01*
X2320133Y-24021295D01*
X2320124Y-24021297D01*
X1990899Y-24116146D01*
X1990896Y-24116147D01*
X1898184Y-24154549D01*
X1674353Y-24247263D01*
X1374478Y-24412998D01*
X1095040Y-24611269D01*
X839573Y-24839570D01*
X839570Y-24839573D01*
X611268Y-25095042D01*
X525629Y-25215739D01*
X470781Y-25259022D01*
X401240Y-25265782D01*
X339083Y-25233871D01*
X304045Y-25173422D01*
X300500Y-25143983D01*
X300500Y-22070000D01*
X850000Y-22070000D01*
X850000Y-23094628D01*
X864503Y-23167540D01*
X864505Y-23167544D01*
X919760Y-23250239D01*
X1002455Y-23305494D01*
X1002459Y-23305496D01*
X1075371Y-23319999D01*
X1075374Y-23320000D01*
X2500000Y-23320000D01*
X2500000Y-22070000D01*
X2800000Y-22070000D01*
X2800000Y-23320000D01*
X4224626Y-23320000D01*
X4224628Y-23319999D01*
X4297540Y-23305496D01*
X4297544Y-23305494D01*
X4380239Y-23250239D01*
X4435494Y-23167544D01*
X4435496Y-23167540D01*
X4449999Y-23094628D01*
X4450000Y-23094626D01*
X4450000Y-22070000D01*
X2800000Y-22070000D01*
X2500000Y-22070000D01*
X850000Y-22070000D01*
X300500Y-22070000D01*
X300500Y-21770000D01*
X850000Y-21770000D01*
X2500000Y-21770000D01*
X2800000Y-21770000D01*
X4450000Y-21770000D01*
X4450000Y-21110694D01*
X4469685Y-21043655D01*
X4522489Y-20997900D01*
X4591647Y-20987956D01*
X4655203Y-21016981D01*
X4661681Y-21023013D01*
X4820725Y-21182057D01*
X4875874Y-21223935D01*
X4933878Y-21256650D01*
X4954916Y-21264994D01*
X4966802Y-21270452D01*
X5052701Y-21315536D01*
X5077296Y-21332512D01*
X5126565Y-21376159D01*
X5146385Y-21398532D01*
X5183770Y-21452693D01*
X5197662Y-21479161D01*
X5217551Y-21531605D01*
X5241884Y-21579719D01*
X5270147Y-21623432D01*
X5300088Y-21660482D01*
X5304040Y-21665372D01*
X7783015Y-24144347D01*
X7803365Y-24162626D01*
X7803371Y-24162631D01*
X7803379Y-24162638D01*
X7824000Y-24179255D01*
X7824002Y-24179256D01*
X7824007Y-24179260D01*
X7912338Y-24225465D01*
X7979377Y-24245150D01*
X7979381Y-24245150D01*
X7979383Y-24245151D01*
X7991014Y-24246823D01*
X8051362Y-24255500D01*
X8051363Y-24255500D01*
X9698639Y-24255500D01*
X9700075Y-24255422D01*
X9725952Y-24254036D01*
X9752310Y-24251202D01*
X9847444Y-24221413D01*
X9908767Y-24187928D01*
X9966985Y-24144347D01*
X10144347Y-23966985D01*
X10162626Y-23946635D01*
X10179260Y-23925993D01*
X10225465Y-23837662D01*
X10225468Y-23837649D01*
X10225854Y-23836697D01*
X10226193Y-23836267D01*
X10228288Y-23832264D01*
X10229047Y-23832661D01*
X10269206Y-23781903D01*
X10335299Y-23759245D01*
X10403151Y-23775916D01*
X10439791Y-23808396D01*
X10448236Y-23819579D01*
X10448236Y-23819580D01*
X10598958Y-23956980D01*
X10598960Y-23956982D01*
X10698141Y-24018392D01*
X10772363Y-24064348D01*
X10962544Y-24138024D01*
X11163024Y-24175500D01*
X11163026Y-24175500D01*
X11366974Y-24175500D01*
X11366976Y-24175500D01*
X11567456Y-24138024D01*
X11757637Y-24064348D01*
X11931041Y-23956981D01*
X12081764Y-23819579D01*
X12204673Y-23656821D01*
X12295582Y-23474250D01*
X12351397Y-23278083D01*
X12370215Y-23075000D01*
X12351397Y-22871917D01*
X12295582Y-22675750D01*
X12204673Y-22493179D01*
X12081764Y-22330421D01*
X11961884Y-22221136D01*
X11925603Y-22161426D01*
X11927364Y-22091579D01*
X11966607Y-22033771D01*
X12030874Y-22006356D01*
X12045423Y-22005500D01*
X13024577Y-22005500D01*
X13091616Y-22025185D01*
X13137371Y-22077989D01*
X13147315Y-22147147D01*
X13118290Y-22210703D01*
X13108115Y-22221137D01*
X12988237Y-22330419D01*
X12865327Y-22493178D01*
X12774422Y-22675739D01*
X12774417Y-22675752D01*
X12718602Y-22871917D01*
X12699785Y-23074999D01*
X12699785Y-23075000D01*
X12718602Y-23278082D01*
X12774417Y-23474247D01*
X12774422Y-23474260D01*
X12865327Y-23656821D01*
X12988237Y-23819581D01*
X13138958Y-23956980D01*
X13138960Y-23956982D01*
X13238141Y-24018392D01*
X13312363Y-24064348D01*
X13502544Y-24138024D01*
X13703024Y-24175500D01*
X13703026Y-24175500D01*
X13906974Y-24175500D01*
X13906976Y-24175500D01*
X14107456Y-24138024D01*
X14297637Y-24064348D01*
X14471041Y-23956981D01*
X14621764Y-23819579D01*
X14744673Y-23656821D01*
X14835582Y-23474250D01*
X14891397Y-23278083D01*
X14910215Y-23075000D01*
X14891397Y-22871917D01*
X14835582Y-22675750D01*
X14744673Y-22493179D01*
X14621764Y-22330421D01*
X14501884Y-22221136D01*
X14465603Y-22161426D01*
X14467364Y-22091579D01*
X14506607Y-22033771D01*
X14570874Y-22006356D01*
X14585423Y-22005500D01*
X15565319Y-22005500D01*
X15632358Y-22025185D01*
X15678113Y-22077989D01*
X15688057Y-22147147D01*
X15659032Y-22210703D01*
X15648857Y-22221137D01*
X15528608Y-22330757D01*
X15405754Y-22493443D01*
X15314886Y-22675930D01*
X15314883Y-22675936D01*
X15259097Y-22872008D01*
X15254186Y-22924999D01*
X15254187Y-22925000D01*
X15867935Y-22925000D01*
X15845000Y-23003111D01*
X15845000Y-23146889D01*
X15867935Y-23225000D01*
X15254187Y-23225000D01*
X15259097Y-23277991D01*
X15314883Y-23474063D01*
X15314886Y-23474069D01*
X15405754Y-23656556D01*
X15528608Y-23819242D01*
X15679260Y-23956578D01*
X15852584Y-24063897D01*
X16042678Y-24137539D01*
X16195000Y-24166013D01*
X16195000Y-23556170D01*
X16202685Y-23559680D01*
X16309237Y-23575000D01*
X16380763Y-23575000D01*
X16487315Y-23559680D01*
X16495000Y-23556170D01*
X16495000Y-24166013D01*
X16647321Y-24137539D01*
X16837415Y-24063897D01*
X17010739Y-23956578D01*
X17161391Y-23819242D01*
X17284245Y-23656556D01*
X17375113Y-23474069D01*
X17375116Y-23474063D01*
X17430902Y-23277991D01*
X17435813Y-23225000D01*
X16822065Y-23225000D01*
X16845000Y-23146889D01*
X16845000Y-23003111D01*
X16822065Y-22925000D01*
X17435813Y-22925000D01*
X17435813Y-22924999D01*
X17430902Y-22872008D01*
X17375116Y-22675936D01*
X17375113Y-22675930D01*
X17284245Y-22493443D01*
X17161391Y-22330757D01*
X17041143Y-22221137D01*
X17004861Y-22161426D01*
X17006622Y-22091578D01*
X17045865Y-22033771D01*
X17110132Y-22006356D01*
X17124681Y-22005500D01*
X18104577Y-22005500D01*
X18171616Y-22025185D01*
X18217371Y-22077989D01*
X18227315Y-22147147D01*
X18198290Y-22210703D01*
X18188115Y-22221137D01*
X18068237Y-22330419D01*
X17945327Y-22493178D01*
X17854422Y-22675739D01*
X17854417Y-22675752D01*
X17798602Y-22871917D01*
X17779785Y-23074999D01*
X17779785Y-23075000D01*
X17798602Y-23278082D01*
X17854417Y-23474247D01*
X17854422Y-23474260D01*
X17945327Y-23656821D01*
X18068237Y-23819581D01*
X18218958Y-23956980D01*
X18218960Y-23956982D01*
X18318141Y-24018392D01*
X18392363Y-24064348D01*
X18582544Y-24138024D01*
X18783024Y-24175500D01*
X18783026Y-24175500D01*
X18986974Y-24175500D01*
X18986976Y-24175500D01*
X19187456Y-24138024D01*
X19377637Y-24064348D01*
X19551041Y-23956981D01*
X19701764Y-23819579D01*
X19824673Y-23656821D01*
X19915582Y-23474250D01*
X19971397Y-23278083D01*
X19990215Y-23075000D01*
X19971397Y-22871917D01*
X19915582Y-22675750D01*
X19824673Y-22493179D01*
X19701764Y-22330421D01*
X19581884Y-22221136D01*
X19545603Y-22161426D01*
X19547364Y-22091579D01*
X19586607Y-22033771D01*
X19650874Y-22006356D01*
X19665423Y-22005500D01*
X20212159Y-22005500D01*
X20279198Y-22025185D01*
X20324953Y-22077989D01*
X20334897Y-22147147D01*
X20333776Y-22153692D01*
X20324500Y-22200323D01*
X20324500Y-23949678D01*
X20339032Y-24022735D01*
X20339033Y-24022739D01*
X20339034Y-24022740D01*
X20394399Y-24105601D01*
X20477260Y-24160966D01*
X20477264Y-24160967D01*
X20550321Y-24175499D01*
X20550324Y-24175500D01*
X20550326Y-24175500D01*
X22299676Y-24175500D01*
X22299677Y-24175499D01*
X22372740Y-24160966D01*
X22455601Y-24105601D01*
X22510966Y-24022740D01*
X22525500Y-23949674D01*
X22525500Y-22200326D01*
X22525500Y-22200323D01*
X22516224Y-22153692D01*
X22522451Y-22084101D01*
X22533405Y-22070000D01*
X25550000Y-22070000D01*
X25550000Y-23094628D01*
X25564503Y-23167540D01*
X25564505Y-23167544D01*
X25619760Y-23250239D01*
X25702455Y-23305494D01*
X25702459Y-23305496D01*
X25775371Y-23319999D01*
X25775374Y-23320000D01*
X27200000Y-23320000D01*
X27200000Y-22070000D01*
X27500000Y-22070000D01*
X27500000Y-23320000D01*
X28924626Y-23320000D01*
X28924628Y-23319999D01*
X28997540Y-23305496D01*
X28997544Y-23305494D01*
X29080239Y-23250239D01*
X29135494Y-23167544D01*
X29135496Y-23167540D01*
X29149999Y-23094628D01*
X29150000Y-23094626D01*
X29150000Y-22070000D01*
X27500000Y-22070000D01*
X27200000Y-22070000D01*
X25550000Y-22070000D01*
X22533405Y-22070000D01*
X22565313Y-22028923D01*
X22631203Y-22005678D01*
X22637841Y-22005500D01*
X23948639Y-22005500D01*
X23950075Y-22005422D01*
X23975952Y-22004036D01*
X24002310Y-22001202D01*
X24097444Y-21971413D01*
X24158767Y-21937928D01*
X24216985Y-21894347D01*
X25319512Y-20791818D01*
X25380835Y-20758334D01*
X25407193Y-20755500D01*
X25426000Y-20755500D01*
X25493039Y-20775185D01*
X25538794Y-20827989D01*
X25550000Y-20879500D01*
X25550000Y-21770000D01*
X27200000Y-21770000D01*
X27200000Y-20520000D01*
X27500000Y-20520000D01*
X27500000Y-21770000D01*
X29150000Y-21770000D01*
X29150000Y-20745373D01*
X29149999Y-20745371D01*
X29135496Y-20672459D01*
X29135494Y-20672455D01*
X29080239Y-20589760D01*
X28997544Y-20534505D01*
X28997540Y-20534503D01*
X28924627Y-20520000D01*
X27500000Y-20520000D01*
X27200000Y-20520000D01*
X26627900Y-20520000D01*
X26560861Y-20500315D01*
X26515106Y-20447511D01*
X26505459Y-20380435D01*
X26505184Y-20380416D01*
X26505274Y-20379151D01*
X26505161Y-20378362D01*
X26505499Y-20376007D01*
X26505500Y-20375998D01*
X26505500Y-20274500D01*
X26499661Y-20220187D01*
X26488455Y-20168676D01*
X26481219Y-20142302D01*
X26464426Y-20112812D01*
X26450563Y-20075645D01*
X26450500Y-20075326D01*
X26440328Y-20024188D01*
X26440328Y-19975810D01*
X26450500Y-19924674D01*
X26450500Y-19575326D01*
X26440328Y-19524188D01*
X26440328Y-19475810D01*
X26450500Y-19424674D01*
X26450500Y-19075326D01*
X26440073Y-19022906D01*
X26440073Y-18974524D01*
X26450000Y-18924623D01*
X26450000Y-18900000D01*
X26389183Y-18900000D01*
X26322144Y-18880315D01*
X26320294Y-18879103D01*
X26287586Y-18857249D01*
X26288409Y-18856016D01*
X26244610Y-18820722D01*
X26222544Y-18754429D01*
X26239822Y-18686729D01*
X26290958Y-18639117D01*
X26297486Y-18636135D01*
X26297738Y-18635966D01*
X26297740Y-18635966D01*
X26307952Y-18629142D01*
X26320294Y-18620897D01*
X26386972Y-18600020D01*
X26389183Y-18600000D01*
X26450000Y-18600000D01*
X26450000Y-18575376D01*
X26440073Y-18525475D01*
X26440073Y-18477091D01*
X26450500Y-18424674D01*
X26450500Y-18075326D01*
X26440328Y-18024188D01*
X26440328Y-17975810D01*
X26450500Y-17924674D01*
X26450500Y-17575326D01*
X26440073Y-17522906D01*
X26440073Y-17474524D01*
X26450000Y-17424623D01*
X26450000Y-17400000D01*
X26445877Y-17395877D01*
X26412392Y-17334554D01*
X26417376Y-17264862D01*
X26445875Y-17220516D01*
X26528050Y-17138342D01*
X26585646Y-17025304D01*
X26585646Y-17025302D01*
X26585647Y-17025301D01*
X26600499Y-16931524D01*
X26600500Y-16931519D01*
X26600499Y-16568482D01*
X26592725Y-16519396D01*
X26592725Y-16480605D01*
X26600500Y-16431519D01*
X26600499Y-16068482D01*
X26585646Y-15974696D01*
X26528050Y-15861658D01*
X26504072Y-15837680D01*
X26470588Y-15776360D01*
X26475572Y-15706668D01*
X26504072Y-15662319D01*
X26528050Y-15638342D01*
X26585646Y-15525304D01*
X26585646Y-15525302D01*
X26585647Y-15525301D01*
X26600499Y-15431524D01*
X26600500Y-15431519D01*
X26600499Y-15068482D01*
X26592725Y-15019396D01*
X26592725Y-14980605D01*
X26600500Y-14931519D01*
X26600499Y-14568482D01*
X26585646Y-14474696D01*
X26528050Y-14361658D01*
X26504072Y-14337680D01*
X26470588Y-14276360D01*
X26475572Y-14206668D01*
X26504072Y-14162319D01*
X26528050Y-14138342D01*
X26585646Y-14025304D01*
X26585646Y-14025302D01*
X26585647Y-14025301D01*
X26600499Y-13931524D01*
X26600500Y-13931519D01*
X26600499Y-13568482D01*
X26592725Y-13519396D01*
X26592725Y-13480605D01*
X26600500Y-13431519D01*
X26600499Y-13068482D01*
X26585646Y-12974696D01*
X26528050Y-12861658D01*
X26504072Y-12837680D01*
X26470588Y-12776360D01*
X26475572Y-12706668D01*
X26504072Y-12662319D01*
X26528050Y-12638342D01*
X26585646Y-12525304D01*
X26585646Y-12525302D01*
X26585647Y-12525301D01*
X26600499Y-12431524D01*
X26600500Y-12431519D01*
X26600499Y-12068482D01*
X26592725Y-12019396D01*
X26592725Y-11980605D01*
X26600500Y-11931519D01*
X26600499Y-11568482D01*
X26585646Y-11474696D01*
X26528050Y-11361658D01*
X26504072Y-11337680D01*
X26470588Y-11276360D01*
X26475572Y-11206668D01*
X26504072Y-11162319D01*
X26528050Y-11138342D01*
X26585646Y-11025304D01*
X26585646Y-11025302D01*
X26585647Y-11025301D01*
X26600499Y-10931524D01*
X26600500Y-10931519D01*
X26600499Y-10568482D01*
X26592725Y-10519396D01*
X26592725Y-10480605D01*
X26600500Y-10431519D01*
X26600499Y-10068482D01*
X26585646Y-9974696D01*
X26528050Y-9861658D01*
X26528046Y-9861654D01*
X26528045Y-9861652D01*
X26445877Y-9779484D01*
X26412392Y-9718161D01*
X26417376Y-9648469D01*
X26445878Y-9604121D01*
X26451663Y-9598335D01*
X26469685Y-9536961D01*
X26522489Y-9491206D01*
X26574000Y-9480000D01*
X27200000Y-9480000D01*
X27200000Y-8230000D01*
X27500000Y-8230000D01*
X27500000Y-9480000D01*
X28924626Y-9480000D01*
X28924628Y-9479999D01*
X28997540Y-9465496D01*
X28997544Y-9465494D01*
X29080239Y-9410239D01*
X29135494Y-9327544D01*
X29135496Y-9327540D01*
X29149999Y-9254628D01*
X29150000Y-9254626D01*
X29150000Y-8230000D01*
X27500000Y-8230000D01*
X27200000Y-8230000D01*
X25550000Y-8230000D01*
X25550000Y-9226000D01*
X25530315Y-9293039D01*
X25477511Y-9338794D01*
X25426000Y-9350000D01*
X25075373Y-9350000D01*
X25002459Y-9364503D01*
X25002455Y-9364505D01*
X24919760Y-9419760D01*
X24864505Y-9502455D01*
X24864503Y-9502459D01*
X24850000Y-9575371D01*
X24850000Y-9635998D01*
X24830315Y-9703037D01*
X24777511Y-9748792D01*
X24734850Y-9759682D01*
X24718587Y-9760845D01*
X24714228Y-9762471D01*
X24688566Y-9769020D01*
X24683968Y-9769681D01*
X24683967Y-9769681D01*
X24639276Y-9790090D01*
X24631103Y-9793475D01*
X24582293Y-9811681D01*
X24538958Y-9819500D01*
X19009972Y-9819500D01*
X18983614Y-9816666D01*
X18982098Y-9816336D01*
X18979083Y-9815680D01*
X18979078Y-9815680D01*
X18938870Y-9818556D01*
X18930090Y-9819184D01*
X18921245Y-9819500D01*
X18907933Y-9819500D01*
X18901963Y-9820358D01*
X18894754Y-9821394D01*
X18885968Y-9822339D01*
X18836960Y-9825845D01*
X18836956Y-9825846D01*
X18832599Y-9827471D01*
X18806937Y-9834020D01*
X18802340Y-9834681D01*
X18757649Y-9855090D01*
X18749473Y-9858476D01*
X18703466Y-9875635D01*
X18703458Y-9875640D01*
X18699733Y-9878428D01*
X18676954Y-9891942D01*
X18672733Y-9893869D01*
X18672731Y-9893871D01*
X18672729Y-9893872D01*
X18672728Y-9893873D01*
X18653981Y-9910116D01*
X18635602Y-9926041D01*
X18628725Y-9931583D01*
X18618054Y-9939572D01*
X18608624Y-9949001D01*
X18602162Y-9955016D01*
X18585210Y-9969707D01*
X18521656Y-9998737D01*
X18504001Y-10000000D01*
X18039953Y-10000000D01*
X17972914Y-9980315D01*
X17927159Y-9927511D01*
X17917215Y-9858353D01*
X17917479Y-9856603D01*
X17920000Y-9840685D01*
X17920000Y-9790000D01*
X17364000Y-9790000D01*
X17296961Y-9770315D01*
X17251206Y-9717511D01*
X17240000Y-9666000D01*
X17240000Y-8865000D01*
X17540000Y-8865000D01*
X17540000Y-9490000D01*
X17919999Y-9490000D01*
X17919999Y-9439310D01*
X17905534Y-9347982D01*
X17847353Y-9233795D01*
X17834457Y-9165126D01*
X17847354Y-9121204D01*
X17905535Y-9007018D01*
X17905536Y-9007015D01*
X17920000Y-8915691D01*
X17920000Y-8865000D01*
X17540000Y-8865000D01*
X17240000Y-8865000D01*
X17240000Y-8155001D01*
X17239999Y-8155000D01*
X17540000Y-8155000D01*
X17540000Y-8565000D01*
X17919999Y-8565000D01*
X17919999Y-8514310D01*
X17905534Y-8422982D01*
X17849447Y-8312906D01*
X17849444Y-8312901D01*
X17762098Y-8225555D01*
X17762093Y-8225551D01*
X17652015Y-8169463D01*
X17560691Y-8155000D01*
X17540000Y-8155000D01*
X17239999Y-8155000D01*
X17219315Y-8155000D01*
X17127982Y-8169465D01*
X17017906Y-8225552D01*
X17017904Y-8225553D01*
X16998033Y-8245424D01*
X16936709Y-8278908D01*
X16867017Y-8273922D01*
X16822672Y-8245422D01*
X16802391Y-8225141D01*
X16692175Y-8168983D01*
X16692174Y-8168982D01*
X16692171Y-8168981D01*
X16595924Y-8153738D01*
X16596100Y-8152623D01*
X16535814Y-8129638D01*
X16494349Y-8073402D01*
X16489870Y-8003676D01*
X16523161Y-7943231D01*
X16647232Y-7819161D01*
X16955484Y-7510909D01*
X16955484Y-7510908D01*
X16962552Y-7503841D01*
X16962557Y-7503834D01*
X16978050Y-7488342D01*
X16988114Y-7468588D01*
X16998263Y-7452026D01*
X17011296Y-7434090D01*
X17018144Y-7413011D01*
X17025586Y-7395044D01*
X17035646Y-7375304D01*
X17039112Y-7353417D01*
X17043655Y-7334498D01*
X17047518Y-7322609D01*
X17050500Y-7313433D01*
X17050500Y-7186567D01*
X17050500Y-7170000D01*
X17390001Y-7170000D01*
X17390001Y-7274196D01*
X17392851Y-7304606D01*
X17437653Y-7432645D01*
X17518207Y-7541792D01*
X17627354Y-7622346D01*
X17755397Y-7667149D01*
X17785792Y-7669999D01*
X17964999Y-7669999D01*
X17965000Y-7669998D01*
X17965000Y-7170000D01*
X18265000Y-7170000D01*
X18265000Y-7669999D01*
X18444196Y-7669999D01*
X18474606Y-7667148D01*
X18602645Y-7622346D01*
X18711792Y-7541792D01*
X18792346Y-7432645D01*
X18837149Y-7304604D01*
X18837149Y-7304600D01*
X18840000Y-7274206D01*
X18840000Y-7170000D01*
X18265000Y-7170000D01*
X17965000Y-7170000D01*
X17390001Y-7170000D01*
X17050500Y-7170000D01*
X17050500Y-6870000D01*
X17390000Y-6870000D01*
X17965000Y-6870000D01*
X17965000Y-6370000D01*
X18265000Y-6370000D01*
X18265000Y-6870000D01*
X18839999Y-6870000D01*
X18839999Y-6765803D01*
X18837148Y-6735393D01*
X18792346Y-6607354D01*
X18711792Y-6498207D01*
X18602645Y-6417653D01*
X18474602Y-6372850D01*
X18444207Y-6370000D01*
X18265000Y-6370000D01*
X17965000Y-6370000D01*
X17785804Y-6370000D01*
X17755393Y-6372851D01*
X17627354Y-6417653D01*
X17518207Y-6498207D01*
X17437653Y-6607354D01*
X17392850Y-6735395D01*
X17392850Y-6735399D01*
X17390000Y-6765793D01*
X17390000Y-6870000D01*
X17050500Y-6870000D01*
X17050500Y-6567253D01*
X17070185Y-6500214D01*
X17086815Y-6479576D01*
X17547193Y-6019197D01*
X17608516Y-5985713D01*
X17675829Y-5989838D01*
X17755299Y-6017646D01*
X17785730Y-6020500D01*
X17785734Y-6020500D01*
X18444270Y-6020500D01*
X18474699Y-6017646D01*
X18474701Y-6017646D01*
X18554170Y-5989838D01*
X18602882Y-5972793D01*
X18712150Y-5892150D01*
X18792793Y-5782882D01*
X18822738Y-5697304D01*
X18837646Y-5654701D01*
X18837646Y-5654699D01*
X18840500Y-5624269D01*
X18840500Y-5115730D01*
X18837646Y-5085300D01*
X18837646Y-5085298D01*
X18792793Y-4957119D01*
X18792792Y-4957117D01*
X18712150Y-4847850D01*
X18635228Y-4791079D01*
X18592977Y-4735431D01*
X18587519Y-4665775D01*
X18620587Y-4604226D01*
X18635216Y-4591549D01*
X18702150Y-4542150D01*
X18782793Y-4432882D01*
X18820316Y-4325648D01*
X18827646Y-4304701D01*
X18827646Y-4304699D01*
X18830500Y-4274269D01*
X18830500Y-3765730D01*
X18827646Y-3735300D01*
X18827646Y-3735298D01*
X18788316Y-3622901D01*
X18782793Y-3607118D01*
X18702150Y-3497850D01*
X18592882Y-3417207D01*
X18592880Y-3417206D01*
X18464700Y-3372353D01*
X18434270Y-3369500D01*
X18434266Y-3369500D01*
X17775734Y-3369500D01*
X17775730Y-3369500D01*
X17745300Y-3372353D01*
X17745298Y-3372353D01*
X17617119Y-3417206D01*
X17617117Y-3417207D01*
X17507850Y-3497850D01*
X17427207Y-3607117D01*
X17427206Y-3607119D01*
X17382353Y-3735298D01*
X17382353Y-3735300D01*
X17379500Y-3765730D01*
X17379500Y-4274269D01*
X17382353Y-4304699D01*
X17382353Y-4304701D01*
X17427206Y-4432880D01*
X17427207Y-4432882D01*
X17507850Y-4542150D01*
X17562527Y-4582503D01*
X17584771Y-4598920D01*
X17627021Y-4654568D01*
X17632480Y-4724224D01*
X17599412Y-4785773D01*
X17584771Y-4798460D01*
X17517850Y-4847850D01*
X17437207Y-4957117D01*
X17425409Y-4990834D01*
X17396051Y-5037557D01*
X17391658Y-5041949D01*
X17391658Y-5041950D01*
X17369092Y-5064516D01*
X17369091Y-5064517D01*
X16344516Y-6089091D01*
X16344513Y-6089093D01*
X16344513Y-6089094D01*
X16333231Y-6100376D01*
X16321948Y-6111659D01*
X16321948Y-6111660D01*
X16311891Y-6131397D01*
X16301731Y-6147977D01*
X16288706Y-6165905D01*
X16288703Y-6165910D01*
X16281854Y-6186988D01*
X16274413Y-6204952D01*
X16264354Y-6224695D01*
X16260887Y-6246582D01*
X16256347Y-6265491D01*
X16249500Y-6286567D01*
X16249500Y-7032744D01*
X16229815Y-7099783D01*
X16213181Y-7120425D01*
X16121681Y-7211925D01*
X16060358Y-7245410D01*
X15990666Y-7240426D01*
X15934733Y-7198554D01*
X15932460Y-7192460D01*
X15910000Y-7170000D01*
X15335000Y-7170000D01*
X15335000Y-7669999D01*
X15348330Y-7683329D01*
X15369972Y-7689684D01*
X15415727Y-7742488D01*
X15425671Y-7811646D01*
X15396646Y-7875202D01*
X15344758Y-7908547D01*
X15345325Y-7909916D01*
X15209985Y-7965974D01*
X15100206Y-8050211D01*
X15073375Y-8085179D01*
X15016947Y-8126382D01*
X14947201Y-8130536D01*
X14886281Y-8096323D01*
X14876625Y-8085179D01*
X14849791Y-8050209D01*
X14740015Y-7965974D01*
X14627048Y-7919183D01*
X14572644Y-7875343D01*
X14550579Y-7809049D01*
X14550500Y-7804622D01*
X14550500Y-7745721D01*
X14570185Y-7678682D01*
X14622989Y-7632927D01*
X14692147Y-7622983D01*
X14715455Y-7628679D01*
X14825398Y-7667149D01*
X14855792Y-7669999D01*
X15034999Y-7669999D01*
X15035000Y-7669998D01*
X15035000Y-6370000D01*
X15335000Y-6370000D01*
X15335000Y-6870000D01*
X15909999Y-6870000D01*
X15909999Y-6765803D01*
X15907148Y-6735393D01*
X15862346Y-6607354D01*
X15781792Y-6498207D01*
X15672645Y-6417653D01*
X15544602Y-6372850D01*
X15514207Y-6370000D01*
X15335000Y-6370000D01*
X15035000Y-6370000D01*
X14855804Y-6370000D01*
X14825392Y-6372852D01*
X14825391Y-6372852D01*
X14715453Y-6411320D01*
X14645674Y-6414881D01*
X14585047Y-6380151D01*
X14552821Y-6318158D01*
X14550500Y-6294278D01*
X14550500Y-6096250D01*
X14570185Y-6029211D01*
X14622989Y-5983456D01*
X14692147Y-5973512D01*
X14715449Y-5979207D01*
X14825301Y-6017646D01*
X14825300Y-6017646D01*
X14855730Y-6020500D01*
X14855734Y-6020500D01*
X15514270Y-6020500D01*
X15544699Y-6017646D01*
X15544701Y-6017646D01*
X15624170Y-5989838D01*
X15672882Y-5972793D01*
X15782150Y-5892150D01*
X15862793Y-5782882D01*
X15892738Y-5697304D01*
X15907646Y-5654701D01*
X15907646Y-5654699D01*
X15910500Y-5624269D01*
X15910500Y-5115730D01*
X15907646Y-5085300D01*
X15907646Y-5085298D01*
X15862793Y-4957119D01*
X15862792Y-4957117D01*
X15782150Y-4847850D01*
X15705228Y-4791079D01*
X15662977Y-4735431D01*
X15657519Y-4665775D01*
X15690587Y-4604226D01*
X15705216Y-4591549D01*
X15772150Y-4542150D01*
X15852793Y-4432882D01*
X15890316Y-4325648D01*
X15897646Y-4304701D01*
X15897646Y-4304699D01*
X15900500Y-4274269D01*
X15900500Y-3765730D01*
X15897646Y-3735300D01*
X15897646Y-3735298D01*
X15858316Y-3622901D01*
X15852793Y-3607118D01*
X15772150Y-3497850D01*
X15662882Y-3417207D01*
X15662880Y-3417206D01*
X15534700Y-3372353D01*
X15504270Y-3369500D01*
X15504266Y-3369500D01*
X14845734Y-3369500D01*
X14845730Y-3369500D01*
X14815300Y-3372353D01*
X14815298Y-3372353D01*
X14687119Y-3417206D01*
X14687117Y-3417207D01*
X14577850Y-3497850D01*
X14497207Y-3607117D01*
X14497206Y-3607119D01*
X14452353Y-3735298D01*
X14452353Y-3735300D01*
X14449500Y-3765730D01*
X14449500Y-4274269D01*
X14452353Y-4304699D01*
X14452353Y-4304701D01*
X14497206Y-4432880D01*
X14497207Y-4432882D01*
X14577850Y-4542150D01*
X14632527Y-4582503D01*
X14654771Y-4598920D01*
X14697021Y-4654568D01*
X14702480Y-4724224D01*
X14669412Y-4785773D01*
X14654771Y-4798460D01*
X14638876Y-4810191D01*
X14587850Y-4847850D01*
X14516853Y-4944049D01*
X14501689Y-4964595D01*
X14499059Y-4962654D01*
X14461741Y-5000985D01*
X14454535Y-5004148D01*
X14454600Y-5004275D01*
X14441557Y-5010920D01*
X14372887Y-5023813D01*
X14308148Y-4997534D01*
X14267893Y-4940426D01*
X14262047Y-4886549D01*
X14280249Y-4725002D01*
X14280249Y-4724997D01*
X14261314Y-4556943D01*
X14208540Y-4406124D01*
X14205456Y-4397310D01*
X14205455Y-4397309D01*
X14205454Y-4397305D01*
X14205452Y-4397302D01*
X14115481Y-4254115D01*
X14115476Y-4254109D01*
X13995890Y-4134523D01*
X13995884Y-4134518D01*
X13852697Y-4044547D01*
X13852694Y-4044545D01*
X13693056Y-3988685D01*
X13525003Y-3969751D01*
X13524997Y-3969751D01*
X13356943Y-3988685D01*
X13197305Y-4044545D01*
X13197302Y-4044547D01*
X13054115Y-4134518D01*
X13054109Y-4134523D01*
X13032181Y-4156452D01*
X12970858Y-4189937D01*
X12901166Y-4184953D01*
X12845233Y-4143081D01*
X12820816Y-4077617D01*
X12820500Y-4068771D01*
X12820500Y-3765730D01*
X12817646Y-3735300D01*
X12817646Y-3735298D01*
X12778316Y-3622901D01*
X12772793Y-3607118D01*
X12692150Y-3497850D01*
X12582882Y-3417207D01*
X12582880Y-3417206D01*
X12454700Y-3372353D01*
X12424270Y-3369500D01*
X12424266Y-3369500D01*
X11765734Y-3369500D01*
X11765730Y-3369500D01*
X11735300Y-3372353D01*
X11735298Y-3372353D01*
X11607119Y-3417206D01*
X11607117Y-3417207D01*
X11497850Y-3497850D01*
X11417207Y-3607117D01*
X11417206Y-3607119D01*
X11372353Y-3735298D01*
X11372353Y-3735300D01*
X11369500Y-3765730D01*
X11369500Y-4274269D01*
X11372353Y-4304699D01*
X11372353Y-4304701D01*
X11417206Y-4432880D01*
X11417207Y-4432882D01*
X11497850Y-4542150D01*
X11552527Y-4582503D01*
X11574771Y-4598920D01*
X11617021Y-4654568D01*
X11622480Y-4724224D01*
X11589412Y-4785773D01*
X11574771Y-4798460D01*
X11507850Y-4847850D01*
X11427207Y-4957117D01*
X11427206Y-4957119D01*
X11382353Y-5085298D01*
X11382353Y-5085300D01*
X11379500Y-5115730D01*
X11379500Y-5407034D01*
X11359815Y-5474073D01*
X11343179Y-5494716D01*
X11336321Y-5501575D01*
X11274995Y-5535055D01*
X11218973Y-5534284D01*
X11158988Y-5519500D01*
X11158985Y-5519500D01*
X11001015Y-5519500D01*
X11001014Y-5519500D01*
X10876830Y-5550107D01*
X10807027Y-5547037D01*
X10749966Y-5506717D01*
X10723761Y-5441947D01*
X10736734Y-5373292D01*
X10781186Y-5324716D01*
X10795890Y-5315477D01*
X10915477Y-5195890D01*
X10918864Y-5190500D01*
X11005452Y-5052697D01*
X11005454Y-5052694D01*
X11005454Y-5052692D01*
X11005456Y-5052690D01*
X11061313Y-4893059D01*
X11061313Y-4893058D01*
X11061314Y-4893056D01*
X11080249Y-4725002D01*
X11080249Y-4724997D01*
X11061314Y-4556943D01*
X11008540Y-4406124D01*
X11005456Y-4397310D01*
X11005455Y-4397309D01*
X11005454Y-4397305D01*
X11005452Y-4397302D01*
X10915481Y-4254115D01*
X10915476Y-4254109D01*
X10795890Y-4134523D01*
X10795884Y-4134518D01*
X10652697Y-4044547D01*
X10652694Y-4044545D01*
X10493056Y-3988685D01*
X10325003Y-3969751D01*
X10324997Y-3969751D01*
X10156943Y-3988685D01*
X9997307Y-4044545D01*
X9930472Y-4086541D01*
X9863235Y-4105541D01*
X9796400Y-4085173D01*
X9751186Y-4031906D01*
X9740500Y-3981547D01*
X9740500Y-3765730D01*
X9737646Y-3735300D01*
X9737646Y-3735298D01*
X9698316Y-3622901D01*
X9692793Y-3607118D01*
X9612150Y-3497850D01*
X9502882Y-3417207D01*
X9502880Y-3417206D01*
X9374700Y-3372353D01*
X9344270Y-3369500D01*
X9344266Y-3369500D01*
X8861612Y-3369500D01*
X8821351Y-3362782D01*
X8806678Y-3357745D01*
X8782658Y-3349499D01*
X8774923Y-3348208D01*
X8767085Y-3347231D01*
X8716201Y-3349336D01*
X8714806Y-3349394D01*
X8709684Y-3349500D01*
X7606803Y-3349500D01*
X7581358Y-3346861D01*
X7580539Y-3346689D01*
X7570732Y-3344633D01*
X7570731Y-3344633D01*
X7539323Y-3348548D01*
X7523985Y-3349500D01*
X7523885Y-3349500D01*
X7503381Y-3352920D01*
X7498321Y-3353657D01*
X7446382Y-3360132D01*
X7438842Y-3362377D01*
X7431393Y-3364934D01*
X7431390Y-3364935D01*
X7431386Y-3364936D01*
X7431383Y-3364938D01*
X7385367Y-3389840D01*
X7380812Y-3392185D01*
X7333791Y-3415172D01*
X7327381Y-3419748D01*
X7321174Y-3424579D01*
X7285718Y-3463094D01*
X7282172Y-3466789D01*
X6246108Y-4502852D01*
X6226254Y-4518976D01*
X6217165Y-4524914D01*
X6217164Y-4524915D01*
X6197720Y-4549896D01*
X6187574Y-4561388D01*
X6187483Y-4561479D01*
X6187474Y-4561489D01*
X6175402Y-4578397D01*
X6172341Y-4582503D01*
X6140192Y-4623808D01*
X6136447Y-4630729D01*
X6132988Y-4637804D01*
X6118057Y-4687955D01*
X6116495Y-4692831D01*
X6099500Y-4742338D01*
X6098206Y-4750092D01*
X6097231Y-4757911D01*
X6099394Y-4810191D01*
X6099500Y-4815316D01*
X6099500Y-4944049D01*
X6079815Y-5011088D01*
X6078603Y-5012939D01*
X6069033Y-5027261D01*
X6054500Y-5100323D01*
X6054500Y-5546950D01*
X6034815Y-5613989D01*
X5982011Y-5659744D01*
X5912853Y-5669688D01*
X5900828Y-5667347D01*
X5868990Y-5659500D01*
X5868985Y-5659500D01*
X5711015Y-5659500D01*
X5711014Y-5659500D01*
X5557634Y-5697303D01*
X5417762Y-5770715D01*
X5299516Y-5875471D01*
X5209781Y-6005475D01*
X5209780Y-6005476D01*
X5153762Y-6153181D01*
X5134722Y-6309999D01*
X5134722Y-6310000D01*
X5153762Y-6466818D01*
X5196856Y-6580446D01*
X5209780Y-6614523D01*
X5299517Y-6744530D01*
X5417760Y-6849283D01*
X5417762Y-6849284D01*
X5557634Y-6922696D01*
X5711014Y-6960500D01*
X5876486Y-6960500D01*
X5876486Y-6963480D01*
X5931871Y-6972675D01*
X5965604Y-6996643D01*
X6018180Y-7049218D01*
X6051666Y-7110541D01*
X6054500Y-7136900D01*
X6054500Y-7349678D01*
X6069032Y-7422735D01*
X6069033Y-7422739D01*
X6069034Y-7422740D01*
X6124399Y-7505601D01*
X6178564Y-7541792D01*
X6207260Y-7560966D01*
X6207264Y-7560967D01*
X6280321Y-7575499D01*
X6280324Y-7575500D01*
X6280326Y-7575500D01*
X6477688Y-7575500D01*
X6544727Y-7595185D01*
X6590482Y-7647989D01*
X6599996Y-7679090D01*
X6602565Y-7694481D01*
X6602919Y-7696604D01*
X6603657Y-7701669D01*
X6610134Y-7753627D01*
X6612373Y-7761147D01*
X6614935Y-7768611D01*
X6639827Y-7814608D01*
X6642171Y-7819161D01*
X6665172Y-7866208D01*
X6669742Y-7872609D01*
X6674578Y-7878821D01*
X6674581Y-7878826D01*
X6708354Y-7909916D01*
X6713093Y-7914279D01*
X6716790Y-7917827D01*
X7037850Y-8238888D01*
X7053975Y-8258744D01*
X7059913Y-8267832D01*
X7059916Y-8267836D01*
X7084893Y-8287276D01*
X7096418Y-8297456D01*
X7096484Y-8297522D01*
X7113397Y-8309597D01*
X7117509Y-8312662D01*
X7136114Y-8327143D01*
X7158811Y-8344809D01*
X7158813Y-8344809D01*
X7165720Y-8348547D01*
X7172798Y-8352008D01*
X7172801Y-8352010D01*
X7222985Y-8366950D01*
X7227778Y-8368485D01*
X7277340Y-8385500D01*
X7277343Y-8385501D01*
X7285072Y-8386790D01*
X7292910Y-8387767D01*
X7292912Y-8387768D01*
X7292913Y-8387767D01*
X7292914Y-8387768D01*
X7331013Y-8386192D01*
X7345193Y-8385605D01*
X7350316Y-8385500D01*
X7573692Y-8385500D01*
X7640731Y-8405185D01*
X7675742Y-8439061D01*
X7678163Y-8442569D01*
X7679515Y-8444528D01*
X7679517Y-8444530D01*
X7797760Y-8549283D01*
X7797762Y-8549284D01*
X7937634Y-8622696D01*
X8091014Y-8660500D01*
X8091015Y-8660500D01*
X8248985Y-8660500D01*
X8402365Y-8622696D01*
X8453902Y-8595647D01*
X8542240Y-8549283D01*
X8660483Y-8444530D01*
X8750220Y-8314523D01*
X8806237Y-8166818D01*
X8825278Y-8010000D01*
X8818863Y-7957171D01*
X8806237Y-7853182D01*
X8800468Y-7837971D01*
X8795101Y-7768308D01*
X8828248Y-7706801D01*
X8850517Y-7694481D01*
X8875000Y-7669999D01*
X8875000Y-7170000D01*
X9175000Y-7170000D01*
X9175000Y-7669999D01*
X9354196Y-7669999D01*
X9384606Y-7667148D01*
X9512645Y-7622346D01*
X9621792Y-7541792D01*
X9702346Y-7432645D01*
X9747149Y-7304604D01*
X9747149Y-7304600D01*
X9750000Y-7274206D01*
X9750000Y-7170000D01*
X11380001Y-7170000D01*
X11380001Y-7274196D01*
X11382851Y-7304606D01*
X11427653Y-7432645D01*
X11508207Y-7541792D01*
X11617354Y-7622346D01*
X11745397Y-7667149D01*
X11775792Y-7669999D01*
X11954999Y-7669999D01*
X11955000Y-7669998D01*
X11955000Y-7170000D01*
X12255000Y-7170000D01*
X12255000Y-7669999D01*
X12434196Y-7669999D01*
X12464606Y-7667148D01*
X12592645Y-7622346D01*
X12701792Y-7541792D01*
X12782346Y-7432645D01*
X12827149Y-7304604D01*
X12827149Y-7304600D01*
X12830000Y-7274206D01*
X12830000Y-7170000D01*
X12255000Y-7170000D01*
X11955000Y-7170000D01*
X11380001Y-7170000D01*
X9750000Y-7170000D01*
X9175000Y-7170000D01*
X8875000Y-7170000D01*
X8300001Y-7170000D01*
X8300001Y-7235500D01*
X8280316Y-7302539D01*
X8227512Y-7348294D01*
X8176001Y-7359500D01*
X8091007Y-7359500D01*
X8089704Y-7359822D01*
X8088719Y-7359778D01*
X8083568Y-7360404D01*
X8083463Y-7359547D01*
X8019902Y-7356747D01*
X7962843Y-7316423D01*
X7936643Y-7251651D01*
X7949621Y-7182998D01*
X7954285Y-7175135D01*
X7955468Y-7172677D01*
X7955472Y-7172673D01*
X7956297Y-7170000D01*
X7964713Y-7142713D01*
X7995522Y-7091580D01*
X8180785Y-6906317D01*
X8242106Y-6872834D01*
X8268464Y-6870000D01*
X9749999Y-6870000D01*
X9749999Y-6765801D01*
X9749087Y-6756072D01*
X9762429Y-6687488D01*
X9810733Y-6637005D01*
X9872546Y-6620500D01*
X10560517Y-6620500D01*
X10627556Y-6640185D01*
X10642741Y-6651682D01*
X10707760Y-6709283D01*
X10707762Y-6709284D01*
X10847634Y-6782696D01*
X11001014Y-6820500D01*
X11001015Y-6820500D01*
X11158983Y-6820500D01*
X11158985Y-6820500D01*
X11228683Y-6803321D01*
X11298483Y-6806390D01*
X11346037Y-6836037D01*
X11380000Y-6870000D01*
X11955000Y-6870000D01*
X11955000Y-6370000D01*
X12255000Y-6370000D01*
X12255000Y-6870000D01*
X12829999Y-6870000D01*
X12829999Y-6765803D01*
X12827148Y-6735393D01*
X12782346Y-6607354D01*
X12701792Y-6498207D01*
X12592645Y-6417653D01*
X12464602Y-6372850D01*
X12434207Y-6370000D01*
X12255000Y-6370000D01*
X11955000Y-6370000D01*
X11955000Y-6369999D01*
X11936233Y-6351233D01*
X11902747Y-6289910D01*
X11907731Y-6220218D01*
X11936228Y-6175874D01*
X12055286Y-6056816D01*
X12116607Y-6023334D01*
X12142965Y-6020500D01*
X12434270Y-6020500D01*
X12464699Y-6017646D01*
X12464701Y-6017646D01*
X12544170Y-5989838D01*
X12592882Y-5972793D01*
X12702150Y-5892150D01*
X12717858Y-5870865D01*
X12773506Y-5828615D01*
X12817628Y-5820500D01*
X12847738Y-5820500D01*
X12861620Y-5821279D01*
X12874421Y-5822722D01*
X12897033Y-5825270D01*
X12897033Y-5825269D01*
X12897035Y-5825270D01*
X12953236Y-5814635D01*
X12957726Y-5813872D01*
X13014287Y-5805348D01*
X13014291Y-5805345D01*
X13022447Y-5802830D01*
X13030469Y-5800024D01*
X13030470Y-5800023D01*
X13030472Y-5800023D01*
X13081088Y-5773270D01*
X13085093Y-5771248D01*
X13136642Y-5746425D01*
X13136643Y-5746423D01*
X13136645Y-5746423D01*
X13143695Y-5741616D01*
X13150534Y-5736567D01*
X13150538Y-5736566D01*
X13190974Y-5696128D01*
X13194260Y-5692962D01*
X13236194Y-5654055D01*
X13236196Y-5654050D01*
X13241987Y-5646790D01*
X13242643Y-5647313D01*
X13252032Y-5635070D01*
X13376594Y-5510508D01*
X13437915Y-5477025D01*
X13478157Y-5474971D01*
X13524998Y-5480249D01*
X13525000Y-5480249D01*
X13525003Y-5480249D01*
X13679565Y-5462834D01*
X13748387Y-5474888D01*
X13799767Y-5522237D01*
X13817391Y-5589848D01*
X13795665Y-5656254D01*
X13793771Y-5658934D01*
X13788706Y-5665905D01*
X13788703Y-5665910D01*
X13781854Y-5686988D01*
X13774413Y-5704952D01*
X13764354Y-5724695D01*
X13760887Y-5746582D01*
X13756347Y-5765491D01*
X13749500Y-5786567D01*
X13749500Y-7779835D01*
X13729815Y-7846874D01*
X13677011Y-7892629D01*
X13609314Y-7902774D01*
X13550001Y-7894965D01*
X13549999Y-7894965D01*
X13508133Y-7900477D01*
X13412817Y-7913026D01*
X13412816Y-7913026D01*
X13412813Y-7913027D01*
X13284985Y-7965974D01*
X13175209Y-8050209D01*
X13090974Y-8159985D01*
X13038027Y-8287813D01*
X13038026Y-8287816D01*
X13038026Y-8287817D01*
X13019965Y-8425000D01*
X13034848Y-8538048D01*
X13038026Y-8562181D01*
X13038027Y-8562186D01*
X13090974Y-8690015D01*
X13090975Y-8690017D01*
X13090976Y-8690018D01*
X13123875Y-8732892D01*
X13149070Y-8798060D01*
X13149500Y-8808379D01*
X13149500Y-9056979D01*
X13129815Y-9124018D01*
X13077011Y-9169773D01*
X13007853Y-9179717D01*
X12966774Y-9163046D01*
X12965788Y-9164982D01*
X12847015Y-9104463D01*
X12755691Y-9090000D01*
X12735000Y-9090000D01*
X12735000Y-9676000D01*
X12715315Y-9743039D01*
X12662511Y-9788794D01*
X12611000Y-9800000D01*
X12055001Y-9800000D01*
X12055001Y-9850689D01*
X12055937Y-9856598D01*
X12046984Y-9925892D01*
X12001989Y-9979345D01*
X11935238Y-9999987D01*
X11933464Y-10000000D01*
X11685999Y-10000000D01*
X11618960Y-9980315D01*
X11604796Y-9969713D01*
X11587829Y-9955011D01*
X11581351Y-9948979D01*
X11571949Y-9939577D01*
X11571944Y-9939572D01*
X11571939Y-9939568D01*
X11571933Y-9939563D01*
X11561285Y-9931593D01*
X11554395Y-9926041D01*
X11517272Y-9893873D01*
X11517271Y-9893872D01*
X11517266Y-9893869D01*
X11513044Y-9891941D01*
X11490255Y-9878419D01*
X11486541Y-9875639D01*
X11486538Y-9875637D01*
X11440502Y-9858467D01*
X11432334Y-9855083D01*
X11387664Y-9834683D01*
X11387662Y-9834682D01*
X11387661Y-9834682D01*
X11383070Y-9834022D01*
X11357392Y-9827468D01*
X11353039Y-9825845D01*
X11343093Y-9825133D01*
X11304042Y-9822340D01*
X11295252Y-9821395D01*
X11282069Y-9819500D01*
X11282066Y-9819500D01*
X11268745Y-9819500D01*
X11259899Y-9819184D01*
X11210922Y-9815681D01*
X11210921Y-9815681D01*
X11210920Y-9815681D01*
X11210918Y-9815681D01*
X11206381Y-9816667D01*
X11180032Y-9819500D01*
X5461041Y-9819500D01*
X5417705Y-9811681D01*
X5414911Y-9810638D01*
X5414910Y-9810638D01*
X5386389Y-9800000D01*
X5368872Y-9793466D01*
X5360697Y-9790079D01*
X5316037Y-9769683D01*
X5316032Y-9769682D01*
X5311441Y-9769022D01*
X5285763Y-9762468D01*
X5281410Y-9760845D01*
X5265150Y-9759682D01*
X5199687Y-9735263D01*
X5157817Y-9679328D01*
X5150000Y-9635998D01*
X5150000Y-9575373D01*
X5149999Y-9575371D01*
X5135496Y-9502459D01*
X5135494Y-9502455D01*
X5133854Y-9500000D01*
X12055000Y-9500000D01*
X12435000Y-9500000D01*
X12435000Y-9090001D01*
X12434999Y-9090000D01*
X12414315Y-9090000D01*
X12322982Y-9104465D01*
X12212906Y-9160552D01*
X12212901Y-9160555D01*
X12125555Y-9247901D01*
X12125551Y-9247906D01*
X12069463Y-9357984D01*
X12055000Y-9449308D01*
X12055000Y-9500000D01*
X5133854Y-9500000D01*
X5080239Y-9419760D01*
X4997544Y-9364505D01*
X4997540Y-9364503D01*
X4924627Y-9350000D01*
X4574000Y-9350000D01*
X4506961Y-9330315D01*
X4461206Y-9277511D01*
X4450000Y-9226000D01*
X4450000Y-8230000D01*
X2800000Y-8230000D01*
X2800000Y-9480000D01*
X3426000Y-9480000D01*
X3493039Y-9499685D01*
X3538794Y-9552489D01*
X3548887Y-9598887D01*
X3554122Y-9604122D01*
X3587607Y-9665445D01*
X3582623Y-9735137D01*
X3554123Y-9779484D01*
X3471951Y-9861656D01*
X3471951Y-9861657D01*
X3471950Y-9861658D01*
X3455538Y-9893869D01*
X3414352Y-9974698D01*
X3399500Y-10068475D01*
X3399500Y-10431519D01*
X3407274Y-10480606D01*
X3407273Y-10519397D01*
X3399500Y-10568475D01*
X3399500Y-10931517D01*
X3410292Y-10999657D01*
X3414354Y-11025304D01*
X3471950Y-11138342D01*
X3471952Y-11138344D01*
X3471954Y-11138347D01*
X3495926Y-11162319D01*
X3529411Y-11223642D01*
X3524427Y-11293334D01*
X3495926Y-11337681D01*
X3471954Y-11361652D01*
X3471951Y-11361657D01*
X3414352Y-11474698D01*
X3399500Y-11568475D01*
X3399500Y-11931519D01*
X3407274Y-11980606D01*
X3407273Y-12019397D01*
X3399500Y-12068475D01*
X3399500Y-12431517D01*
X3410292Y-12499657D01*
X3414354Y-12525304D01*
X3471950Y-12638342D01*
X3471952Y-12638344D01*
X3471954Y-12638347D01*
X3495926Y-12662319D01*
X3529411Y-12723642D01*
X3524427Y-12793334D01*
X3495926Y-12837681D01*
X3471954Y-12861652D01*
X3471951Y-12861657D01*
X3414352Y-12974698D01*
X3399500Y-13068475D01*
X3399500Y-13431519D01*
X3407274Y-13480606D01*
X3407273Y-13519397D01*
X3399500Y-13568475D01*
X3399500Y-13931517D01*
X3410292Y-13999657D01*
X3414354Y-14025304D01*
X3471950Y-14138342D01*
X3471952Y-14138344D01*
X3471954Y-14138347D01*
X3495926Y-14162319D01*
X3529411Y-14223642D01*
X3524427Y-14293334D01*
X3495926Y-14337681D01*
X3471954Y-14361652D01*
X3471951Y-14361657D01*
X3414352Y-14474698D01*
X3399500Y-14568475D01*
X3399500Y-14931519D01*
X3407274Y-14980606D01*
X3407273Y-15019397D01*
X3399500Y-15068475D01*
X3399500Y-15431517D01*
X3410292Y-15499657D01*
X3414354Y-15525304D01*
X3471950Y-15638342D01*
X3471952Y-15638344D01*
X3471954Y-15638347D01*
X3495926Y-15662319D01*
X3529411Y-15723642D01*
X3524427Y-15793334D01*
X3495926Y-15837681D01*
X3471954Y-15861652D01*
X3471951Y-15861657D01*
X3414352Y-15974698D01*
X3399500Y-16068475D01*
X3399500Y-16431519D01*
X3407274Y-16480606D01*
X3407273Y-16519397D01*
X3399500Y-16568475D01*
X3399500Y-16931517D01*
X3410292Y-16999657D01*
X3414354Y-17025304D01*
X3471950Y-17138342D01*
X3471952Y-17138344D01*
X3471954Y-17138347D01*
X3554122Y-17220515D01*
X3587607Y-17281838D01*
X3582623Y-17351530D01*
X3554123Y-17395876D01*
X3550000Y-17399999D01*
X3550000Y-17424623D01*
X3559926Y-17474527D01*
X3559926Y-17522906D01*
X3549500Y-17575325D01*
X3549500Y-17924673D01*
X3559671Y-17975810D01*
X3559671Y-18024190D01*
X3549500Y-18075326D01*
X3549500Y-18424673D01*
X3559926Y-18477091D01*
X3559926Y-18525470D01*
X3550000Y-18575375D01*
X3550000Y-18600000D01*
X3610817Y-18600000D01*
X3677856Y-18619685D01*
X3679706Y-18620897D01*
X3712414Y-18642751D01*
X3711590Y-18643983D01*
X3755391Y-18679281D01*
X3777455Y-18745576D01*
X3760175Y-18813275D01*
X3709037Y-18860885D01*
X3702512Y-18863864D01*
X3679706Y-18879103D01*
X3613028Y-18899980D01*
X3610817Y-18900000D01*
X3550000Y-18900000D01*
X3550000Y-18924623D01*
X3559926Y-18974527D01*
X3559926Y-19022906D01*
X3549500Y-19075325D01*
X3549500Y-19424673D01*
X3559671Y-19475810D01*
X3559671Y-19524190D01*
X3549500Y-19575326D01*
X3549500Y-19924673D01*
X3559671Y-19975810D01*
X3559671Y-20024190D01*
X3549500Y-20075326D01*
X3549500Y-20230854D01*
X3548238Y-20248499D01*
X3544500Y-20274496D01*
X3544500Y-20376005D01*
X3545225Y-20382747D01*
X3532818Y-20451506D01*
X3485207Y-20502643D01*
X3421935Y-20520000D01*
X2800000Y-20520000D01*
X2800000Y-21770000D01*
X2500000Y-21770000D01*
X2500000Y-20520000D01*
X1075373Y-20520000D01*
X1002459Y-20534503D01*
X1002455Y-20534505D01*
X919760Y-20589760D01*
X864505Y-20672455D01*
X864503Y-20672459D01*
X850000Y-20745371D01*
X850000Y-21770000D01*
X300500Y-21770000D01*
X300500Y-8230000D01*
X850000Y-8230000D01*
X850000Y-9254628D01*
X864503Y-9327540D01*
X864505Y-9327544D01*
X919760Y-9410239D01*
X1002455Y-9465494D01*
X1002459Y-9465496D01*
X1075371Y-9479999D01*
X1075374Y-9480000D01*
X2500000Y-9480000D01*
X2500000Y-8230000D01*
X850000Y-8230000D01*
X300500Y-8230000D01*
X300500Y-7945000D01*
X4994353Y-7945000D01*
X5014834Y-8087456D01*
X5071264Y-8211018D01*
X5074623Y-8218373D01*
X5168872Y-8327143D01*
X5289947Y-8404953D01*
X5289950Y-8404954D01*
X5289949Y-8404954D01*
X5397107Y-8436417D01*
X5424735Y-8444530D01*
X5428036Y-8445499D01*
X5428038Y-8445500D01*
X5428039Y-8445500D01*
X5571962Y-8445500D01*
X5571962Y-8445499D01*
X5710053Y-8404953D01*
X5831128Y-8327143D01*
X5925377Y-8218373D01*
X5985165Y-8087457D01*
X6005647Y-7945000D01*
X5985165Y-7802543D01*
X5925377Y-7671627D01*
X5831128Y-7562857D01*
X5710053Y-7485047D01*
X5710051Y-7485046D01*
X5710049Y-7485045D01*
X5710050Y-7485045D01*
X5571963Y-7444500D01*
X5571961Y-7444500D01*
X5428039Y-7444500D01*
X5428036Y-7444500D01*
X5289949Y-7485045D01*
X5168873Y-7562856D01*
X5074623Y-7671626D01*
X5074622Y-7671628D01*
X5014834Y-7802543D01*
X4994353Y-7945000D01*
X300500Y-7945000D01*
X300500Y-7930000D01*
X850000Y-7930000D01*
X2500000Y-7930000D01*
X2500000Y-6680000D01*
X2800000Y-6680000D01*
X2800000Y-7930000D01*
X4450000Y-7930000D01*
X4450000Y-6905373D01*
X4449999Y-6905371D01*
X4435496Y-6832459D01*
X4435494Y-6832455D01*
X4380239Y-6749760D01*
X4297544Y-6694505D01*
X4297540Y-6694503D01*
X4224627Y-6680000D01*
X2800000Y-6680000D01*
X2500000Y-6680000D01*
X1075373Y-6680000D01*
X1002459Y-6694503D01*
X1002455Y-6694505D01*
X919760Y-6749760D01*
X864505Y-6832455D01*
X864503Y-6832459D01*
X850000Y-6905371D01*
X850000Y-7930000D01*
X300500Y-7930000D01*
X300500Y-4856016D01*
X320185Y-4788977D01*
X372989Y-4743222D01*
X442147Y-4733278D01*
X505703Y-4762303D01*
X525628Y-4784259D01*
X558921Y-4831181D01*
X611269Y-4904959D01*
X839570Y-5160426D01*
X839573Y-5160429D01*
X1095040Y-5388730D01*
X1095046Y-5388734D01*
X1095047Y-5388735D01*
X1374479Y-5587002D01*
X1674352Y-5752736D01*
X1990896Y-5883853D01*
X2320130Y-5978704D01*
X2657914Y-6036096D01*
X3000000Y-6055307D01*
X3342086Y-6036096D01*
X3679870Y-5978704D01*
X4009104Y-5883853D01*
X4325648Y-5752736D01*
X4625521Y-5587002D01*
X4904953Y-5388735D01*
X5160428Y-5160428D01*
X5337170Y-4962654D01*
X5388730Y-4904959D01*
X5388731Y-4904957D01*
X5388735Y-4904953D01*
X5587002Y-4625521D01*
X5752736Y-4325648D01*
X5883853Y-4009104D01*
X5978704Y-3679870D01*
X6036096Y-3342086D01*
X6055307Y-3000000D01*
X6036096Y-2657914D01*
X5988027Y-2375002D01*
X6419751Y-2375002D01*
X6438685Y-2543056D01*
X6494545Y-2702694D01*
X6494547Y-2702697D01*
X6584518Y-2845884D01*
X6584523Y-2845890D01*
X6704109Y-2965476D01*
X6704115Y-2965481D01*
X6847302Y-3055452D01*
X6847305Y-3055454D01*
X6847309Y-3055455D01*
X6847310Y-3055456D01*
X6906959Y-3076328D01*
X7006943Y-3111314D01*
X7174997Y-3130249D01*
X7175000Y-3130249D01*
X7175003Y-3130249D01*
X7343056Y-3111314D01*
X7353833Y-3107543D01*
X7502690Y-3055456D01*
X7502692Y-3055454D01*
X7502694Y-3055454D01*
X7502697Y-3055452D01*
X7645884Y-2965481D01*
X7645885Y-2965480D01*
X7645890Y-2965477D01*
X7704548Y-2906819D01*
X7765871Y-2873334D01*
X7792229Y-2870500D01*
X8347712Y-2870500D01*
X8414751Y-2890185D01*
X8421345Y-2894730D01*
X8527113Y-2972790D01*
X8527115Y-2972791D01*
X8527118Y-2972793D01*
X8561201Y-2984719D01*
X8655299Y-3017646D01*
X8685730Y-3020500D01*
X8685734Y-3020500D01*
X9344270Y-3020500D01*
X9374699Y-3017646D01*
X9374701Y-3017646D01*
X9438790Y-2995219D01*
X9502882Y-2972793D01*
X9542130Y-2943827D01*
X9608655Y-2894730D01*
X9674284Y-2870759D01*
X9682288Y-2870500D01*
X10036956Y-2870500D01*
X10103995Y-2890185D01*
X10119179Y-2901681D01*
X10127760Y-2909283D01*
X10127762Y-2909284D01*
X10127766Y-2909287D01*
X10267634Y-2982696D01*
X10421014Y-3020500D01*
X10421015Y-3020500D01*
X10578985Y-3020500D01*
X10732365Y-2982696D01*
X10872233Y-2909287D01*
X10872234Y-2909285D01*
X10872240Y-2909283D01*
X10880818Y-2901683D01*
X10944050Y-2871963D01*
X10963044Y-2870500D01*
X11427712Y-2870500D01*
X11494751Y-2890185D01*
X11501345Y-2894730D01*
X11607113Y-2972790D01*
X11607115Y-2972791D01*
X11607118Y-2972793D01*
X11641201Y-2984719D01*
X11735299Y-3017646D01*
X11765730Y-3020500D01*
X11765734Y-3020500D01*
X12424270Y-3020500D01*
X12454699Y-3017646D01*
X12454701Y-3017646D01*
X12518790Y-2995219D01*
X12582882Y-2972793D01*
X12622130Y-2943827D01*
X12688655Y-2894730D01*
X12754284Y-2870759D01*
X12762288Y-2870500D01*
X14507712Y-2870500D01*
X14574751Y-2890185D01*
X14581345Y-2894730D01*
X14687113Y-2972790D01*
X14687115Y-2972791D01*
X14687118Y-2972793D01*
X14721201Y-2984719D01*
X14815299Y-3017646D01*
X14845730Y-3020500D01*
X14845734Y-3020500D01*
X15504270Y-3020500D01*
X15534699Y-3017646D01*
X15534701Y-3017646D01*
X15598790Y-2995219D01*
X15662882Y-2972793D01*
X15702130Y-2943827D01*
X15768655Y-2894730D01*
X15834284Y-2870759D01*
X15842288Y-2870500D01*
X17437712Y-2870500D01*
X17504751Y-2890185D01*
X17511345Y-2894730D01*
X17617113Y-2972790D01*
X17617115Y-2972791D01*
X17617118Y-2972793D01*
X17651201Y-2984719D01*
X17745299Y-3017646D01*
X17775730Y-3020500D01*
X17775734Y-3020500D01*
X18434270Y-3020500D01*
X18464699Y-3017646D01*
X18464701Y-3017646D01*
X18601653Y-2969724D01*
X18602182Y-2971237D01*
X18660317Y-2959416D01*
X18725444Y-2984719D01*
X18737473Y-2995287D01*
X19163181Y-3420995D01*
X19196666Y-3482318D01*
X19199500Y-3508676D01*
X19199500Y-6455358D01*
X19196667Y-6481706D01*
X19195641Y-6486427D01*
X19195641Y-6486429D01*
X19195641Y-6486430D01*
X19199184Y-6535961D01*
X19199500Y-6544808D01*
X19199500Y-6558297D01*
X19201420Y-6571654D01*
X19202365Y-6580446D01*
X19205909Y-6629986D01*
X19207593Y-6634500D01*
X19214148Y-6660182D01*
X19214834Y-6664955D01*
X19214835Y-6664957D01*
X19235078Y-6709284D01*
X19235457Y-6710112D01*
X19238845Y-6718290D01*
X19256204Y-6764831D01*
X19256932Y-6765803D01*
X19259096Y-6768694D01*
X19272617Y-6791483D01*
X19274619Y-6795867D01*
X19274622Y-6795872D01*
X19274623Y-6795873D01*
X19307144Y-6833404D01*
X19312688Y-6840285D01*
X19320779Y-6851093D01*
X19330333Y-6860647D01*
X19336353Y-6867114D01*
X19368872Y-6904643D01*
X19368874Y-6904645D01*
X19372928Y-6907250D01*
X19393571Y-6923885D01*
X20288181Y-7818495D01*
X20321666Y-7879818D01*
X20324500Y-7906176D01*
X20324500Y-8241517D01*
X20332496Y-8292000D01*
X20339354Y-8335304D01*
X20396950Y-8448342D01*
X20396952Y-8448344D01*
X20396954Y-8448347D01*
X20486652Y-8538045D01*
X20486654Y-8538046D01*
X20486658Y-8538050D01*
X20599694Y-8595645D01*
X20599698Y-8595647D01*
X20693475Y-8610499D01*
X20693481Y-8610500D01*
X21056518Y-8610499D01*
X21150304Y-8595646D01*
X21263342Y-8538050D01*
X21353050Y-8448342D01*
X21410646Y-8335304D01*
X21410646Y-8335302D01*
X21410647Y-8335301D01*
X21424476Y-8247983D01*
X21425500Y-8241519D01*
X21425500Y-8241517D01*
X22224500Y-8241517D01*
X22232496Y-8292000D01*
X22239354Y-8335304D01*
X22296950Y-8448342D01*
X22296952Y-8448344D01*
X22296954Y-8448347D01*
X22386652Y-8538045D01*
X22386654Y-8538046D01*
X22386658Y-8538050D01*
X22499694Y-8595645D01*
X22499698Y-8595647D01*
X22593475Y-8610499D01*
X22593481Y-8610500D01*
X22956518Y-8610499D01*
X23050304Y-8595646D01*
X23163342Y-8538050D01*
X23253050Y-8448342D01*
X23310646Y-8335304D01*
X23310646Y-8335302D01*
X23310647Y-8335301D01*
X23310647Y-8335300D01*
X23324141Y-8250103D01*
X23354070Y-8186968D01*
X23413381Y-8150036D01*
X23446614Y-8145500D01*
X23564472Y-8145500D01*
X23620764Y-8159014D01*
X23722825Y-8211017D01*
X23722826Y-8211017D01*
X23722828Y-8211018D01*
X23757947Y-8216579D01*
X23814265Y-8225500D01*
X24215734Y-8225499D01*
X24215739Y-8225499D01*
X24215739Y-8225498D01*
X24261454Y-8218258D01*
X24307170Y-8211018D01*
X24307171Y-8211018D01*
X24307172Y-8211017D01*
X24307175Y-8211017D01*
X24417391Y-8154859D01*
X24504859Y-8067391D01*
X24561017Y-7957175D01*
X24561017Y-7957173D01*
X24561018Y-7957172D01*
X24561018Y-7957171D01*
X24565321Y-7930000D01*
X25550000Y-7930000D01*
X27200000Y-7930000D01*
X27200000Y-6680000D01*
X27500000Y-6680000D01*
X27500000Y-7930000D01*
X29150000Y-7930000D01*
X29150000Y-6905373D01*
X29149999Y-6905371D01*
X29135496Y-6832459D01*
X29135494Y-6832455D01*
X29080239Y-6749760D01*
X28997544Y-6694505D01*
X28997540Y-6694503D01*
X28924627Y-6680000D01*
X27500000Y-6680000D01*
X27200000Y-6680000D01*
X25775373Y-6680000D01*
X25702459Y-6694503D01*
X25702455Y-6694505D01*
X25619760Y-6749760D01*
X25564505Y-6832455D01*
X25564503Y-6832459D01*
X25550000Y-6905371D01*
X25550000Y-7930000D01*
X24565321Y-7930000D01*
X24567249Y-7917827D01*
X24575500Y-7865735D01*
X24575499Y-7524266D01*
X24575499Y-7524260D01*
X24561018Y-7432829D01*
X24561018Y-7432828D01*
X24561017Y-7432826D01*
X24561017Y-7432825D01*
X24504859Y-7322609D01*
X24484576Y-7302326D01*
X24451092Y-7241006D01*
X24456075Y-7171315D01*
X24484578Y-7126963D01*
X24504448Y-7107093D01*
X24560536Y-6997015D01*
X24575000Y-6905691D01*
X24575000Y-6885000D01*
X23455001Y-6885000D01*
X23440138Y-6899862D01*
X23435316Y-6916285D01*
X23382512Y-6962040D01*
X23313354Y-6971984D01*
X23249798Y-6942959D01*
X23243320Y-6936927D01*
X23163347Y-6856954D01*
X23163344Y-6856952D01*
X23163342Y-6856950D01*
X23058090Y-6803321D01*
X23050301Y-6799352D01*
X22956524Y-6784500D01*
X22593482Y-6784500D01*
X22512519Y-6797323D01*
X22499696Y-6799354D01*
X22386658Y-6856950D01*
X22386657Y-6856951D01*
X22386652Y-6856954D01*
X22296954Y-6946652D01*
X22296951Y-6946657D01*
X22296950Y-6946658D01*
X22288379Y-6963480D01*
X22239352Y-7059698D01*
X22224500Y-7153475D01*
X22224500Y-8241517D01*
X21425500Y-8241517D01*
X21425499Y-7153482D01*
X21410646Y-7059696D01*
X21353050Y-6946658D01*
X21353046Y-6946654D01*
X21353045Y-6946652D01*
X21263347Y-6856954D01*
X21263344Y-6856952D01*
X21263342Y-6856950D01*
X21158090Y-6803321D01*
X21150301Y-6799352D01*
X21056524Y-6784500D01*
X20721176Y-6784500D01*
X20654137Y-6764815D01*
X20633495Y-6748181D01*
X20470314Y-6585000D01*
X23455000Y-6585000D01*
X23865000Y-6585000D01*
X23865000Y-6205000D01*
X24165000Y-6205000D01*
X24165000Y-6585000D01*
X24574999Y-6585000D01*
X24574999Y-6564310D01*
X24560534Y-6472982D01*
X24504447Y-6362906D01*
X24504444Y-6362901D01*
X24417098Y-6275555D01*
X24417093Y-6275551D01*
X24307015Y-6219463D01*
X24215691Y-6205000D01*
X24165000Y-6205000D01*
X23865000Y-6205000D01*
X23864999Y-6204999D01*
X23814311Y-6205000D01*
X23722982Y-6219465D01*
X23612906Y-6275552D01*
X23612901Y-6275555D01*
X23525555Y-6362901D01*
X23525551Y-6362906D01*
X23469463Y-6472984D01*
X23455000Y-6564308D01*
X23455000Y-6585000D01*
X20470314Y-6585000D01*
X20350526Y-6465212D01*
X20317041Y-6403889D01*
X20322025Y-6334197D01*
X20363897Y-6278264D01*
X20429361Y-6253847D01*
X20494499Y-6267045D01*
X20599696Y-6320646D01*
X20599697Y-6320646D01*
X20599699Y-6320647D01*
X20599698Y-6320647D01*
X20685254Y-6334197D01*
X20690311Y-6334998D01*
X20693475Y-6335499D01*
X20693481Y-6335500D01*
X21056518Y-6335499D01*
X21150304Y-6320646D01*
X21263342Y-6263050D01*
X21263349Y-6263042D01*
X21271241Y-6257311D01*
X21272142Y-6258552D01*
X21323974Y-6230239D01*
X21393667Y-6235212D01*
X21428536Y-6257617D01*
X21429056Y-6256902D01*
X21436953Y-6262639D01*
X21549855Y-6320166D01*
X21643513Y-6334999D01*
X21675000Y-6334998D01*
X21675000Y-4606119D01*
X21667834Y-4592996D01*
X21665000Y-4566638D01*
X21665000Y-4488880D01*
X21965000Y-4488880D01*
X21972166Y-4502004D01*
X21975000Y-4528362D01*
X21975000Y-6334999D01*
X22006479Y-6334999D01*
X22100149Y-6320164D01*
X22100155Y-6320162D01*
X22213041Y-6262643D01*
X22220944Y-6256902D01*
X22221941Y-6258274D01*
X22273278Y-6230237D01*
X22342971Y-6235216D01*
X22378311Y-6257927D01*
X22378759Y-6257311D01*
X22386653Y-6263045D01*
X22386658Y-6263050D01*
X22494813Y-6318158D01*
X22499698Y-6320647D01*
X22585254Y-6334197D01*
X22590311Y-6334998D01*
X22593475Y-6335499D01*
X22593481Y-6335500D01*
X22956518Y-6335499D01*
X23050304Y-6320646D01*
X23163342Y-6263050D01*
X23253050Y-6173342D01*
X23310646Y-6060304D01*
X23310646Y-6060302D01*
X23310647Y-6060301D01*
X23325499Y-5966524D01*
X23325500Y-5966519D01*
X23325499Y-5303294D01*
X23345183Y-5236256D01*
X23397987Y-5190501D01*
X23419817Y-5182900D01*
X23542365Y-5152696D01*
X23682240Y-5079283D01*
X23800483Y-4974530D01*
X23890220Y-4844523D01*
X23946237Y-4696818D01*
X23965278Y-4540000D01*
X23963447Y-4524916D01*
X23946237Y-4383181D01*
X23916472Y-4304699D01*
X23890220Y-4235477D01*
X23800483Y-4105470D01*
X23682240Y-4000717D01*
X23682238Y-4000716D01*
X23682237Y-4000715D01*
X23542365Y-3927303D01*
X23388986Y-3889500D01*
X23388985Y-3889500D01*
X23231015Y-3889500D01*
X23231014Y-3889500D01*
X23077634Y-3927303D01*
X22937762Y-4000715D01*
X22819516Y-4105471D01*
X22729781Y-4235475D01*
X22729780Y-4235476D01*
X22673763Y-4383178D01*
X22673762Y-4383184D01*
X22670977Y-4406124D01*
X22643355Y-4470302D01*
X22585420Y-4509358D01*
X22567278Y-4513651D01*
X22499694Y-4524354D01*
X22468565Y-4540215D01*
X22399895Y-4553110D01*
X22335156Y-4526832D01*
X22294900Y-4469724D01*
X22291910Y-4399918D01*
X22301789Y-4373432D01*
X22330536Y-4317015D01*
X22345000Y-4225691D01*
X22345000Y-4175000D01*
X21965000Y-4175000D01*
X21965000Y-4488880D01*
X21665000Y-4488880D01*
X21665000Y-3465001D01*
X21664999Y-3465000D01*
X21644314Y-3465000D01*
X21543757Y-3480925D01*
X21474464Y-3471968D01*
X21421013Y-3426971D01*
X21400375Y-3360219D01*
X21419102Y-3292905D01*
X21425079Y-3284162D01*
X21506628Y-3175226D01*
X21519085Y-3141825D01*
X21560955Y-3085894D01*
X21626419Y-3061477D01*
X21694692Y-3076328D01*
X21744098Y-3125733D01*
X21751448Y-3141827D01*
X21763814Y-3174983D01*
X21763815Y-3174984D01*
X21845670Y-3284329D01*
X21915311Y-3336462D01*
X21957182Y-3392396D01*
X21965000Y-3435729D01*
X21965000Y-3875000D01*
X22344999Y-3875000D01*
X22344999Y-3824310D01*
X22330534Y-3732982D01*
X22274447Y-3622906D01*
X22274444Y-3622901D01*
X22253452Y-3601909D01*
X22219967Y-3540586D01*
X22224951Y-3470894D01*
X22253452Y-3426547D01*
X22260000Y-3419999D01*
X22260000Y-2845000D01*
X22560000Y-2845000D01*
X22560000Y-3419999D01*
X22680433Y-3419999D01*
X22680439Y-3419998D01*
X22737007Y-3413918D01*
X22864981Y-3366186D01*
X22864984Y-3366184D01*
X22974329Y-3284329D01*
X23056184Y-3174984D01*
X23056185Y-3174983D01*
X23103916Y-3047010D01*
X23109999Y-2990428D01*
X23110000Y-2990427D01*
X23110000Y-2845000D01*
X22560000Y-2845000D01*
X22260000Y-2845000D01*
X22260000Y-2669000D01*
X22279685Y-2601961D01*
X22332489Y-2556206D01*
X22384000Y-2545000D01*
X23109999Y-2545000D01*
X23109999Y-2399566D01*
X23109998Y-2399560D01*
X23103918Y-2342992D01*
X23056186Y-2215018D01*
X23056184Y-2215015D01*
X22974329Y-2105670D01*
X22864984Y-2023815D01*
X22864983Y-2023814D01*
X22737010Y-1976083D01*
X22680428Y-1970000D01*
X22540718Y-1970000D01*
X22473679Y-1950315D01*
X22427924Y-1897511D01*
X22417980Y-1828353D01*
X22447005Y-1764797D01*
X22474745Y-1741007D01*
X22538693Y-1700824D01*
X22125001Y-1287132D01*
X22125000Y-1287132D01*
X21711305Y-1700824D01*
X21797530Y-1755004D01*
X21930174Y-1801418D01*
X21986951Y-1842140D01*
X22012698Y-1907093D01*
X21999242Y-1975654D01*
X21960360Y-2016155D01*
X21962116Y-2018500D01*
X21845670Y-2105670D01*
X21763815Y-2215015D01*
X21763811Y-2215023D01*
X21751447Y-2248172D01*
X21709576Y-2304106D01*
X21644111Y-2328522D01*
X21575838Y-2313670D01*
X21526433Y-2264264D01*
X21519089Y-2248183D01*
X21506628Y-2214774D01*
X21424687Y-2105313D01*
X21358911Y-2056074D01*
X21315228Y-2023373D01*
X21315226Y-2023372D01*
X21187114Y-1975588D01*
X21187112Y-1975587D01*
X21187110Y-1975587D01*
X21130501Y-1969500D01*
X21130485Y-1969500D01*
X20719929Y-1969500D01*
X20652890Y-1949815D01*
X20607135Y-1897011D01*
X20596833Y-1860447D01*
X20589665Y-1801418D01*
X20586237Y-1773182D01*
X20530220Y-1625477D01*
X20440483Y-1495470D01*
X20322240Y-1390717D01*
X20322238Y-1390716D01*
X20322237Y-1390715D01*
X20182365Y-1317303D01*
X20028986Y-1279500D01*
X20028985Y-1279500D01*
X19871015Y-1279500D01*
X19871014Y-1279500D01*
X19717634Y-1317303D01*
X19577762Y-1390715D01*
X19459516Y-1495471D01*
X19369781Y-1625475D01*
X19369780Y-1625476D01*
X19313763Y-1773180D01*
X19302049Y-1869650D01*
X19274427Y-1933828D01*
X19216492Y-1972884D01*
X19146639Y-1974419D01*
X19097750Y-1948416D01*
X19093372Y-1944622D01*
X19093367Y-1944619D01*
X19088983Y-1942617D01*
X19066194Y-1929096D01*
X19062331Y-1926204D01*
X19062329Y-1926203D01*
X19015790Y-1908845D01*
X19007622Y-1905461D01*
X18962457Y-1884835D01*
X18962455Y-1884834D01*
X18957682Y-1884148D01*
X18932000Y-1877593D01*
X18927486Y-1875909D01*
X18877946Y-1872365D01*
X18869159Y-1871420D01*
X18855799Y-1869500D01*
X18855797Y-1869500D01*
X18842308Y-1869500D01*
X18833461Y-1869184D01*
X18783927Y-1865640D01*
X18777005Y-1866136D01*
X18708732Y-1851285D01*
X18694525Y-1842222D01*
X18592886Y-1767209D01*
X18592880Y-1767206D01*
X18464700Y-1722353D01*
X18434270Y-1719500D01*
X18434266Y-1719500D01*
X17775734Y-1719500D01*
X17775730Y-1719500D01*
X17745300Y-1722353D01*
X17745298Y-1722353D01*
X17617119Y-1767206D01*
X17617113Y-1767209D01*
X17511345Y-1845270D01*
X17445716Y-1869241D01*
X17437712Y-1869500D01*
X15842288Y-1869500D01*
X15775249Y-1849815D01*
X15768655Y-1845270D01*
X15662886Y-1767209D01*
X15662880Y-1767206D01*
X15534700Y-1722353D01*
X15504270Y-1719500D01*
X15504266Y-1719500D01*
X14845734Y-1719500D01*
X14845730Y-1719500D01*
X14815300Y-1722353D01*
X14815298Y-1722353D01*
X14687119Y-1767206D01*
X14687113Y-1767209D01*
X14581345Y-1845270D01*
X14515716Y-1869241D01*
X14507712Y-1869500D01*
X12762288Y-1869500D01*
X12695249Y-1849815D01*
X12688655Y-1845270D01*
X12582886Y-1767209D01*
X12582880Y-1767206D01*
X12454700Y-1722353D01*
X12424270Y-1719500D01*
X12424266Y-1719500D01*
X11765734Y-1719500D01*
X11765730Y-1719500D01*
X11735300Y-1722353D01*
X11735298Y-1722353D01*
X11607119Y-1767206D01*
X11607113Y-1767209D01*
X11501345Y-1845270D01*
X11435716Y-1869241D01*
X11427712Y-1869500D01*
X10963044Y-1869500D01*
X10896005Y-1849815D01*
X10880820Y-1838318D01*
X10872240Y-1830717D01*
X10872238Y-1830716D01*
X10872237Y-1830715D01*
X10872233Y-1830712D01*
X10732365Y-1757303D01*
X10578986Y-1719500D01*
X10578985Y-1719500D01*
X10421015Y-1719500D01*
X10421014Y-1719500D01*
X10267634Y-1757303D01*
X10127766Y-1830712D01*
X10127762Y-1830715D01*
X10127760Y-1830717D01*
X10119181Y-1838316D01*
X10055950Y-1868037D01*
X10036956Y-1869500D01*
X9682288Y-1869500D01*
X9615249Y-1849815D01*
X9608655Y-1845270D01*
X9502886Y-1767209D01*
X9502880Y-1767206D01*
X9374700Y-1722353D01*
X9344270Y-1719500D01*
X9344266Y-1719500D01*
X8685734Y-1719500D01*
X8685730Y-1719500D01*
X8655300Y-1722353D01*
X8655298Y-1722353D01*
X8527119Y-1767206D01*
X8527113Y-1767209D01*
X8421345Y-1845270D01*
X8355716Y-1869241D01*
X8347712Y-1869500D01*
X7782229Y-1869500D01*
X7715190Y-1849815D01*
X7694548Y-1833181D01*
X7645890Y-1784523D01*
X7645884Y-1784518D01*
X7502697Y-1694547D01*
X7502694Y-1694545D01*
X7343056Y-1638685D01*
X7175003Y-1619751D01*
X7174997Y-1619751D01*
X7006943Y-1638685D01*
X6847305Y-1694545D01*
X6847302Y-1694547D01*
X6704115Y-1784518D01*
X6704109Y-1784523D01*
X6584523Y-1904109D01*
X6584518Y-1904115D01*
X6494547Y-2047302D01*
X6494545Y-2047305D01*
X6438685Y-2206943D01*
X6419751Y-2374997D01*
X6419751Y-2375002D01*
X5988027Y-2375002D01*
X5978704Y-2320130D01*
X5883853Y-1990896D01*
X5752736Y-1674352D01*
X5587002Y-1374479D01*
X5388735Y-1095047D01*
X5388734Y-1095046D01*
X5388730Y-1095040D01*
X5370824Y-1075003D01*
X21370254Y-1075003D01*
X21389175Y-1242941D01*
X21389177Y-1242949D01*
X21444995Y-1402468D01*
X21499173Y-1488692D01*
X21912867Y-1075001D01*
X22337132Y-1075001D01*
X22750824Y-1488693D01*
X22805001Y-1402475D01*
X22805003Y-1402469D01*
X22860821Y-1242954D01*
X22860824Y-1242941D01*
X22879746Y-1075003D01*
X22879746Y-1074996D01*
X22860824Y-907058D01*
X22860822Y-907050D01*
X22805004Y-747530D01*
X22750824Y-661305D01*
X22337132Y-1074999D01*
X22337132Y-1075001D01*
X21912867Y-1075001D01*
X21912868Y-1075000D01*
X21499174Y-661306D01*
X21499173Y-661306D01*
X21444998Y-747524D01*
X21389176Y-907053D01*
X21389175Y-907058D01*
X21370254Y-1074996D01*
X21370254Y-1075003D01*
X5370824Y-1075003D01*
X5160429Y-839573D01*
X5160426Y-839570D01*
X4904959Y-611269D01*
X4784261Y-525630D01*
X4740977Y-470782D01*
X4734217Y-401240D01*
X4766128Y-339083D01*
X4826577Y-304045D01*
X4856016Y-300500D01*
X21589302Y-300500D01*
X21656341Y-320185D01*
G37*
%TD.AperFunction*%
%TD*%
%TA.AperFunction,Conductor*%
%TO.N,/VDD33*%
G36*
X12092815Y-20170185D02*
G01*
X12138570Y-20222989D01*
X12141716Y-20230524D01*
X12169780Y-20304523D01*
X12259517Y-20434530D01*
X12377760Y-20539283D01*
X12377762Y-20539284D01*
X12517634Y-20612696D01*
X12671014Y-20650500D01*
X12671015Y-20650500D01*
X12828985Y-20650500D01*
X12855814Y-20643887D01*
X12923810Y-20646353D01*
X12936567Y-20650499D01*
X12963346Y-20650499D01*
X12963370Y-20650500D01*
X12968481Y-20650500D01*
X18313431Y-20650500D01*
X18313433Y-20650500D01*
X18334501Y-20643654D01*
X18353417Y-20639112D01*
X18375304Y-20635646D01*
X18395044Y-20625586D01*
X18413011Y-20618144D01*
X18434090Y-20611296D01*
X18452026Y-20598263D01*
X18468588Y-20588114D01*
X18488342Y-20578050D01*
X18503834Y-20562557D01*
X18503841Y-20562552D01*
X18879574Y-20186819D01*
X18940897Y-20153334D01*
X18967255Y-20150500D01*
X26126000Y-20150500D01*
X26193039Y-20170185D01*
X26238794Y-20222989D01*
X26250000Y-20274500D01*
X26250000Y-20376000D01*
X26230315Y-20443039D01*
X26177511Y-20488794D01*
X26126000Y-20500000D01*
X25249999Y-20500000D01*
X24036319Y-21713681D01*
X23974996Y-21747166D01*
X23948638Y-21750000D01*
X10749999Y-21750000D01*
X10000000Y-22499999D01*
X10000000Y-23698638D01*
X9980315Y-23765677D01*
X9963681Y-23786319D01*
X9786319Y-23963681D01*
X9724996Y-23997166D01*
X9698638Y-24000000D01*
X8051362Y-24000000D01*
X7984323Y-23980315D01*
X7963681Y-23963681D01*
X5484706Y-21484706D01*
X5456446Y-21440997D01*
X5420220Y-21345477D01*
X5330483Y-21215470D01*
X5212240Y-21110717D01*
X5212238Y-21110716D01*
X5212237Y-21110715D01*
X5072365Y-21037303D01*
X5072361Y-21037302D01*
X5059395Y-21034106D01*
X5001391Y-21001391D01*
X4500000Y-20500000D01*
X3924000Y-20500000D01*
X3856961Y-20480315D01*
X3811206Y-20427511D01*
X3800000Y-20376000D01*
X3800000Y-20274500D01*
X3819685Y-20207461D01*
X3872489Y-20161706D01*
X3924000Y-20150500D01*
X4318481Y-20150500D01*
X12025776Y-20150500D01*
X12092815Y-20170185D01*
G37*
%TD.AperFunction*%
%TD*%
M02*
