M48
; DRILL file {KiCad 7.0.10} date Sun Mar 24 13:51:41 2024
; FORMAT={-:-/ absolute / inch / decimal}
; #@! TF.CreationDate,2024-03-24T13:51:41+01:00
; #@! TF.GenerationSoftware,Kicad,Pcbnew,7.0.10
; #@! TF.FileFunction,Plated,1,4,PTH
FMAT,2
INCH
; #@! TA.AperFunction,Plated,PTH,ViaDrill
T1C0.0098
; #@! TA.AperFunction,Plated,PTH,ViaDrill
T2C0.0118
; #@! TA.AperFunction,Plated,PTH,ViaDrill
T3C0.0157
; #@! TA.AperFunction,Plated,PTH,ComponentDrill
T4C0.0394
; #@! TA.AperFunction,Plated,PTH,ComponentDrill
T5C0.1260
%
G90
G05
T1
X0.5118Y-0.4154
X0.561Y-0.4724
X0.561Y-0.5315
X0.561Y-0.5906
X0.5906Y-0.4724
X0.5906Y-0.5315
X0.5906Y-0.5906
X0.6201Y-0.4724
X0.6201Y-0.5315
X0.6201Y-0.5906
X0.6693Y-0.4154
T2
X0.4665Y-0.3455
X0.497Y-0.3406
X0.5335Y-0.3317
X0.5384Y-0.6811
X0.5679Y-0.6811
X0.5699Y-0.3317
X0.5974Y-0.6811
X0.6093Y-0.3317
X0.627Y-0.6811
X0.7126Y-0.3268
X0.7126Y-0.3553
X0.7129Y-0.6824
T3
X0.0295Y-0.2362
X0.0295Y-0.935
X0.1181Y-0.3937
X0.1181Y-0.4429
X0.1181Y-0.502
X0.1181Y-0.561
X0.1181Y-0.6201
X0.1181Y-0.6791
X0.1181Y-0.7382
X0.1906Y-0.8524
X0.2067Y-0.3642
X0.228Y-0.2484
X0.2295Y-0.0374
X0.2728Y-0.9516
X0.278Y-1.1343
X0.3091Y-0.185
X0.3217Y-0.3154
X0.3571Y-0.0374
X0.374Y-0.3642
X0.4065Y-0.186
X0.4134Y-0.0933
X0.4362Y-0.2429
X0.4437Y-1.1343
X0.4776Y-0.0374
X0.502Y-0.7874
X0.5335Y-1.0287
X0.5435Y-0.7579
X0.6146Y-1.1343
X0.6591Y-0.0374
X0.6594Y-0.1713
X0.7435Y-0.7283
X0.7854Y-0.076
X0.7862Y-1.0256
X0.7862Y-1.1343
X0.8071Y-0.3642
X0.8435Y-0.6988
X0.8711Y-0.0423
X0.8858Y-0.3642
X0.9177Y-0.1787
X0.9193Y-0.8402
X0.9311Y-1.1343
X0.9484Y-0.8283
X0.9744Y-0.3642
X0.9882Y-0.8976
X1.061Y-0.7898
X1.063Y-0.3937
X1.063Y-0.4429
X1.063Y-0.502
X1.063Y-0.561
X1.063Y-0.6201
X1.063Y-0.6791
X1.063Y-0.7382
X1.1516Y-0.2362
X1.1516Y-0.935
T4
X0.3435Y-0.9085
X0.4435Y-0.9085
X0.5435Y-0.9085
X0.6435Y-0.9085
X0.7435Y-0.9085
X0.8435Y-0.9085
T5
X0.1181Y-0.1181
X0.1181Y-1.063
X1.063Y-0.1181
X1.063Y-1.063
M30
