%TF.GenerationSoftware,KiCad,Pcbnew,7.0.10*%
%TF.CreationDate,2024-03-24T13:51:38+01:00*%
%TF.ProjectId,CSI2-SPY-22-1A,43534932-2d53-4505-992d-32322d31412e,rev?*%
%TF.SameCoordinates,Original*%
%TF.FileFunction,Paste,Top*%
%TF.FilePolarity,Positive*%
%FSLAX46Y46*%
G04 Gerber Fmt 4.6, Leading zero omitted, Abs format (unit mm)*
G04 Created by KiCad (PCBNEW 7.0.10) date 2024-03-24 13:51:38*
%MOMM*%
%LPD*%
G01*
G04 APERTURE LIST*
%ADD10R,1.100000X0.300000*%
%ADD11R,3.100000X2.300000*%
G04 APERTURE END LIST*
D10*
%TO.C,J2*%
X25650000Y-9750000D03*
X25650000Y-10250000D03*
X25650000Y-10750000D03*
X25650000Y-11250000D03*
X25650000Y-11750000D03*
X25650000Y-12250000D03*
X25650000Y-12750000D03*
X25650000Y-13250000D03*
X25650000Y-13750000D03*
X25650000Y-14250000D03*
X25650000Y-14750000D03*
X25650000Y-15250000D03*
X25650000Y-15750000D03*
X25650000Y-16250000D03*
X25650000Y-16750000D03*
X25650000Y-17250000D03*
X25650000Y-17750000D03*
X25650000Y-18250000D03*
X25650000Y-18750000D03*
X25650000Y-19250000D03*
X25650000Y-19750000D03*
X25650000Y-20250000D03*
D11*
X27350000Y-21920000D03*
X27350000Y-8080000D03*
%TD*%
D10*
%TO.C,J1*%
X4350000Y-9750000D03*
X4350000Y-10250000D03*
X4350000Y-10750000D03*
X4350000Y-11250000D03*
X4350000Y-11750000D03*
X4350000Y-12250000D03*
X4350000Y-12750000D03*
X4350000Y-13250000D03*
X4350000Y-13750000D03*
X4350000Y-14250000D03*
X4350000Y-14750000D03*
X4350000Y-15250000D03*
X4350000Y-15750000D03*
X4350000Y-16250000D03*
X4350000Y-16750000D03*
X4350000Y-17250000D03*
X4350000Y-17750000D03*
X4350000Y-18250000D03*
X4350000Y-18750000D03*
X4350000Y-19250000D03*
X4350000Y-19750000D03*
X4350000Y-20250000D03*
D11*
X2650000Y-8080000D03*
X2650000Y-21920000D03*
%TD*%
M02*
