%TF.GenerationSoftware,KiCad,Pcbnew,7.0.10*%
%TF.CreationDate,2024-03-24T13:51:38+01:00*%
%TF.ProjectId,CSI2-SPY-22-1A,43534932-2d53-4505-992d-32322d31412e,rev?*%
%TF.SameCoordinates,Original*%
%TF.FileFunction,Legend,Top*%
%TF.FilePolarity,Positive*%
%FSLAX46Y46*%
G04 Gerber Fmt 4.6, Leading zero omitted, Abs format (unit mm)*
G04 Created by KiCad (PCBNEW 7.0.10) date 2024-03-24 13:51:38*
%MOMM*%
%LPD*%
G01*
G04 APERTURE LIST*
%ADD10C,0.200000*%
%ADD11C,0.150000*%
%ADD12C,0.175000*%
%ADD13C,0.120000*%
G04 APERTURE END LIST*
D10*
X10148809Y-2501980D02*
X10101190Y-2549600D01*
X10101190Y-2549600D02*
X9958333Y-2597219D01*
X9958333Y-2597219D02*
X9863095Y-2597219D01*
X9863095Y-2597219D02*
X9720238Y-2549600D01*
X9720238Y-2549600D02*
X9625000Y-2454361D01*
X9625000Y-2454361D02*
X9577381Y-2359123D01*
X9577381Y-2359123D02*
X9529762Y-2168647D01*
X9529762Y-2168647D02*
X9529762Y-2025790D01*
X9529762Y-2025790D02*
X9577381Y-1835314D01*
X9577381Y-1835314D02*
X9625000Y-1740076D01*
X9625000Y-1740076D02*
X9720238Y-1644838D01*
X9720238Y-1644838D02*
X9863095Y-1597219D01*
X9863095Y-1597219D02*
X9958333Y-1597219D01*
X9958333Y-1597219D02*
X10101190Y-1644838D01*
X10101190Y-1644838D02*
X10148809Y-1692457D01*
X10529762Y-2549600D02*
X10672619Y-2597219D01*
X10672619Y-2597219D02*
X10910714Y-2597219D01*
X10910714Y-2597219D02*
X11005952Y-2549600D01*
X11005952Y-2549600D02*
X11053571Y-2501980D01*
X11053571Y-2501980D02*
X11101190Y-2406742D01*
X11101190Y-2406742D02*
X11101190Y-2311504D01*
X11101190Y-2311504D02*
X11053571Y-2216266D01*
X11053571Y-2216266D02*
X11005952Y-2168647D01*
X11005952Y-2168647D02*
X10910714Y-2121028D01*
X10910714Y-2121028D02*
X10720238Y-2073409D01*
X10720238Y-2073409D02*
X10625000Y-2025790D01*
X10625000Y-2025790D02*
X10577381Y-1978171D01*
X10577381Y-1978171D02*
X10529762Y-1882933D01*
X10529762Y-1882933D02*
X10529762Y-1787695D01*
X10529762Y-1787695D02*
X10577381Y-1692457D01*
X10577381Y-1692457D02*
X10625000Y-1644838D01*
X10625000Y-1644838D02*
X10720238Y-1597219D01*
X10720238Y-1597219D02*
X10958333Y-1597219D01*
X10958333Y-1597219D02*
X11101190Y-1644838D01*
X11529762Y-2597219D02*
X11529762Y-1597219D01*
X11958333Y-1692457D02*
X12005952Y-1644838D01*
X12005952Y-1644838D02*
X12101190Y-1597219D01*
X12101190Y-1597219D02*
X12339285Y-1597219D01*
X12339285Y-1597219D02*
X12434523Y-1644838D01*
X12434523Y-1644838D02*
X12482142Y-1692457D01*
X12482142Y-1692457D02*
X12529761Y-1787695D01*
X12529761Y-1787695D02*
X12529761Y-1882933D01*
X12529761Y-1882933D02*
X12482142Y-2025790D01*
X12482142Y-2025790D02*
X11910714Y-2597219D01*
X11910714Y-2597219D02*
X12529761Y-2597219D01*
X12958333Y-2216266D02*
X13720238Y-2216266D01*
X14148809Y-2549600D02*
X14291666Y-2597219D01*
X14291666Y-2597219D02*
X14529761Y-2597219D01*
X14529761Y-2597219D02*
X14624999Y-2549600D01*
X14624999Y-2549600D02*
X14672618Y-2501980D01*
X14672618Y-2501980D02*
X14720237Y-2406742D01*
X14720237Y-2406742D02*
X14720237Y-2311504D01*
X14720237Y-2311504D02*
X14672618Y-2216266D01*
X14672618Y-2216266D02*
X14624999Y-2168647D01*
X14624999Y-2168647D02*
X14529761Y-2121028D01*
X14529761Y-2121028D02*
X14339285Y-2073409D01*
X14339285Y-2073409D02*
X14244047Y-2025790D01*
X14244047Y-2025790D02*
X14196428Y-1978171D01*
X14196428Y-1978171D02*
X14148809Y-1882933D01*
X14148809Y-1882933D02*
X14148809Y-1787695D01*
X14148809Y-1787695D02*
X14196428Y-1692457D01*
X14196428Y-1692457D02*
X14244047Y-1644838D01*
X14244047Y-1644838D02*
X14339285Y-1597219D01*
X14339285Y-1597219D02*
X14577380Y-1597219D01*
X14577380Y-1597219D02*
X14720237Y-1644838D01*
X15148809Y-2597219D02*
X15148809Y-1597219D01*
X15148809Y-1597219D02*
X15529761Y-1597219D01*
X15529761Y-1597219D02*
X15624999Y-1644838D01*
X15624999Y-1644838D02*
X15672618Y-1692457D01*
X15672618Y-1692457D02*
X15720237Y-1787695D01*
X15720237Y-1787695D02*
X15720237Y-1930552D01*
X15720237Y-1930552D02*
X15672618Y-2025790D01*
X15672618Y-2025790D02*
X15624999Y-2073409D01*
X15624999Y-2073409D02*
X15529761Y-2121028D01*
X15529761Y-2121028D02*
X15148809Y-2121028D01*
X16339285Y-2121028D02*
X16339285Y-2597219D01*
X16005952Y-1597219D02*
X16339285Y-2121028D01*
X16339285Y-2121028D02*
X16672618Y-1597219D01*
X17005952Y-2216266D02*
X17767857Y-2216266D01*
X18196428Y-1692457D02*
X18244047Y-1644838D01*
X18244047Y-1644838D02*
X18339285Y-1597219D01*
X18339285Y-1597219D02*
X18577380Y-1597219D01*
X18577380Y-1597219D02*
X18672618Y-1644838D01*
X18672618Y-1644838D02*
X18720237Y-1692457D01*
X18720237Y-1692457D02*
X18767856Y-1787695D01*
X18767856Y-1787695D02*
X18767856Y-1882933D01*
X18767856Y-1882933D02*
X18720237Y-2025790D01*
X18720237Y-2025790D02*
X18148809Y-2597219D01*
X18148809Y-2597219D02*
X18767856Y-2597219D01*
X19148809Y-1692457D02*
X19196428Y-1644838D01*
X19196428Y-1644838D02*
X19291666Y-1597219D01*
X19291666Y-1597219D02*
X19529761Y-1597219D01*
X19529761Y-1597219D02*
X19624999Y-1644838D01*
X19624999Y-1644838D02*
X19672618Y-1692457D01*
X19672618Y-1692457D02*
X19720237Y-1787695D01*
X19720237Y-1787695D02*
X19720237Y-1882933D01*
X19720237Y-1882933D02*
X19672618Y-2025790D01*
X19672618Y-2025790D02*
X19101190Y-2597219D01*
X19101190Y-2597219D02*
X19720237Y-2597219D01*
X9601190Y-4207219D02*
X9267857Y-3731028D01*
X9029762Y-4207219D02*
X9029762Y-3207219D01*
X9029762Y-3207219D02*
X9410714Y-3207219D01*
X9410714Y-3207219D02*
X9505952Y-3254838D01*
X9505952Y-3254838D02*
X9553571Y-3302457D01*
X9553571Y-3302457D02*
X9601190Y-3397695D01*
X9601190Y-3397695D02*
X9601190Y-3540552D01*
X9601190Y-3540552D02*
X9553571Y-3635790D01*
X9553571Y-3635790D02*
X9505952Y-3683409D01*
X9505952Y-3683409D02*
X9410714Y-3731028D01*
X9410714Y-3731028D02*
X9029762Y-3731028D01*
X10410714Y-4159600D02*
X10315476Y-4207219D01*
X10315476Y-4207219D02*
X10125000Y-4207219D01*
X10125000Y-4207219D02*
X10029762Y-4159600D01*
X10029762Y-4159600D02*
X9982143Y-4064361D01*
X9982143Y-4064361D02*
X9982143Y-3683409D01*
X9982143Y-3683409D02*
X10029762Y-3588171D01*
X10029762Y-3588171D02*
X10125000Y-3540552D01*
X10125000Y-3540552D02*
X10315476Y-3540552D01*
X10315476Y-3540552D02*
X10410714Y-3588171D01*
X10410714Y-3588171D02*
X10458333Y-3683409D01*
X10458333Y-3683409D02*
X10458333Y-3778647D01*
X10458333Y-3778647D02*
X9982143Y-3873885D01*
X10791667Y-3540552D02*
X11029762Y-4207219D01*
X11029762Y-4207219D02*
X11267857Y-3540552D01*
X11648810Y-4111980D02*
X11696429Y-4159600D01*
X11696429Y-4159600D02*
X11648810Y-4207219D01*
X11648810Y-4207219D02*
X11601191Y-4159600D01*
X11601191Y-4159600D02*
X11648810Y-4111980D01*
X11648810Y-4111980D02*
X11648810Y-4207219D01*
X12077381Y-3921504D02*
X12553571Y-3921504D01*
X11982143Y-4207219D02*
X12315476Y-3207219D01*
X12315476Y-3207219D02*
X12648809Y-4207219D01*
X13696429Y-3302457D02*
X13744048Y-3254838D01*
X13744048Y-3254838D02*
X13839286Y-3207219D01*
X13839286Y-3207219D02*
X14077381Y-3207219D01*
X14077381Y-3207219D02*
X14172619Y-3254838D01*
X14172619Y-3254838D02*
X14220238Y-3302457D01*
X14220238Y-3302457D02*
X14267857Y-3397695D01*
X14267857Y-3397695D02*
X14267857Y-3492933D01*
X14267857Y-3492933D02*
X14220238Y-3635790D01*
X14220238Y-3635790D02*
X13648810Y-4207219D01*
X13648810Y-4207219D02*
X14267857Y-4207219D01*
X14886905Y-3207219D02*
X14982143Y-3207219D01*
X14982143Y-3207219D02*
X15077381Y-3254838D01*
X15077381Y-3254838D02*
X15125000Y-3302457D01*
X15125000Y-3302457D02*
X15172619Y-3397695D01*
X15172619Y-3397695D02*
X15220238Y-3588171D01*
X15220238Y-3588171D02*
X15220238Y-3826266D01*
X15220238Y-3826266D02*
X15172619Y-4016742D01*
X15172619Y-4016742D02*
X15125000Y-4111980D01*
X15125000Y-4111980D02*
X15077381Y-4159600D01*
X15077381Y-4159600D02*
X14982143Y-4207219D01*
X14982143Y-4207219D02*
X14886905Y-4207219D01*
X14886905Y-4207219D02*
X14791667Y-4159600D01*
X14791667Y-4159600D02*
X14744048Y-4111980D01*
X14744048Y-4111980D02*
X14696429Y-4016742D01*
X14696429Y-4016742D02*
X14648810Y-3826266D01*
X14648810Y-3826266D02*
X14648810Y-3588171D01*
X14648810Y-3588171D02*
X14696429Y-3397695D01*
X14696429Y-3397695D02*
X14744048Y-3302457D01*
X14744048Y-3302457D02*
X14791667Y-3254838D01*
X14791667Y-3254838D02*
X14886905Y-3207219D01*
X15601191Y-3302457D02*
X15648810Y-3254838D01*
X15648810Y-3254838D02*
X15744048Y-3207219D01*
X15744048Y-3207219D02*
X15982143Y-3207219D01*
X15982143Y-3207219D02*
X16077381Y-3254838D01*
X16077381Y-3254838D02*
X16125000Y-3302457D01*
X16125000Y-3302457D02*
X16172619Y-3397695D01*
X16172619Y-3397695D02*
X16172619Y-3492933D01*
X16172619Y-3492933D02*
X16125000Y-3635790D01*
X16125000Y-3635790D02*
X15553572Y-4207219D01*
X15553572Y-4207219D02*
X16172619Y-4207219D01*
X17029762Y-3540552D02*
X17029762Y-4207219D01*
X16791667Y-3159600D02*
X16553572Y-3873885D01*
X16553572Y-3873885D02*
X17172619Y-3873885D01*
X17553572Y-3826266D02*
X18315477Y-3826266D01*
X18982143Y-3207219D02*
X19077381Y-3207219D01*
X19077381Y-3207219D02*
X19172619Y-3254838D01*
X19172619Y-3254838D02*
X19220238Y-3302457D01*
X19220238Y-3302457D02*
X19267857Y-3397695D01*
X19267857Y-3397695D02*
X19315476Y-3588171D01*
X19315476Y-3588171D02*
X19315476Y-3826266D01*
X19315476Y-3826266D02*
X19267857Y-4016742D01*
X19267857Y-4016742D02*
X19220238Y-4111980D01*
X19220238Y-4111980D02*
X19172619Y-4159600D01*
X19172619Y-4159600D02*
X19077381Y-4207219D01*
X19077381Y-4207219D02*
X18982143Y-4207219D01*
X18982143Y-4207219D02*
X18886905Y-4159600D01*
X18886905Y-4159600D02*
X18839286Y-4111980D01*
X18839286Y-4111980D02*
X18791667Y-4016742D01*
X18791667Y-4016742D02*
X18744048Y-3826266D01*
X18744048Y-3826266D02*
X18744048Y-3588171D01*
X18744048Y-3588171D02*
X18791667Y-3397695D01*
X18791667Y-3397695D02*
X18839286Y-3302457D01*
X18839286Y-3302457D02*
X18886905Y-3254838D01*
X18886905Y-3254838D02*
X18982143Y-3207219D01*
X19696429Y-3302457D02*
X19744048Y-3254838D01*
X19744048Y-3254838D02*
X19839286Y-3207219D01*
X19839286Y-3207219D02*
X20077381Y-3207219D01*
X20077381Y-3207219D02*
X20172619Y-3254838D01*
X20172619Y-3254838D02*
X20220238Y-3302457D01*
X20220238Y-3302457D02*
X20267857Y-3397695D01*
X20267857Y-3397695D02*
X20267857Y-3492933D01*
X20267857Y-3492933D02*
X20220238Y-3635790D01*
X20220238Y-3635790D02*
X19648810Y-4207219D01*
X19648810Y-4207219D02*
X20267857Y-4207219D01*
D11*
X4849999Y-9739866D02*
X5383333Y-9739866D01*
X6083333Y-10006533D02*
X5683333Y-10006533D01*
X5883333Y-10006533D02*
X5883333Y-9306533D01*
X5883333Y-9306533D02*
X5816666Y-9406533D01*
X5816666Y-9406533D02*
X5750000Y-9473200D01*
X5750000Y-9473200D02*
X5683333Y-9506533D01*
X24266666Y-10016033D02*
X23866666Y-10016033D01*
X24066666Y-10016033D02*
X24066666Y-9316033D01*
X24066666Y-9316033D02*
X23999999Y-9416033D01*
X23999999Y-9416033D02*
X23933333Y-9482700D01*
X23933333Y-9482700D02*
X23866666Y-9516033D01*
X24566666Y-9749366D02*
X25100000Y-9749366D01*
D12*
X15716667Y-21238566D02*
X15650000Y-21205233D01*
X15650000Y-21205233D02*
X15550000Y-21205233D01*
X15550000Y-21205233D02*
X15450000Y-21238566D01*
X15450000Y-21238566D02*
X15383334Y-21305233D01*
X15383334Y-21305233D02*
X15350000Y-21371900D01*
X15350000Y-21371900D02*
X15316667Y-21505233D01*
X15316667Y-21505233D02*
X15316667Y-21605233D01*
X15316667Y-21605233D02*
X15350000Y-21738566D01*
X15350000Y-21738566D02*
X15383334Y-21805233D01*
X15383334Y-21805233D02*
X15450000Y-21871900D01*
X15450000Y-21871900D02*
X15550000Y-21905233D01*
X15550000Y-21905233D02*
X15616667Y-21905233D01*
X15616667Y-21905233D02*
X15716667Y-21871900D01*
X15716667Y-21871900D02*
X15750000Y-21838566D01*
X15750000Y-21838566D02*
X15750000Y-21605233D01*
X15750000Y-21605233D02*
X15616667Y-21605233D01*
X16050000Y-21905233D02*
X16050000Y-21205233D01*
X16050000Y-21205233D02*
X16450000Y-21905233D01*
X16450000Y-21905233D02*
X16450000Y-21205233D01*
X16783333Y-21905233D02*
X16783333Y-21205233D01*
X16783333Y-21205233D02*
X16950000Y-21205233D01*
X16950000Y-21205233D02*
X17050000Y-21238566D01*
X17050000Y-21238566D02*
X17116667Y-21305233D01*
X17116667Y-21305233D02*
X17150000Y-21371900D01*
X17150000Y-21371900D02*
X17183333Y-21505233D01*
X17183333Y-21505233D02*
X17183333Y-21605233D01*
X17183333Y-21605233D02*
X17150000Y-21738566D01*
X17150000Y-21738566D02*
X17116667Y-21805233D01*
X17116667Y-21805233D02*
X17050000Y-21871900D01*
X17050000Y-21871900D02*
X16950000Y-21905233D01*
X16950000Y-21905233D02*
X16783333Y-21905233D01*
D11*
X23283333Y-19882700D02*
X23316666Y-19849366D01*
X23316666Y-19849366D02*
X23383333Y-19816033D01*
X23383333Y-19816033D02*
X23550000Y-19816033D01*
X23550000Y-19816033D02*
X23616666Y-19849366D01*
X23616666Y-19849366D02*
X23650000Y-19882700D01*
X23650000Y-19882700D02*
X23683333Y-19949366D01*
X23683333Y-19949366D02*
X23683333Y-20016033D01*
X23683333Y-20016033D02*
X23650000Y-20116033D01*
X23650000Y-20116033D02*
X23250000Y-20516033D01*
X23250000Y-20516033D02*
X23683333Y-20516033D01*
X23950000Y-19882700D02*
X23983333Y-19849366D01*
X23983333Y-19849366D02*
X24050000Y-19816033D01*
X24050000Y-19816033D02*
X24216667Y-19816033D01*
X24216667Y-19816033D02*
X24283333Y-19849366D01*
X24283333Y-19849366D02*
X24316667Y-19882700D01*
X24316667Y-19882700D02*
X24350000Y-19949366D01*
X24350000Y-19949366D02*
X24350000Y-20016033D01*
X24350000Y-20016033D02*
X24316667Y-20116033D01*
X24316667Y-20116033D02*
X23916667Y-20516033D01*
X23916667Y-20516033D02*
X24350000Y-20516033D01*
X24650000Y-20249366D02*
X25183334Y-20249366D01*
D12*
X18300000Y-21905233D02*
X18300000Y-21205233D01*
X18766667Y-21205233D02*
X18900000Y-21205233D01*
X18900000Y-21205233D02*
X18966667Y-21238566D01*
X18966667Y-21238566D02*
X19033333Y-21305233D01*
X19033333Y-21305233D02*
X19066667Y-21438566D01*
X19066667Y-21438566D02*
X19066667Y-21671900D01*
X19066667Y-21671900D02*
X19033333Y-21805233D01*
X19033333Y-21805233D02*
X18966667Y-21871900D01*
X18966667Y-21871900D02*
X18900000Y-21905233D01*
X18900000Y-21905233D02*
X18766667Y-21905233D01*
X18766667Y-21905233D02*
X18700000Y-21871900D01*
X18700000Y-21871900D02*
X18633333Y-21805233D01*
X18633333Y-21805233D02*
X18600000Y-21671900D01*
X18600000Y-21671900D02*
X18600000Y-21438566D01*
X18600000Y-21438566D02*
X18633333Y-21305233D01*
X18633333Y-21305233D02*
X18700000Y-21238566D01*
X18700000Y-21238566D02*
X18766667Y-21205233D01*
X19733333Y-21905233D02*
X19333333Y-21905233D01*
X19533333Y-21905233D02*
X19533333Y-21205233D01*
X19533333Y-21205233D02*
X19466666Y-21305233D01*
X19466666Y-21305233D02*
X19400000Y-21371900D01*
X19400000Y-21371900D02*
X19333333Y-21405233D01*
X20233333Y-21905233D02*
X20233333Y-21205233D01*
X20233333Y-21205233D02*
X20500000Y-21205233D01*
X20500000Y-21205233D02*
X20566667Y-21238566D01*
X20566667Y-21238566D02*
X20600000Y-21271900D01*
X20600000Y-21271900D02*
X20633333Y-21338566D01*
X20633333Y-21338566D02*
X20633333Y-21438566D01*
X20633333Y-21438566D02*
X20600000Y-21505233D01*
X20600000Y-21505233D02*
X20566667Y-21538566D01*
X20566667Y-21538566D02*
X20500000Y-21571900D01*
X20500000Y-21571900D02*
X20233333Y-21571900D01*
X20866667Y-21205233D02*
X21033333Y-21905233D01*
X21033333Y-21905233D02*
X21166667Y-21405233D01*
X21166667Y-21405233D02*
X21300000Y-21905233D01*
X21300000Y-21905233D02*
X21466667Y-21205233D01*
X21733333Y-21538566D02*
X21966667Y-21538566D01*
X22066667Y-21905233D02*
X21733333Y-21905233D01*
X21733333Y-21905233D02*
X21733333Y-21205233D01*
X21733333Y-21205233D02*
X22066667Y-21205233D01*
X22366666Y-21905233D02*
X22366666Y-21205233D01*
X22366666Y-21205233D02*
X22766666Y-21905233D01*
X22766666Y-21905233D02*
X22766666Y-21205233D01*
X10400000Y-21871900D02*
X10500000Y-21905233D01*
X10500000Y-21905233D02*
X10666667Y-21905233D01*
X10666667Y-21905233D02*
X10733333Y-21871900D01*
X10733333Y-21871900D02*
X10766667Y-21838566D01*
X10766667Y-21838566D02*
X10800000Y-21771900D01*
X10800000Y-21771900D02*
X10800000Y-21705233D01*
X10800000Y-21705233D02*
X10766667Y-21638566D01*
X10766667Y-21638566D02*
X10733333Y-21605233D01*
X10733333Y-21605233D02*
X10666667Y-21571900D01*
X10666667Y-21571900D02*
X10533333Y-21538566D01*
X10533333Y-21538566D02*
X10466667Y-21505233D01*
X10466667Y-21505233D02*
X10433333Y-21471900D01*
X10433333Y-21471900D02*
X10400000Y-21405233D01*
X10400000Y-21405233D02*
X10400000Y-21338566D01*
X10400000Y-21338566D02*
X10433333Y-21271900D01*
X10433333Y-21271900D02*
X10466667Y-21238566D01*
X10466667Y-21238566D02*
X10533333Y-21205233D01*
X10533333Y-21205233D02*
X10700000Y-21205233D01*
X10700000Y-21205233D02*
X10800000Y-21238566D01*
X11100000Y-21905233D02*
X11100000Y-21205233D01*
X11100000Y-21205233D02*
X11266667Y-21205233D01*
X11266667Y-21205233D02*
X11366667Y-21238566D01*
X11366667Y-21238566D02*
X11433334Y-21305233D01*
X11433334Y-21305233D02*
X11466667Y-21371900D01*
X11466667Y-21371900D02*
X11500000Y-21505233D01*
X11500000Y-21505233D02*
X11500000Y-21605233D01*
X11500000Y-21605233D02*
X11466667Y-21738566D01*
X11466667Y-21738566D02*
X11433334Y-21805233D01*
X11433334Y-21805233D02*
X11366667Y-21871900D01*
X11366667Y-21871900D02*
X11266667Y-21905233D01*
X11266667Y-21905233D02*
X11100000Y-21905233D01*
X11766667Y-21705233D02*
X12100000Y-21705233D01*
X11700000Y-21905233D02*
X11933334Y-21205233D01*
X11933334Y-21205233D02*
X12166667Y-21905233D01*
X12916666Y-21871900D02*
X13016666Y-21905233D01*
X13016666Y-21905233D02*
X13183333Y-21905233D01*
X13183333Y-21905233D02*
X13249999Y-21871900D01*
X13249999Y-21871900D02*
X13283333Y-21838566D01*
X13283333Y-21838566D02*
X13316666Y-21771900D01*
X13316666Y-21771900D02*
X13316666Y-21705233D01*
X13316666Y-21705233D02*
X13283333Y-21638566D01*
X13283333Y-21638566D02*
X13249999Y-21605233D01*
X13249999Y-21605233D02*
X13183333Y-21571900D01*
X13183333Y-21571900D02*
X13049999Y-21538566D01*
X13049999Y-21538566D02*
X12983333Y-21505233D01*
X12983333Y-21505233D02*
X12949999Y-21471900D01*
X12949999Y-21471900D02*
X12916666Y-21405233D01*
X12916666Y-21405233D02*
X12916666Y-21338566D01*
X12916666Y-21338566D02*
X12949999Y-21271900D01*
X12949999Y-21271900D02*
X12983333Y-21238566D01*
X12983333Y-21238566D02*
X13049999Y-21205233D01*
X13049999Y-21205233D02*
X13216666Y-21205233D01*
X13216666Y-21205233D02*
X13316666Y-21238566D01*
X14016666Y-21838566D02*
X13983333Y-21871900D01*
X13983333Y-21871900D02*
X13883333Y-21905233D01*
X13883333Y-21905233D02*
X13816666Y-21905233D01*
X13816666Y-21905233D02*
X13716666Y-21871900D01*
X13716666Y-21871900D02*
X13650000Y-21805233D01*
X13650000Y-21805233D02*
X13616666Y-21738566D01*
X13616666Y-21738566D02*
X13583333Y-21605233D01*
X13583333Y-21605233D02*
X13583333Y-21505233D01*
X13583333Y-21505233D02*
X13616666Y-21371900D01*
X13616666Y-21371900D02*
X13650000Y-21305233D01*
X13650000Y-21305233D02*
X13716666Y-21238566D01*
X13716666Y-21238566D02*
X13816666Y-21205233D01*
X13816666Y-21205233D02*
X13883333Y-21205233D01*
X13883333Y-21205233D02*
X13983333Y-21238566D01*
X13983333Y-21238566D02*
X14016666Y-21271900D01*
X14650000Y-21905233D02*
X14316666Y-21905233D01*
X14316666Y-21905233D02*
X14316666Y-21205233D01*
X7816666Y-21205233D02*
X8050000Y-21905233D01*
X8050000Y-21905233D02*
X8283333Y-21205233D01*
X8516666Y-21905233D02*
X8516666Y-21205233D01*
X8516666Y-21205233D02*
X8683333Y-21205233D01*
X8683333Y-21205233D02*
X8783333Y-21238566D01*
X8783333Y-21238566D02*
X8850000Y-21305233D01*
X8850000Y-21305233D02*
X8883333Y-21371900D01*
X8883333Y-21371900D02*
X8916666Y-21505233D01*
X8916666Y-21505233D02*
X8916666Y-21605233D01*
X8916666Y-21605233D02*
X8883333Y-21738566D01*
X8883333Y-21738566D02*
X8850000Y-21805233D01*
X8850000Y-21805233D02*
X8783333Y-21871900D01*
X8783333Y-21871900D02*
X8683333Y-21905233D01*
X8683333Y-21905233D02*
X8516666Y-21905233D01*
X9216666Y-21905233D02*
X9216666Y-21205233D01*
X9216666Y-21205233D02*
X9383333Y-21205233D01*
X9383333Y-21205233D02*
X9483333Y-21238566D01*
X9483333Y-21238566D02*
X9550000Y-21305233D01*
X9550000Y-21305233D02*
X9583333Y-21371900D01*
X9583333Y-21371900D02*
X9616666Y-21505233D01*
X9616666Y-21505233D02*
X9616666Y-21605233D01*
X9616666Y-21605233D02*
X9583333Y-21738566D01*
X9583333Y-21738566D02*
X9550000Y-21805233D01*
X9550000Y-21805233D02*
X9483333Y-21871900D01*
X9483333Y-21871900D02*
X9383333Y-21905233D01*
X9383333Y-21905233D02*
X9216666Y-21905233D01*
D11*
X4816666Y-20249366D02*
X5350000Y-20249366D01*
X5650000Y-19882700D02*
X5683333Y-19849366D01*
X5683333Y-19849366D02*
X5750000Y-19816033D01*
X5750000Y-19816033D02*
X5916667Y-19816033D01*
X5916667Y-19816033D02*
X5983333Y-19849366D01*
X5983333Y-19849366D02*
X6016667Y-19882700D01*
X6016667Y-19882700D02*
X6050000Y-19949366D01*
X6050000Y-19949366D02*
X6050000Y-20016033D01*
X6050000Y-20016033D02*
X6016667Y-20116033D01*
X6016667Y-20116033D02*
X5616667Y-20516033D01*
X5616667Y-20516033D02*
X6050000Y-20516033D01*
X6316667Y-19882700D02*
X6350000Y-19849366D01*
X6350000Y-19849366D02*
X6416667Y-19816033D01*
X6416667Y-19816033D02*
X6583334Y-19816033D01*
X6583334Y-19816033D02*
X6650000Y-19849366D01*
X6650000Y-19849366D02*
X6683334Y-19882700D01*
X6683334Y-19882700D02*
X6716667Y-19949366D01*
X6716667Y-19949366D02*
X6716667Y-20016033D01*
X6716667Y-20016033D02*
X6683334Y-20116033D01*
X6683334Y-20116033D02*
X6283334Y-20516033D01*
X6283334Y-20516033D02*
X6716667Y-20516033D01*
X9642857Y-10534323D02*
X9642857Y-9914323D01*
X9642857Y-9914323D02*
X9785714Y-9914323D01*
X9785714Y-9914323D02*
X9871428Y-9943847D01*
X9871428Y-9943847D02*
X9928571Y-10002895D01*
X9928571Y-10002895D02*
X9957142Y-10061942D01*
X9957142Y-10061942D02*
X9985714Y-10180038D01*
X9985714Y-10180038D02*
X9985714Y-10268609D01*
X9985714Y-10268609D02*
X9957142Y-10386704D01*
X9957142Y-10386704D02*
X9928571Y-10445752D01*
X9928571Y-10445752D02*
X9871428Y-10504800D01*
X9871428Y-10504800D02*
X9785714Y-10534323D01*
X9785714Y-10534323D02*
X9642857Y-10534323D01*
X10357142Y-9914323D02*
X10414285Y-9914323D01*
X10414285Y-9914323D02*
X10471428Y-9943847D01*
X10471428Y-9943847D02*
X10500000Y-9973371D01*
X10500000Y-9973371D02*
X10528571Y-10032419D01*
X10528571Y-10032419D02*
X10557142Y-10150514D01*
X10557142Y-10150514D02*
X10557142Y-10298133D01*
X10557142Y-10298133D02*
X10528571Y-10416228D01*
X10528571Y-10416228D02*
X10500000Y-10475276D01*
X10500000Y-10475276D02*
X10471428Y-10504800D01*
X10471428Y-10504800D02*
X10414285Y-10534323D01*
X10414285Y-10534323D02*
X10357142Y-10534323D01*
X10357142Y-10534323D02*
X10300000Y-10504800D01*
X10300000Y-10504800D02*
X10271428Y-10475276D01*
X10271428Y-10475276D02*
X10242857Y-10416228D01*
X10242857Y-10416228D02*
X10214285Y-10298133D01*
X10214285Y-10298133D02*
X10214285Y-10150514D01*
X10214285Y-10150514D02*
X10242857Y-10032419D01*
X10242857Y-10032419D02*
X10271428Y-9973371D01*
X10271428Y-9973371D02*
X10300000Y-9943847D01*
X10300000Y-9943847D02*
X10357142Y-9914323D01*
X10814286Y-10534323D02*
X10814286Y-9914323D01*
X10814286Y-9914323D02*
X11157143Y-10534323D01*
X11157143Y-10534323D02*
X11157143Y-9914323D01*
X8885715Y-11296333D02*
X9342858Y-11296333D01*
X9942857Y-10942047D02*
X9885715Y-10912523D01*
X9885715Y-10912523D02*
X9800000Y-10912523D01*
X9800000Y-10912523D02*
X9714286Y-10942047D01*
X9714286Y-10942047D02*
X9657143Y-11001095D01*
X9657143Y-11001095D02*
X9628572Y-11060142D01*
X9628572Y-11060142D02*
X9600000Y-11178238D01*
X9600000Y-11178238D02*
X9600000Y-11266809D01*
X9600000Y-11266809D02*
X9628572Y-11384904D01*
X9628572Y-11384904D02*
X9657143Y-11443952D01*
X9657143Y-11443952D02*
X9714286Y-11503000D01*
X9714286Y-11503000D02*
X9800000Y-11532523D01*
X9800000Y-11532523D02*
X9857143Y-11532523D01*
X9857143Y-11532523D02*
X9942857Y-11503000D01*
X9942857Y-11503000D02*
X9971429Y-11473476D01*
X9971429Y-11473476D02*
X9971429Y-11266809D01*
X9971429Y-11266809D02*
X9857143Y-11266809D01*
X10228572Y-11532523D02*
X10228572Y-10912523D01*
X10228572Y-10912523D02*
X10571429Y-11532523D01*
X10571429Y-11532523D02*
X10571429Y-10912523D01*
X10857143Y-11532523D02*
X10857143Y-10912523D01*
X10857143Y-10912523D02*
X11000000Y-10912523D01*
X11000000Y-10912523D02*
X11085714Y-10942047D01*
X11085714Y-10942047D02*
X11142857Y-11001095D01*
X11142857Y-11001095D02*
X11171428Y-11060142D01*
X11171428Y-11060142D02*
X11200000Y-11178238D01*
X11200000Y-11178238D02*
X11200000Y-11266809D01*
X11200000Y-11266809D02*
X11171428Y-11384904D01*
X11171428Y-11384904D02*
X11142857Y-11443952D01*
X11142857Y-11443952D02*
X11085714Y-11503000D01*
X11085714Y-11503000D02*
X11000000Y-11532523D01*
X11000000Y-11532523D02*
X10857143Y-11532523D01*
X11457143Y-11296333D02*
X11914286Y-11296333D01*
X9657143Y-12530723D02*
X9657143Y-11910723D01*
X9657143Y-11910723D02*
X9800000Y-11910723D01*
X9800000Y-11910723D02*
X9885714Y-11940247D01*
X9885714Y-11940247D02*
X9942857Y-11999295D01*
X9942857Y-11999295D02*
X9971428Y-12058342D01*
X9971428Y-12058342D02*
X10000000Y-12176438D01*
X10000000Y-12176438D02*
X10000000Y-12265009D01*
X10000000Y-12265009D02*
X9971428Y-12383104D01*
X9971428Y-12383104D02*
X9942857Y-12442152D01*
X9942857Y-12442152D02*
X9885714Y-12501200D01*
X9885714Y-12501200D02*
X9800000Y-12530723D01*
X9800000Y-12530723D02*
X9657143Y-12530723D01*
X10571428Y-12530723D02*
X10228571Y-12530723D01*
X10400000Y-12530723D02*
X10400000Y-11910723D01*
X10400000Y-11910723D02*
X10342857Y-11999295D01*
X10342857Y-11999295D02*
X10285714Y-12058342D01*
X10285714Y-12058342D02*
X10228571Y-12087866D01*
X10828572Y-12530723D02*
X10828572Y-11910723D01*
X10828572Y-11910723D02*
X11057143Y-11910723D01*
X11057143Y-11910723D02*
X11114286Y-11940247D01*
X11114286Y-11940247D02*
X11142857Y-11969771D01*
X11142857Y-11969771D02*
X11171429Y-12028819D01*
X11171429Y-12028819D02*
X11171429Y-12117390D01*
X11171429Y-12117390D02*
X11142857Y-12176438D01*
X11142857Y-12176438D02*
X11114286Y-12205961D01*
X11114286Y-12205961D02*
X11057143Y-12235485D01*
X11057143Y-12235485D02*
X10828572Y-12235485D01*
X9971429Y-13469876D02*
X9942857Y-13499400D01*
X9942857Y-13499400D02*
X9857143Y-13528923D01*
X9857143Y-13528923D02*
X9800000Y-13528923D01*
X9800000Y-13528923D02*
X9714286Y-13499400D01*
X9714286Y-13499400D02*
X9657143Y-13440352D01*
X9657143Y-13440352D02*
X9628572Y-13381304D01*
X9628572Y-13381304D02*
X9600000Y-13263209D01*
X9600000Y-13263209D02*
X9600000Y-13174638D01*
X9600000Y-13174638D02*
X9628572Y-13056542D01*
X9628572Y-13056542D02*
X9657143Y-12997495D01*
X9657143Y-12997495D02*
X9714286Y-12938447D01*
X9714286Y-12938447D02*
X9800000Y-12908923D01*
X9800000Y-12908923D02*
X9857143Y-12908923D01*
X9857143Y-12908923D02*
X9942857Y-12938447D01*
X9942857Y-12938447D02*
X9971429Y-12967971D01*
X10228572Y-13528923D02*
X10228572Y-12908923D01*
X10571429Y-13528923D02*
X10314286Y-13174638D01*
X10571429Y-12908923D02*
X10228572Y-13263209D01*
X10828572Y-13528923D02*
X10828572Y-12908923D01*
X10828572Y-12908923D02*
X11171429Y-13528923D01*
X11171429Y-13528923D02*
X11171429Y-12908923D01*
X8885715Y-14290933D02*
X9342858Y-14290933D01*
X9942857Y-13936647D02*
X9885715Y-13907123D01*
X9885715Y-13907123D02*
X9800000Y-13907123D01*
X9800000Y-13907123D02*
X9714286Y-13936647D01*
X9714286Y-13936647D02*
X9657143Y-13995695D01*
X9657143Y-13995695D02*
X9628572Y-14054742D01*
X9628572Y-14054742D02*
X9600000Y-14172838D01*
X9600000Y-14172838D02*
X9600000Y-14261409D01*
X9600000Y-14261409D02*
X9628572Y-14379504D01*
X9628572Y-14379504D02*
X9657143Y-14438552D01*
X9657143Y-14438552D02*
X9714286Y-14497600D01*
X9714286Y-14497600D02*
X9800000Y-14527123D01*
X9800000Y-14527123D02*
X9857143Y-14527123D01*
X9857143Y-14527123D02*
X9942857Y-14497600D01*
X9942857Y-14497600D02*
X9971429Y-14468076D01*
X9971429Y-14468076D02*
X9971429Y-14261409D01*
X9971429Y-14261409D02*
X9857143Y-14261409D01*
X10228572Y-14527123D02*
X10228572Y-13907123D01*
X10228572Y-13907123D02*
X10571429Y-14527123D01*
X10571429Y-14527123D02*
X10571429Y-13907123D01*
X10857143Y-14527123D02*
X10857143Y-13907123D01*
X10857143Y-13907123D02*
X11000000Y-13907123D01*
X11000000Y-13907123D02*
X11085714Y-13936647D01*
X11085714Y-13936647D02*
X11142857Y-13995695D01*
X11142857Y-13995695D02*
X11171428Y-14054742D01*
X11171428Y-14054742D02*
X11200000Y-14172838D01*
X11200000Y-14172838D02*
X11200000Y-14261409D01*
X11200000Y-14261409D02*
X11171428Y-14379504D01*
X11171428Y-14379504D02*
X11142857Y-14438552D01*
X11142857Y-14438552D02*
X11085714Y-14497600D01*
X11085714Y-14497600D02*
X11000000Y-14527123D01*
X11000000Y-14527123D02*
X10857143Y-14527123D01*
X11457143Y-14290933D02*
X11914286Y-14290933D01*
X9657143Y-15525323D02*
X9657143Y-14905323D01*
X9657143Y-14905323D02*
X9800000Y-14905323D01*
X9800000Y-14905323D02*
X9885714Y-14934847D01*
X9885714Y-14934847D02*
X9942857Y-14993895D01*
X9942857Y-14993895D02*
X9971428Y-15052942D01*
X9971428Y-15052942D02*
X10000000Y-15171038D01*
X10000000Y-15171038D02*
X10000000Y-15259609D01*
X10000000Y-15259609D02*
X9971428Y-15377704D01*
X9971428Y-15377704D02*
X9942857Y-15436752D01*
X9942857Y-15436752D02*
X9885714Y-15495800D01*
X9885714Y-15495800D02*
X9800000Y-15525323D01*
X9800000Y-15525323D02*
X9657143Y-15525323D01*
X10228571Y-14964371D02*
X10257143Y-14934847D01*
X10257143Y-14934847D02*
X10314286Y-14905323D01*
X10314286Y-14905323D02*
X10457143Y-14905323D01*
X10457143Y-14905323D02*
X10514286Y-14934847D01*
X10514286Y-14934847D02*
X10542857Y-14964371D01*
X10542857Y-14964371D02*
X10571428Y-15023419D01*
X10571428Y-15023419D02*
X10571428Y-15082466D01*
X10571428Y-15082466D02*
X10542857Y-15171038D01*
X10542857Y-15171038D02*
X10200000Y-15525323D01*
X10200000Y-15525323D02*
X10571428Y-15525323D01*
X10828572Y-15525323D02*
X10828572Y-14905323D01*
X10828572Y-14905323D02*
X11057143Y-14905323D01*
X11057143Y-14905323D02*
X11114286Y-14934847D01*
X11114286Y-14934847D02*
X11142857Y-14964371D01*
X11142857Y-14964371D02*
X11171429Y-15023419D01*
X11171429Y-15023419D02*
X11171429Y-15111990D01*
X11171429Y-15111990D02*
X11142857Y-15171038D01*
X11142857Y-15171038D02*
X11114286Y-15200561D01*
X11114286Y-15200561D02*
X11057143Y-15230085D01*
X11057143Y-15230085D02*
X10828572Y-15230085D01*
X9642857Y-16523523D02*
X9642857Y-15903523D01*
X9642857Y-15903523D02*
X9785714Y-15903523D01*
X9785714Y-15903523D02*
X9871428Y-15933047D01*
X9871428Y-15933047D02*
X9928571Y-15992095D01*
X9928571Y-15992095D02*
X9957142Y-16051142D01*
X9957142Y-16051142D02*
X9985714Y-16169238D01*
X9985714Y-16169238D02*
X9985714Y-16257809D01*
X9985714Y-16257809D02*
X9957142Y-16375904D01*
X9957142Y-16375904D02*
X9928571Y-16434952D01*
X9928571Y-16434952D02*
X9871428Y-16494000D01*
X9871428Y-16494000D02*
X9785714Y-16523523D01*
X9785714Y-16523523D02*
X9642857Y-16523523D01*
X10185714Y-15903523D02*
X10557142Y-15903523D01*
X10557142Y-15903523D02*
X10357142Y-16139714D01*
X10357142Y-16139714D02*
X10442857Y-16139714D01*
X10442857Y-16139714D02*
X10500000Y-16169238D01*
X10500000Y-16169238D02*
X10528571Y-16198761D01*
X10528571Y-16198761D02*
X10557142Y-16257809D01*
X10557142Y-16257809D02*
X10557142Y-16405428D01*
X10557142Y-16405428D02*
X10528571Y-16464476D01*
X10528571Y-16464476D02*
X10500000Y-16494000D01*
X10500000Y-16494000D02*
X10442857Y-16523523D01*
X10442857Y-16523523D02*
X10271428Y-16523523D01*
X10271428Y-16523523D02*
X10214285Y-16494000D01*
X10214285Y-16494000D02*
X10185714Y-16464476D01*
X10814286Y-16523523D02*
X10814286Y-15903523D01*
X10814286Y-15903523D02*
X11157143Y-16523523D01*
X11157143Y-16523523D02*
X11157143Y-15903523D01*
X8885715Y-17285533D02*
X9342858Y-17285533D01*
X9942857Y-16931247D02*
X9885715Y-16901723D01*
X9885715Y-16901723D02*
X9800000Y-16901723D01*
X9800000Y-16901723D02*
X9714286Y-16931247D01*
X9714286Y-16931247D02*
X9657143Y-16990295D01*
X9657143Y-16990295D02*
X9628572Y-17049342D01*
X9628572Y-17049342D02*
X9600000Y-17167438D01*
X9600000Y-17167438D02*
X9600000Y-17256009D01*
X9600000Y-17256009D02*
X9628572Y-17374104D01*
X9628572Y-17374104D02*
X9657143Y-17433152D01*
X9657143Y-17433152D02*
X9714286Y-17492200D01*
X9714286Y-17492200D02*
X9800000Y-17521723D01*
X9800000Y-17521723D02*
X9857143Y-17521723D01*
X9857143Y-17521723D02*
X9942857Y-17492200D01*
X9942857Y-17492200D02*
X9971429Y-17462676D01*
X9971429Y-17462676D02*
X9971429Y-17256009D01*
X9971429Y-17256009D02*
X9857143Y-17256009D01*
X10228572Y-17521723D02*
X10228572Y-16901723D01*
X10228572Y-16901723D02*
X10571429Y-17521723D01*
X10571429Y-17521723D02*
X10571429Y-16901723D01*
X10857143Y-17521723D02*
X10857143Y-16901723D01*
X10857143Y-16901723D02*
X11000000Y-16901723D01*
X11000000Y-16901723D02*
X11085714Y-16931247D01*
X11085714Y-16931247D02*
X11142857Y-16990295D01*
X11142857Y-16990295D02*
X11171428Y-17049342D01*
X11171428Y-17049342D02*
X11200000Y-17167438D01*
X11200000Y-17167438D02*
X11200000Y-17256009D01*
X11200000Y-17256009D02*
X11171428Y-17374104D01*
X11171428Y-17374104D02*
X11142857Y-17433152D01*
X11142857Y-17433152D02*
X11085714Y-17492200D01*
X11085714Y-17492200D02*
X11000000Y-17521723D01*
X11000000Y-17521723D02*
X10857143Y-17521723D01*
X11457143Y-17285533D02*
X11914286Y-17285533D01*
X9800000Y-18519923D02*
X9800000Y-17899923D01*
X10199999Y-17899923D02*
X10314285Y-17899923D01*
X10314285Y-17899923D02*
X10371428Y-17929447D01*
X10371428Y-17929447D02*
X10428571Y-17988495D01*
X10428571Y-17988495D02*
X10457142Y-18106590D01*
X10457142Y-18106590D02*
X10457142Y-18313257D01*
X10457142Y-18313257D02*
X10428571Y-18431352D01*
X10428571Y-18431352D02*
X10371428Y-18490400D01*
X10371428Y-18490400D02*
X10314285Y-18519923D01*
X10314285Y-18519923D02*
X10199999Y-18519923D01*
X10199999Y-18519923D02*
X10142857Y-18490400D01*
X10142857Y-18490400D02*
X10085714Y-18431352D01*
X10085714Y-18431352D02*
X10057142Y-18313257D01*
X10057142Y-18313257D02*
X10057142Y-18106590D01*
X10057142Y-18106590D02*
X10085714Y-17988495D01*
X10085714Y-17988495D02*
X10142857Y-17929447D01*
X10142857Y-17929447D02*
X10199999Y-17899923D01*
X11028570Y-18519923D02*
X10685713Y-18519923D01*
X10857142Y-18519923D02*
X10857142Y-17899923D01*
X10857142Y-17899923D02*
X10799999Y-17988495D01*
X10799999Y-17988495D02*
X10742856Y-18047542D01*
X10742856Y-18047542D02*
X10685713Y-18077066D01*
X9685714Y-19488600D02*
X9771429Y-19518123D01*
X9771429Y-19518123D02*
X9914286Y-19518123D01*
X9914286Y-19518123D02*
X9971429Y-19488600D01*
X9971429Y-19488600D02*
X10000000Y-19459076D01*
X10000000Y-19459076D02*
X10028571Y-19400028D01*
X10028571Y-19400028D02*
X10028571Y-19340980D01*
X10028571Y-19340980D02*
X10000000Y-19281933D01*
X10000000Y-19281933D02*
X9971429Y-19252409D01*
X9971429Y-19252409D02*
X9914286Y-19222885D01*
X9914286Y-19222885D02*
X9800000Y-19193361D01*
X9800000Y-19193361D02*
X9742857Y-19163838D01*
X9742857Y-19163838D02*
X9714286Y-19134314D01*
X9714286Y-19134314D02*
X9685714Y-19075266D01*
X9685714Y-19075266D02*
X9685714Y-19016219D01*
X9685714Y-19016219D02*
X9714286Y-18957171D01*
X9714286Y-18957171D02*
X9742857Y-18927647D01*
X9742857Y-18927647D02*
X9800000Y-18898123D01*
X9800000Y-18898123D02*
X9942857Y-18898123D01*
X9942857Y-18898123D02*
X10028571Y-18927647D01*
X10628572Y-19459076D02*
X10600000Y-19488600D01*
X10600000Y-19488600D02*
X10514286Y-19518123D01*
X10514286Y-19518123D02*
X10457143Y-19518123D01*
X10457143Y-19518123D02*
X10371429Y-19488600D01*
X10371429Y-19488600D02*
X10314286Y-19429552D01*
X10314286Y-19429552D02*
X10285715Y-19370504D01*
X10285715Y-19370504D02*
X10257143Y-19252409D01*
X10257143Y-19252409D02*
X10257143Y-19163838D01*
X10257143Y-19163838D02*
X10285715Y-19045742D01*
X10285715Y-19045742D02*
X10314286Y-18986695D01*
X10314286Y-18986695D02*
X10371429Y-18927647D01*
X10371429Y-18927647D02*
X10457143Y-18898123D01*
X10457143Y-18898123D02*
X10514286Y-18898123D01*
X10514286Y-18898123D02*
X10600000Y-18927647D01*
X10600000Y-18927647D02*
X10628572Y-18957171D01*
X11171429Y-19518123D02*
X10885715Y-19518123D01*
X10885715Y-19518123D02*
X10885715Y-18898123D01*
X9028570Y-19896323D02*
X9228570Y-20516323D01*
X9228570Y-20516323D02*
X9428570Y-19896323D01*
X9628571Y-20516323D02*
X9628571Y-19896323D01*
X9628571Y-19896323D02*
X9771428Y-19896323D01*
X9771428Y-19896323D02*
X9857142Y-19925847D01*
X9857142Y-19925847D02*
X9914285Y-19984895D01*
X9914285Y-19984895D02*
X9942856Y-20043942D01*
X9942856Y-20043942D02*
X9971428Y-20162038D01*
X9971428Y-20162038D02*
X9971428Y-20250609D01*
X9971428Y-20250609D02*
X9942856Y-20368704D01*
X9942856Y-20368704D02*
X9914285Y-20427752D01*
X9914285Y-20427752D02*
X9857142Y-20486800D01*
X9857142Y-20486800D02*
X9771428Y-20516323D01*
X9771428Y-20516323D02*
X9628571Y-20516323D01*
X10228571Y-20516323D02*
X10228571Y-19896323D01*
X10228571Y-19896323D02*
X10371428Y-19896323D01*
X10371428Y-19896323D02*
X10457142Y-19925847D01*
X10457142Y-19925847D02*
X10514285Y-19984895D01*
X10514285Y-19984895D02*
X10542856Y-20043942D01*
X10542856Y-20043942D02*
X10571428Y-20162038D01*
X10571428Y-20162038D02*
X10571428Y-20250609D01*
X10571428Y-20250609D02*
X10542856Y-20368704D01*
X10542856Y-20368704D02*
X10514285Y-20427752D01*
X10514285Y-20427752D02*
X10457142Y-20486800D01*
X10457142Y-20486800D02*
X10371428Y-20516323D01*
X10371428Y-20516323D02*
X10228571Y-20516323D01*
X10771428Y-19896323D02*
X11142856Y-19896323D01*
X11142856Y-19896323D02*
X10942856Y-20132514D01*
X10942856Y-20132514D02*
X11028571Y-20132514D01*
X11028571Y-20132514D02*
X11085714Y-20162038D01*
X11085714Y-20162038D02*
X11114285Y-20191561D01*
X11114285Y-20191561D02*
X11142856Y-20250609D01*
X11142856Y-20250609D02*
X11142856Y-20398228D01*
X11142856Y-20398228D02*
X11114285Y-20457276D01*
X11114285Y-20457276D02*
X11085714Y-20486800D01*
X11085714Y-20486800D02*
X11028571Y-20516323D01*
X11028571Y-20516323D02*
X10857142Y-20516323D01*
X10857142Y-20516323D02*
X10799999Y-20486800D01*
X10799999Y-20486800D02*
X10771428Y-20457276D01*
X11342857Y-19896323D02*
X11714285Y-19896323D01*
X11714285Y-19896323D02*
X11514285Y-20132514D01*
X11514285Y-20132514D02*
X11600000Y-20132514D01*
X11600000Y-20132514D02*
X11657143Y-20162038D01*
X11657143Y-20162038D02*
X11685714Y-20191561D01*
X11685714Y-20191561D02*
X11714285Y-20250609D01*
X11714285Y-20250609D02*
X11714285Y-20398228D01*
X11714285Y-20398228D02*
X11685714Y-20457276D01*
X11685714Y-20457276D02*
X11657143Y-20486800D01*
X11657143Y-20486800D02*
X11600000Y-20516323D01*
X11600000Y-20516323D02*
X11428571Y-20516323D01*
X11428571Y-20516323D02*
X11371428Y-20486800D01*
X11371428Y-20486800D02*
X11342857Y-20457276D01*
X6285715Y-9748133D02*
X6742858Y-9748133D01*
X7342857Y-9393847D02*
X7285715Y-9364323D01*
X7285715Y-9364323D02*
X7200000Y-9364323D01*
X7200000Y-9364323D02*
X7114286Y-9393847D01*
X7114286Y-9393847D02*
X7057143Y-9452895D01*
X7057143Y-9452895D02*
X7028572Y-9511942D01*
X7028572Y-9511942D02*
X7000000Y-9630038D01*
X7000000Y-9630038D02*
X7000000Y-9718609D01*
X7000000Y-9718609D02*
X7028572Y-9836704D01*
X7028572Y-9836704D02*
X7057143Y-9895752D01*
X7057143Y-9895752D02*
X7114286Y-9954800D01*
X7114286Y-9954800D02*
X7200000Y-9984323D01*
X7200000Y-9984323D02*
X7257143Y-9984323D01*
X7257143Y-9984323D02*
X7342857Y-9954800D01*
X7342857Y-9954800D02*
X7371429Y-9925276D01*
X7371429Y-9925276D02*
X7371429Y-9718609D01*
X7371429Y-9718609D02*
X7257143Y-9718609D01*
X7628572Y-9984323D02*
X7628572Y-9364323D01*
X7628572Y-9364323D02*
X7971429Y-9984323D01*
X7971429Y-9984323D02*
X7971429Y-9364323D01*
X8257143Y-9984323D02*
X8257143Y-9364323D01*
X8257143Y-9364323D02*
X8400000Y-9364323D01*
X8400000Y-9364323D02*
X8485714Y-9393847D01*
X8485714Y-9393847D02*
X8542857Y-9452895D01*
X8542857Y-9452895D02*
X8571428Y-9511942D01*
X8571428Y-9511942D02*
X8600000Y-9630038D01*
X8600000Y-9630038D02*
X8600000Y-9718609D01*
X8600000Y-9718609D02*
X8571428Y-9836704D01*
X8571428Y-9836704D02*
X8542857Y-9895752D01*
X8542857Y-9895752D02*
X8485714Y-9954800D01*
X8485714Y-9954800D02*
X8400000Y-9984323D01*
X8400000Y-9984323D02*
X8257143Y-9984323D01*
X8857143Y-9748133D02*
X9314286Y-9748133D01*
X7057143Y-10982523D02*
X7057143Y-10362523D01*
X7057143Y-10362523D02*
X7200000Y-10362523D01*
X7200000Y-10362523D02*
X7285714Y-10392047D01*
X7285714Y-10392047D02*
X7342857Y-10451095D01*
X7342857Y-10451095D02*
X7371428Y-10510142D01*
X7371428Y-10510142D02*
X7400000Y-10628238D01*
X7400000Y-10628238D02*
X7400000Y-10716809D01*
X7400000Y-10716809D02*
X7371428Y-10834904D01*
X7371428Y-10834904D02*
X7342857Y-10893952D01*
X7342857Y-10893952D02*
X7285714Y-10953000D01*
X7285714Y-10953000D02*
X7200000Y-10982523D01*
X7200000Y-10982523D02*
X7057143Y-10982523D01*
X7771428Y-10362523D02*
X7828571Y-10362523D01*
X7828571Y-10362523D02*
X7885714Y-10392047D01*
X7885714Y-10392047D02*
X7914286Y-10421571D01*
X7914286Y-10421571D02*
X7942857Y-10480619D01*
X7942857Y-10480619D02*
X7971428Y-10598714D01*
X7971428Y-10598714D02*
X7971428Y-10746333D01*
X7971428Y-10746333D02*
X7942857Y-10864428D01*
X7942857Y-10864428D02*
X7914286Y-10923476D01*
X7914286Y-10923476D02*
X7885714Y-10953000D01*
X7885714Y-10953000D02*
X7828571Y-10982523D01*
X7828571Y-10982523D02*
X7771428Y-10982523D01*
X7771428Y-10982523D02*
X7714286Y-10953000D01*
X7714286Y-10953000D02*
X7685714Y-10923476D01*
X7685714Y-10923476D02*
X7657143Y-10864428D01*
X7657143Y-10864428D02*
X7628571Y-10746333D01*
X7628571Y-10746333D02*
X7628571Y-10598714D01*
X7628571Y-10598714D02*
X7657143Y-10480619D01*
X7657143Y-10480619D02*
X7685714Y-10421571D01*
X7685714Y-10421571D02*
X7714286Y-10392047D01*
X7714286Y-10392047D02*
X7771428Y-10362523D01*
X8228572Y-10982523D02*
X8228572Y-10362523D01*
X8228572Y-10362523D02*
X8457143Y-10362523D01*
X8457143Y-10362523D02*
X8514286Y-10392047D01*
X8514286Y-10392047D02*
X8542857Y-10421571D01*
X8542857Y-10421571D02*
X8571429Y-10480619D01*
X8571429Y-10480619D02*
X8571429Y-10569190D01*
X8571429Y-10569190D02*
X8542857Y-10628238D01*
X8542857Y-10628238D02*
X8514286Y-10657761D01*
X8514286Y-10657761D02*
X8457143Y-10687285D01*
X8457143Y-10687285D02*
X8228572Y-10687285D01*
X7042857Y-11980723D02*
X7042857Y-11360723D01*
X7042857Y-11360723D02*
X7185714Y-11360723D01*
X7185714Y-11360723D02*
X7271428Y-11390247D01*
X7271428Y-11390247D02*
X7328571Y-11449295D01*
X7328571Y-11449295D02*
X7357142Y-11508342D01*
X7357142Y-11508342D02*
X7385714Y-11626438D01*
X7385714Y-11626438D02*
X7385714Y-11715009D01*
X7385714Y-11715009D02*
X7357142Y-11833104D01*
X7357142Y-11833104D02*
X7328571Y-11892152D01*
X7328571Y-11892152D02*
X7271428Y-11951200D01*
X7271428Y-11951200D02*
X7185714Y-11980723D01*
X7185714Y-11980723D02*
X7042857Y-11980723D01*
X7957142Y-11980723D02*
X7614285Y-11980723D01*
X7785714Y-11980723D02*
X7785714Y-11360723D01*
X7785714Y-11360723D02*
X7728571Y-11449295D01*
X7728571Y-11449295D02*
X7671428Y-11508342D01*
X7671428Y-11508342D02*
X7614285Y-11537866D01*
X8214286Y-11980723D02*
X8214286Y-11360723D01*
X8214286Y-11360723D02*
X8557143Y-11980723D01*
X8557143Y-11980723D02*
X8557143Y-11360723D01*
X6285715Y-12742733D02*
X6742858Y-12742733D01*
X7342857Y-12388447D02*
X7285715Y-12358923D01*
X7285715Y-12358923D02*
X7200000Y-12358923D01*
X7200000Y-12358923D02*
X7114286Y-12388447D01*
X7114286Y-12388447D02*
X7057143Y-12447495D01*
X7057143Y-12447495D02*
X7028572Y-12506542D01*
X7028572Y-12506542D02*
X7000000Y-12624638D01*
X7000000Y-12624638D02*
X7000000Y-12713209D01*
X7000000Y-12713209D02*
X7028572Y-12831304D01*
X7028572Y-12831304D02*
X7057143Y-12890352D01*
X7057143Y-12890352D02*
X7114286Y-12949400D01*
X7114286Y-12949400D02*
X7200000Y-12978923D01*
X7200000Y-12978923D02*
X7257143Y-12978923D01*
X7257143Y-12978923D02*
X7342857Y-12949400D01*
X7342857Y-12949400D02*
X7371429Y-12919876D01*
X7371429Y-12919876D02*
X7371429Y-12713209D01*
X7371429Y-12713209D02*
X7257143Y-12713209D01*
X7628572Y-12978923D02*
X7628572Y-12358923D01*
X7628572Y-12358923D02*
X7971429Y-12978923D01*
X7971429Y-12978923D02*
X7971429Y-12358923D01*
X8257143Y-12978923D02*
X8257143Y-12358923D01*
X8257143Y-12358923D02*
X8400000Y-12358923D01*
X8400000Y-12358923D02*
X8485714Y-12388447D01*
X8485714Y-12388447D02*
X8542857Y-12447495D01*
X8542857Y-12447495D02*
X8571428Y-12506542D01*
X8571428Y-12506542D02*
X8600000Y-12624638D01*
X8600000Y-12624638D02*
X8600000Y-12713209D01*
X8600000Y-12713209D02*
X8571428Y-12831304D01*
X8571428Y-12831304D02*
X8542857Y-12890352D01*
X8542857Y-12890352D02*
X8485714Y-12949400D01*
X8485714Y-12949400D02*
X8400000Y-12978923D01*
X8400000Y-12978923D02*
X8257143Y-12978923D01*
X8857143Y-12742733D02*
X9314286Y-12742733D01*
X7385714Y-13918076D02*
X7357142Y-13947600D01*
X7357142Y-13947600D02*
X7271428Y-13977123D01*
X7271428Y-13977123D02*
X7214285Y-13977123D01*
X7214285Y-13977123D02*
X7128571Y-13947600D01*
X7128571Y-13947600D02*
X7071428Y-13888552D01*
X7071428Y-13888552D02*
X7042857Y-13829504D01*
X7042857Y-13829504D02*
X7014285Y-13711409D01*
X7014285Y-13711409D02*
X7014285Y-13622838D01*
X7014285Y-13622838D02*
X7042857Y-13504742D01*
X7042857Y-13504742D02*
X7071428Y-13445695D01*
X7071428Y-13445695D02*
X7128571Y-13386647D01*
X7128571Y-13386647D02*
X7214285Y-13357123D01*
X7214285Y-13357123D02*
X7271428Y-13357123D01*
X7271428Y-13357123D02*
X7357142Y-13386647D01*
X7357142Y-13386647D02*
X7385714Y-13416171D01*
X7642857Y-13977123D02*
X7642857Y-13357123D01*
X7985714Y-13977123D02*
X7728571Y-13622838D01*
X7985714Y-13357123D02*
X7642857Y-13711409D01*
X8242857Y-13977123D02*
X8242857Y-13357123D01*
X8242857Y-13357123D02*
X8471428Y-13357123D01*
X8471428Y-13357123D02*
X8528571Y-13386647D01*
X8528571Y-13386647D02*
X8557142Y-13416171D01*
X8557142Y-13416171D02*
X8585714Y-13475219D01*
X8585714Y-13475219D02*
X8585714Y-13563790D01*
X8585714Y-13563790D02*
X8557142Y-13622838D01*
X8557142Y-13622838D02*
X8528571Y-13652361D01*
X8528571Y-13652361D02*
X8471428Y-13681885D01*
X8471428Y-13681885D02*
X8242857Y-13681885D01*
X7042857Y-14975323D02*
X7042857Y-14355323D01*
X7042857Y-14355323D02*
X7185714Y-14355323D01*
X7185714Y-14355323D02*
X7271428Y-14384847D01*
X7271428Y-14384847D02*
X7328571Y-14443895D01*
X7328571Y-14443895D02*
X7357142Y-14502942D01*
X7357142Y-14502942D02*
X7385714Y-14621038D01*
X7385714Y-14621038D02*
X7385714Y-14709609D01*
X7385714Y-14709609D02*
X7357142Y-14827704D01*
X7357142Y-14827704D02*
X7328571Y-14886752D01*
X7328571Y-14886752D02*
X7271428Y-14945800D01*
X7271428Y-14945800D02*
X7185714Y-14975323D01*
X7185714Y-14975323D02*
X7042857Y-14975323D01*
X7614285Y-14414371D02*
X7642857Y-14384847D01*
X7642857Y-14384847D02*
X7700000Y-14355323D01*
X7700000Y-14355323D02*
X7842857Y-14355323D01*
X7842857Y-14355323D02*
X7900000Y-14384847D01*
X7900000Y-14384847D02*
X7928571Y-14414371D01*
X7928571Y-14414371D02*
X7957142Y-14473419D01*
X7957142Y-14473419D02*
X7957142Y-14532466D01*
X7957142Y-14532466D02*
X7928571Y-14621038D01*
X7928571Y-14621038D02*
X7585714Y-14975323D01*
X7585714Y-14975323D02*
X7957142Y-14975323D01*
X8214286Y-14975323D02*
X8214286Y-14355323D01*
X8214286Y-14355323D02*
X8557143Y-14975323D01*
X8557143Y-14975323D02*
X8557143Y-14355323D01*
X6285715Y-15737333D02*
X6742858Y-15737333D01*
X7342857Y-15383047D02*
X7285715Y-15353523D01*
X7285715Y-15353523D02*
X7200000Y-15353523D01*
X7200000Y-15353523D02*
X7114286Y-15383047D01*
X7114286Y-15383047D02*
X7057143Y-15442095D01*
X7057143Y-15442095D02*
X7028572Y-15501142D01*
X7028572Y-15501142D02*
X7000000Y-15619238D01*
X7000000Y-15619238D02*
X7000000Y-15707809D01*
X7000000Y-15707809D02*
X7028572Y-15825904D01*
X7028572Y-15825904D02*
X7057143Y-15884952D01*
X7057143Y-15884952D02*
X7114286Y-15944000D01*
X7114286Y-15944000D02*
X7200000Y-15973523D01*
X7200000Y-15973523D02*
X7257143Y-15973523D01*
X7257143Y-15973523D02*
X7342857Y-15944000D01*
X7342857Y-15944000D02*
X7371429Y-15914476D01*
X7371429Y-15914476D02*
X7371429Y-15707809D01*
X7371429Y-15707809D02*
X7257143Y-15707809D01*
X7628572Y-15973523D02*
X7628572Y-15353523D01*
X7628572Y-15353523D02*
X7971429Y-15973523D01*
X7971429Y-15973523D02*
X7971429Y-15353523D01*
X8257143Y-15973523D02*
X8257143Y-15353523D01*
X8257143Y-15353523D02*
X8400000Y-15353523D01*
X8400000Y-15353523D02*
X8485714Y-15383047D01*
X8485714Y-15383047D02*
X8542857Y-15442095D01*
X8542857Y-15442095D02*
X8571428Y-15501142D01*
X8571428Y-15501142D02*
X8600000Y-15619238D01*
X8600000Y-15619238D02*
X8600000Y-15707809D01*
X8600000Y-15707809D02*
X8571428Y-15825904D01*
X8571428Y-15825904D02*
X8542857Y-15884952D01*
X8542857Y-15884952D02*
X8485714Y-15944000D01*
X8485714Y-15944000D02*
X8400000Y-15973523D01*
X8400000Y-15973523D02*
X8257143Y-15973523D01*
X8857143Y-15737333D02*
X9314286Y-15737333D01*
X7057143Y-16971723D02*
X7057143Y-16351723D01*
X7057143Y-16351723D02*
X7200000Y-16351723D01*
X7200000Y-16351723D02*
X7285714Y-16381247D01*
X7285714Y-16381247D02*
X7342857Y-16440295D01*
X7342857Y-16440295D02*
X7371428Y-16499342D01*
X7371428Y-16499342D02*
X7400000Y-16617438D01*
X7400000Y-16617438D02*
X7400000Y-16706009D01*
X7400000Y-16706009D02*
X7371428Y-16824104D01*
X7371428Y-16824104D02*
X7342857Y-16883152D01*
X7342857Y-16883152D02*
X7285714Y-16942200D01*
X7285714Y-16942200D02*
X7200000Y-16971723D01*
X7200000Y-16971723D02*
X7057143Y-16971723D01*
X7600000Y-16351723D02*
X7971428Y-16351723D01*
X7971428Y-16351723D02*
X7771428Y-16587914D01*
X7771428Y-16587914D02*
X7857143Y-16587914D01*
X7857143Y-16587914D02*
X7914286Y-16617438D01*
X7914286Y-16617438D02*
X7942857Y-16646961D01*
X7942857Y-16646961D02*
X7971428Y-16706009D01*
X7971428Y-16706009D02*
X7971428Y-16853628D01*
X7971428Y-16853628D02*
X7942857Y-16912676D01*
X7942857Y-16912676D02*
X7914286Y-16942200D01*
X7914286Y-16942200D02*
X7857143Y-16971723D01*
X7857143Y-16971723D02*
X7685714Y-16971723D01*
X7685714Y-16971723D02*
X7628571Y-16942200D01*
X7628571Y-16942200D02*
X7600000Y-16912676D01*
X8228572Y-16971723D02*
X8228572Y-16351723D01*
X8228572Y-16351723D02*
X8457143Y-16351723D01*
X8457143Y-16351723D02*
X8514286Y-16381247D01*
X8514286Y-16381247D02*
X8542857Y-16410771D01*
X8542857Y-16410771D02*
X8571429Y-16469819D01*
X8571429Y-16469819D02*
X8571429Y-16558390D01*
X8571429Y-16558390D02*
X8542857Y-16617438D01*
X8542857Y-16617438D02*
X8514286Y-16646961D01*
X8514286Y-16646961D02*
X8457143Y-16676485D01*
X8457143Y-16676485D02*
X8228572Y-16676485D01*
X6714286Y-17969923D02*
X6714286Y-17349923D01*
X6714286Y-17349923D02*
X6942857Y-17349923D01*
X6942857Y-17349923D02*
X7000000Y-17379447D01*
X7000000Y-17379447D02*
X7028571Y-17408971D01*
X7028571Y-17408971D02*
X7057143Y-17468019D01*
X7057143Y-17468019D02*
X7057143Y-17556590D01*
X7057143Y-17556590D02*
X7028571Y-17615638D01*
X7028571Y-17615638D02*
X7000000Y-17645161D01*
X7000000Y-17645161D02*
X6942857Y-17674685D01*
X6942857Y-17674685D02*
X6714286Y-17674685D01*
X7257143Y-17349923D02*
X7400000Y-17969923D01*
X7400000Y-17969923D02*
X7514286Y-17527066D01*
X7514286Y-17527066D02*
X7628571Y-17969923D01*
X7628571Y-17969923D02*
X7771429Y-17349923D01*
X8000000Y-17645161D02*
X8200000Y-17645161D01*
X8285714Y-17969923D02*
X8000000Y-17969923D01*
X8000000Y-17969923D02*
X8000000Y-17349923D01*
X8000000Y-17349923D02*
X8285714Y-17349923D01*
X8542857Y-17969923D02*
X8542857Y-17349923D01*
X8542857Y-17349923D02*
X8885714Y-17969923D01*
X8885714Y-17969923D02*
X8885714Y-17349923D01*
X6285715Y-18731933D02*
X6742858Y-18731933D01*
X7342857Y-18377647D02*
X7285715Y-18348123D01*
X7285715Y-18348123D02*
X7200000Y-18348123D01*
X7200000Y-18348123D02*
X7114286Y-18377647D01*
X7114286Y-18377647D02*
X7057143Y-18436695D01*
X7057143Y-18436695D02*
X7028572Y-18495742D01*
X7028572Y-18495742D02*
X7000000Y-18613838D01*
X7000000Y-18613838D02*
X7000000Y-18702409D01*
X7000000Y-18702409D02*
X7028572Y-18820504D01*
X7028572Y-18820504D02*
X7057143Y-18879552D01*
X7057143Y-18879552D02*
X7114286Y-18938600D01*
X7114286Y-18938600D02*
X7200000Y-18968123D01*
X7200000Y-18968123D02*
X7257143Y-18968123D01*
X7257143Y-18968123D02*
X7342857Y-18938600D01*
X7342857Y-18938600D02*
X7371429Y-18909076D01*
X7371429Y-18909076D02*
X7371429Y-18702409D01*
X7371429Y-18702409D02*
X7257143Y-18702409D01*
X7628572Y-18968123D02*
X7628572Y-18348123D01*
X7628572Y-18348123D02*
X7971429Y-18968123D01*
X7971429Y-18968123D02*
X7971429Y-18348123D01*
X8257143Y-18968123D02*
X8257143Y-18348123D01*
X8257143Y-18348123D02*
X8400000Y-18348123D01*
X8400000Y-18348123D02*
X8485714Y-18377647D01*
X8485714Y-18377647D02*
X8542857Y-18436695D01*
X8542857Y-18436695D02*
X8571428Y-18495742D01*
X8571428Y-18495742D02*
X8600000Y-18613838D01*
X8600000Y-18613838D02*
X8600000Y-18702409D01*
X8600000Y-18702409D02*
X8571428Y-18820504D01*
X8571428Y-18820504D02*
X8542857Y-18879552D01*
X8542857Y-18879552D02*
X8485714Y-18938600D01*
X8485714Y-18938600D02*
X8400000Y-18968123D01*
X8400000Y-18968123D02*
X8257143Y-18968123D01*
X8857143Y-18731933D02*
X9314286Y-18731933D01*
X7071428Y-19936800D02*
X7157143Y-19966323D01*
X7157143Y-19966323D02*
X7300000Y-19966323D01*
X7300000Y-19966323D02*
X7357143Y-19936800D01*
X7357143Y-19936800D02*
X7385714Y-19907276D01*
X7385714Y-19907276D02*
X7414285Y-19848228D01*
X7414285Y-19848228D02*
X7414285Y-19789180D01*
X7414285Y-19789180D02*
X7385714Y-19730133D01*
X7385714Y-19730133D02*
X7357143Y-19700609D01*
X7357143Y-19700609D02*
X7300000Y-19671085D01*
X7300000Y-19671085D02*
X7185714Y-19641561D01*
X7185714Y-19641561D02*
X7128571Y-19612038D01*
X7128571Y-19612038D02*
X7100000Y-19582514D01*
X7100000Y-19582514D02*
X7071428Y-19523466D01*
X7071428Y-19523466D02*
X7071428Y-19464419D01*
X7071428Y-19464419D02*
X7100000Y-19405371D01*
X7100000Y-19405371D02*
X7128571Y-19375847D01*
X7128571Y-19375847D02*
X7185714Y-19346323D01*
X7185714Y-19346323D02*
X7328571Y-19346323D01*
X7328571Y-19346323D02*
X7414285Y-19375847D01*
X7671429Y-19966323D02*
X7671429Y-19346323D01*
X7671429Y-19346323D02*
X7814286Y-19346323D01*
X7814286Y-19346323D02*
X7900000Y-19375847D01*
X7900000Y-19375847D02*
X7957143Y-19434895D01*
X7957143Y-19434895D02*
X7985714Y-19493942D01*
X7985714Y-19493942D02*
X8014286Y-19612038D01*
X8014286Y-19612038D02*
X8014286Y-19700609D01*
X8014286Y-19700609D02*
X7985714Y-19818704D01*
X7985714Y-19818704D02*
X7957143Y-19877752D01*
X7957143Y-19877752D02*
X7900000Y-19936800D01*
X7900000Y-19936800D02*
X7814286Y-19966323D01*
X7814286Y-19966323D02*
X7671429Y-19966323D01*
X8242857Y-19789180D02*
X8528572Y-19789180D01*
X8185714Y-19966323D02*
X8385714Y-19346323D01*
X8385714Y-19346323D02*
X8585714Y-19966323D01*
D10*
X21808333Y-7502219D02*
X21808333Y-6502219D01*
X21808333Y-6978409D02*
X22379761Y-6978409D01*
X22379761Y-7502219D02*
X22379761Y-6502219D01*
X23046428Y-6502219D02*
X23236904Y-6502219D01*
X23236904Y-6502219D02*
X23332142Y-6549838D01*
X23332142Y-6549838D02*
X23427380Y-6645076D01*
X23427380Y-6645076D02*
X23474999Y-6835552D01*
X23474999Y-6835552D02*
X23474999Y-7168885D01*
X23474999Y-7168885D02*
X23427380Y-7359361D01*
X23427380Y-7359361D02*
X23332142Y-7454600D01*
X23332142Y-7454600D02*
X23236904Y-7502219D01*
X23236904Y-7502219D02*
X23046428Y-7502219D01*
X23046428Y-7502219D02*
X22951190Y-7454600D01*
X22951190Y-7454600D02*
X22855952Y-7359361D01*
X22855952Y-7359361D02*
X22808333Y-7168885D01*
X22808333Y-7168885D02*
X22808333Y-6835552D01*
X22808333Y-6835552D02*
X22855952Y-6645076D01*
X22855952Y-6645076D02*
X22951190Y-6549838D01*
X22951190Y-6549838D02*
X23046428Y-6502219D01*
X23855952Y-7454600D02*
X23998809Y-7502219D01*
X23998809Y-7502219D02*
X24236904Y-7502219D01*
X24236904Y-7502219D02*
X24332142Y-7454600D01*
X24332142Y-7454600D02*
X24379761Y-7406980D01*
X24379761Y-7406980D02*
X24427380Y-7311742D01*
X24427380Y-7311742D02*
X24427380Y-7216504D01*
X24427380Y-7216504D02*
X24379761Y-7121266D01*
X24379761Y-7121266D02*
X24332142Y-7073647D01*
X24332142Y-7073647D02*
X24236904Y-7026028D01*
X24236904Y-7026028D02*
X24046428Y-6978409D01*
X24046428Y-6978409D02*
X23951190Y-6930790D01*
X23951190Y-6930790D02*
X23903571Y-6883171D01*
X23903571Y-6883171D02*
X23855952Y-6787933D01*
X23855952Y-6787933D02*
X23855952Y-6692695D01*
X23855952Y-6692695D02*
X23903571Y-6597457D01*
X23903571Y-6597457D02*
X23951190Y-6549838D01*
X23951190Y-6549838D02*
X24046428Y-6502219D01*
X24046428Y-6502219D02*
X24284523Y-6502219D01*
X24284523Y-6502219D02*
X24427380Y-6549838D01*
X24713095Y-6502219D02*
X25284523Y-6502219D01*
X24998809Y-7502219D02*
X24998809Y-6502219D01*
D11*
X14726666Y-28171033D02*
X14726666Y-28671033D01*
X14726666Y-28671033D02*
X14693333Y-28771033D01*
X14693333Y-28771033D02*
X14626666Y-28837700D01*
X14626666Y-28837700D02*
X14526666Y-28871033D01*
X14526666Y-28871033D02*
X14460000Y-28871033D01*
X14993333Y-28171033D02*
X15426666Y-28171033D01*
X15426666Y-28171033D02*
X15193333Y-28437700D01*
X15193333Y-28437700D02*
X15293333Y-28437700D01*
X15293333Y-28437700D02*
X15359999Y-28471033D01*
X15359999Y-28471033D02*
X15393333Y-28504366D01*
X15393333Y-28504366D02*
X15426666Y-28571033D01*
X15426666Y-28571033D02*
X15426666Y-28737700D01*
X15426666Y-28737700D02*
X15393333Y-28804366D01*
X15393333Y-28804366D02*
X15359999Y-28837700D01*
X15359999Y-28837700D02*
X15293333Y-28871033D01*
X15293333Y-28871033D02*
X15093333Y-28871033D01*
X15093333Y-28871033D02*
X15026666Y-28837700D01*
X15026666Y-28837700D02*
X14993333Y-28804366D01*
D10*
X4813095Y-7454600D02*
X4955952Y-7502219D01*
X4955952Y-7502219D02*
X5194047Y-7502219D01*
X5194047Y-7502219D02*
X5289285Y-7454600D01*
X5289285Y-7454600D02*
X5336904Y-7406980D01*
X5336904Y-7406980D02*
X5384523Y-7311742D01*
X5384523Y-7311742D02*
X5384523Y-7216504D01*
X5384523Y-7216504D02*
X5336904Y-7121266D01*
X5336904Y-7121266D02*
X5289285Y-7073647D01*
X5289285Y-7073647D02*
X5194047Y-7026028D01*
X5194047Y-7026028D02*
X5003571Y-6978409D01*
X5003571Y-6978409D02*
X4908333Y-6930790D01*
X4908333Y-6930790D02*
X4860714Y-6883171D01*
X4860714Y-6883171D02*
X4813095Y-6787933D01*
X4813095Y-6787933D02*
X4813095Y-6692695D01*
X4813095Y-6692695D02*
X4860714Y-6597457D01*
X4860714Y-6597457D02*
X4908333Y-6549838D01*
X4908333Y-6549838D02*
X5003571Y-6502219D01*
X5003571Y-6502219D02*
X5241666Y-6502219D01*
X5241666Y-6502219D02*
X5384523Y-6549838D01*
X5813095Y-6978409D02*
X6146428Y-6978409D01*
X6289285Y-7502219D02*
X5813095Y-7502219D01*
X5813095Y-7502219D02*
X5813095Y-6502219D01*
X5813095Y-6502219D02*
X6289285Y-6502219D01*
X6717857Y-7502219D02*
X6717857Y-6502219D01*
X6717857Y-6502219D02*
X7289285Y-7502219D01*
X7289285Y-7502219D02*
X7289285Y-6502219D01*
X7717857Y-7454600D02*
X7860714Y-7502219D01*
X7860714Y-7502219D02*
X8098809Y-7502219D01*
X8098809Y-7502219D02*
X8194047Y-7454600D01*
X8194047Y-7454600D02*
X8241666Y-7406980D01*
X8241666Y-7406980D02*
X8289285Y-7311742D01*
X8289285Y-7311742D02*
X8289285Y-7216504D01*
X8289285Y-7216504D02*
X8241666Y-7121266D01*
X8241666Y-7121266D02*
X8194047Y-7073647D01*
X8194047Y-7073647D02*
X8098809Y-7026028D01*
X8098809Y-7026028D02*
X7908333Y-6978409D01*
X7908333Y-6978409D02*
X7813095Y-6930790D01*
X7813095Y-6930790D02*
X7765476Y-6883171D01*
X7765476Y-6883171D02*
X7717857Y-6787933D01*
X7717857Y-6787933D02*
X7717857Y-6692695D01*
X7717857Y-6692695D02*
X7765476Y-6597457D01*
X7765476Y-6597457D02*
X7813095Y-6549838D01*
X7813095Y-6549838D02*
X7908333Y-6502219D01*
X7908333Y-6502219D02*
X8146428Y-6502219D01*
X8146428Y-6502219D02*
X8289285Y-6549838D01*
X8908333Y-6502219D02*
X9098809Y-6502219D01*
X9098809Y-6502219D02*
X9194047Y-6549838D01*
X9194047Y-6549838D02*
X9289285Y-6645076D01*
X9289285Y-6645076D02*
X9336904Y-6835552D01*
X9336904Y-6835552D02*
X9336904Y-7168885D01*
X9336904Y-7168885D02*
X9289285Y-7359361D01*
X9289285Y-7359361D02*
X9194047Y-7454600D01*
X9194047Y-7454600D02*
X9098809Y-7502219D01*
X9098809Y-7502219D02*
X8908333Y-7502219D01*
X8908333Y-7502219D02*
X8813095Y-7454600D01*
X8813095Y-7454600D02*
X8717857Y-7359361D01*
X8717857Y-7359361D02*
X8670238Y-7168885D01*
X8670238Y-7168885D02*
X8670238Y-6835552D01*
X8670238Y-6835552D02*
X8717857Y-6645076D01*
X8717857Y-6645076D02*
X8813095Y-6549838D01*
X8813095Y-6549838D02*
X8908333Y-6502219D01*
X10336904Y-7502219D02*
X10003571Y-7026028D01*
X9765476Y-7502219D02*
X9765476Y-6502219D01*
X9765476Y-6502219D02*
X10146428Y-6502219D01*
X10146428Y-6502219D02*
X10241666Y-6549838D01*
X10241666Y-6549838D02*
X10289285Y-6597457D01*
X10289285Y-6597457D02*
X10336904Y-6692695D01*
X10336904Y-6692695D02*
X10336904Y-6835552D01*
X10336904Y-6835552D02*
X10289285Y-6930790D01*
X10289285Y-6930790D02*
X10241666Y-6978409D01*
X10241666Y-6978409D02*
X10146428Y-7026028D01*
X10146428Y-7026028D02*
X9765476Y-7026028D01*
D13*
%TO.C,J2*%
X29040000Y-23325000D02*
X29640000Y-23325000D01*
X29040000Y-23215000D02*
X29040000Y-23325000D01*
X26450000Y-9950000D02*
X26850000Y-9750000D01*
X26450000Y-9950000D02*
X26450000Y-9550000D01*
X26850000Y-9750000D02*
X26450000Y-9550000D01*
X29040000Y-6785000D02*
X29040000Y-6675000D01*
X29040000Y-6675000D02*
X29640000Y-6675000D01*
%TO.C,J3*%
X19265000Y-24117929D02*
X19265000Y-24515000D01*
X18505000Y-24117929D02*
X18505000Y-24515000D01*
X16725000Y-24117929D02*
X16725000Y-24515000D01*
X15965000Y-24117929D02*
X15965000Y-24515000D01*
X14185000Y-24117929D02*
X14185000Y-24515000D01*
X13425000Y-24117929D02*
X13425000Y-24515000D01*
X11645000Y-24117929D02*
X11645000Y-24515000D01*
X10885000Y-24117929D02*
X10885000Y-24515000D01*
X9105000Y-24117929D02*
X9105000Y-24515000D01*
X8345000Y-24117929D02*
X8345000Y-24515000D01*
X21805000Y-24185000D02*
X21805000Y-24515000D01*
X21045000Y-24185000D02*
X21045000Y-24515000D01*
X22755000Y-24515000D02*
X7395000Y-24515000D01*
X20155000Y-24515000D02*
X20155000Y-27175000D01*
X17615000Y-24515000D02*
X17615000Y-27175000D01*
X15075000Y-24515000D02*
X15075000Y-27175000D01*
X12535000Y-24515000D02*
X12535000Y-27175000D01*
X9995000Y-24515000D02*
X9995000Y-27175000D01*
X7395000Y-24515000D02*
X7395000Y-27175000D01*
X22755000Y-27175000D02*
X22755000Y-24515000D01*
X21805000Y-27175000D02*
X21805000Y-33175000D01*
X21745000Y-27175000D02*
X21745000Y-33175000D01*
X21625000Y-27175000D02*
X21625000Y-33175000D01*
X21505000Y-27175000D02*
X21505000Y-33175000D01*
X21385000Y-27175000D02*
X21385000Y-33175000D01*
X21265000Y-27175000D02*
X21265000Y-33175000D01*
X21145000Y-27175000D02*
X21145000Y-33175000D01*
X19265000Y-27175000D02*
X19265000Y-33175000D01*
X16725000Y-27175000D02*
X16725000Y-33175000D01*
X14185000Y-27175000D02*
X14185000Y-33175000D01*
X11645000Y-27175000D02*
X11645000Y-33175000D01*
X9105000Y-27175000D02*
X9105000Y-33175000D01*
X7395000Y-27175000D02*
X22755000Y-27175000D01*
X21805000Y-33175000D02*
X21045000Y-33175000D01*
X21045000Y-33175000D02*
X21045000Y-27175000D01*
X19265000Y-33175000D02*
X18505000Y-33175000D01*
X18505000Y-33175000D02*
X18505000Y-27175000D01*
X16725000Y-33175000D02*
X15965000Y-33175000D01*
X15965000Y-33175000D02*
X15965000Y-27175000D01*
X14185000Y-33175000D02*
X13425000Y-33175000D01*
X13425000Y-33175000D02*
X13425000Y-27175000D01*
X11645000Y-33175000D02*
X10885000Y-33175000D01*
X10885000Y-33175000D02*
X10885000Y-27175000D01*
X9105000Y-33175000D02*
X8345000Y-33175000D01*
X8345000Y-33175000D02*
X8345000Y-27175000D01*
%TO.C,J1*%
X960000Y-6675000D02*
X360000Y-6675000D01*
X960000Y-6785000D02*
X960000Y-6675000D01*
X3550000Y-9550000D02*
X3150000Y-9750000D01*
X3150000Y-9750000D02*
X3550000Y-9950000D01*
X3550000Y-9950000D02*
X3550000Y-9550000D01*
X960000Y-23215000D02*
X960000Y-23325000D01*
X960000Y-23325000D02*
X360000Y-23325000D01*
%TD*%
M02*
