%TF.GenerationSoftware,KiCad,Pcbnew,7.0.10*%
%TF.CreationDate,2024-02-18T19:35:46+01:00*%
%TF.ProjectId,CSI2SPY22,43534932-5350-4593-9232-2e6b69636164,rev?*%
%TF.SameCoordinates,Original*%
%TF.FileFunction,Copper,L1,Top*%
%TF.FilePolarity,Positive*%
%FSLAX46Y46*%
G04 Gerber Fmt 4.6, Leading zero omitted, Abs format (unit mm)*
G04 Created by KiCad (PCBNEW 7.0.10) date 2024-02-18 19:35:46*
%MOMM*%
%LPD*%
G01*
G04 APERTURE LIST*
%TA.AperFunction,SMDPad,CuDef*%
%ADD10R,1.100000X0.300000*%
%TD*%
%TA.AperFunction,SMDPad,CuDef*%
%ADD11R,3.100000X2.300000*%
%TD*%
%TA.AperFunction,SMDPad,CuDef*%
%ADD12C,0.500000*%
%TD*%
%TA.AperFunction,ComponentPad*%
%ADD13R,1.700000X1.700000*%
%TD*%
%TA.AperFunction,ComponentPad*%
%ADD14O,1.700000X1.700000*%
%TD*%
%TA.AperFunction,ComponentPad*%
%ADD15C,5.600000*%
%TD*%
%TA.AperFunction,ViaPad*%
%ADD16C,0.800000*%
%TD*%
%TA.AperFunction,ViaPad*%
%ADD17C,0.450000*%
%TD*%
%TA.AperFunction,ViaPad*%
%ADD18C,0.550000*%
%TD*%
%TA.AperFunction,ViaPad*%
%ADD19C,0.500000*%
%TD*%
%TA.AperFunction,Conductor*%
%ADD20C,0.300000*%
%TD*%
%TA.AperFunction,Conductor*%
%ADD21C,0.190000*%
%TD*%
G04 APERTURE END LIST*
D10*
%TO.P,J2,1,Pin_1*%
%TO.N,GND*%
X25650000Y-9750000D03*
%TO.P,J2,2,Pin_2*%
%TO.N,/C0D0_N*%
X25650000Y-10250000D03*
%TO.P,J2,3,Pin_3*%
%TO.N,/C0D0_P*%
X25650000Y-10750000D03*
%TO.P,J2,4,Pin_4*%
%TO.N,GND*%
X25650000Y-11250000D03*
%TO.P,J2,5,Pin_5*%
%TO.N,/C0D1_N*%
X25650000Y-11750000D03*
%TO.P,J2,6,Pin_6*%
%TO.N,/C0D1_P*%
X25650000Y-12250000D03*
%TO.P,J2,7,Pin_7*%
%TO.N,GND*%
X25650000Y-12750000D03*
%TO.P,J2,8,Pin_8*%
%TO.N,/C0CK_N*%
X25650000Y-13250000D03*
%TO.P,J2,9,Pin_9*%
%TO.N,/C0CK_P*%
X25650000Y-13750000D03*
%TO.P,J2,10,Pin_10*%
%TO.N,GND*%
X25650000Y-14250000D03*
%TO.P,J2,11,Pin_11*%
%TO.N,/C0D2_N*%
X25650000Y-14750000D03*
%TO.P,J2,12,Pin_12*%
%TO.N,/C0D2_P*%
X25650000Y-15250000D03*
%TO.P,J2,13,Pin_13*%
%TO.N,GND*%
X25650000Y-15750000D03*
%TO.P,J2,14,Pin_14*%
%TO.N,/C0D3_N*%
X25650000Y-16250000D03*
%TO.P,J2,15,Pin_15*%
%TO.N,/C0D3_P*%
X25650000Y-16750000D03*
%TO.P,J2,16,Pin_16*%
%TO.N,GND*%
X25650000Y-17250000D03*
%TO.P,J2,17,Pin_17*%
%TO.N,/IO0*%
X25650000Y-17750000D03*
%TO.P,J2,18,Pin_18*%
%TO.N,/IO1*%
X25650000Y-18250000D03*
%TO.P,J2,19,Pin_19*%
%TO.N,GND*%
X25650000Y-18750000D03*
%TO.P,J2,20,Pin_20*%
%TO.N,/SCL*%
X25650000Y-19250000D03*
%TO.P,J2,21,Pin_21*%
%TO.N,/SDA*%
X25650000Y-19750000D03*
%TO.P,J2,22,Pin_22*%
%TO.N,/VDD33*%
X25650000Y-20250000D03*
D11*
%TO.P,J2,MP,MountPin*%
%TO.N,GND*%
X27350000Y-21920000D03*
X27350000Y-8080000D03*
%TD*%
D12*
%TO.P,FID1,*%
%TO.N,*%
X22500000Y-27500000D03*
%TD*%
D13*
%TO.P,J3,1,Pin_1*%
%TO.N,/IO0*%
X21425000Y-23075000D03*
D14*
%TO.P,J3,2,Pin_2*%
%TO.N,/IO1*%
X18885000Y-23075000D03*
%TO.P,J3,3,Pin_3*%
%TO.N,GND*%
X16345000Y-23075000D03*
%TO.P,J3,4,Pin_4*%
%TO.N,/SCL*%
X13805000Y-23075000D03*
%TO.P,J3,5,Pin_5*%
%TO.N,/SDA*%
X11265000Y-23075000D03*
%TO.P,J3,6,Pin_6*%
%TO.N,/VDD33*%
X8725000Y-23075000D03*
%TD*%
D15*
%TO.P,H2,1,1*%
%TO.N,unconnected-(H2-Pad1)*%
X3000000Y-27000000D03*
%TD*%
D12*
%TO.P,FID2,*%
%TO.N,*%
X7500000Y-2500000D03*
%TD*%
D15*
%TO.P,H1,1,1*%
%TO.N,unconnected-(H1-Pad1)*%
X3000000Y-3000000D03*
%TD*%
%TO.P,H3,1,1*%
%TO.N,unconnected-(H3-Pad1)*%
X27000000Y-27000000D03*
%TD*%
D10*
%TO.P,J1,1,Pin_1*%
%TO.N,GND*%
X4350000Y-9750000D03*
%TO.P,J1,2,Pin_2*%
%TO.N,/C0D0_N*%
X4350000Y-10250000D03*
%TO.P,J1,3,Pin_3*%
%TO.N,/C0D0_P*%
X4350000Y-10750000D03*
%TO.P,J1,4,Pin_4*%
%TO.N,GND*%
X4350000Y-11250000D03*
%TO.P,J1,5,Pin_5*%
%TO.N,/C0D1_N*%
X4350000Y-11750000D03*
%TO.P,J1,6,Pin_6*%
%TO.N,/C0D1_P*%
X4350000Y-12250000D03*
%TO.P,J1,7,Pin_7*%
%TO.N,GND*%
X4350000Y-12750000D03*
%TO.P,J1,8,Pin_8*%
%TO.N,/C0CK_N*%
X4350000Y-13250000D03*
%TO.P,J1,9,Pin_9*%
%TO.N,/C0CK_P*%
X4350000Y-13750000D03*
%TO.P,J1,10,Pin_10*%
%TO.N,GND*%
X4350000Y-14250000D03*
%TO.P,J1,11,Pin_11*%
%TO.N,/C0D2_N*%
X4350000Y-14750000D03*
%TO.P,J1,12,Pin_12*%
%TO.N,/C0D2_P*%
X4350000Y-15250000D03*
%TO.P,J1,13,Pin_13*%
%TO.N,GND*%
X4350000Y-15750000D03*
%TO.P,J1,14,Pin_14*%
%TO.N,/C0D3_N*%
X4350000Y-16250000D03*
%TO.P,J1,15,Pin_15*%
%TO.N,/C0D3_P*%
X4350000Y-16750000D03*
%TO.P,J1,16,Pin_16*%
%TO.N,GND*%
X4350000Y-17250000D03*
%TO.P,J1,17,Pin_17*%
%TO.N,/IO0*%
X4350000Y-17750000D03*
%TO.P,J1,18,Pin_18*%
%TO.N,/IO1*%
X4350000Y-18250000D03*
%TO.P,J1,19,Pin_19*%
%TO.N,GND*%
X4350000Y-18750000D03*
%TO.P,J1,20,Pin_20*%
%TO.N,/SCL*%
X4350000Y-19250000D03*
%TO.P,J1,21,Pin_21*%
%TO.N,/SDA*%
X4350000Y-19750000D03*
%TO.P,J1,22,Pin_22*%
%TO.N,/VDD33*%
X4350000Y-20250000D03*
D11*
%TO.P,J1,MP,MountPin*%
%TO.N,GND*%
X2650000Y-8080000D03*
X2650000Y-21920000D03*
%TD*%
D15*
%TO.P,H4,1,1*%
%TO.N,unconnected-(H4-Pad1)*%
X27000000Y-3000000D03*
%TD*%
D16*
%TO.N,GND*%
X16740000Y-950000D03*
X3000000Y-12750000D03*
X16750000Y-4350000D03*
X27000000Y-11250000D03*
D17*
X15000000Y-12000000D03*
D18*
X17400000Y-8600000D03*
D17*
X15750000Y-12000000D03*
D16*
X6930000Y-24170000D03*
D18*
X11850000Y-8775000D03*
D16*
X22125000Y-1075000D03*
X13550000Y-26130000D03*
X27000000Y-17250000D03*
X22500000Y-9250000D03*
D17*
X14250000Y-12000000D03*
D16*
X19970000Y-28810000D03*
X9070000Y-950000D03*
D17*
X15000000Y-15000000D03*
X14250000Y-13500000D03*
D16*
X12130000Y-950000D03*
X29250000Y-6000000D03*
X3000000Y-14250000D03*
X4840000Y-21650000D03*
X27000000Y-10000000D03*
X3000000Y-15750000D03*
X7060000Y-28810000D03*
D18*
X18107727Y-17332727D03*
D16*
X19970000Y-26050000D03*
D19*
X13000000Y-10550000D03*
D16*
X9500000Y-9250000D03*
X11270000Y-28810000D03*
X3000000Y-11250000D03*
D18*
X12625000Y-8650000D03*
D16*
X3000000Y-18750000D03*
X25100000Y-22800000D03*
X23650000Y-28810000D03*
X3000000Y-17250000D03*
X3000000Y-10000000D03*
X15610000Y-28810000D03*
D19*
X17000000Y-10550000D03*
D16*
X27000000Y-15750000D03*
X26950000Y-20060000D03*
X27000000Y-18750000D03*
D18*
X18100000Y-8775000D03*
D16*
X24750000Y-9250000D03*
X29250000Y-23750000D03*
D17*
X15750000Y-13500000D03*
X15000000Y-13500000D03*
D16*
X5830000Y-950000D03*
X27000000Y-14250000D03*
X750000Y-6000000D03*
X27000000Y-12750000D03*
X20500000Y-9250000D03*
D17*
X14250000Y-15000000D03*
D16*
X5250000Y-9250000D03*
D17*
X15750000Y-15000000D03*
D16*
X750000Y-23750000D03*
%TO.N,/IO0*%
X23310000Y-4540000D03*
X21425000Y-17750000D03*
%TO.N,/IO1*%
X18885000Y-18500000D03*
%TO.N,/SCL*%
X13805000Y-19250000D03*
X7850000Y-4700000D03*
%TO.N,/SDA*%
X12750000Y-20000000D03*
X5790000Y-6310000D03*
%TO.N,/VDD33*%
X23350000Y-21340000D03*
X24090000Y-21040000D03*
X19950000Y-1930000D03*
%TO.N,VCC*%
X8170000Y-8010000D03*
D18*
X15925000Y-17300000D03*
D16*
X10500000Y-2370000D03*
D18*
%TO.N,VDD*%
X13550000Y-8425000D03*
X15175000Y-17300000D03*
%TO.N,EQ{slash}SCL*%
X14425000Y-17300000D03*
D16*
X11080000Y-6170000D03*
%TO.N,ERC{slash}SDA*%
X10325000Y-4725000D03*
D18*
X13675000Y-17300000D03*
%TO.N,PRE{slash}CFG1*%
X14475000Y-8425000D03*
%TO.N,Net-(IC1-RSTN)*%
X16425000Y-8425000D03*
%TO.N,VSADJ{slash}CFG0*%
X15475000Y-8425000D03*
%TD*%
D20*
%TO.N,GND*%
X25650000Y-9750000D02*
X25250000Y-9750000D01*
X25650000Y-14250000D02*
X27000000Y-14250000D01*
X4350000Y-11250000D02*
X3000000Y-11250000D01*
X25650000Y-12750000D02*
X27000000Y-12750000D01*
X3250000Y-9750000D02*
X3000000Y-10000000D01*
X4750000Y-9750000D02*
X5250000Y-9250000D01*
X4350000Y-18750000D02*
X3000000Y-18750000D01*
X25650000Y-15750000D02*
X27000000Y-15750000D01*
X4350000Y-9750000D02*
X4750000Y-9750000D01*
X4350000Y-15750000D02*
X3000000Y-15750000D01*
X25650000Y-9750000D02*
X26750000Y-9750000D01*
X25650000Y-17250000D02*
X27000000Y-17250000D01*
X25650000Y-18750000D02*
X27000000Y-18750000D01*
X4350000Y-17250000D02*
X3000000Y-17250000D01*
X26750000Y-9750000D02*
X27000000Y-10000000D01*
X25250000Y-9750000D02*
X24750000Y-9250000D01*
X4350000Y-14250000D02*
X3000000Y-14250000D01*
X4350000Y-12750000D02*
X3000000Y-12750000D01*
X4350000Y-9750000D02*
X3250000Y-9750000D01*
X25650000Y-11250000D02*
X27000000Y-11250000D01*
D21*
%TO.N,/C0D0_N*%
X19073260Y-9550000D02*
X19838260Y-10315000D01*
X11950000Y-9550000D02*
X19073260Y-9550000D01*
X11185000Y-10315000D02*
X11950000Y-9550000D01*
X19838260Y-10315000D02*
X24759999Y-10315000D01*
X4350000Y-10250000D02*
X5175001Y-10250000D01*
X5240001Y-10315000D02*
X11185000Y-10315000D01*
X24759999Y-10315000D02*
X24824999Y-10250000D01*
X5175001Y-10250000D02*
X5240001Y-10315000D01*
X24824999Y-10250000D02*
X25650000Y-10250000D01*
%TO.N,/C0D0_P*%
X5240001Y-10685000D02*
X11338260Y-10685000D01*
X18920000Y-9920000D02*
X19685001Y-10685000D01*
X12103260Y-9920000D02*
X18920000Y-9920000D01*
X24824999Y-10750000D02*
X25650000Y-10750000D01*
X5175001Y-10750000D02*
X5240001Y-10685000D01*
X19685001Y-10685000D02*
X24759999Y-10685000D01*
X24759999Y-10685000D02*
X24824999Y-10750000D01*
X4350000Y-10750000D02*
X5175001Y-10750000D01*
X11338260Y-10685000D02*
X12103260Y-9920000D01*
%TO.N,/C0D1_N*%
X19563260Y-11815000D02*
X18813259Y-11065000D01*
X11685000Y-11815000D02*
X5240001Y-11815000D01*
X12435000Y-11065000D02*
X11685000Y-11815000D01*
X24759999Y-11815000D02*
X19563260Y-11815000D01*
X5175001Y-11750000D02*
X4350000Y-11750000D01*
X24824999Y-11750000D02*
X24759999Y-11815000D01*
X5240001Y-11815000D02*
X5175001Y-11750000D01*
X25650000Y-11750000D02*
X24824999Y-11750000D01*
X18813259Y-11065000D02*
X12435000Y-11065000D01*
%TO.N,/C0D1_P*%
X24759999Y-12185000D02*
X19410000Y-12185000D01*
X11838259Y-12185000D02*
X5240001Y-12185000D01*
X5240001Y-12185000D02*
X5175001Y-12250000D01*
X19410000Y-12185000D02*
X18660000Y-11435000D01*
X25650000Y-12250000D02*
X24824999Y-12250000D01*
X18660000Y-11435000D02*
X12588260Y-11435000D01*
X5175001Y-12250000D02*
X4350000Y-12250000D01*
X24824999Y-12250000D02*
X24759999Y-12185000D01*
X12588260Y-11435000D02*
X11838259Y-12185000D01*
%TO.N,/C0CK_N*%
X25650000Y-13250000D02*
X24824999Y-13250000D01*
X24759999Y-13315000D02*
X19238260Y-13315000D01*
X5240001Y-13315000D02*
X5175001Y-13250000D01*
X12935000Y-12565000D02*
X12185000Y-13315000D01*
X18488260Y-12565000D02*
X12935000Y-12565000D01*
X5175001Y-13250000D02*
X4350000Y-13250000D01*
X12185000Y-13315000D02*
X5240001Y-13315000D01*
X19238260Y-13315000D02*
X18488260Y-12565000D01*
X24824999Y-13250000D02*
X24759999Y-13315000D01*
%TO.N,/C0CK_P*%
X12338259Y-13685000D02*
X5240001Y-13685000D01*
X25650000Y-13750000D02*
X24824999Y-13750000D01*
X5240001Y-13685000D02*
X5175001Y-13750000D01*
X5175001Y-13750000D02*
X4350000Y-13750000D01*
X24759999Y-13685000D02*
X19085000Y-13685000D01*
X18335000Y-12935000D02*
X13088260Y-12935000D01*
X19085000Y-13685000D02*
X18335000Y-12935000D01*
X13088260Y-12935000D02*
X12338259Y-13685000D01*
X24824999Y-13750000D02*
X24759999Y-13685000D01*
%TO.N,/C0D2_N*%
X13185000Y-14065000D02*
X12435000Y-14815000D01*
X5240001Y-14815000D02*
X5175001Y-14750000D01*
X18236222Y-14065000D02*
X13185000Y-14065000D01*
X12435000Y-14815000D02*
X5240001Y-14815000D01*
X5175001Y-14750000D02*
X4350000Y-14750000D01*
X24759999Y-14815000D02*
X18986222Y-14815000D01*
X25650000Y-14750000D02*
X24824999Y-14750000D01*
X18986222Y-14815000D02*
X18236222Y-14065000D01*
X24824999Y-14750000D02*
X24759999Y-14815000D01*
%TO.N,/C0D2_P*%
X24759999Y-15185000D02*
X18832962Y-15185000D01*
X12588259Y-15185000D02*
X5240001Y-15185000D01*
X5175001Y-15250000D02*
X4350000Y-15250000D01*
X25650000Y-15250000D02*
X24824999Y-15250000D01*
X13338260Y-14435000D02*
X12588259Y-15185000D01*
X5240001Y-15185000D02*
X5175001Y-15250000D01*
X18082962Y-14435000D02*
X13338260Y-14435000D01*
X18832962Y-15185000D02*
X18082962Y-14435000D01*
X24824999Y-15250000D02*
X24759999Y-15185000D01*
%TO.N,/C0D3_N*%
X24824999Y-16250000D02*
X24759999Y-16315000D01*
X13685000Y-15565000D02*
X12935000Y-16315000D01*
X5240001Y-16315000D02*
X5175001Y-16250000D01*
X18826630Y-16315000D02*
X18076630Y-15565000D01*
X5175001Y-16250000D02*
X4350000Y-16250000D01*
X25650000Y-16250000D02*
X24824999Y-16250000D01*
X18076630Y-15565000D02*
X13685000Y-15565000D01*
X12935000Y-16315000D02*
X5240001Y-16315000D01*
X24759999Y-16315000D02*
X18826630Y-16315000D01*
%TO.N,/C0D3_P*%
X17923370Y-15935000D02*
X13838260Y-15935000D01*
X5240001Y-16685000D02*
X5175001Y-16750000D01*
X24824999Y-16750000D02*
X24759999Y-16685000D01*
X13088259Y-16685000D02*
X5240001Y-16685000D01*
X18673370Y-16685000D02*
X17923370Y-15935000D01*
X13838260Y-15935000D02*
X13088259Y-16685000D01*
X25650000Y-16750000D02*
X24824999Y-16750000D01*
X5175001Y-16750000D02*
X4350000Y-16750000D01*
X24759999Y-16685000D02*
X18673370Y-16685000D01*
D20*
%TO.N,/IO0*%
X5457106Y-17750000D02*
X5707106Y-18000000D01*
X4350000Y-17750000D02*
X5457106Y-17750000D01*
X5707106Y-18000000D02*
X18324339Y-18000000D01*
X18574339Y-17750000D02*
X25650000Y-17750000D01*
X18324339Y-18000000D02*
X18574339Y-17750000D01*
%TO.N,/IO1*%
X18885000Y-18500000D02*
X24000000Y-18500000D01*
X24250000Y-18250000D02*
X25650000Y-18250000D01*
X5500000Y-18500000D02*
X18885000Y-18500000D01*
X24000000Y-18500000D02*
X24250000Y-18250000D01*
X4350000Y-18250000D02*
X5250000Y-18250000D01*
X5250000Y-18250000D02*
X5500000Y-18500000D01*
%TO.N,/SCL*%
X4350000Y-19250000D02*
X13750000Y-19250000D01*
X13750000Y-19250000D02*
X25650000Y-19250000D01*
%TO.N,/SDA*%
X12750000Y-20000000D02*
X14115661Y-20000000D01*
X14115661Y-20000000D02*
X14365661Y-19750000D01*
X14365661Y-19750000D02*
X25650000Y-19750000D01*
X12500000Y-19750000D02*
X12750000Y-20000000D01*
X4350000Y-19750000D02*
X12500000Y-19750000D01*
%TO.N,/VDD33*%
X24700000Y-20750000D02*
X25200000Y-20250000D01*
X24170000Y-20860000D02*
X24280000Y-20750000D01*
X5250000Y-20750000D02*
X24060000Y-20750000D01*
X25200000Y-20250000D02*
X25650000Y-20250000D01*
X24060000Y-20750000D02*
X24170000Y-20860000D01*
X4750000Y-20250000D02*
X5250000Y-20750000D01*
X4350000Y-20250000D02*
X4750000Y-20250000D01*
X24280000Y-20750000D02*
X24700000Y-20750000D01*
%TD*%
%TA.AperFunction,Conductor*%
%TO.N,GND*%
G36*
X25211023Y-320185D02*
G01*
X25256778Y-372989D01*
X25266722Y-442147D01*
X25237697Y-505703D01*
X25215739Y-525630D01*
X25095040Y-611269D01*
X24839573Y-839570D01*
X24839570Y-839573D01*
X24611269Y-1095040D01*
X24412998Y-1374478D01*
X24247263Y-1674353D01*
X24116146Y-1990899D01*
X24021297Y-2320124D01*
X24021295Y-2320133D01*
X23963905Y-2657906D01*
X23963903Y-2657918D01*
X23944693Y-3000000D01*
X23963903Y-3342081D01*
X23963904Y-3342086D01*
X24021296Y-3679870D01*
X24116147Y-4009104D01*
X24209914Y-4235477D01*
X24247263Y-4325646D01*
X24412998Y-4625521D01*
X24611269Y-4904959D01*
X24839570Y-5160426D01*
X24839573Y-5160429D01*
X25095040Y-5388730D01*
X25095046Y-5388734D01*
X25095047Y-5388735D01*
X25374479Y-5587002D01*
X25674352Y-5752736D01*
X25990896Y-5883853D01*
X26320130Y-5978704D01*
X26657914Y-6036096D01*
X27000000Y-6055307D01*
X27342086Y-6036096D01*
X27679870Y-5978704D01*
X28009104Y-5883853D01*
X28325648Y-5752736D01*
X28625521Y-5587002D01*
X28904953Y-5388735D01*
X29160428Y-5160428D01*
X29388735Y-4904953D01*
X29474370Y-4784260D01*
X29529218Y-4740977D01*
X29598760Y-4734217D01*
X29660917Y-4766128D01*
X29695955Y-4826577D01*
X29699500Y-4856016D01*
X29699500Y-25143983D01*
X29679815Y-25211022D01*
X29627011Y-25256777D01*
X29557853Y-25266721D01*
X29494297Y-25237696D01*
X29474371Y-25215739D01*
X29388731Y-25095042D01*
X29160429Y-24839573D01*
X29160426Y-24839570D01*
X28904959Y-24611269D01*
X28625521Y-24412998D01*
X28325646Y-24247263D01*
X28260087Y-24220108D01*
X28009104Y-24116147D01*
X27924479Y-24091766D01*
X27679875Y-24021297D01*
X27679866Y-24021295D01*
X27342093Y-23963905D01*
X27342081Y-23963903D01*
X27000000Y-23944693D01*
X26657918Y-23963903D01*
X26657906Y-23963905D01*
X26320133Y-24021295D01*
X26320124Y-24021297D01*
X25990899Y-24116146D01*
X25990896Y-24116147D01*
X25898184Y-24154549D01*
X25674353Y-24247263D01*
X25374478Y-24412998D01*
X25095040Y-24611269D01*
X24839573Y-24839570D01*
X24839570Y-24839573D01*
X24611269Y-25095040D01*
X24412998Y-25374478D01*
X24247263Y-25674353D01*
X24116146Y-25990899D01*
X24021297Y-26320124D01*
X24021295Y-26320133D01*
X23963905Y-26657906D01*
X23963903Y-26657918D01*
X23944693Y-27000000D01*
X23963903Y-27342081D01*
X23963905Y-27342093D01*
X23993626Y-27517020D01*
X24021296Y-27679870D01*
X24116147Y-28009104D01*
X24188764Y-28184416D01*
X24247263Y-28325646D01*
X24412998Y-28625521D01*
X24611269Y-28904959D01*
X24839570Y-29160426D01*
X24839573Y-29160429D01*
X25095040Y-29388730D01*
X25215739Y-29474370D01*
X25259023Y-29529218D01*
X25265783Y-29598760D01*
X25233872Y-29660917D01*
X25173423Y-29695955D01*
X25143984Y-29699500D01*
X4856016Y-29699500D01*
X4788977Y-29679815D01*
X4743222Y-29627011D01*
X4733278Y-29557853D01*
X4762303Y-29494297D01*
X4784261Y-29474370D01*
X4904953Y-29388735D01*
X4962836Y-29337008D01*
X4985414Y-29316829D01*
X5160428Y-29160428D01*
X5388735Y-28904953D01*
X5587002Y-28625521D01*
X5752736Y-28325648D01*
X5883853Y-28009104D01*
X5978704Y-27679870D01*
X6009265Y-27500000D01*
X21994353Y-27500000D01*
X22014834Y-27642456D01*
X22031919Y-27679866D01*
X22074623Y-27773373D01*
X22168872Y-27882143D01*
X22289947Y-27959953D01*
X22289950Y-27959954D01*
X22289949Y-27959954D01*
X22428036Y-28000499D01*
X22428038Y-28000500D01*
X22428039Y-28000500D01*
X22571962Y-28000500D01*
X22571962Y-28000499D01*
X22710053Y-27959953D01*
X22831128Y-27882143D01*
X22925377Y-27773373D01*
X22985165Y-27642457D01*
X23005647Y-27500000D01*
X22985165Y-27357543D01*
X22925377Y-27226627D01*
X22831128Y-27117857D01*
X22710053Y-27040047D01*
X22710051Y-27040046D01*
X22710049Y-27040045D01*
X22710050Y-27040045D01*
X22571963Y-26999500D01*
X22571961Y-26999500D01*
X22428039Y-26999500D01*
X22428036Y-26999500D01*
X22289949Y-27040045D01*
X22168873Y-27117856D01*
X22074623Y-27226626D01*
X22074622Y-27226628D01*
X22014834Y-27357543D01*
X21994353Y-27500000D01*
X6009265Y-27500000D01*
X6036096Y-27342086D01*
X6055307Y-27000000D01*
X6036096Y-26657914D01*
X5978704Y-26320130D01*
X5883853Y-25990896D01*
X5752736Y-25674352D01*
X5587002Y-25374479D01*
X5388735Y-25095047D01*
X5388731Y-25095042D01*
X5388730Y-25095040D01*
X5160429Y-24839573D01*
X5160426Y-24839570D01*
X4904959Y-24611269D01*
X4625521Y-24412998D01*
X4325646Y-24247263D01*
X4260087Y-24220108D01*
X4009104Y-24116147D01*
X3924479Y-24091766D01*
X3679875Y-24021297D01*
X3679866Y-24021295D01*
X3342093Y-23963905D01*
X3342081Y-23963903D01*
X3000000Y-23944693D01*
X2657918Y-23963903D01*
X2657906Y-23963905D01*
X2320133Y-24021295D01*
X2320124Y-24021297D01*
X1990899Y-24116146D01*
X1990896Y-24116147D01*
X1898184Y-24154549D01*
X1674353Y-24247263D01*
X1374478Y-24412998D01*
X1095040Y-24611269D01*
X839573Y-24839570D01*
X839570Y-24839573D01*
X611268Y-25095042D01*
X525629Y-25215739D01*
X470781Y-25259022D01*
X401240Y-25265782D01*
X339083Y-25233871D01*
X304045Y-25173422D01*
X300500Y-25143983D01*
X300500Y-22070000D01*
X850000Y-22070000D01*
X850000Y-23094628D01*
X864503Y-23167540D01*
X864505Y-23167544D01*
X919760Y-23250239D01*
X1002455Y-23305494D01*
X1002459Y-23305496D01*
X1075371Y-23319999D01*
X1075374Y-23320000D01*
X2500000Y-23320000D01*
X2500000Y-22070000D01*
X2800000Y-22070000D01*
X2800000Y-23320000D01*
X4224626Y-23320000D01*
X4224628Y-23319999D01*
X4297540Y-23305496D01*
X4297544Y-23305494D01*
X4380239Y-23250239D01*
X4435494Y-23167544D01*
X4435496Y-23167540D01*
X4449999Y-23094628D01*
X4450000Y-23094626D01*
X4450000Y-22070000D01*
X2800000Y-22070000D01*
X2500000Y-22070000D01*
X850000Y-22070000D01*
X300500Y-22070000D01*
X300500Y-21770000D01*
X850000Y-21770000D01*
X2500000Y-21770000D01*
X2800000Y-21770000D01*
X4450000Y-21770000D01*
X4450000Y-21110694D01*
X4469685Y-21043655D01*
X4522489Y-20997900D01*
X4591647Y-20987956D01*
X4655203Y-21016981D01*
X4661681Y-21023013D01*
X4820725Y-21182057D01*
X4875874Y-21223935D01*
X4933878Y-21256650D01*
X4954916Y-21264994D01*
X4966802Y-21270452D01*
X5052701Y-21315536D01*
X5077296Y-21332512D01*
X5126565Y-21376159D01*
X5146385Y-21398532D01*
X5183770Y-21452693D01*
X5197662Y-21479161D01*
X5217551Y-21531605D01*
X5241884Y-21579719D01*
X5270147Y-21623432D01*
X5300088Y-21660482D01*
X5304040Y-21665372D01*
X7783015Y-24144347D01*
X7803365Y-24162626D01*
X7803371Y-24162631D01*
X7803379Y-24162638D01*
X7824000Y-24179255D01*
X7824002Y-24179256D01*
X7824007Y-24179260D01*
X7912338Y-24225465D01*
X7979377Y-24245150D01*
X7979381Y-24245150D01*
X7979383Y-24245151D01*
X7991014Y-24246823D01*
X8051362Y-24255500D01*
X8051363Y-24255500D01*
X9698639Y-24255500D01*
X9700075Y-24255422D01*
X9725952Y-24254036D01*
X9752310Y-24251202D01*
X9847444Y-24221413D01*
X9908767Y-24187928D01*
X9966985Y-24144347D01*
X10144347Y-23966985D01*
X10162626Y-23946635D01*
X10179260Y-23925993D01*
X10225465Y-23837662D01*
X10225468Y-23837649D01*
X10225854Y-23836697D01*
X10226193Y-23836267D01*
X10228288Y-23832264D01*
X10229047Y-23832661D01*
X10269206Y-23781903D01*
X10335299Y-23759245D01*
X10403151Y-23775916D01*
X10439791Y-23808396D01*
X10448236Y-23819579D01*
X10448236Y-23819580D01*
X10598958Y-23956980D01*
X10598960Y-23956982D01*
X10698141Y-24018392D01*
X10772363Y-24064348D01*
X10962544Y-24138024D01*
X11163024Y-24175500D01*
X11163026Y-24175500D01*
X11366974Y-24175500D01*
X11366976Y-24175500D01*
X11567456Y-24138024D01*
X11757637Y-24064348D01*
X11931041Y-23956981D01*
X12081764Y-23819579D01*
X12204673Y-23656821D01*
X12295582Y-23474250D01*
X12351397Y-23278083D01*
X12370215Y-23075000D01*
X12351397Y-22871917D01*
X12295582Y-22675750D01*
X12204673Y-22493179D01*
X12081764Y-22330421D01*
X11961884Y-22221136D01*
X11925603Y-22161426D01*
X11927364Y-22091579D01*
X11966607Y-22033771D01*
X12030874Y-22006356D01*
X12045423Y-22005500D01*
X13024577Y-22005500D01*
X13091616Y-22025185D01*
X13137371Y-22077989D01*
X13147315Y-22147147D01*
X13118290Y-22210703D01*
X13108115Y-22221137D01*
X12988237Y-22330419D01*
X12865327Y-22493178D01*
X12774422Y-22675739D01*
X12774417Y-22675752D01*
X12718602Y-22871917D01*
X12699785Y-23074999D01*
X12699785Y-23075000D01*
X12718602Y-23278082D01*
X12774417Y-23474247D01*
X12774422Y-23474260D01*
X12865327Y-23656821D01*
X12988237Y-23819581D01*
X13138958Y-23956980D01*
X13138960Y-23956982D01*
X13238141Y-24018392D01*
X13312363Y-24064348D01*
X13502544Y-24138024D01*
X13703024Y-24175500D01*
X13703026Y-24175500D01*
X13906974Y-24175500D01*
X13906976Y-24175500D01*
X14107456Y-24138024D01*
X14297637Y-24064348D01*
X14471041Y-23956981D01*
X14621764Y-23819579D01*
X14744673Y-23656821D01*
X14835582Y-23474250D01*
X14891397Y-23278083D01*
X14910215Y-23075000D01*
X14891397Y-22871917D01*
X14835582Y-22675750D01*
X14744673Y-22493179D01*
X14621764Y-22330421D01*
X14501884Y-22221136D01*
X14465603Y-22161426D01*
X14467364Y-22091579D01*
X14506607Y-22033771D01*
X14570874Y-22006356D01*
X14585423Y-22005500D01*
X15565319Y-22005500D01*
X15632358Y-22025185D01*
X15678113Y-22077989D01*
X15688057Y-22147147D01*
X15659032Y-22210703D01*
X15648857Y-22221137D01*
X15528608Y-22330757D01*
X15405754Y-22493443D01*
X15314886Y-22675930D01*
X15314883Y-22675936D01*
X15259097Y-22872008D01*
X15254186Y-22924999D01*
X15254187Y-22925000D01*
X15867935Y-22925000D01*
X15845000Y-23003111D01*
X15845000Y-23146889D01*
X15867935Y-23225000D01*
X15254187Y-23225000D01*
X15259097Y-23277991D01*
X15314883Y-23474063D01*
X15314886Y-23474069D01*
X15405754Y-23656556D01*
X15528608Y-23819242D01*
X15679260Y-23956578D01*
X15852584Y-24063897D01*
X16042678Y-24137539D01*
X16195000Y-24166013D01*
X16195000Y-23556170D01*
X16202685Y-23559680D01*
X16309237Y-23575000D01*
X16380763Y-23575000D01*
X16487315Y-23559680D01*
X16495000Y-23556170D01*
X16495000Y-24166013D01*
X16647321Y-24137539D01*
X16837415Y-24063897D01*
X17010739Y-23956578D01*
X17161391Y-23819242D01*
X17284245Y-23656556D01*
X17375113Y-23474069D01*
X17375116Y-23474063D01*
X17430902Y-23277991D01*
X17435813Y-23225000D01*
X16822065Y-23225000D01*
X16845000Y-23146889D01*
X16845000Y-23003111D01*
X16822065Y-22925000D01*
X17435813Y-22925000D01*
X17435813Y-22924999D01*
X17430902Y-22872008D01*
X17375116Y-22675936D01*
X17375113Y-22675930D01*
X17284245Y-22493443D01*
X17161391Y-22330757D01*
X17041143Y-22221137D01*
X17004861Y-22161426D01*
X17006622Y-22091578D01*
X17045865Y-22033771D01*
X17110132Y-22006356D01*
X17124681Y-22005500D01*
X18104577Y-22005500D01*
X18171616Y-22025185D01*
X18217371Y-22077989D01*
X18227315Y-22147147D01*
X18198290Y-22210703D01*
X18188115Y-22221137D01*
X18068237Y-22330419D01*
X17945327Y-22493178D01*
X17854422Y-22675739D01*
X17854417Y-22675752D01*
X17798602Y-22871917D01*
X17779785Y-23074999D01*
X17779785Y-23075000D01*
X17798602Y-23278082D01*
X17854417Y-23474247D01*
X17854422Y-23474260D01*
X17945327Y-23656821D01*
X18068237Y-23819581D01*
X18218958Y-23956980D01*
X18218960Y-23956982D01*
X18318141Y-24018392D01*
X18392363Y-24064348D01*
X18582544Y-24138024D01*
X18783024Y-24175500D01*
X18783026Y-24175500D01*
X18986974Y-24175500D01*
X18986976Y-24175500D01*
X19187456Y-24138024D01*
X19377637Y-24064348D01*
X19551041Y-23956981D01*
X19701764Y-23819579D01*
X19824673Y-23656821D01*
X19915582Y-23474250D01*
X19971397Y-23278083D01*
X19990215Y-23075000D01*
X19971397Y-22871917D01*
X19915582Y-22675750D01*
X19824673Y-22493179D01*
X19701764Y-22330421D01*
X19581884Y-22221136D01*
X19545603Y-22161426D01*
X19547364Y-22091579D01*
X19586607Y-22033771D01*
X19650874Y-22006356D01*
X19665423Y-22005500D01*
X20212159Y-22005500D01*
X20279198Y-22025185D01*
X20324953Y-22077989D01*
X20334897Y-22147147D01*
X20333776Y-22153692D01*
X20324500Y-22200323D01*
X20324500Y-23949678D01*
X20339032Y-24022735D01*
X20339033Y-24022739D01*
X20339034Y-24022740D01*
X20394399Y-24105601D01*
X20477260Y-24160966D01*
X20477264Y-24160967D01*
X20550321Y-24175499D01*
X20550324Y-24175500D01*
X20550326Y-24175500D01*
X22299676Y-24175500D01*
X22299677Y-24175499D01*
X22372740Y-24160966D01*
X22455601Y-24105601D01*
X22510966Y-24022740D01*
X22525500Y-23949674D01*
X22525500Y-22200326D01*
X22525500Y-22200323D01*
X22516224Y-22153692D01*
X22522451Y-22084101D01*
X22533405Y-22070000D01*
X25550000Y-22070000D01*
X25550000Y-23094628D01*
X25564503Y-23167540D01*
X25564505Y-23167544D01*
X25619760Y-23250239D01*
X25702455Y-23305494D01*
X25702459Y-23305496D01*
X25775371Y-23319999D01*
X25775374Y-23320000D01*
X27200000Y-23320000D01*
X27200000Y-22070000D01*
X27500000Y-22070000D01*
X27500000Y-23320000D01*
X28924626Y-23320000D01*
X28924628Y-23319999D01*
X28997540Y-23305496D01*
X28997544Y-23305494D01*
X29080239Y-23250239D01*
X29135494Y-23167544D01*
X29135496Y-23167540D01*
X29149999Y-23094628D01*
X29150000Y-23094626D01*
X29150000Y-22070000D01*
X27500000Y-22070000D01*
X27200000Y-22070000D01*
X25550000Y-22070000D01*
X22533405Y-22070000D01*
X22565313Y-22028923D01*
X22631203Y-22005678D01*
X22637841Y-22005500D01*
X23948639Y-22005500D01*
X23950075Y-22005422D01*
X23975952Y-22004036D01*
X24002310Y-22001202D01*
X24097444Y-21971413D01*
X24158767Y-21937928D01*
X24216985Y-21894347D01*
X25319512Y-20791818D01*
X25380835Y-20758334D01*
X25407193Y-20755500D01*
X25426000Y-20755500D01*
X25493039Y-20775185D01*
X25538794Y-20827989D01*
X25550000Y-20879500D01*
X25550000Y-21770000D01*
X27200000Y-21770000D01*
X27200000Y-20520000D01*
X27500000Y-20520000D01*
X27500000Y-21770000D01*
X29150000Y-21770000D01*
X29150000Y-20745373D01*
X29149999Y-20745371D01*
X29135496Y-20672459D01*
X29135494Y-20672455D01*
X29080239Y-20589760D01*
X28997544Y-20534505D01*
X28997540Y-20534503D01*
X28924627Y-20520000D01*
X27500000Y-20520000D01*
X27200000Y-20520000D01*
X26627900Y-20520000D01*
X26560861Y-20500315D01*
X26515106Y-20447511D01*
X26505459Y-20380435D01*
X26505184Y-20380416D01*
X26505274Y-20379151D01*
X26505161Y-20378362D01*
X26505499Y-20376007D01*
X26505500Y-20375998D01*
X26505500Y-20274500D01*
X26499661Y-20220187D01*
X26488455Y-20168676D01*
X26481219Y-20142302D01*
X26464426Y-20112812D01*
X26450563Y-20075645D01*
X26450500Y-20075326D01*
X26440328Y-20024188D01*
X26440328Y-19975810D01*
X26450500Y-19924674D01*
X26450500Y-19575326D01*
X26440328Y-19524188D01*
X26440328Y-19475810D01*
X26450500Y-19424674D01*
X26450500Y-19075326D01*
X26440073Y-19022906D01*
X26440073Y-18974524D01*
X26450000Y-18924623D01*
X26450000Y-18900000D01*
X26389183Y-18900000D01*
X26322144Y-18880315D01*
X26320294Y-18879103D01*
X26287586Y-18857249D01*
X26288409Y-18856016D01*
X26244610Y-18820722D01*
X26222544Y-18754429D01*
X26239822Y-18686729D01*
X26290958Y-18639117D01*
X26297486Y-18636135D01*
X26297738Y-18635966D01*
X26297740Y-18635966D01*
X26307952Y-18629142D01*
X26320294Y-18620897D01*
X26386972Y-18600020D01*
X26389183Y-18600000D01*
X26450000Y-18600000D01*
X26450000Y-18575376D01*
X26440073Y-18525475D01*
X26440073Y-18477091D01*
X26450500Y-18424674D01*
X26450500Y-18075326D01*
X26440328Y-18024188D01*
X26440328Y-17975810D01*
X26450500Y-17924674D01*
X26450500Y-17575326D01*
X26440073Y-17522906D01*
X26440073Y-17474524D01*
X26450000Y-17424623D01*
X26450000Y-17400000D01*
X26445877Y-17395877D01*
X26412392Y-17334554D01*
X26417376Y-17264862D01*
X26445875Y-17220516D01*
X26528050Y-17138342D01*
X26585646Y-17025304D01*
X26585646Y-17025302D01*
X26585647Y-17025301D01*
X26600499Y-16931524D01*
X26600500Y-16931519D01*
X26600499Y-16568482D01*
X26592725Y-16519396D01*
X26592725Y-16480605D01*
X26600500Y-16431519D01*
X26600499Y-16068482D01*
X26585646Y-15974696D01*
X26528050Y-15861658D01*
X26504072Y-15837680D01*
X26470588Y-15776360D01*
X26475572Y-15706668D01*
X26504072Y-15662319D01*
X26528050Y-15638342D01*
X26585646Y-15525304D01*
X26585646Y-15525302D01*
X26585647Y-15525301D01*
X26600499Y-15431524D01*
X26600500Y-15431519D01*
X26600499Y-15068482D01*
X26592725Y-15019396D01*
X26592725Y-14980605D01*
X26600500Y-14931519D01*
X26600499Y-14568482D01*
X26585646Y-14474696D01*
X26528050Y-14361658D01*
X26504072Y-14337680D01*
X26470588Y-14276360D01*
X26475572Y-14206668D01*
X26504072Y-14162319D01*
X26528050Y-14138342D01*
X26585646Y-14025304D01*
X26585646Y-14025302D01*
X26585647Y-14025301D01*
X26600499Y-13931524D01*
X26600500Y-13931519D01*
X26600499Y-13568482D01*
X26592725Y-13519396D01*
X26592725Y-13480605D01*
X26600500Y-13431519D01*
X26600499Y-13068482D01*
X26585646Y-12974696D01*
X26528050Y-12861658D01*
X26504072Y-12837680D01*
X26470588Y-12776360D01*
X26475572Y-12706668D01*
X26504072Y-12662319D01*
X26528050Y-12638342D01*
X26585646Y-12525304D01*
X26585646Y-12525302D01*
X26585647Y-12525301D01*
X26600499Y-12431524D01*
X26600500Y-12431519D01*
X26600499Y-12068482D01*
X26592725Y-12019396D01*
X26592725Y-11980605D01*
X26600500Y-11931519D01*
X26600499Y-11568482D01*
X26585646Y-11474696D01*
X26528050Y-11361658D01*
X26504072Y-11337680D01*
X26470588Y-11276360D01*
X26475572Y-11206668D01*
X26504072Y-11162319D01*
X26528050Y-11138342D01*
X26585646Y-11025304D01*
X26585646Y-11025302D01*
X26585647Y-11025301D01*
X26600499Y-10931524D01*
X26600500Y-10931519D01*
X26600499Y-10568482D01*
X26592725Y-10519396D01*
X26592725Y-10480605D01*
X26600500Y-10431519D01*
X26600499Y-10068482D01*
X26585646Y-9974696D01*
X26528050Y-9861658D01*
X26528046Y-9861654D01*
X26528045Y-9861652D01*
X26445877Y-9779484D01*
X26412392Y-9718161D01*
X26417376Y-9648469D01*
X26445878Y-9604121D01*
X26451663Y-9598335D01*
X26469685Y-9536961D01*
X26522489Y-9491206D01*
X26574000Y-9480000D01*
X27200000Y-9480000D01*
X27200000Y-8230000D01*
X27500000Y-8230000D01*
X27500000Y-9480000D01*
X28924626Y-9480000D01*
X28924628Y-9479999D01*
X28997540Y-9465496D01*
X28997544Y-9465494D01*
X29080239Y-9410239D01*
X29135494Y-9327544D01*
X29135496Y-9327540D01*
X29149999Y-9254628D01*
X29150000Y-9254626D01*
X29150000Y-8230000D01*
X27500000Y-8230000D01*
X27200000Y-8230000D01*
X25550000Y-8230000D01*
X25550000Y-9226000D01*
X25530315Y-9293039D01*
X25477511Y-9338794D01*
X25426000Y-9350000D01*
X25075373Y-9350000D01*
X25002459Y-9364503D01*
X25002455Y-9364505D01*
X24919760Y-9419760D01*
X24864505Y-9502455D01*
X24864503Y-9502459D01*
X24850000Y-9575371D01*
X24850000Y-9635998D01*
X24830315Y-9703037D01*
X24777511Y-9748792D01*
X24734850Y-9759682D01*
X24718587Y-9760845D01*
X24714228Y-9762471D01*
X24688566Y-9769020D01*
X24683968Y-9769681D01*
X24683967Y-9769681D01*
X24639276Y-9790090D01*
X24631103Y-9793475D01*
X24582293Y-9811681D01*
X24538958Y-9819500D01*
X20094865Y-9819500D01*
X20027826Y-9799815D01*
X20007184Y-9783181D01*
X19470727Y-9246725D01*
X19454092Y-9226082D01*
X19451586Y-9222182D01*
X19451584Y-9222181D01*
X19451584Y-9222180D01*
X19414458Y-9190010D01*
X19407981Y-9183979D01*
X19398579Y-9174577D01*
X19398574Y-9174572D01*
X19398569Y-9174568D01*
X19398563Y-9174563D01*
X19387915Y-9166593D01*
X19381035Y-9161049D01*
X19343902Y-9128873D01*
X19343901Y-9128872D01*
X19343896Y-9128869D01*
X19339674Y-9126941D01*
X19316885Y-9113419D01*
X19313171Y-9110639D01*
X19313168Y-9110637D01*
X19267132Y-9093467D01*
X19258964Y-9090083D01*
X19214294Y-9069683D01*
X19214292Y-9069682D01*
X19214291Y-9069682D01*
X19209700Y-9069022D01*
X19184022Y-9062468D01*
X19179669Y-9060845D01*
X19169723Y-9060133D01*
X19130672Y-9057340D01*
X19121882Y-9056395D01*
X19108699Y-9054500D01*
X19108696Y-9054500D01*
X19095375Y-9054500D01*
X19086529Y-9054184D01*
X19037552Y-9050681D01*
X19037551Y-9050681D01*
X19037550Y-9050681D01*
X19037548Y-9050681D01*
X19033011Y-9051667D01*
X19006662Y-9054500D01*
X16833141Y-9054500D01*
X16766102Y-9034815D01*
X16720347Y-8982011D01*
X16710403Y-8912853D01*
X16739428Y-8849297D01*
X16757654Y-8832125D01*
X16799788Y-8799793D01*
X16799787Y-8799793D01*
X16799791Y-8799791D01*
X16884024Y-8690018D01*
X16936974Y-8562183D01*
X16955035Y-8425000D01*
X16936974Y-8287817D01*
X16884024Y-8159983D01*
X16799791Y-8050209D01*
X16799789Y-8050208D01*
X16799789Y-8050207D01*
X16690015Y-7965974D01*
X16603164Y-7930000D01*
X25550000Y-7930000D01*
X27200000Y-7930000D01*
X27200000Y-6680000D01*
X27500000Y-6680000D01*
X27500000Y-7930000D01*
X29150000Y-7930000D01*
X29150000Y-6905373D01*
X29149999Y-6905371D01*
X29135496Y-6832459D01*
X29135494Y-6832455D01*
X29080239Y-6749760D01*
X28997544Y-6694505D01*
X28997540Y-6694503D01*
X28924627Y-6680000D01*
X27500000Y-6680000D01*
X27200000Y-6680000D01*
X25775373Y-6680000D01*
X25702459Y-6694503D01*
X25702455Y-6694505D01*
X25619760Y-6749760D01*
X25564505Y-6832455D01*
X25564503Y-6832459D01*
X25550000Y-6905371D01*
X25550000Y-7930000D01*
X16603164Y-7930000D01*
X16562186Y-7913027D01*
X16562184Y-7913026D01*
X16562183Y-7913026D01*
X16470727Y-7900985D01*
X16425001Y-7894965D01*
X16424999Y-7894965D01*
X16356408Y-7903995D01*
X16287817Y-7913026D01*
X16287816Y-7913026D01*
X16287813Y-7913027D01*
X16159985Y-7965974D01*
X16105096Y-8008092D01*
X16050209Y-8050209D01*
X16050208Y-8050210D01*
X16050207Y-8050211D01*
X16048375Y-8052599D01*
X16046314Y-8054103D01*
X16044462Y-8055956D01*
X16044173Y-8055667D01*
X15991947Y-8093802D01*
X15922201Y-8097956D01*
X15861281Y-8063743D01*
X15851625Y-8052599D01*
X15849791Y-8050209D01*
X15740015Y-7965974D01*
X15612186Y-7913027D01*
X15612184Y-7913026D01*
X15612183Y-7913026D01*
X15520727Y-7900985D01*
X15475001Y-7894965D01*
X15474999Y-7894965D01*
X15406408Y-7903995D01*
X15337817Y-7913026D01*
X15337816Y-7913026D01*
X15337813Y-7913027D01*
X15209985Y-7965974D01*
X15100206Y-8050211D01*
X15073375Y-8085179D01*
X15016947Y-8126382D01*
X14947201Y-8130536D01*
X14886281Y-8096323D01*
X14876625Y-8085179D01*
X14849791Y-8050209D01*
X14740015Y-7965974D01*
X14612186Y-7913027D01*
X14612184Y-7913026D01*
X14612183Y-7913026D01*
X14520727Y-7900985D01*
X14475001Y-7894965D01*
X14474999Y-7894965D01*
X14406408Y-7903995D01*
X14337817Y-7913026D01*
X14337816Y-7913026D01*
X14337813Y-7913027D01*
X14209985Y-7965974D01*
X14100204Y-8050213D01*
X14100174Y-8050244D01*
X14100141Y-8050261D01*
X14093762Y-8055157D01*
X14092998Y-8054161D01*
X14038848Y-8083723D01*
X13969156Y-8078733D01*
X13931647Y-8054624D01*
X13931239Y-8055157D01*
X13924861Y-8050263D01*
X13924819Y-8050236D01*
X13924796Y-8050213D01*
X13815015Y-7965974D01*
X13687186Y-7913027D01*
X13687184Y-7913026D01*
X13687183Y-7913026D01*
X13595727Y-7900985D01*
X13550001Y-7894965D01*
X13549999Y-7894965D01*
X13481408Y-7903995D01*
X13412817Y-7913026D01*
X13412816Y-7913026D01*
X13412813Y-7913027D01*
X13284985Y-7965974D01*
X13175209Y-8050209D01*
X13090974Y-8159985D01*
X13038027Y-8287813D01*
X13038026Y-8287818D01*
X13019965Y-8424999D01*
X13019965Y-8425000D01*
X13038026Y-8562181D01*
X13038027Y-8562186D01*
X13090974Y-8690015D01*
X13090975Y-8690017D01*
X13090976Y-8690018D01*
X13172223Y-8795900D01*
X13175211Y-8799793D01*
X13217346Y-8832125D01*
X13258548Y-8888553D01*
X13262703Y-8958299D01*
X13228490Y-9019219D01*
X13166773Y-9051971D01*
X13141859Y-9054500D01*
X12016597Y-9054500D01*
X11990247Y-9051667D01*
X11985711Y-9050681D01*
X11985707Y-9050681D01*
X11945523Y-9053555D01*
X11936733Y-9054184D01*
X11927888Y-9054500D01*
X11914563Y-9054500D01*
X11908528Y-9055367D01*
X11901370Y-9056396D01*
X11892584Y-9057341D01*
X11843586Y-9060846D01*
X11843585Y-9060846D01*
X11839235Y-9062469D01*
X11813571Y-9069020D01*
X11808966Y-9069682D01*
X11808961Y-9069683D01*
X11764274Y-9090091D01*
X11756100Y-9093477D01*
X11710094Y-9110636D01*
X11710089Y-9110639D01*
X11706368Y-9113425D01*
X11683588Y-9126941D01*
X11679358Y-9128873D01*
X11642240Y-9161034D01*
X11635363Y-9166577D01*
X11624684Y-9174572D01*
X11615254Y-9184001D01*
X11608789Y-9190019D01*
X11571675Y-9222180D01*
X11569165Y-9226086D01*
X11552535Y-9246720D01*
X11016077Y-9783181D01*
X10954754Y-9816666D01*
X10928396Y-9819500D01*
X5461041Y-9819500D01*
X5417705Y-9811681D01*
X5414911Y-9810638D01*
X5414910Y-9810638D01*
X5385893Y-9799815D01*
X5368872Y-9793466D01*
X5360697Y-9790079D01*
X5316037Y-9769683D01*
X5316032Y-9769682D01*
X5311441Y-9769022D01*
X5285763Y-9762468D01*
X5281410Y-9760845D01*
X5265150Y-9759682D01*
X5199687Y-9735263D01*
X5157817Y-9679328D01*
X5150000Y-9635998D01*
X5150000Y-9575373D01*
X5149999Y-9575371D01*
X5135496Y-9502459D01*
X5135494Y-9502455D01*
X5080239Y-9419760D01*
X4997544Y-9364505D01*
X4997540Y-9364503D01*
X4924627Y-9350000D01*
X4574000Y-9350000D01*
X4506961Y-9330315D01*
X4461206Y-9277511D01*
X4450000Y-9226000D01*
X4450000Y-8230000D01*
X2800000Y-8230000D01*
X2800000Y-9480000D01*
X3426000Y-9480000D01*
X3493039Y-9499685D01*
X3538794Y-9552489D01*
X3548887Y-9598887D01*
X3554122Y-9604122D01*
X3587607Y-9665445D01*
X3582623Y-9735137D01*
X3554123Y-9779484D01*
X3471951Y-9861656D01*
X3471951Y-9861657D01*
X3414352Y-9974698D01*
X3399500Y-10068475D01*
X3399500Y-10431519D01*
X3407274Y-10480606D01*
X3407273Y-10519397D01*
X3399500Y-10568475D01*
X3399500Y-10931517D01*
X3410292Y-10999657D01*
X3414354Y-11025304D01*
X3471950Y-11138342D01*
X3471952Y-11138344D01*
X3471954Y-11138347D01*
X3495926Y-11162319D01*
X3529411Y-11223642D01*
X3524427Y-11293334D01*
X3495926Y-11337681D01*
X3471954Y-11361652D01*
X3471951Y-11361657D01*
X3414352Y-11474698D01*
X3399500Y-11568475D01*
X3399500Y-11931519D01*
X3407274Y-11980606D01*
X3407273Y-12019397D01*
X3399500Y-12068475D01*
X3399500Y-12431517D01*
X3410292Y-12499657D01*
X3414354Y-12525304D01*
X3471950Y-12638342D01*
X3471952Y-12638344D01*
X3471954Y-12638347D01*
X3495926Y-12662319D01*
X3529411Y-12723642D01*
X3524427Y-12793334D01*
X3495926Y-12837681D01*
X3471954Y-12861652D01*
X3471951Y-12861657D01*
X3414352Y-12974698D01*
X3399500Y-13068475D01*
X3399500Y-13431519D01*
X3407274Y-13480606D01*
X3407273Y-13519397D01*
X3399500Y-13568475D01*
X3399500Y-13931517D01*
X3410292Y-13999657D01*
X3414354Y-14025304D01*
X3471950Y-14138342D01*
X3471952Y-14138344D01*
X3471954Y-14138347D01*
X3495926Y-14162319D01*
X3529411Y-14223642D01*
X3524427Y-14293334D01*
X3495926Y-14337681D01*
X3471954Y-14361652D01*
X3471951Y-14361657D01*
X3414352Y-14474698D01*
X3399500Y-14568475D01*
X3399500Y-14931519D01*
X3407274Y-14980606D01*
X3407273Y-15019397D01*
X3399500Y-15068475D01*
X3399500Y-15431517D01*
X3410292Y-15499657D01*
X3414354Y-15525304D01*
X3471950Y-15638342D01*
X3471952Y-15638344D01*
X3471954Y-15638347D01*
X3495926Y-15662319D01*
X3529411Y-15723642D01*
X3524427Y-15793334D01*
X3495926Y-15837681D01*
X3471954Y-15861652D01*
X3471951Y-15861657D01*
X3414352Y-15974698D01*
X3399500Y-16068475D01*
X3399500Y-16431519D01*
X3407274Y-16480606D01*
X3407273Y-16519397D01*
X3399500Y-16568475D01*
X3399500Y-16931517D01*
X3410292Y-16999657D01*
X3414354Y-17025304D01*
X3471950Y-17138342D01*
X3471952Y-17138344D01*
X3471954Y-17138347D01*
X3554122Y-17220515D01*
X3587607Y-17281838D01*
X3582623Y-17351530D01*
X3554123Y-17395876D01*
X3550000Y-17399999D01*
X3550000Y-17424623D01*
X3559926Y-17474527D01*
X3559926Y-17522906D01*
X3549500Y-17575325D01*
X3549500Y-17924673D01*
X3559671Y-17975810D01*
X3559671Y-18024190D01*
X3549500Y-18075326D01*
X3549500Y-18424673D01*
X3559926Y-18477091D01*
X3559926Y-18525470D01*
X3550000Y-18575375D01*
X3550000Y-18600000D01*
X3610817Y-18600000D01*
X3677856Y-18619685D01*
X3679706Y-18620897D01*
X3712414Y-18642751D01*
X3711590Y-18643983D01*
X3755391Y-18679281D01*
X3777455Y-18745576D01*
X3760175Y-18813275D01*
X3709037Y-18860885D01*
X3702512Y-18863864D01*
X3679706Y-18879103D01*
X3613028Y-18899980D01*
X3610817Y-18900000D01*
X3550000Y-18900000D01*
X3550000Y-18924623D01*
X3559926Y-18974527D01*
X3559926Y-19022906D01*
X3549500Y-19075325D01*
X3549500Y-19424673D01*
X3559671Y-19475810D01*
X3559671Y-19524190D01*
X3549500Y-19575326D01*
X3549500Y-19924673D01*
X3559671Y-19975810D01*
X3559671Y-20024190D01*
X3549500Y-20075326D01*
X3549500Y-20230854D01*
X3548238Y-20248499D01*
X3544500Y-20274496D01*
X3544500Y-20376005D01*
X3545225Y-20382747D01*
X3532818Y-20451506D01*
X3485207Y-20502643D01*
X3421935Y-20520000D01*
X2800000Y-20520000D01*
X2800000Y-21770000D01*
X2500000Y-21770000D01*
X2500000Y-20520000D01*
X1075373Y-20520000D01*
X1002459Y-20534503D01*
X1002455Y-20534505D01*
X919760Y-20589760D01*
X864505Y-20672455D01*
X864503Y-20672459D01*
X850000Y-20745371D01*
X850000Y-21770000D01*
X300500Y-21770000D01*
X300500Y-8230000D01*
X850000Y-8230000D01*
X850000Y-9254628D01*
X864503Y-9327540D01*
X864505Y-9327544D01*
X919760Y-9410239D01*
X1002455Y-9465494D01*
X1002459Y-9465496D01*
X1075371Y-9479999D01*
X1075374Y-9480000D01*
X2500000Y-9480000D01*
X2500000Y-8230000D01*
X850000Y-8230000D01*
X300500Y-8230000D01*
X300500Y-8010000D01*
X7514722Y-8010000D01*
X7533762Y-8166818D01*
X7568688Y-8258908D01*
X7589780Y-8314523D01*
X7679517Y-8444530D01*
X7797760Y-8549283D01*
X7797762Y-8549284D01*
X7937634Y-8622696D01*
X8091014Y-8660500D01*
X8091015Y-8660500D01*
X8248985Y-8660500D01*
X8402365Y-8622696D01*
X8542240Y-8549283D01*
X8660483Y-8444530D01*
X8750220Y-8314523D01*
X8806237Y-8166818D01*
X8825278Y-8010000D01*
X8813504Y-7913027D01*
X8806237Y-7853181D01*
X8784992Y-7797164D01*
X8750220Y-7705477D01*
X8660483Y-7575470D01*
X8542240Y-7470717D01*
X8542238Y-7470716D01*
X8542237Y-7470715D01*
X8402365Y-7397303D01*
X8248986Y-7359500D01*
X8248985Y-7359500D01*
X8091015Y-7359500D01*
X8091014Y-7359500D01*
X7937634Y-7397303D01*
X7797762Y-7470715D01*
X7679516Y-7575471D01*
X7589781Y-7705475D01*
X7589780Y-7705476D01*
X7533762Y-7853181D01*
X7514722Y-8009999D01*
X7514722Y-8010000D01*
X300500Y-8010000D01*
X300500Y-7930000D01*
X850000Y-7930000D01*
X2500000Y-7930000D01*
X2500000Y-6680000D01*
X2800000Y-6680000D01*
X2800000Y-7930000D01*
X4450000Y-7930000D01*
X4450000Y-6905373D01*
X4449999Y-6905371D01*
X4435496Y-6832459D01*
X4435494Y-6832455D01*
X4380239Y-6749760D01*
X4297544Y-6694505D01*
X4297540Y-6694503D01*
X4224627Y-6680000D01*
X2800000Y-6680000D01*
X2500000Y-6680000D01*
X1075373Y-6680000D01*
X1002459Y-6694503D01*
X1002455Y-6694505D01*
X919760Y-6749760D01*
X864505Y-6832455D01*
X864503Y-6832459D01*
X850000Y-6905371D01*
X850000Y-7930000D01*
X300500Y-7930000D01*
X300500Y-6310000D01*
X5134722Y-6310000D01*
X5153762Y-6466818D01*
X5156685Y-6474524D01*
X5209780Y-6614523D01*
X5299517Y-6744530D01*
X5417760Y-6849283D01*
X5417762Y-6849284D01*
X5557634Y-6922696D01*
X5711014Y-6960500D01*
X5711015Y-6960500D01*
X5868985Y-6960500D01*
X6022365Y-6922696D01*
X6055371Y-6905373D01*
X6162240Y-6849283D01*
X6280483Y-6744530D01*
X6370220Y-6614523D01*
X6426237Y-6466818D01*
X6445278Y-6310000D01*
X6428279Y-6170000D01*
X10424722Y-6170000D01*
X10443762Y-6326818D01*
X10496858Y-6466818D01*
X10499780Y-6474523D01*
X10589517Y-6604530D01*
X10707760Y-6709283D01*
X10707762Y-6709284D01*
X10847634Y-6782696D01*
X11001014Y-6820500D01*
X11001015Y-6820500D01*
X11158985Y-6820500D01*
X11312365Y-6782696D01*
X11452240Y-6709283D01*
X11570483Y-6604530D01*
X11660220Y-6474523D01*
X11716237Y-6326818D01*
X11735278Y-6170000D01*
X11716237Y-6013182D01*
X11703160Y-5978702D01*
X11664010Y-5875471D01*
X11660220Y-5865477D01*
X11570483Y-5735470D01*
X11452240Y-5630717D01*
X11452238Y-5630716D01*
X11452237Y-5630715D01*
X11312365Y-5557303D01*
X11158986Y-5519500D01*
X11158985Y-5519500D01*
X11001015Y-5519500D01*
X11001014Y-5519500D01*
X10847634Y-5557303D01*
X10707762Y-5630715D01*
X10589516Y-5735471D01*
X10499781Y-5865475D01*
X10499780Y-5865476D01*
X10443762Y-6013181D01*
X10424722Y-6169999D01*
X10424722Y-6170000D01*
X6428279Y-6170000D01*
X6426237Y-6153182D01*
X6370220Y-6005477D01*
X6280483Y-5875470D01*
X6162240Y-5770717D01*
X6162238Y-5770716D01*
X6162237Y-5770715D01*
X6022365Y-5697303D01*
X5868986Y-5659500D01*
X5868985Y-5659500D01*
X5711015Y-5659500D01*
X5711014Y-5659500D01*
X5557634Y-5697303D01*
X5417762Y-5770715D01*
X5299516Y-5875471D01*
X5209781Y-6005475D01*
X5209780Y-6005476D01*
X5153762Y-6153181D01*
X5134722Y-6309999D01*
X5134722Y-6310000D01*
X300500Y-6310000D01*
X300500Y-4856016D01*
X320185Y-4788977D01*
X372989Y-4743222D01*
X442147Y-4733278D01*
X505703Y-4762303D01*
X525628Y-4784259D01*
X568388Y-4844523D01*
X611269Y-4904959D01*
X839570Y-5160426D01*
X839573Y-5160429D01*
X1095040Y-5388730D01*
X1095046Y-5388734D01*
X1095047Y-5388735D01*
X1374479Y-5587002D01*
X1674352Y-5752736D01*
X1990896Y-5883853D01*
X2320130Y-5978704D01*
X2657914Y-6036096D01*
X3000000Y-6055307D01*
X3342086Y-6036096D01*
X3679870Y-5978704D01*
X4009104Y-5883853D01*
X4325648Y-5752736D01*
X4625521Y-5587002D01*
X4904953Y-5388735D01*
X5160428Y-5160428D01*
X5388735Y-4904953D01*
X5534156Y-4700000D01*
X7194722Y-4700000D01*
X7213762Y-4856818D01*
X7232020Y-4904959D01*
X7269780Y-5004523D01*
X7359517Y-5134530D01*
X7477760Y-5239283D01*
X7477762Y-5239284D01*
X7617634Y-5312696D01*
X7771014Y-5350500D01*
X7771015Y-5350500D01*
X7928985Y-5350500D01*
X8082365Y-5312696D01*
X8222240Y-5239283D01*
X8340483Y-5134530D01*
X8430220Y-5004523D01*
X8486237Y-4856818D01*
X8502242Y-4725000D01*
X9669722Y-4725000D01*
X9688762Y-4881818D01*
X9723923Y-4974528D01*
X9744780Y-5029523D01*
X9834517Y-5159530D01*
X9952760Y-5264283D01*
X9952762Y-5264284D01*
X10092634Y-5337696D01*
X10246014Y-5375500D01*
X10246015Y-5375500D01*
X10403985Y-5375500D01*
X10557365Y-5337696D01*
X10604998Y-5312696D01*
X10697240Y-5264283D01*
X10815483Y-5159530D01*
X10905220Y-5029523D01*
X10961237Y-4881818D01*
X10980278Y-4725000D01*
X10977243Y-4700000D01*
X10961237Y-4568181D01*
X10950549Y-4540000D01*
X22654722Y-4540000D01*
X22673762Y-4696818D01*
X22708714Y-4788977D01*
X22729780Y-4844523D01*
X22819517Y-4974530D01*
X22937760Y-5079283D01*
X22937762Y-5079284D01*
X23077634Y-5152696D01*
X23231014Y-5190500D01*
X23231015Y-5190500D01*
X23388985Y-5190500D01*
X23542365Y-5152696D01*
X23576981Y-5134528D01*
X23682240Y-5079283D01*
X23800483Y-4974530D01*
X23890220Y-4844523D01*
X23946237Y-4696818D01*
X23965278Y-4540000D01*
X23950766Y-4420477D01*
X23946237Y-4383181D01*
X23901595Y-4265471D01*
X23890220Y-4235477D01*
X23800483Y-4105470D01*
X23682240Y-4000717D01*
X23682238Y-4000716D01*
X23682237Y-4000715D01*
X23542365Y-3927303D01*
X23388986Y-3889500D01*
X23388985Y-3889500D01*
X23231015Y-3889500D01*
X23231014Y-3889500D01*
X23077634Y-3927303D01*
X22937762Y-4000715D01*
X22819516Y-4105471D01*
X22729781Y-4235475D01*
X22729780Y-4235476D01*
X22673762Y-4383181D01*
X22654722Y-4539999D01*
X22654722Y-4540000D01*
X10950549Y-4540000D01*
X10939992Y-4512164D01*
X10905220Y-4420477D01*
X10815483Y-4290470D01*
X10697240Y-4185717D01*
X10697238Y-4185716D01*
X10697237Y-4185715D01*
X10557365Y-4112303D01*
X10403986Y-4074500D01*
X10403985Y-4074500D01*
X10246015Y-4074500D01*
X10246014Y-4074500D01*
X10092634Y-4112303D01*
X9952762Y-4185715D01*
X9952760Y-4185717D01*
X9862737Y-4265470D01*
X9834516Y-4290471D01*
X9744781Y-4420475D01*
X9744780Y-4420476D01*
X9688762Y-4568181D01*
X9669722Y-4724999D01*
X9669722Y-4725000D01*
X8502242Y-4725000D01*
X8505278Y-4700000D01*
X8489273Y-4568181D01*
X8486237Y-4543181D01*
X8464992Y-4487164D01*
X8430220Y-4395477D01*
X8340483Y-4265470D01*
X8222240Y-4160717D01*
X8222238Y-4160716D01*
X8222237Y-4160715D01*
X8082365Y-4087303D01*
X7928986Y-4049500D01*
X7928985Y-4049500D01*
X7771015Y-4049500D01*
X7771014Y-4049500D01*
X7617634Y-4087303D01*
X7477762Y-4160715D01*
X7359516Y-4265471D01*
X7269781Y-4395475D01*
X7269780Y-4395476D01*
X7213762Y-4543181D01*
X7194722Y-4699999D01*
X7194722Y-4700000D01*
X5534156Y-4700000D01*
X5587002Y-4625521D01*
X5752736Y-4325648D01*
X5883853Y-4009104D01*
X5978704Y-3679870D01*
X6036096Y-3342086D01*
X6055307Y-3000000D01*
X6036096Y-2657914D01*
X6009265Y-2500000D01*
X6994353Y-2500000D01*
X7014834Y-2642456D01*
X7074622Y-2773371D01*
X7074623Y-2773373D01*
X7168872Y-2882143D01*
X7289947Y-2959953D01*
X7289950Y-2959954D01*
X7289949Y-2959954D01*
X7367403Y-2982696D01*
X7426336Y-3000000D01*
X7428036Y-3000499D01*
X7428038Y-3000500D01*
X7428039Y-3000500D01*
X7571962Y-3000500D01*
X7571962Y-3000499D01*
X7710053Y-2959953D01*
X7831128Y-2882143D01*
X7925377Y-2773373D01*
X7985165Y-2642457D01*
X8005647Y-2500000D01*
X7986956Y-2370000D01*
X9844722Y-2370000D01*
X9863762Y-2526818D01*
X9919780Y-2674523D01*
X10009517Y-2804530D01*
X10127760Y-2909283D01*
X10127762Y-2909284D01*
X10267634Y-2982696D01*
X10421014Y-3020500D01*
X10421015Y-3020500D01*
X10578985Y-3020500D01*
X10732365Y-2982696D01*
X10752447Y-2972156D01*
X10872240Y-2909283D01*
X10990483Y-2804530D01*
X11080220Y-2674523D01*
X11136237Y-2526818D01*
X11155278Y-2370000D01*
X11153766Y-2357543D01*
X11136237Y-2213181D01*
X11100085Y-2117857D01*
X11080220Y-2065477D01*
X10990483Y-1935470D01*
X10984309Y-1930000D01*
X19294722Y-1930000D01*
X19313762Y-2086818D01*
X19335675Y-2144596D01*
X19369780Y-2234523D01*
X19459517Y-2364530D01*
X19577760Y-2469283D01*
X19577762Y-2469284D01*
X19717634Y-2542696D01*
X19871014Y-2580500D01*
X19871015Y-2580500D01*
X20028985Y-2580500D01*
X20182365Y-2542696D01*
X20322240Y-2469283D01*
X20440483Y-2364530D01*
X20530220Y-2234523D01*
X20586237Y-2086818D01*
X20605278Y-1930000D01*
X20591386Y-1815584D01*
X20586237Y-1773181D01*
X20548756Y-1674352D01*
X20530220Y-1625477D01*
X20440483Y-1495470D01*
X20322240Y-1390717D01*
X20322238Y-1390716D01*
X20322237Y-1390715D01*
X20182365Y-1317303D01*
X20028986Y-1279500D01*
X20028985Y-1279500D01*
X19871015Y-1279500D01*
X19871014Y-1279500D01*
X19717634Y-1317303D01*
X19577762Y-1390715D01*
X19459516Y-1495471D01*
X19369781Y-1625475D01*
X19369780Y-1625476D01*
X19313762Y-1773181D01*
X19294722Y-1929999D01*
X19294722Y-1930000D01*
X10984309Y-1930000D01*
X10872240Y-1830717D01*
X10872238Y-1830716D01*
X10872237Y-1830715D01*
X10732365Y-1757303D01*
X10578986Y-1719500D01*
X10578985Y-1719500D01*
X10421015Y-1719500D01*
X10421014Y-1719500D01*
X10267634Y-1757303D01*
X10127762Y-1830715D01*
X10127760Y-1830717D01*
X10015692Y-1930000D01*
X10009516Y-1935471D01*
X9919781Y-2065475D01*
X9919780Y-2065476D01*
X9863762Y-2213181D01*
X9844722Y-2369999D01*
X9844722Y-2370000D01*
X7986956Y-2370000D01*
X7985165Y-2357543D01*
X7925377Y-2226627D01*
X7831128Y-2117857D01*
X7710053Y-2040047D01*
X7710051Y-2040046D01*
X7710049Y-2040045D01*
X7710050Y-2040045D01*
X7571963Y-1999500D01*
X7571961Y-1999500D01*
X7428039Y-1999500D01*
X7428036Y-1999500D01*
X7289949Y-2040045D01*
X7168873Y-2117856D01*
X7074623Y-2226626D01*
X7074622Y-2226628D01*
X7014834Y-2357543D01*
X6994353Y-2500000D01*
X6009265Y-2500000D01*
X5978704Y-2320130D01*
X5883853Y-1990896D01*
X5752736Y-1674352D01*
X5587002Y-1374479D01*
X5388735Y-1095047D01*
X5388734Y-1095046D01*
X5388730Y-1095040D01*
X5160429Y-839573D01*
X5160426Y-839570D01*
X4904959Y-611269D01*
X4784261Y-525630D01*
X4740977Y-470782D01*
X4734217Y-401240D01*
X4766128Y-339083D01*
X4826577Y-304045D01*
X4856016Y-300500D01*
X25143984Y-300500D01*
X25211023Y-320185D01*
G37*
%TD.AperFunction*%
%TD*%
%TA.AperFunction,Conductor*%
%TO.N,/VDD33*%
G36*
X12092815Y-20170185D02*
G01*
X12138570Y-20222989D01*
X12141716Y-20230524D01*
X12169780Y-20304523D01*
X12259517Y-20434530D01*
X12377760Y-20539283D01*
X12377762Y-20539284D01*
X12517634Y-20612696D01*
X12671014Y-20650500D01*
X12671015Y-20650500D01*
X12828985Y-20650500D01*
X12982365Y-20612696D01*
X13026753Y-20589399D01*
X13122240Y-20539283D01*
X13240483Y-20434530D01*
X13240483Y-20434528D01*
X13243695Y-20431684D01*
X13306929Y-20401963D01*
X13325922Y-20400500D01*
X14179092Y-20400500D01*
X14179094Y-20400500D01*
X14200162Y-20393654D01*
X14219078Y-20389112D01*
X14240965Y-20385646D01*
X14260705Y-20375586D01*
X14278672Y-20368144D01*
X14299751Y-20361296D01*
X14317687Y-20348263D01*
X14334249Y-20338114D01*
X14354003Y-20328050D01*
X14369495Y-20312557D01*
X14369502Y-20312552D01*
X14495235Y-20186819D01*
X14556558Y-20153334D01*
X14582916Y-20150500D01*
X26126000Y-20150500D01*
X26193039Y-20170185D01*
X26238794Y-20222989D01*
X26250000Y-20274500D01*
X26250000Y-20376000D01*
X26230315Y-20443039D01*
X26177511Y-20488794D01*
X26126000Y-20500000D01*
X25249999Y-20500000D01*
X24036319Y-21713681D01*
X23974996Y-21747166D01*
X23948638Y-21750000D01*
X10749999Y-21750000D01*
X10000000Y-22499999D01*
X10000000Y-23698638D01*
X9980315Y-23765677D01*
X9963681Y-23786319D01*
X9786319Y-23963681D01*
X9724996Y-23997166D01*
X9698638Y-24000000D01*
X8051362Y-24000000D01*
X7984323Y-23980315D01*
X7963681Y-23963681D01*
X5484706Y-21484706D01*
X5456446Y-21440997D01*
X5420220Y-21345477D01*
X5330483Y-21215470D01*
X5212240Y-21110717D01*
X5212238Y-21110716D01*
X5212237Y-21110715D01*
X5072365Y-21037303D01*
X5072361Y-21037302D01*
X5059395Y-21034106D01*
X5001391Y-21001391D01*
X4500000Y-20500000D01*
X3924000Y-20500000D01*
X3856961Y-20480315D01*
X3811206Y-20427511D01*
X3800000Y-20376000D01*
X3800000Y-20274500D01*
X3819685Y-20207461D01*
X3872489Y-20161706D01*
X3924000Y-20150500D01*
X4318481Y-20150500D01*
X12025776Y-20150500D01*
X12092815Y-20170185D01*
G37*
%TD.AperFunction*%
%TD*%
M02*
